<?xml version="1.0" standalone="no"?>
<!DOCTYPE svg PUBLIC "-//W3C//DTD SVG 20010904//EN"
 "http://www.w3.org/TR/2001/REC-SVG-20010904/DTD/svg10.dtd">
<svg version="1.0" xmlns="http://www.w3.org/2000/svg"
 width="666.000000pt" height="666.000000pt" viewBox="0 0 666.000000 666.000000"
 preserveAspectRatio="xMidYMid meet">
<metadata>
Created by potrace 1.11, written by Peter Selinger 2001-2013
</metadata>
<g transform="translate(0.000000,666.000000) scale(0.100000,-0.100000)"
fill="#000000" stroke="none">
<path d="M3110 6654 c-19 -2 -84 -9 -145 -15 -1439 -143 -2649 -1266 -2909
-2699 -42 -231 -51 -342 -51 -610 0 -268 9 -379 51 -610 244 -1344 1320 -2420
2664 -2664 231 -42 342 -51 610 -51 268 0 379 9 610 51 1344 244 2420 1320
2664 2664 42 231 51 342 51 610 0 268 -9 379 -51 610 -213 1177 -1066 2160
-2209 2547 -207 70 -419 118 -657 149 -115 15 -547 27 -628 18z m-1368 -2031
l28 -27 0 -872 c0 -520 4 -914 10 -975 40 -401 260 -587 670 -565 260 13 410
100 500 288 77 159 73 109 77 1173 l4 950 26 27 27 28 181 0 181 0 28 -29 27
-28 -4 -934 c-3 -832 -5 -944 -20 -1029 -50 -270 -117 -418 -260 -567 -200
-209 -446 -297 -822 -296 -362 1 -625 96 -810 295 -142 151 -217 319 -261 580
-15 91 -18 210 -21 1027 l-4 924 27 28 28 29 180 0 180 0 28 -27z m3555 5 c22
-21 23 -28 23 -167 0 -198 8 -191 -197 -191 l-153 0 0 -1035 0 -1035 152 0
c206 0 198 7 198 -189 0 -135 -1 -146 -22 -168 l-21 -23 -542 0 -541 0 -27 28
c-27 28 -27 30 -27 163 0 135 0 135 28 162 28 27 29 27 180 27 l152 0 0 1035
0 1035 -153 0 -153 0 -27 28 c-27 28 -27 30 -27 162 0 132 0 134 27 162 l27
28 540 0 540 0 23 -22z"/>
</g>
</svg>
