<svg width="16" height="2080" xmlns="http://www.w3.org/2000/svg" xmlns:xlink="http://www.w3.org/1999/xlink">
  <defs>
    <symbol viewBox="0 0 16 16" id="archive">
      <path d="M6 0v2h2v2H6v2h2v2H6v2H4V8h2V6H4V4h2V2H4V0h2zM4 12a1 1 0 0 1 1-1h2a1 1 0 0 1 1 1v3a1 1 0 0 1-1 1H5a1 1 0 0 1-1-1v-3zm1 1v2h2v-2H5zm9-7.5a.5.5 0 0 1-.5.5.5.5 0 0 1-.5-.5V2H9.5a.5.5 0 0 1-.5-.5.5.5 0 0 1 .5-.5h4a.5.5 0 0 1 .5.5v4zm-14-4A.5.5 0 0 1 .5 1H2a.5.5 0 1 1 0 1H1v12h1a.5.5 0 1 1 0 1H.5a.5.5 0 0 1-.5-.5v-13zm13.354 8.354L11.207 12H15.5a.5.5 0 1 1 0 1h-4.293l2.147 2.147a.5.5 0 0 1 0 .706.5.5 0 0 1-.707 0l-3-3a.5.5 0 0 1 0-.706l3-3a.5.5 0 0 1 .706 0 .5.5 0 0 1 0 .706z" />
    </symbol>
    <symbol viewBox="0 0 16 16" id="arrow-diagonal-out">
      <path d="M15.707.293A.9968.9968 0 0 1 16 1v7c0 .5523-.4478 1-1 1s-1-.4477-1-1V3.414l-7.293 7.293c-.3903.3907-1.0236.3907-1.414 0a.9996.9996 0 0 1 0-1.414L12.5859 2H8c-.5522 0-1-.4478-1-1s.4478-1 1-1h7a.9966.9966 0 0 1 .707.293zM1.5 3C.6716 3 0 3.6714 0 4.5v10c0 .8286.6716 1.5 1.5 1.5h10c.8284 0 1.5-.6714 1.5-1.5v-5c0-.2764-.2239-.5-.5-.5s-.5.2236-.5.5v5c0 .2764-.2239.5-.5.5h-10a.4998.4998 0 0 1-.5-.5v-10c0-.2764.2239-.5.5-.5h5c.2761 0 .5-.2236.5-.5S6.7761 3 6.5 3h-5z" />
    </symbol>
    <symbol viewBox="0 0 16 16" id="arrow-down">
      <path d="M7 1c0-.5522.4478-1 1-1 .5523 0 1 .4478 1 1v11.6001l3.293-3.293c.3903-.3906 1.0237-.3906 1.414 0 .3907.3906.3907 1.024 0 1.4141l-4.9497 4.9502a1.0045 1.0045 0 0 1-.1538.126A.997.997 0 0 1 8 16a.997.997 0 0 1-.6035-.2026 1.0045 1.0045 0 0 1-.1538-.126L2.293 10.7212c-.3907-.3901-.3907-1.0235 0-1.414.3903-.3907 1.0236-.3907 1.414 0L7 12.6V1z" />
    </symbol>
    <symbol viewBox="0 0 16 16" id="arrow-down-in">
      <path d="M14.5 15a.5.5 0 0 0 .5-.5v-8a.5.5 0 0 0-.5-.5h-2a.5.5 0 0 1 0-1h2c.8284 0 1.5.6716 1.5 1.5v8c0 .8284-.6716 1.5-1.5 1.5h-13C.6716 16 0 15.3284 0 14.5v-8C0 5.6716.6716 5 1.5 5h2a.5.5 0 0 1 0 1h-2a.5.5 0 0 0-.5.5v8a.5.5 0 0 0 .5.5h13zM9 1v8.6001l1.293-1.293c.3903-.3906 1.0237-.3906 1.414 0 .3907.3906.3907 1.024 0 1.414l-2.8283 2.8287a.9943.9943 0 0 1-.1221.104A.998.998 0 0 1 8 13a.998.998 0 0 1-.7566-.3462.9943.9943 0 0 1-.122-.104L4.293 9.7212c-.3907-.3902-.3907-1.0235 0-1.414.3903-.3907 1.0236-.3907 1.414 0L7 9.6V1c0-.5522.4478-1 1-1 .5523 0 1 .4478 1 1z" />
    </symbol>
    <symbol viewBox="0 0 16 16" id="arrow-down-out">
      <path d="M1.5 1a.5.5 0 0 0-.5.5v6a.5.5 0 0 0 .5.5h2a.5.5 0 0 1 0 1h-2C.6716 9 0 8.3284 0 7.5v-6C0 .6716.6716 0 1.5 0h13c.8284 0 1.5.6716 1.5 1.5v6c0 .8284-.6716 1.5-1.5 1.5h-2a.5.5 0 0 1 0-1h2a.5.5 0 0 0 .5-.5v-6a.5.5 0 0 0-.5-.5h-13zM7 4c0-.5522.4478-1 1-1 .5523 0 1 .4478 1 1v8.6001l1.293-1.293c.3903-.3906 1.0237-.3906 1.414 0 .3907.3906.3907 1.024 0 1.414l-2.8283 2.8287a.9933.9933 0 0 1-.1221.104A.998.998 0 0 1 8 16a.998.998 0 0 1-.7566-.3462.9933.9933 0 0 1-.122-.104L4.293 12.7212c-.3907-.3902-.3907-1.0235 0-1.414.3903-.3907 1.0236-.3907 1.414 0L7 12.6V4z" />
    </symbol>
    <symbol viewBox="0 0 16 16" id="arrow-down-tray">
      <path d="M8 0c-.5522 0-1 .4478-1 1v8.6001l-1.293-1.293c-.3903-.3906-1.0236-.3906-1.414 0-.3907.3906-.3907 1.024 0 1.414l2.8283 2.8287a.9943.9943 0 0 0 .1221.104A.998.998 0 0 0 8 13a.998.998 0 0 0 .7566-.3462.9943.9943 0 0 0 .122-.104l2.8284-2.8286c.3907-.3902.3907-1.0235 0-1.414-.3903-.3907-1.0237-.3907-1.414 0L9 9.6V1c0-.5522-.4477-1-1-1zM1 12.5c0-.2764-.2239-.5-.5-.5s-.5.2236-.5.5v2c0 .8286.6716 1.5 1.5 1.5h13c.8284 0 1.5-.6714 1.5-1.5v-2c0-.2764-.2239-.5-.5-.5s-.5.2236-.5.5v2c0 .2764-.2239.5-.5.5h-13a.4998.4998 0 0 1-.5-.5v-2z" />
    </symbol>
    <symbol viewBox="0 0 16 16" id="arrow-left">
      <path d="M6.6929 2.293a1 1 0 0 1 0 1.414L3.3999 7h11.6c.5523 0 1 .4477 1 1 0 .5522-.4477 1-1 1H3.4l3.293 3.293a1 1 0 0 1 0 1.414.9998.9998 0 0 1-1.4143 0L.3289 8.7573a.9888.9888 0 0 1-.1253-.1523A.9959.9959 0 0 1 0 8c0-.2276.0759-.437.2036-.605a.9888.9888 0 0 1 .1253-.1523L5.2786 2.293a.9999.9999 0 0 1 1.4143 0z" />
    </symbol>
    <symbol viewBox="0 0 16 16" id="arrow-right">
      <path d="M9.3071 2.293a1 1 0 0 0 0 1.414L12.6001 7h-11.6c-.5523 0-1 .4477-1 1 0 .5522.4477 1 1 1h11.6l-3.293 3.293a1 1 0 0 0 0 1.414.9998.9998 0 0 0 1.4143 0l4.9497-4.9497a.9888.9888 0 0 0 .1253-.1523A.9959.9959 0 0 0 16 8a.9959.9959 0 0 0-.2036-.605.9888.9888 0 0 0-.1253-.1523L10.7214 2.293a.9999.9999 0 0 0-1.4143 0z" />
    </symbol>
    <symbol viewBox="0 0 16 16" id="arrow-up">
      <path d="M2.293 6.6929a1 1 0 0 0 1.414 0L7 3.3999V15c0 .5522.4478 1 1 1 .5523 0 1-.4478 1-1V3.3999l3.293 3.293a1 1 0 0 0 1.414 0 .9998.9998 0 0 0 0-1.4143L8.7573.3289A.9888.9888 0 0 0 8.605.2036.9959.9959 0 0 0 8 0a.9959.9959 0 0 0-.605.2036.9888.9888 0 0 0-.1523.1253L2.293 5.2786a.9999.9999 0 0 0 0 1.4143z" />
    </symbol>
    <symbol viewBox="0 0 16 16" id="arrow-up-in">
      <path d="M1.5 1a.5.5 0 0 0-.5.5v8a.5.5 0 0 0 .5.5h2a.5.5 0 0 1 0 1h-2C.6716 11 0 10.3284 0 9.5v-8C0 .6716.6716 0 1.5 0h13c.8284 0 1.5.6716 1.5 1.5v8c0 .8284-.6716 1.5-1.5 1.5h-2a.5.5 0 0 1 0-1h2a.5.5 0 0 0 .5-.5v-8a.5.5 0 0 0-.5-.5h-13zM7 15V6.3999l-1.293 1.293c-.3903.3906-1.0236.3906-1.414 0-.3907-.3906-.3907-1.024 0-1.414l2.8283-2.8287a.9926.9926 0 0 1 .1221-.104A.998.998 0 0 1 8 3a.998.998 0 0 1 .7566.3462.9926.9926 0 0 1 .122.104l2.8284 2.8286c.3907.3901.3907 1.0234 0 1.414-.3903.3907-1.0237.3907-1.414 0L9 6.4V15c0 .5522-.4477 1-1 1-.5522 0-1-.4478-1-1z" />
    </symbol>
    <symbol viewBox="0 0 16 16" id="arrow-up-out">
      <path d="M1.5 15h13a.5.5 0 0 0 .5-.5v-6a.5.5 0 0 0-.5-.5h-2a.5.5 0 0 1 0-1h2c.8284 0 1.5.6716 1.5 1.5v6c0 .8284-.6716 1.5-1.5 1.5h-13C.6716 16 0 15.3284 0 14.5v-6C0 7.6716.6716 7 1.5 7h2a.5.5 0 0 1 0 1h-2a.5.5 0 0 0-.5.5v6a.5.5 0 0 0 .5.5zM7 12V3.3999l-1.293 1.293c-.3903.3906-1.0236.3906-1.414 0-.3907-.3906-.3907-1.024 0-1.414L7.1213.4501a.9933.9933 0 0 1 .1221-.104A.998.998 0 0 1 8 0a.998.998 0 0 1 .7566.3462.9933.9933 0 0 1 .122.104l2.8284 2.8286c.3907.3902.3907 1.0234 0 1.414-.3903.3907-1.0237.3907-1.414 0L9 3.4V12c0 .5522-.4477 1-1 1-.5522 0-1-.4478-1-1z" />
    </symbol>
    <symbol viewBox="0 0 16 16" id="arrow-up-tray">
      <path d="M8 13c-.5522 0-1-.4478-1-1V3.3999l-1.293 1.293c-.3903.3906-1.0236.3906-1.414 0-.3907-.3906-.3907-1.024 0-1.414L7.1213.4501a.9933.9933 0 0 1 .1221-.104A.998.998 0 0 1 8 0a.998.998 0 0 1 .7566.3462.9933.9933 0 0 1 .122.104l2.8284 2.8286c.3907.3902.3907 1.0234 0 1.414-.3903.3907-1.0237.3907-1.414 0L9 3.4V12c0 .5522-.4477 1-1 1zm-7-.5v2c0 .2764.2239.5.5.5h13c.2761 0 .5-.2236.5-.5v-2c0-.2764.2239-.5.5-.5s.5.2236.5.5v2c0 .8286-.6716 1.5-1.5 1.5h-13C.6716 16 0 15.3286 0 14.5v-2c0-.2764.2239-.5.5-.5s.5.2236.5.5z" />
    </symbol>
    <symbol viewBox="0 0 16 16" id="arrows-four-directions">
      <path d="M10.4734 3.6415L9.0203 2.1908v4.7876h4.7876l-1.4507-1.4541c-.1929-.1948-.1919-.5117 0-.7066h-.0049a.4925.4925 0 0 1 .7009 0l2.803 2.8287c.1902.1933.1921.5083.002.703l-.002.006s-.0029 0-.0039.0019l-2.7971 2.8252c-.1929.1929-.5078.1948-.7019 0h.0061a.5065.5065 0 0 1-.0012-.709l1.4504-1.4531H9.0213v4.7871l1.4521-1.4492c.196-.1919.512-.1934.709.001v-.0064a.495.495 0 0 1 0 .7012l-2.825 2.7978c-.002.001-.002.0035-.002.0035-.0021.0019-.004.0019-.006.0029-.1951.1899-.51.188-.703-.0029l-2.829-2.8023a.4932.4932 0 0 1 0-.7012v.0054c.195-.1924.512-.1934.707 0l1.4549 1.4512V9.0204H2.1909l1.4505 1.4531a.5063.5063 0 0 1-.001.709h.006c-.194.1948-.508.1929-.701 0L.1473 8.3573c-.001-.002-.0031-.002-.0031-.002-.002-.0019-.002-.0039-.003-.0058-.1899-.1948-.188-.5098.003-.7031l2.802-2.8286c.1931-.1954.509-.1954.7012 0h-.0052c.1922.1948.1932.5117 0 .7065l-1.4509 1.455h4.7869V2.1919L5.5244 3.6425c-.195.1928-.512.1919-.707 0v.0039a.4932.4932 0 0 1 0-.7012L7.6464.1434c.193-.1899.5079-.1919.703-.002l.008.005 2.825 2.7978c.1931.1944.195.5083 0 .7022v-.005a.5076.5076 0 0 1-.709 0z" />
    </symbol>
    <symbol viewBox="0 0 16 16" id="arrows-loop">
      <path d="M12.3535.6465a.4998.4998 0 0 0-.707 0 .4998.4998 0 0 0 0 .707L13.293 3H2c-.5522 0-1 .4478-1 1v3c0 .5522.4478 1 1 1s1-.4478 1-1V5h10.293l-1.6465 1.6465a.4999.4999 0 0 0 0 .707.4998.4998 0 0 0 .707 0l3-3a.4999.4999 0 0 0 0-.707l-3-3zM14 8c.5522 0 1 .4477 1 1v3c0 .5522-.4478 1-1 1H2.707l1.6465 1.6465a.4998.4998 0 0 1 0 .707.4999.4999 0 0 1-.707 0l-3-3a.4998.4998 0 0 1 0-.707l3-3a.4998.4998 0 0 1 .707 0 .4998.4998 0 0 1 0 .707L2.707 11H13V9c0-.5523.4478-1 1-1z" />
    </symbol>
    <symbol viewBox="0 0 16 16" id="backup">
      <path fill-rule="evenodd" d="M1 15c0 .5518.445 1 1 1h12c.5549 0 1-.4482 1-1V1c0-.5518-.4451-1-1-1H2c-.555 0-1 .4482-1 1v14zM2 1h12v11H2V1zm12 12H2v2h12v-2zM8.9998 9.371c0-.245.175-.4506.4033-.539.9343-.3623 1.5967-1.27 1.5967-2.332 0-1.3809-1.1194-2.5-2.5-2.5-1.3807 0-2.5 1.1191-2.5 2.5l1.2-.8999a.4994.4994 0 0 1 .6999.1001.4995.4995 0 0 1-.0999.6997l-2 1.5a.4994.4994 0 0 1-.7-.1001l-1.5-2a.4995.4995 0 0 1 .1-.6997.4994.4994 0 0 1 .6999.1001l.63.8398C5.2552 4.3242 6.7228 3 8.4998 3c1.9332 0 3.5001 1.5669 3.5001 3.5 0 1.5571-1.0167 2.8765-2.4224 3.3306-.2981.0967-.5776-.1465-.5776-.4595z" />
    </symbol>
    <symbol viewBox="0 0 16 16" id="card">
      <path fill-rule="evenodd" d="M15 3H7v10h8V3zM6 7V3H1v4h5zM1 8h5v5H1V8zM0 8V3c0-.5522.4478-1 1-1h14c.5522 0 1 .4478 1 1v10c0 .5522-.4478 1-1 1H1c-.5522 0-1-.4478-1-1V8zm2 1.5c0-.2764.2239-.5.5-.5h2c.2761 0 .5.2236.5.5s-.2239.5-.5.5h-2a.4999.4999 0 0 1-.5-.5zm.5 1.5c-.2761 0-.5.2236-.5.5s.2239.5.5.5h2c.2761 0 .5-.2236.5-.5s-.2239-.5-.5-.5h-2zM8 5.5c0-.2764.2239-.5.5-.5h5c.2761 0 .5.2236.5.5s-.2239.5-.5.5h-5a.4999.4999 0 0 1-.5-.5zM8.5 7c-.2761 0-.5.2236-.5.5s.2239.5.5.5h5c.2761 0 .5-.2236.5-.5s-.2239-.5-.5-.5h-5zM8 9.5c0-.2764.2239-.5.5-.5h5c.2761 0 .5.2236.5.5s-.2239.5-.5.5h-5a.4999.4999 0 0 1-.5-.5zm.5 1.5c-.2761 0-.5.2236-.5.5s.2239.5.5.5h5c.2761 0 .5-.2236.5-.5s-.2239-.5-.5-.5h-5z" />
    </symbol>
    <symbol viewBox="0 0 16 16" id="card-row">
      <path fill-rule="evenodd" d="M6 3h9v3H6V3zM5 2h10c.5522 0 1 .4478 1 1v3c0 .5522-.4478 1-1 1H1c-.5522 0-1-.4478-1-1V3c0-.5522.4478-1 1-1h4zm0 4H1V3h4v3zm3-1.5c0-.2764.2239-.5.5-.5h4c.2761 0 .5.2236.5.5s-.2239.5-.5.5h-4a.4999.4999 0 0 1-.5-.5zM6 10h9v3H6v-3zM5 9h10c.5522 0 1 .4477 1 1v3c0 .5522-.4478 1-1 1H1c-.5522 0-1-.4478-1-1v-3c0-.5523.4478-1 1-1h4zm0 4H1v-3h4v3zm3-1.5c0-.2764.2239-.5.5-.5h4c.2761 0 .5.2236.5.5s-.2239.5-.5.5h-4a.4999.4999 0 0 1-.5-.5z" />
    </symbol>
    <symbol viewBox="0 0 16 16" id="card-tile">
      <path fill-rule="evenodd" d="M12 2H4v4h8V2zm0 5H4v7h8V7zM4 1c-.5522 0-1 .4478-1 1v12c0 .5522.4478 1 1 1h8c.5523 0 1-.4478 1-1V2c0-.5522-.4477-1-1-1H4zm1 9.5c0-.2764.2239-.5.5-.5h5c.2761 0 .5.2236.5.5s-.2239.5-.5.5h-5a.4999.4999 0 0 1-.5-.5zM5.5 8c-.2761 0-.5.2236-.5.5s.2239.5.5.5h5c.2761 0 .5-.2236.5-.5s-.2239-.5-.5-.5h-5zM5 12.5c0-.2764.2239-.5.5-.5h5c.2761 0 .5.2236.5.5s-.2239.5-.5.5h-5a.4998.4998 0 0 1-.5-.5z" />
    </symbol>
    <symbol viewBox="0 0 16 16" id="chain">
      <path d="M10.4593 9.759l-4.217-4.217c-.387-.388-.388-1.016 0-1.402l3.849-3.848a.9904.9904 0 0 1 .7-.292c.254 0 .508.097.701.291l4.218 4.217c.388.387.388 1.015 0 1.403l-3.848 3.848a.9911.9911 0 0 1-.702.29.9888.9888 0 0 1-.701-.29zm-3.51-4.913l4.217 4.205 3.837-3.848-4.212-4.199-3.842 3.842zm-.0066 2.797l2.3503-2.35c.3905-.3905 1.0236-.3905 1.4142 0 .3905.3905.3905 1.0237 0 1.4142L8.3566 9.0576l1.4008 1.4014c.388.386.388 1.015 0 1.402l-3.848 3.848a.9968.9968 0 0 1-.701.291.9928.9928 0 0 1-.7-.291l-4.217-4.217c-.388-.385-.388-1.015-.001-1.402l3.848-3.849a.9912.9912 0 0 1 .701-.289.99.99 0 0 1 .702.289l1.4013 1.402zm-.7056.7057L4.8394 6.955l-3.843 3.842 4.218 4.205 3.836-3.848-1.3971-1.393-.9462.9461c-.3905.3905-1.0237.3905-1.4142 0-.3905-.3905-.3905-1.0237 0-1.4142l.9442-.9442z" />
    </symbol>
    <symbol viewBox="0 0 16 16" id="chain-broken">
      <path d="M6.2368 8.3493L4.8395 6.956l-3.843 3.842 4.218 4.205 3.836-3.848-1.3977-1.3937-.9455.9457c-.3904.3907-1.0237.3907-1.414 0a.9996.9996 0 0 1 0-1.414l.9435-.9437zm3.526-.698l1.4037 1.3997 3.837-3.848-4.212-4.199-3.842 3.842 1.3972 1.3933.9465-.9463c.3904-.3907 1.0237-.3907 1.4141 0a.9997.9997 0 0 1 0 1.414l-.9445.9443zM1.1984.1551c.053-.053.127-.08.202-.073.073.007.142.048.184.11l2.942 4.413-4.415-2.941a.2498.2498 0 0 1-.11-.185.2514.2514 0 0 1 .071-.201l1.126-1.123zm10.2779 11.403l4.414 2.941c.063.041.103.107.109.184.007.074-.02.148-.072.201l-1.125 1.125a.2458.2458 0 0 1-.201.071.2547.2547 0 0 1-.184-.109l-2.941-4.413zM10.4595 9.76l-4.217-4.217c-.387-.388-.387-1.016 0-1.402l3.849-3.849a.9904.9904 0 0 1 .7-.292c.254.001.507.098.701.292l4.217 4.217c.389.386.389 1.015.001 1.403l-3.848 3.848a.9911.9911 0 0 1-.702.29.9871.9871 0 0 1-.701-.29zm-4.918-3.518l4.217 4.218c.387.386.387 1.015-.001 1.402l-3.848 3.848c-.195.193-.448.291-.701.291-.253 0-.506-.098-.701-.291l-4.217-4.217c-.387-.385-.387-1.015 0-1.402l3.848-3.849a.9912.9912 0 0 1 .701-.289c.254-.001.508.097.702.289z" />
    </symbol>
    <symbol viewBox="0 0 16 16" id="check-mark">
      <path d="M14.5735 2.1809c.4524.3167.5624.9402.2457 1.3927l-7 9.9999a1 1 0 0 1-1.5263.1337l-5-5c-.3905-.3905-.3905-1.0237 0-1.4142.3905-.3906 1.0237-.3906 1.4142 0l4.1572 4.1572 6.3165-9.0236c.3167-.4524.9402-.5625 1.3927-.2457z" />
    </symbol>
    <symbol viewBox="0 0 16 16" id="check-mark-circle">
      <path d="M8 0c4.419 0 8 3.582 8 8 0 4.419-3.581 8-8 8-4.418 0-8-3.581-8-8 0-4.418 3.582-8 8-8zm0 15c3.859 0 7-3.141 7-7 0-3.86-3.141-7-7-7-3.86 0-7 3.141-7 7s3.141 7 7 7zm3.6247-9.7808c.4313.345.5012.9743.1562 1.4055l-4 5a1 1 0 0 1-1.5617 0l-2-2.5c-.345-.4312-.2751-1.0605.1561-1.4055.4313-.345 1.0606-.2751 1.4056.1561L7 9.3993l3.2192-4.024c.345-.4312.9743-.5011 1.4055-.1561z" />
    </symbol>
    <symbol viewBox="0 0 16 16" id="check-mark-circle-filled">
      <path fill-rule="evenodd" d="M8 16c4.4182 0 8-3.5815 8-8s-3.5818-8-8-8C3.5818 0 0 3.5815 0 8s3.5818 8 8 8zm3.781-9.3755c.345-.4311.2749-1.0605-.1562-1.4053-.4314-.3452-1.0606-.2753-1.4056.1563L7 9.3995l-1.219-1.524a.9997.9997 0 0 0-1.4058-.1563c-.4311.3448-.501.9742-.156 1.4053l2 2.5a.9997.9997 0 0 0 1.5618 0l4-5z" />
    </symbol>
    <symbol viewBox="0 0 16 16" id="chevron-down">
      <path d="M.2408 4.3492c.3594-.4193.9907-.4679 1.41-.1084L8 9.6829l6.3492-5.4421c.4194-.3595 1.0507-.3109 1.4101.1084.3594.4194.3108 1.0507-.1085 1.41l-7 6a1 1 0 0 1-1.3016 0l-7-6c-.4193-.3594-.4679-.9906-.1084-1.41z" />
    </symbol>
    <symbol viewBox="0 0 16 16" id="chevron-left">
      <path d="M11.6508.2407c.4193.3595.4679.9908.1084 1.41L6.3171 8l5.4421 6.3492c.3595.4194.3109 1.0507-.1084 1.41-.4194.3595-1.0507.3109-1.41-.1084l-6-7a1 1 0 0 1 0-1.3016l6-7c.3593-.4193.9906-.4679 1.41-.1085z" />
    </symbol>
    <symbol viewBox="0 0 16 16" id="chevron-right">
      <path d="M4.3492 15.7592c-.4193-.3594-.4679-.9907-.1085-1.41L9.683 8 4.2407 1.6508C3.8813 1.2314 3.93.6001 4.3492.2407c.4193-.3594 1.0506-.3108 1.41.1085l6 7a1 1 0 0 1 0 1.3016l-6 7c-.3594.4193-.9907.4679-1.41.1084z" />
    </symbol>
    <symbol viewBox="0 0 16 16" id="chevron-up">
      <path d="M.2408 11.6508c.3594.4193.9907.4679 1.41.1085L8 6.317l6.3492 5.4422c.4194.3594 1.0507.3108 1.4101-.1085.3594-.4193.3108-1.0506-.1085-1.41l-7-6a1 1 0 0 0-1.3016 0l-7 6c-.4193.3594-.4679.9907-.1084 1.41z" />
    </symbol>
    <symbol viewBox="0 0 16 16" id="clean">
      <path d="M1.707.293C1.3167-.0977.6833-.0977.293.293a.9996.9996 0 0 0 0 1.414l3.5034 3.5034-1.0259 1.0728a.5014.5014 0 0 0 0 .708l.708.707c.1941.1939.512.1939.707 0l3.449-3.6074a.502.502 0 0 0 0-.707l-.707-.7066a.501.501 0 0 0-.708 0L5.179 3.7652 1.707.293zm7.2845 5.4492c.063 0 .104.0151.1189.024l5.8901 3.667c-.0044.0077-.2691.4423-.9168 1.2177l-2.8723-2.0962c-.2209-.1616-.5349-.1138-.698.1094-.1631.2207-.1159.5356.1079.6987l2.8011 2.0449a30.2916 30.2916 0 0 1-.9849 1.0293c-.365.3648-.7014.6846-1.0068.9629l-2.175-2.9468c-.1632-.2221-.4771-.2671-.698-.105a.4992.4992 0 0 0-.105.6988l2.2236 3.0127c-.7906.6596-1.2422.9297-1.276.9297l-3.687-5.837c-.0439-.0693-.0239-.252.035-.31l3.039-3.039c.0252-.025.105-.0611.2042-.0611zm0-1c-.3382 0-.6812.123-.9122.354l-3.0378 3.039c-.3892.3878-.467 1.088-.173 1.5528l3.6879 5.8364c.1919.3057.531.4756.875.4756.178 0 .356-.0459.519-.1426 0 0 1.1871-.7031 3.1961-2.7134 2.011-2.0117 2.7129-3.1958 2.7129-3.1958.281-.474.1291-1.099-.3379-1.3881l-5.883-3.644c-.191-.1168-.418-.174-.647-.174z" />
    </symbol>
    <symbol viewBox="0 0 16 16" id="clock">
      <path d="M8 0c4.419 0 8 3.582 8 8 0 4.419-3.581 8-8 8-4.418 0-8-3.581-8-8 0-4.418 3.582-8 8-8zm0 1C4.142 1 1 4.142 1 8c0 3.859 3.141 7 7 7s7-3.141 7-7c0-3.86-3.141-7-7-7zm0 1.5c.5523 0 1 .4477 1 1V7h2.5c.5523 0 1 .4477 1 1s-.4477 1-1 1H8c-.5523 0-1-.4477-1-1V3.5c0-.5523.4477-1 1-1z" />
    </symbol>
    <symbol viewBox="0 0 16 16" id="copy">
      <path fill-rule="evenodd" d="M2 2c0-.5522.4478-1 1-1h7c.5523 0 1 .4478 1 1v9c0 .5522-.4477 1-1 1H3c-.5522 0-1-.4478-1-1V2zm1 0h7v9H3V2zm2 12v-.5c0-.2764.2239-.5.5-.5s.5.2236.5.5v.5h7V5h-.5a.4999.4999 0 0 1-.5-.5c0-.2764.2239-.5.5-.5h.5c.5522 0 1 .4478 1 1v9c0 .5522-.4478 1-1 1H6c-.5522 0-1-.4478-1-1z" />
    </symbol>
    <symbol viewBox="0 0 16 16" id="cross-mark">
      <path d="M2.2928 12.2427a1 1 0 0 0 0 1.414.9998.9998 0 0 0 1.4143 0L7.9495 9.414l4.2429 4.243c.3907.3903 1.0237.3903 1.4144 0 .3903-.3905.3903-1.0238 0-1.4144L9.3638 8l4.2427-4.2427c.3906-.3906.3906-1.024 0-1.414-.3904-.3907-1.0237-.3907-1.4141 0L7.9498 6.5859 3.707 2.3433c-.3904-.3907-1.0237-.3907-1.414 0-.3907.3906-.3907 1.0239 0 1.414L6.5354 8l-4.2427 4.2427z" />
    </symbol>
    <symbol viewBox="0 0 16 16" id="cross-mark-circle">
      <path fill-rule="evenodd" d="M15 8c0 3.8662-3.134 7-7 7s-7-3.1338-7-7 3.134-7 7-7 7 3.1338 7 7zm1 0c0 4.4185-3.5818 8-8 8-4.4182 0-8-3.5815-8-8s3.5818-8 8-8c4.4182 0 8 3.5815 8 8zM4.2927 11.6567a1 1 0 0 1 0-1.414L6.5354 8 4.293 5.7573c-.3907-.3901-.3907-1.0234 0-1.414.3903-.3907 1.0236-.3907 1.414 0l2.2427 2.2426 2.2427-2.2426c.3904-.3907 1.0237-.3907 1.414 0 .3907.3901.3907 1.0234 0 1.414L9.3638 8l2.2429 2.2427c.3904.3906.3904 1.0239 0 1.4145-.3906.3902-1.0237.3902-1.4143 0l-2.243-2.2431-2.2424 2.2426a.9998.9998 0 0 1-1.4143 0z" />
    </symbol>
    <symbol viewBox="0 0 16 16" id="cross-mark-circle-filled">
      <path fill-rule="evenodd" d="M16 8c0 4.4185-3.5818 8-8 8-4.4182 0-8-3.5815-8-8s3.5818-8 8-8c4.4182 0 8 3.5815 8 8zM4.293 11.6567a1 1 0 0 1 0-1.414L6.5356 8 4.2932 5.7573c-.3906-.3901-.3906-1.0234 0-1.414.3904-.3907 1.0237-.3907 1.414 0L7.95 6.5859l2.2426-2.2426c.3904-.3907 1.0237-.3907 1.4141 0 .3906.3901.3906 1.0234 0 1.414L9.364 8l2.2429 2.2427c.3904.3906.3904 1.0239 0 1.4145-.3906.3902-1.0236.3902-1.4143 0L7.9497 9.4141l-2.2424 2.2426a.9998.9998 0 0 1-1.4143 0z" />
    </symbol>
    <symbol viewBox="0 0 16 16" id="dollar">
      <path fill-rule="evenodd" d="M15 8c0 3.8662-3.134 7-7 7s-7-3.1338-7-7 3.134-7 7-7 7 3.1338 7 7zm1 0c0 4.4185-3.5818 8-8 8-4.4182 0-8-3.5815-8-8s3.5818-8 8-8c4.4182 0 8 3.5815 8 8zM7.629 5.46c-.5763.0732-1.006.3955-1.006.9619 0 .3955.2442.7031.7715.8935a2.193 2.193 0 0 0 .2344.0781V5.46zm.6737 5.122c.6641-.0586 1.123-.4248 1.123-1.0351 0-.4785-.249-.791-.9863-1.0157a1.8656 1.8656 0 0 1-.1367-.0341v2.0849zm0 .8155l.005.6201h-.6934v-.6153c-1.46-.1074-2.1045-.9765-2.1143-1.8847h.962c.039.5469.4296.9619 1.167 1.0595V8.3506l-.3858-.0977c-.8155-.1953-1.5918-.7031-1.5918-1.7578 0-1.1377.8642-1.748 1.9677-1.8555V4h.6885v.6348c1.1182.1123 1.9434.791 1.9727 1.8408H9.333c-.0146-.503-.3906-.9277-1.0303-1.0156v2.0947l.3955.0928c1.0108.249 1.6993.7324 1.6993 1.8164 0 1.1718-.874 1.8261-2.0948 1.9336z" />
    </symbol>
    <symbol viewBox="0 0 16 16" id="dollar-filled">
      <path fill-rule="evenodd" d="M8 16c4.4182 0 8-3.5815 8-8s-3.5818-8-8-8C3.5818 0 0 3.5815 0 8s3.5818 8 8 8zM7.629 5.46c-.5763.0732-1.006.3955-1.006.9619 0 .3955.2442.7031.7715.8935a2.193 2.193 0 0 0 .2344.0781V5.46zm.6737 5.122c.6641-.0586 1.123-.4248 1.123-1.0351 0-.4785-.249-.791-.9863-1.0157a1.8656 1.8656 0 0 1-.1367-.0341v2.0849zm0 .8155l.005.6201h-.6934v-.6153c-1.46-.1074-2.1045-.9765-2.1143-1.8847h.962c.039.5469.4296.9619 1.167 1.0595V8.3506l-.3858-.0977c-.8155-.1953-1.5918-.7031-1.5918-1.7578 0-1.1377.8642-1.748 1.9677-1.8555V4h.6885v.6348c1.1182.1123 1.9434.791 1.9727 1.8408H9.333c-.0146-.503-.3906-.9277-1.0303-1.0156v2.0947l.3955.0928c1.0108.249 1.6993.7324 1.6993 1.8164 0 1.1718-.874 1.8261-2.0948 1.9336z" />
    </symbol>
    <symbol viewBox="0 0 16 16" id="exclamation-mark-circle">
      <path d="M8 0c4.419 0 8 3.582 8 8 0 4.419-3.581 8-8 8-4.418 0-8-3.581-8-8 0-4.418 3.582-8 8-8zm0 1C4.141 1 1 4.14 1 8c0 3.859 3.14 7 7 7 3.859 0 7-3.141 7-7s-3.141-7-7-7zm0 3c.5523 0 1 .4478 1 1v3c0 .5523-.4477 1-1 1-.5522 0-1-.4477-1-1V5c0-.5522.4478-1 1-1zm0 6c.5523 0 1 .4478 1 1s-.4477 1-1 1c-.5522 0-1-.4478-1-1s.4478-1 1-1z" />
    </symbol>
    <symbol viewBox="0 0 16 16" id="exclamation-mark-circle-filled">
      <path fill-rule="evenodd" d="M8 16c4.4182 0 8-3.5815 8-8s-3.5818-8-8-8C3.5818 0 0 3.5815 0 8s3.5818 8 8 8zM7 5c0-.5522.4478-1 1-1 .5523 0 1 .4478 1 1v3c0 .5523-.4477 1-1 1-.5522 0-1-.4477-1-1V5zm0 6c0-.5522.4478-1 1-1 .5523 0 1 .4478 1 1s-.4477 1-1 1c-.5522 0-1-.4478-1-1z" />
    </symbol>
    <symbol viewBox="0 0 16 16" id="eye">
      <path d="M15.9628 8.008c.051.081.051.477-.001.557-.7201 2.456-4.009 5.008-7.962 5.008-3.95 0-7.237-2.548-7.96-5.004-.053-.082-.053-.483 0-.565C.7627 5.548 4.0497 3 7.9997 3c3.953 0 7.242 2.552 7.963 5.008zm-7.963 4.627c3.5389 0 6.4589-2.223 7.061-4.348-.603-2.125-3.5221-4.347-7.061-4.347-3.537 0-6.457 2.223-7.06 4.347.602 2.124 3.523 4.348 7.06 4.348zm-.0002-8.76c2.43 0 4.399 1.97 4.399 4.4 0 2.43-1.969 4.4-4.399 4.4-2.431 0-4.401-1.97-4.401-4.4 0-2.43 1.97-4.4 4.401-4.4zm0 1c-1.875 0-3.401 1.526-3.401 3.4 0 1.875 1.526 3.4 3.401 3.4 1.874 0 3.399-1.525 3.399-3.4s-1.525-3.4-3.399-3.4z" />
    </symbol>
    <symbol viewBox="0 0 16 16" id="eye-closed">
      <path d="M3.5403 12.4347C1.7534 11.4633.4611 10.0003.0397 8.5688c-.053-.082-.053-.4829 0-.5649C.7627 5.548 4.0497 3 7.9997 3c1.1186 0 2.184.2046 3.1532.5533L13.6204.6746a.5.5 0 1 1 .7592.6508l-12 14a.5.5 0 1 1-.7592-.6508l1.92-2.24zm.617-.7198l.4974-.5803a4.3816 4.3816 0 0 1-1.0561-2.8597c0-2.0547 1.409-3.7808 3.3142-4.2647-3.0352.3936-5.4331 2.375-5.9732 4.277.3611 1.2737 1.556 2.5834 3.2177 3.4277zm1.1593-1.3526L9.652 5.3045a3.3775 3.3775 0 0 0-1.6524-.4295c-1.875 0-3.401 1.5259-3.401 3.3999 0 .7863.2684 1.511.7181 2.0874zm4.9972-5.83l.1849-.2157a8.5229 8.5229 0 0 0-1.4145-.3068 4.3759 4.3759 0 0 1 1.2296.5225zm1.4166 1.41a4.38 4.38 0 0 1 .6682 2.3326c0 2.1362-1.5215 3.917-3.5405 4.3164 3.1445-.3208 5.6499-2.3535 6.2026-4.3042-.3203-1.1284-1.2934-2.2842-2.6657-3.1201l.6076-.7085c1.5064.958 2.5835 2.2666 2.96 3.5493.051.081.051.477-.001.5571-.72 2.4561-4.009 5.0083-7.962 5.0083a9.2813 9.2813 0 0 1-2.5116-.3476l.6784-.792c.3162.0698.641.123.9727.1572a4.3632 4.3632 0 0 1-.875-.271l.6929-.8086c.3286.106.679.1636 1.0425.1636 1.874 0 3.3991-1.5249 3.3991-3.3999a3.377 3.377 0 0 0-.3611-1.524l.6929-.8085z" />
    </symbol>
    <symbol viewBox="0 0 16 16" id="filter">
      <path fill-rule="evenodd" d="M9.2192 8.3755L9 8.6495v4.7323l-2 1V8.6494l-.2192-.274L3.2805 4h9.439L9.2192 8.3755zM13 3V2H3v1h10zM6 14.3818V9L2.2192 4.274A.9996.9996 0 0 1 2 3.6493V2c0-.5522.4478-1 1-1h10c.5522 0 1 .4478 1 1v1.6494a.9998.9998 0 0 1-.2192.6245L10 9v4.3818c0 .3789-.2141.7251-.5527.8946l-2 1C6.7823 15.6089 6 15.1255 6 14.3818z" />
    </symbol>
    <symbol viewBox="0 0 16 16" id="filter-check-mark">
      <path d="M3.5 7C5.433 7 7 5.433 7 3.5S5.433 0 3.5 0 0 1.567 0 3.5 1.567 7 3.5 7zM1.354 3.061a.5003.5003 0 0 1 .707 0l1.061 1.061L4.89 2.354a.5003.5003 0 0 1 .707 0c.195.195.195.512 0 .707L3.475 5.182a.5003.5003 0 0 1-.707 0L1.354 3.768a.5003.5003 0 0 1 0-.707zM13 3V2H8.2a.4999.4999 0 0 1-.5-.5c0-.2764.2238-.5.5-.5H13c.5522 0 1 .4478 1 1v1.6494a.9998.9998 0 0 1-.2192.6245L10 9v4.3818c0 .3789-.2141.7251-.5527.8946l-2 1C6.7823 15.6089 6 15.1255 6 14.3818V9l-.27-.3374a.505.505 0 0 1 .335-.8828.5055.5055 0 0 1 .4663.3105l.0139-.0092L7 8.6494v5.7324l2-1V8.6494L12.7195 4H8.5a.4999.4999 0 0 1-.5-.5c0-.2764.2239-.5.5-.5H13z" />
    </symbol>
    <symbol viewBox="0 0 16 16" id="folder-closed">
      <path d="M15 3H8l-1.789-.895A1.0055 1.0055 0 0 0 5.764 2H1c-.552 0-1 .447-1 1v11c0 .553.448 1 1 1h14c.553 0 1-.447 1-1V4c0-.553-.447-1-1-1zm0 11H1V7h14v7zM1 6V3h4.764l1.789.895.211.105H15v2H1z" />
    </symbol>
    <symbol viewBox="0 0 16 16" id="folder-open">
      <path d="M15.82 7.413a.9994.9994 0 0 0-.821-.431L14 7V5c0-.554-.447-1-1-1H8L6.147 2.146A.5036.5036 0 0 0 5.793 2H1c-.552 0-1 .446-1 1v11c0 .551.448 1 1 1l11.749-.02c.418 0 .791-.258.938-.647l2.25-5.999a.9945.9945 0 0 0-.117-.921zM1 3h4.586L7.44 4.854c.093.092.22.146.353.146H13v2H3.693c-.417 0-.79.258-.937.648L1 12.334V3zm11.749 11H1.443l2.251-6H15l-2.251 6z" />
    </symbol>
    <symbol viewBox="0 0 16 16" id="four-squares">
      <path d="M6 1v5H1V1h5zm0-1H1C.447 0 0 .447 0 1v5c0 .553.447 1 1 1h5c.553 0 1-.447 1-1V1c0-.553-.447-1-1-1zm9 1v5h-5V1h5zm0-1h-5c-.553 0-1 .447-1 1v5c0 .553.447 1 1 1h5c.553 0 1-.447 1-1V1c0-.553-.447-1-1-1zM6 10v5H1v-5h5zm0-1H1c-.553 0-1 .447-1 1v5c0 .553.447 1 1 1h5c.553 0 1-.447 1-1v-5c0-.553-.447-1-1-1zm9 1v5h-5v-5h5zm0-1h-5c-.553 0-1 .447-1 1v5c0 .553.447 1 1 1h5c.553 0 1-.447 1-1v-5c0-.553-.447-1-1-1z" />
    </symbol>
    <symbol viewBox="0 0 16 16" id="gear">
      <path d="M15.582 6.931l-1.743-.291a5.9485 5.9485 0 0 0-.749-1.806l1.027-1.439c.143-.199.119-.471-.053-.644l-.814-.815a.5023.5023 0 0 0-.645-.054L11.166 2.91a5.9354 5.9354 0 0 0-1.807-.75L9.069.417A.5003.5003 0 0 0 8.576 0H7.423c-.244 0-.452.177-.492.418L6.64 2.161c-.649.151-1.258.407-1.807.75L3.395 1.882a.501.501 0 0 0-.645.054l-.815.815a.502.502 0 0 0-.053.645L2.91 4.834a5.959 5.959 0 0 0-.749 1.806l-1.743.29A.502.502 0 0 0 0 7.424v1.153c0 .244.178.453.418.493l1.742.29c.151.649.406 1.257.75 1.806l-1.028 1.439a.501.501 0 0 0 .054.645l.815.814a.501.501 0 0 0 .644.054l1.439-1.028c.549.344 1.157.6 1.806.75l.291 1.743c.04.24.248.417.492.417h1.153c.244 0 .453-.177.493-.418l.29-1.743c.65-.151 1.258-.407 1.807-.75l1.439 1.028c.199.143.472.119.645-.053l.814-.815a.4998.4998 0 0 0 .055-.644l-1.029-1.44c.344-.55.599-1.157.75-1.806l1.742-.291A.4975.4975 0 0 0 16 8.576V7.423c0-.244-.176-.452-.418-.492zM8 13c-2.761 0-5-2.238-5-5s2.239-5 5-5c2.762 0 5 2.238 5 5s-2.238 5-5 5z" />
    </symbol>
    <symbol viewBox="0 0 16 16" id="globe">
      <path d="M14.939 11.971C15.61 10.8 16 9.446 16 8c0-1.459-.396-2.822-1.078-3.999L14.921 4C13.537 1.611 10.959 0 8 0S2.463 1.611 1.079 4l-.001.001C.396 5.178 0 6.541 0 8c0 1.446.39 2.8 1.061 3.971.003.005.007.01.009.014C2.452 14.383 5.035 16 8 16s5.548-1.617 6.93-4.015c.003-.005.007-.009.009-.014zm-.841-.545c-.945-.535-2.064-.925-3.269-1.158.173-1.16.213-2.373.114-3.556 1.326-.266 2.548-.717 3.535-1.352.335.815.522 1.705.522 2.64 0 1.244-.33 2.412-.902 3.426zm-7.752-.325C6.882 11.038 7.434 11 8 11c.566 0 1.118.038 1.653.101-.338 1.46-.907 2.705-1.653 3.542-.745-.837-1.315-2.082-1.654-3.542zM8 10c-.619 0-1.236.04-1.843.113C6.058 9.438 6 8.729 6 8c0-.383.018-.758.047-1.127C6.688 6.955 7.344 7 8 7c.656 0 1.312-.045 1.953-.127.029.369.047.744.047 1.127 0 .729-.057 1.438-.159 2.113C9.236 10.04 8.619 10 8 10zm1.841-4.121C9.247 5.955 8.633 6 8 6s-1.247-.045-1.841-.121C6.442 3.995 7.094 2.376 8 1.357c.905 1.019 1.558 2.638 1.841 4.522zm4.19-1.414c-.846.562-1.951.991-3.203 1.25-.269-1.787-.867-3.425-1.778-4.627 2.123.321 3.932 1.596 4.981 3.377zM6.95 1.088c-.912 1.201-1.51 2.84-1.778 4.627-1.253-.259-2.357-.688-3.204-1.25 1.05-1.781 2.859-3.056 4.982-3.377zM1 8c0-.935.188-1.825.521-2.641.988.635 2.21 1.086 3.535 1.352-.098 1.184-.058 2.396.114 3.557-1.204.233-2.324.622-3.269 1.158C1.33 10.412 1 9.244 1 8zm1.458 4.26c.813-.449 1.799-.795 2.9-1.009.315 1.41.848 2.681 1.592 3.661-1.823-.275-3.414-1.254-4.492-2.652zm6.592 2.652c.744-.98 1.276-2.251 1.593-3.661 1.102.214 2.086.56 2.9 1.009-1.079 1.398-2.67 2.377-4.493 2.652z" />
    </symbol>
    <symbol viewBox="0 0 16 16" id="home">
      <path d="M8.3254.6206a.4998.4998 0 0 0-.6508 0l-7 6a.4995.4995 0 0 0-.0542.7046.4994.4994 0 0 0 .705.0542L8 1.6587l6.6746 5.7207a.4993.4993 0 0 0 .705-.0542.4994.4994 0 0 0-.0542-.7046l-7-6zM4 7.5c0-.2764-.2239-.5-.5-.5s-.5.2236-.5.5v7c0 .2764.2239.5.5.5h3c.2761 0 .5-.2236.5-.5v-3c0-.1699.0552-.436.2058-.6455.1323-.1836.3572-.3545.7942-.3545s.6619.1709.7942.3545c.1506.2095.2058.4756.2058.6455v3c0 .2764.2239.5.5.5h3c.2761 0 .5-.2236.5-.5v-7c0-.2764-.2239-.5-.5-.5s-.5.2236-.5.5V14h-2v-2.5c0-.3301-.095-.814-.3943-1.2295C9.2881 9.8291 8.763 9.5 8 9.5c-.763 0-1.288.3291-1.6057.7705C6.095 10.686 6 11.17 6 11.5V14H4V7.5z" />
    </symbol>
    <symbol viewBox="0 0 16 16" id="info-circle">
      <path d="M8 0c4.419 0 8 3.582 8 8 0 4.419-3.581 8-8 8-4.419 0-8-3.581-8-8 0-4.418 3.581-8 8-8zm0 1C4.141 1 1 4.14 1 8c0 3.859 3.14 7 7 7 3.859 0 7-3.141 7-7s-3.141-7-7-7zM7 5c0-.5523.4477-1 1-1s1 .4477 1 1-.4477 1-1 1-1-.4477-1-1zm0 3c0-.5523.4477-1 1-1s1 .4477 1 1v3c0 .5523-.4477 1-1 1s-1-.4477-1-1V8z" />
    </symbol>
    <symbol viewBox="0 0 16 16" id="info-circle-filled">
      <path fill-rule="evenodd" d="M16 8c0 4.4185-3.5818 8-8 8-4.4182 0-8-3.5815-8-8s3.5818-8 8-8c4.4182 0 8 3.5815 8 8zM7 5c0-.5522.4478-1 1-1 .5523 0 1 .4478 1 1s-.4477 1-1 1c-.5522 0-1-.4478-1-1zm1 2c-.5522 0-1 .4478-1 1v3c0 .5522.4478 1 1 1 .5523 0 1-.4478 1-1V8c0-.5522-.4477-1-1-1z" />
    </symbol>
    <symbol viewBox="0 0 16 16" id="list">
      <path fill-rule="evenodd" d="M3.5 3a.4999.4999 0 0 1-.5-.5c0-.2764.2239-.5.5-.5s.5.2236.5.5-.2239.5-.5.5zM2 2.5C2 1.6714 2.6716 1 3.5 1S5 1.6714 5 2.5 4.3284 4 3.5 4 2 3.3286 2 2.5zM6.5 2c-.2761 0-.5.2236-.5.5s.2239.5.5.5h7c.2761 0 .5-.2236.5-.5s-.2239-.5-.5-.5h-7zM6 7.5c0-.2764.2239-.5.5-.5h7c.2761 0 .5.2236.5.5s-.2239.5-.5.5h-7a.4999.4999 0 0 1-.5-.5zM3.5 8a.4999.4999 0 0 1-.5-.5c0-.2764.2239-.5.5-.5s.5.2236.5.5-.2239.5-.5.5zM2 7.5C2 6.6714 2.6716 6 3.5 6S5 6.6714 5 7.5 4.3284 9 3.5 9 2 8.3286 2 7.5zm4 5c0-.2764.2239-.5.5-.5h7c.2761 0 .5.2236.5.5s-.2239.5-.5.5h-7a.4998.4998 0 0 1-.5-.5zm-2.5.5a.4998.4998 0 0 1-.5-.5c0-.2764.2239-.5.5-.5s.5.2236.5.5-.2239.5-.5.5zM2 12.5c0-.8286.6716-1.5 1.5-1.5s1.5.6714 1.5 1.5S4.3284 14 3.5 14 2 13.3286 2 12.5z" />
    </symbol>
    <symbol viewBox="0 0 16 16" id="lock-closed">
      <path d="M2 6.875h12V15c0 .552-.445 1-1 1H3c-.555 0-1-.448-1-1V6.875zM13 15V8H3v7h10zm-4-4.538v2.078c0 .53-.447.96-1 .96-.553 0-1-.43-1-.96v-2.078c0-.532.447-.962 1-.962.553 0 1 .43 1 .962zM12 7V5.454C12 3.048 10.105 1 8 1S4 3.048 4 5.454V7H3V5.454C3 2.454 5.3 0 8 0c2.699 0 5 2.454 5 5.454V7h-1z" />
    </symbol>
    <symbol viewBox="0 0 16 16" id="lock-open">
      <path d="M3 6.9805v-1.875c0-2.761 2.238-5 5-5 1.833 0 3.436.986 4.307 2.458.151.256.012.576-.27.672-.243.083-.508-.031-.644-.249-.705-1.129-1.961-1.881-3.393-1.881-2.209 0-4 1.791-4 4v1.875h10v8.125c0 .552-.445 1-1 1H3c-.555 0-1-.448-1-1v-8.125h1zm10 8.125v-7H3v7h10zm-4-4.538v2.078c0 .53-.447.96-1 .96-.553 0-1-.43-1-.96v-2.078c0-.532.447-.962 1-.962.553 0 1 .43 1 .962z" />
    </symbol>
    <symbol viewBox="0 0 16 16" id="menu">
      <path d="M1 4c0-.5523.4477-1 1-1h12c.5523 0 1 .4477 1 1s-.4477 1-1 1H2c-.5523 0-1-.4477-1-1zm0 4c0-.5523.4477-1 1-1h12c.5523 0 1 .4477 1 1s-.4477 1-1 1H2c-.5523 0-1-.4477-1-1zm0 4c0-.5523.4477-1 1-1h12c.5523 0 1 .4477 1 1s-.4477 1-1 1H2c-.5523 0-1-.4477-1-1z" />
    </symbol>
    <symbol viewBox="0 0 16 16" id="minus-circle">
      <path d="M0 8c0-4.418 3.582-8 8-8 4.419 0 8 3.582 8 8 0 4.419-3.581 8-8 8-4.418 0-8-3.581-8-8zm1 0c0 3.859 3.14 7 7 7 3.859 0 7-3.141 7-7s-3.141-7-7-7-7 3.141-7 7zm3 0c0-.5523.4477-1 1-1h6c.5523 0 1 .4477 1 1s-.4477 1-1 1H5c-.5523 0-1-.4477-1-1z" />
    </symbol>
    <symbol viewBox="0 0 16 16" id="minus-circle-filled">
      <path d="M0 8c0-4.418 3.582-8 8-8 4.419 0 8 3.582 8 8 0 4.419-3.581 8-8 8-4.418 0-8-3.581-8-8zm4 0c0 .5523.4477 1 1 1h6c.5523 0 1-.4477 1-1s-.4477-1-1-1H5c-.5523 0-1 .4477-1 1z" />
    </symbol>
    <symbol viewBox="0 0 16 16" id="pencil">
      <path d="M14.5857 3L13 1.414l-1.9312 1.9478 1.5693 1.5694L14.5857 3zM11.928 5.6353l-1.5631-1.5635L3 11.5 4.5 13l7.428-7.3647zm3.365-1.9283L5 14l-3.9167 1.5669c-.4083.163-.8133-.2422-.65-.65L2 11 12.293.707c.3903-.3906 1.0236-.3906 1.414 0l1.586 1.586c.3903.3901.3903 1.0234 0 1.414zM1.7952 14.205l1.4253-.5702-.8553-.8555-.57 1.4258z" />
    </symbol>
    <symbol viewBox="0 0 16 16" id="plugins">
      <path d="M15 1v5h-5V1h5zm0-1h-5c-.553 0-1 .447-1 1v5c0 .553.447 1 1 1h5c.553 0 1-.447 1-1V1c0-.553-.447-1-1-1zM6 10v5H1v-5h5zm0-1H1c-.553 0-1 .447-1 1v5c0 .553.447 1 1 1h5c.553 0 1-.447 1-1v-5c0-.553-.447-1-1-1zm9 1v5h-5v-5h5zm0-1h-5c-.553 0-1 .447-1 1v5c0 .553.447 1 1 1h5c.553 0 1-.447 1-1v-5c0-.553-.447-1-1-1z" />
    </symbol>
    <symbol viewBox="0 0 16 16" id="plus">
      <path d="M9 2c0-.5522-.4477-1-1-1-.5522 0-1 .4478-1 1v5H2c-.5522 0-1 .4478-1 1 0 .5523.4478 1 1 1h5v5c0 .5522.4478 1 1 1 .5523 0 1-.4478 1-1V9h5c.5522 0 1-.4477 1-1 0-.5522-.4478-1-1-1H9V2z" />
    </symbol>
    <symbol viewBox="0 0 16 16" id="power">
      <path d="M8 1c-.5522 0-1 .4478-1 1v5c0 .5522.4478 1 1 1 .5523 0 1-.4478 1-1V2c0-.5522-.4477-1-1-1zm-3.5703.978c.2378-.141.5395-.0395.663.2076.1234.2465.0223.5454-.2133.689C3.1526 3.9281 2 5.8295 2 8c0 3.3135 2.6863 6 6 6s6-2.6865 6-6c0-2.1704-1.1526-4.0718-2.8794-5.1255-.2356-.1435-.3367-.4424-.2134-.689.1236-.247.4253-.3486.6631-.2075C13.6235 3.1978 15 5.438 15 8c0 3.8662-3.134 7-7 7s-7-3.1338-7-7c0-2.562 1.3765-4.8022 3.4297-6.022z" />
    </symbol>
    <symbol viewBox="0 0 16 16" id="question-mark-circle">
      <path fill-rule="evenodd" d="M15 8c0 3.8662-3.134 7-7 7s-7-3.1338-7-7 3.134-7 7-7 7 3.1338 7 7zm1 0c0 4.4185-3.5818 8-8 8-4.4182 0-8-3.5815-8-8s3.5818-8 8-8c4.4182 0 8 3.5815 8 8zm-8.0535 3.584c-.5532 0-.9345-.3438-.9345-.8379 0-.5049.376-.8433.9345-.8433.5801 0 .956.3384.956.8433 0 .4941-.3759.8379-.956.8379zm-.94-5.3926h-1.305C5.653 4.5962 6.9098 4 8.1184 4c1.2514 0 2.3578.6392 2.3578 1.9604 0 .9346-.5478 1.3643-1.0635 1.7295-.6284.4458-.8647.6177-.8647 1.2085a.2794.2794 0 0 1-.2793.2793h-.6929a.3169.3169 0 0 1-.3169-.3115c-.0537-.811.3545-1.3266.956-1.7456.505-.3491.8272-.58.8272-1.0796 0-.6177-.4834-.8808-1.0044-.8808-.6767 0-1.0312.4511-1.0312 1.0312z" />
    </symbol>
    <symbol viewBox="0 0 16 16" id="question-mark-circle-filled">
      <path d="M8 0C3.582 0 0 3.582 0 8s3.582 8 8 8 8-3.582 8-8-3.582-8-8-8zm-.054 11.85c-.609 0-1.035-.386-1.035-.938 0-.564.416-.943 1.035-.943.632 0 1.056.379 1.056.943 0 .561-.424.938-1.056.938zm1.525-4.079c-.616.437-.824.584-.824 1.127 0 .209-.17.379-.379.379h-.692c-.226 0-.414-.184-.417-.409-.049-.748.258-1.313 1-1.829.515-.357.784-.563.784-.998 0-.576-.468-.781-.904-.781-.574 0-.931.357-.931.931v.1H5.604l-.003-.097c-.02-.649.167-1.18.553-1.578C6.602 4.154 7.3 3.9 8.118 3.9c1.224 0 2.458.637 2.458 2.061 0 .949-.522 1.398-1.105 1.81z" />
    </symbol>
    <symbol viewBox="0 0 16 16" id="recycle">
      <path d="M6.5 0a.5.5 0 1 0 0 1h3a.5.5 0 1 0 0-1h-3zM2 2.5a.5.5 0 0 1 .5-.5h11a.5.5 0 1 1 0 1h-11a.5.5 0 0 1-.5-.5zm10 2a.5.5 0 1 1 1 0V15a1 1 0 0 1-1 1H4a1 1 0 0 1-1-1V4.5a.5.5 0 1 1 1 0V15h2V5.5a.5.5 0 1 1 1 0V15h2V5.5a.5.5 0 1 1 1 0V15h2V4.5z" />
    </symbol>
    <symbol viewBox="0 0 16 16" id="refresh">
      <path d="M5 6.0708c-.5522 0-1-.4477-1-1V3.5986C2.7715 4.6982 2 6.2944 2 8.0708c0 3.022 2.2349 5.5234 5.1416 5.939.5469.0786.9268.5849.8484 1.1318-.0781.5464-.5847.9263-1.1316.8481C2.9807 15.4351 0 12.102 0 8.0708c0-2.3901 1.049-4.5352 2.7087-6H1c-.5522 0-1-.4477-1-1 0-.5522.4478-1 1-1h4c.5522 0 1 .4478 1 1v4c0 .5523-.4478 1-1 1zM9.1416.0811C8.5947.0029 8.0881.3828 8.01.9292c-.0784.5469.3015 1.0532.8484 1.1318C11.7651 2.4766 14 4.978 14 8c0 1.7764-.7715 3.3726-2 4.4722V11c0-.5522-.4478-1-1-1s-1 .4478-1 1v4c0 .5522.4478 1 1 1h4c.5522 0 1-.4478 1-1s-.4478-1-1-1h-1.7087C14.9509 12.5352 16 10.3901 16 8 16 3.9688 13.0193.6357 9.1416.081z" />
    </symbol>
    <symbol viewBox="0 0 16 16" id="reload">
      <path d="M2 8c0-3.3135 2.6863-6 6-6s6 2.6865 6 6c0 1.7764-.7715 3.373-2 4.4722V11c0-.5522-.4478-1-1-1s-1 .4478-1 1v4c0 .5522.4478 1 1 1h4c.5522 0 1-.4478 1-1s-.4478-1-1-1h-1.7085C14.9514 12.5352 16 10.3901 16 8c0-4.4185-3.5818-8-8-8-4.4182 0-8 3.5815-8 8 0 3.6255 2.4109 6.6851 5.7148 7.6685.5293.1577 1.0862-.1436 1.2437-.6729.1575-.5298-.1438-1.0864-.6733-1.2441C3.8062 13.0137 2 10.7163 2 8z" />
    </symbol>
    <symbol viewBox="0 0 16 16" id="remove">
      <path d="M2.2928 12.2427a1 1 0 0 0 0 1.414.9998.9998 0 0 0 1.4143 0L7.9495 9.414l4.2429 4.243c.3907.3903 1.0237.3903 1.4144 0 .3903-.3905.3903-1.0238 0-1.4144L9.3638 8l4.2427-4.2427c.3906-.3906.3906-1.024 0-1.414-.3904-.3907-1.0237-.3907-1.4141 0L7.9498 6.5859 3.707 2.3433c-.3904-.3907-1.0237-.3907-1.414 0-.3907.3906-.3907 1.0239 0 1.414L6.5354 8l-4.2427 4.2427z" />
    </symbol>
    <symbol viewBox="0 0 16 16" id="search">
      <path d="M0 6c0-3.314 2.686-6 6-6 3.313 0 6 2.686 6 6 0 1.2954-.4109 2.4951-1.1096 3.476l4.8169 4.817c.3904.3906.3904 1.0239 0 1.414a.9998.9998 0 0 1-1.4143 0l-4.8167-4.8169A5.9708 5.9708 0 0 1 6 12c-3.314 0-6-2.687-6-6zm1 0c0 2.7559 2.243 5 5 5s5-2.2441 5-5c0-2.7568-2.243-5-5-5S1 3.2432 1 6z" />
    </symbol>
    <symbol viewBox="0 0 16 16" id="share">
      <path d="M13.5 11c-.831 0-1.563.41-2.018 1.035L4.933 8.557C4.974 8.377 5 8.191 5 8c0-.192-.026-.377-.067-.557l6.549-3.477A2.495 2.495 0 0 0 16 2.5a2.5 2.5 0 0 0-5 0c0 .192.025.377.066.556L4.517 6.534A2.49 2.49 0 0 0 2.5 5.5a2.5 2.5 0 0 0 0 5 2.49 2.49 0 0 0 2.017-1.034l6.549 3.478A2.488 2.488 0 0 0 11 13.5a2.5 2.5 0 1 0 2.5-2.5zm0-10a1.5 1.5 0 1 1 0 3 1.5 1.5 0 0 1 0-3zm-11 8.5a1.5 1.5 0 1 1 .001-3.001A1.5 1.5 0 0 1 2.5 9.5zm11 5.5a1.5 1.5 0 1 1 .001-3.001A1.5 1.5 0 0 1 13.5 15z" />
    </symbol>
    <symbol viewBox="0 0 16 16" id="shield">
      <path d="M10.472 1c.037 1.294.115 3.005 2.404 3.183.04.934.124 3.07.124 4.749 0 1.492-.406 2.566-1.315 3.481-.459.462-2.429 1.752-3.685 2.536-1.258-.785-3.226-2.074-3.685-2.536C3.406 11.498 3 10.424 3 8.932c0-1.678.083-3.814.124-4.749C5.412 4.006 5.491 2.294 5.528 1h4.944zm.44-1H5.088c-.15 0-.542.151-.542.448-.07 1.672.108 2.75-1.827 2.75-.036 0-.531.047-.573.464 0 0-.146 3.017-.146 5.27 0 1.974.663 3.237 1.606 4.187.745.749 4.053 2.797 4.053 2.797.094.057.217.084.341.084.124 0 .247-.027.341-.085 0 0 3.308-2.048 4.053-2.797.943-.949 1.606-2.213 1.606-4.186 0-2.252-.146-5.27-.146-5.27-.042-.417-.537-.464-.572-.464-1.936 0-1.757-1.078-1.827-2.75C11.454.151 11.062 0 10.912 0z" />
    </symbol>
    <symbol viewBox="0 0 16 16" id="shopping-cart">
      <path d="M12.749 11c.418 0 .791-.258.938-.648l2.25-6c.114-.307.071-.651-.115-.92A1.0038 1.0038 0 0 0 14.999 3H2.935L1.891 1.435C1.956 1.302 2 1.158 2 1c0-.553-.447-1-1-1-.553 0-1 .447-1 1 0 .553.447 1 1 1 .021 0 .037-.011.059-.012l1.003 1.506.829 6.63c.062.501.487.876.992.876h.257l-.341 1.021C2.791 12.122 2 12.965 2 14c0 1.104.896 2 2 2s2-.896 2-2h4c0 1.104.896 2 2 2s2-.896 2-2-.896-2-2-2c-.738 0-1.376.405-1.723 1H5.723c-.212-.364-.531-.658-.919-.829L5.194 11h7.555zM12 13c.553 0 1 .447 1 1 0 .553-.447 1-1 1-.553 0-1-.447-1-1 0-.553.447-1 1-1zm-7 1c0 .553-.447 1-1 1-.553 0-1-.447-1-1 0-.553.447-1 1-1 .553 0 1 .447 1 1zm-1.117-4l-.75-6h11.866l-2.25 6H3.883z" />
    </symbol>
    <symbol viewBox="0 0 16 16" id="site-page">
      <path fill-rule="evenodd" d="M15 1c0-.5518-.4451-1-1-1H2c-.555 0-1 .4482-1 1v14c0 .5518.445 1 1 1h12c.5549 0 1-.4482 1-1V1zm-1 2V1H2v2h12zM2 4v11h12V4H2zm10.5 3c.2761 0 .5-.2236.5-.5s-.2239-.5-.5-.5h-4c-.2761 0-.5.2236-.5.5s.2239.5.5.5h4zm0 2c.2761 0 .5-.2236.5-.5s-.2239-.5-.5-.5h-4c-.2761 0-.5.2236-.5.5s.2239.5.5.5h4zm0 2c.2761 0 .5-.2236.5-.5s-.2239-.5-.5-.5h-9c-.2761 0-.5.2236-.5.5s.2239.5.5.5h9zm0 2c.2761 0 .5-.2236.5-.5s-.2239-.5-.5-.5h-9c-.2761 0-.5.2236-.5.5s.2239.5.5.5h9zM4 6c-.5522 0-1 .4478-1 1v1c0 .5523.4478 1 1 1h2c.5522 0 1-.4477 1-1V7c0-.5522-.4478-1-1-1H4z" />
    </symbol>
    <symbol viewBox="0 0 16 16" id="sleep">
      <path d="M10.278.555C8.744-.016 7.0982 0 7.042 0c-.2749 0-.5.224-.5.5 0 .164.0841.302.2051.394 0 0 .999.776 1.393 1.251 1.419 1.714 1.899 4.09 1.017 6.234-1.011 2.457-3.476 3.958-6.085 3.958-.646 0-1.3-.099-1.943-.292-.069-.035-.144-.061-.227-.061-.276 0-.542.227-.5.5.031.203.148.352.164.365.898 1.124 2.108 2.042 3.587 2.596 1.005.375 2.041.555 3.06.555 3.348 0 6.511-1.926 7.808-5.078 1.692-4.111-.428-8.761-4.743-10.367zm3.8191 9.986c-1.115 2.71-3.817 4.459-6.884 4.459-.928 0-1.839-.165-2.71-.491-.777-.291-1.486-.696-2.105-1.2.224.021.448.028.673.028 3.114 0 5.866-1.797 7.011-4.577.723-1.758.692-3.706-.084-5.485-.35-.8-.84-1.53-1.44-2.159.465.082.923.207 1.37.375 1.881.704 3.342 2.068 4.113 3.838.729 1.673.75 3.526.056 5.212z" />
    </symbol>
    <symbol viewBox="0 0 16 16" id="sliders">
      <path fill-rule="evenodd" d="M3 15.5122c0 .27-.2251.4878-.5.4878-.2759 0-.5-.2192-.5-.4878v-8.562C.8589 6.7188 0 5.7095 0 4.5c0-1.2095.8589-2.2188 2-2.4502V.4878C2 .2192 2.2241 0 2.5 0c.2749 0 .5.2192.5.4878v1.562C4.1411 2.2813 5 3.2905 5 4.5c0 1.2095-.8589 2.2188-2 2.4502v8.562zM4 4.5C4 5.3286 3.3284 6 2.5 6S1 5.3286 1 4.5 1.6716 3 2.5 3 4 3.6714 4 4.5zm4 11.0122c0 .27-.2251.4878-.5.4878-.2749 0-.5-.2192-.5-.4878v-1.562c-1.1411-.2314-2-1.2407-2-2.4502 0-1.2095.8589-2.2188 2-2.4502V.4878C7 .2192 7.2241 0 7.5 0c.2759 0 .5.2192.5.4878v8.562c1.1411.2315 2 1.2407 2 2.4502 0 1.2095-.8589 2.2188-2 2.4502v1.562zM9 11.5c0 .8286-.6716 1.5-1.5 1.5S6 12.3286 6 11.5 6.6716 10 7.5 10s1.5.6714 1.5 1.5zM12.5 0c-.2761 0-.5.2236-.5.5v3.5498c-1.1411.2314-2 1.2407-2 2.4502 0 1.2095.8589 2.2188 2 2.4502V15.5c0 .2764.2239.5.5.5s.5-.2236.5-.5V8.9502c1.1411-.2315 2-1.2407 2-2.4502 0-1.2095-.8589-2.2188-2-2.4502V.5c0-.2764-.2239-.5-.5-.5zm0 8c.8284 0 1.5-.6714 1.5-1.5S13.3284 5 12.5 5 11 5.6714 11 6.5 11.6716 8 12.5 8z" />
    </symbol>
    <symbol viewBox="0 0 16 16" id="start">
      <path d="M1 0h14c.553 0 1 .4468 1 1v14c0 .5532-.447 1-1 1H1a.999.999 0 0 1-1-1V1c0-.5532.447-1 1-1zm0 15h14V1H1v14zM6.8123 4.6499l3.6997 2.9595c.2502.2002.2502.581 0 .7812l-3.6997 2.9595c-.3274.2617-.8123.0288-.8123-.3906v-5.919c0-.4194.4849-.6523.8123-.3906z" />
    </symbol>
    <symbol viewBox="0 0 16 16" id="stop">
      <path d="M1 0h14c.553 0 1 .4468 1 1v14c0 .5532-.447 1-1 1H1a.999.999 0 0 1-1-1V1c0-.5532.447-1 1-1zm0 15h14V1H1v14zM6 5c-.5522 0-1 .4478-1 1v4c0 .5522.4478 1 1 1h4c.5522 0 1-.4478 1-1V6c0-.5522-.4478-1-1-1H6z" />
    </symbol>
    <symbol viewBox="0 0 16 16" id="themes">
      <path fill-rule="evenodd" d="M3 1h8v3H3V1zM2 1c0-.5522.4478-1 1-1h8c.5523 0 1 .4478 1 1v1h1.5c.2761 0 .5.2236.5.5v1.8379c0 1.5063-.9641 2.8437-2.3933 3.3203L8 8.8604V9c.5523 0 1 .4477 1 1v5c0 .5522-.4477 1-1 1H7c-.5522 0-1-.4478-1-1v-5c0-.5523.4478-1 1-1v-.5a.4995.4995 0 0 1 .3418-.4741l3.9487-1.3164A2.5001 2.5001 0 0 0 13 4.3379V3h-1v1c0 .5522-.4477 1-1 1H8v.5c0 .2764-.2239.5-.5.5a.4999.4999 0 0 1-.5-.5V5H6v1.5c0 .2764-.2239.5-.5.5a.4999.4999 0 0 1-.5-.5V5H4v2.5c0 .2764-.2239.5-.5.5a.4999.4999 0 0 1-.5-.5V5c-.5522 0-1-.4478-1-1V1zm5 9h1v5H7v-5z" />
    </symbol>
    <symbol viewBox="0 0 16 16" id="three-dots-horizontal">
      <path d="M3.5 10C2.672 10 2 9.328 2 8.5S2.672 7 3.5 7 5 7.672 5 8.5 4.328 10 3.5 10zm0-1c.2757 0 .5-.2243.5-.5S3.7757 8 3.5 8s-.5.2243-.5.5.2243.5.5.5zm5-2c.828 0 1.5.672 1.5 1.5S9.328 10 8.5 10 7 9.328 7 8.5 7.672 7 8.5 7zm0 1c-.2757 0-.5.2243-.5.5s.2243.5.5.5.5-.2243.5-.5-.2243-.5-.5-.5zm5-1c.828 0 1.5.672 1.5 1.5s-.672 1.5-1.5 1.5S12 9.328 12 8.5 12.672 7 13.5 7zm0 1c-.2757 0-.5.2243-.5.5s.2243.5.5.5.5-.2243.5-.5-.2243-.5-.5-.5z" />
    </symbol>
    <symbol viewBox="0 0 16 16" id="triangle-exclamation-mark">
      <path d="M8.1326 1.6802L14.7016 15H1.3135l6.819-13.3198zM8.1435 0c-.176 0-.336.107-.4141.2759l-7.681 15c-.071.1562-.0639.3423.02.4883.084.146.233.2358.3932.2358h15.0759c.1579 0 .311-.0898.395-.2358.084-.146.092-.3321.021-.4864l-7.396-15C8.4776.107 8.3166 0 8.1436 0zM7 8c0-.5522.4477-1 1-1 .5522 0 1 .4478 1 1v2c0 .5522-.4478 1-1 1-.5523 0-1-.4478-1-1V8zm1 4c-.5523 0-1 .4478-1 1s.4477 1 1 1c.5522 0 1-.4478 1-1s-.4478-1-1-1z" />
    </symbol>
    <symbol viewBox="0 0 16 16" id="triangle-exclamation-mark-filled">
      <path fill-rule="evenodd" d="M8.1435 0c-.176 0-.3359.107-.414.2759l-7.681 15c-.071.1562-.0639.3423.02.4883.084.146.233.2358.3932.2358h15.0759c.1579 0 .311-.0898.395-.2358.084-.146.092-.3321.021-.4864l-7.396-15C8.4776.107 8.3166 0 8.1436 0zM7 8c0-.5522.4477-1 1-1 .5522 0 1 .4478 1 1v2c0 .5522-.4478 1-1 1-.5523 0-1-.4478-1-1V8zm1 4c-.5523 0-1 .4478-1 1s.4477 1 1 1c.5522 0 1-.4478 1-1s-.4478-1-1-1z" />
    </symbol>
    <symbol viewBox="0 0 16 16" id="unarchive">
      <path d="M4 0h2v2H4V0zm2 4V2h2v2H6zm0 2H4V4h2v2zm0 2V6h2v2H6zm0 0v2H4V8h2zm-2 4c0-.5532.448-1 1-1h2c.552 0 1 .4468 1 1v3c0 .5532-.448 1-1 1H5c-.552 0-1-.4468-1-1v-3zm1 1v2h2v-2H5zm9-7.5a.501.501 0 0 1-.5.5.501.501 0 0 1-.5-.5V2H9.5a.5003.5003 0 0 1-.5-.5c0-.2759.2241-.5.5-.5h4c.2749 0 .5.2241.5.5v4zM.5 1H2c.2759 0 .5.2241.5.5 0 .2759-.2241.5-.5.5H1v12h1c.2759 0 .5.2241.5.5 0 .2759-.2241.5-.5.5H.5a.5003.5003 0 0 1-.5-.5v-13c0-.2759.2241-.5.5-.5zm11.6465 8.1465a.4998.4998 0 0 1 .707 0l3 3A.4981.4981 0 0 1 16 12.5a.4981.4981 0 0 1-.1465.3535l-3 3a.4998.4998 0 0 1-.707 0 .4998.4998 0 0 1 0-.707L14.293 13H9.5a.4998.4998 0 0 1-.5-.5c0-.2764.2239-.5.5-.5h4.793l-2.1465-2.1465a.4999.4999 0 0 1 0-.707z" />
    </symbol>
    <symbol viewBox="0 0 16 16" id="user">
      <path d="M8.037 1c.16 0 .57.033.85.061.565.146 1.284.527 1.34 1.992.037 1.026.043 1.965-.269 3.053-.079.221-.149.427-.216.619-.342.993-.476 1.345-.801 1.541l-.562.338.278 2.049.739.109c2.119.314 4.76.705 5.006 1.94L14.809 15H1.192l.401-2.275c.251-1.257 2.891-1.646 5.011-1.961l.743-.111.271-2.049-.56-.338c-.324-.196-.459-.549-.801-1.543-.066-.193-.136-.398-.215-.618-.312-1.087-.306-2.026-.267-3.053.054-1.465.772-1.846 1.338-1.991.28-.028.689-.061.849-.061h.075zm0-1h-.075C7.66 0 6.943.072 6.943.072c-1.76.414-2.129 1.895-2.168 2.943-.039 1.065-.048 2.148.315 3.398.521 1.453.679 2.246 1.453 2.71-.026.209-.055.429-.085.65-2.579.382-5.458.811-5.846 2.756L0 16h16l-.611-3.471c-.39-1.945-3.269-2.374-5.846-2.756-.031-.223-.061-.441-.087-.65.774-.465.933-1.257 1.454-2.71.361-1.25.354-2.333.314-3.397-.039-1.049-.408-2.529-2.17-2.943C9.057.072 8.34 0 8.037 0z" />
    </symbol>
  </defs>
</svg>