<svg style="display: none;" xmlns="http://www.w3.org/2000/svg" xmlns:xlink="http://www.w3.org/1999/xlink"><defs><symbol viewBox="0 0 16 16" id="archive"><path d="M6 0v2h2v2H6v2h2v2H6v2H4V8h2V6H4V4h2V2H4V0h2zM4 12a1 1 0 0 1 1-1h2a1 1 0 0 1 1 1v3a1 1 0 0 1-1 1H5a1 1 0 0 1-1-1v-3zm1 1v2h2v-2H5zm9-7.5a.5.5 0 0 1-.5.5.5.5 0 0 1-.5-.5V2H9.5a.5.5 0 0 1-.5-.5.5.5 0 0 1 .5-.5h4a.5.5 0 0 1 .5.5v4zm-14-4A.5.5 0 0 1 .5 1H2a.5.5 0 1 1 0 1H1v12h1a.5.5 0 1 1 0 1H.5a.5.5 0 0 1-.5-.5v-13zm13.354 8.354L11.207 12H15.5a.5.5 0 1 1 0 1h-4.293l2.147 2.147a.5.5 0 0 1 0 .706.5.5 0 0 1-.707 0l-3-3a.5.5 0 0 1 0-.706l3-3a.5.5 0 0 1 .706 0 .5.5 0 0 1 0 .706z" /></symbol><symbol viewBox="0 0 16 16" id="arrow-diagonal-out"><path d="M15.707.293A.997.997 0 0 1 16 1v7a1 1 0 0 1-2 0V3.414l-7.293 7.293a1 1 0 0 1-1.414 0 1 1 0 0 1 0-1.414L12.586 2H8a1 1 0 0 1 0-2h7a.997.997 0 0 1 .707.293zM1.5 3A1.5 1.5 0 0 0 0 4.5v10A1.5 1.5 0 0 0 1.5 16h10a1.5 1.5 0 0 0 1.5-1.5v-5a.5.5 0 1 0-1 0v5a.5.5 0 0 1-.5.5h-10a.5.5 0 0 1-.5-.5v-10a.5.5 0 0 1 .5-.5h5a.5.5 0 1 0 0-1h-5z" /></symbol><symbol viewBox="0 0 16 16" id="arrow-down"><path d="M7 1a1 1 0 0 1 2 0v11.6l3.293-3.293a1 1 0 1 1 1.414 1.414l-4.95 4.95a1.004 1.004 0 0 1-.154.126A.997.997 0 0 1 8 16a.997.997 0 0 1-.604-.203 1.004 1.004 0 0 1-.153-.126l-4.95-4.95a1 1 0 1 1 1.414-1.414L7 12.6V1z" /></symbol><symbol viewBox="0 0 16 16" id="arrow-down-in"><path d="M14.5 15a.5.5 0 0 0 .5-.5v-8a.5.5 0 0 0-.5-.5h-2a.5.5 0 0 1 0-1h2A1.5 1.5 0 0 1 16 6.5v8a1.5 1.5 0 0 1-1.5 1.5h-13A1.5 1.5 0 0 1 0 14.5v-8A1.5 1.5 0 0 1 1.5 5h2a.5.5 0 0 1 0 1h-2a.5.5 0 0 0-.5.5v8a.5.5 0 0 0 .5.5h13zM9 1v8.6l1.293-1.293a1 1 0 1 1 1.414 1.414L8.879 12.55a.994.994 0 0 1-.122.104A.998.998 0 0 1 8 13a.998.998 0 0 1-.757-.346.994.994 0 0 1-.122-.104L4.293 9.72a1 1 0 1 1 1.414-1.414L7 9.6V1a1 1 0 0 1 2 0z" /></symbol><symbol viewBox="0 0 16 16" id="arrow-down-out"><path d="M1.5 1a.5.5 0 0 0-.5.5v6a.5.5 0 0 0 .5.5h2a.5.5 0 0 1 0 1h-2A1.5 1.5 0 0 1 0 7.5v-6A1.5 1.5 0 0 1 1.5 0h13A1.5 1.5 0 0 1 16 1.5v6A1.5 1.5 0 0 1 14.5 9h-2a.5.5 0 0 1 0-1h2a.5.5 0 0 0 .5-.5v-6a.5.5 0 0 0-.5-.5h-13zM7 4a1 1 0 0 1 2 0v8.6l1.293-1.293a1 1 0 1 1 1.414 1.414L8.879 15.55a.993.993 0 0 1-.122.104A.998.998 0 0 1 8 16a.998.998 0 0 1-.757-.346.993.993 0 0 1-.122-.104L4.293 12.72a1 1 0 1 1 1.414-1.414L7 12.6V4z" /></symbol><symbol viewBox="0 0 16 16" id="arrow-down-tray"><path d="M8 0a1 1 0 0 0-1 1v8.6L5.707 8.307a1 1 0 1 0-1.414 1.414l2.828 2.829a.994.994 0 0 0 .122.104A.998.998 0 0 0 8 13a.998.998 0 0 0 .757-.346.994.994 0 0 0 .122-.104l2.828-2.829a1 1 0 1 0-1.414-1.414L9 9.6V1a1 1 0 0 0-1-1zM1 12.5a.5.5 0 1 0-1 0v2A1.5 1.5 0 0 0 1.5 16h13a1.5 1.5 0 0 0 1.5-1.5v-2a.5.5 0 1 0-1 0v2a.5.5 0 0 1-.5.5h-13a.5.5 0 0 1-.5-.5v-2z" /></symbol><symbol viewBox="0 0 16 16" id="arrow-left"><path d="M6.693 2.293a1 1 0 0 1 0 1.414L3.4 7H15a1 1 0 1 1 0 2H3.4l3.293 3.293a1 1 0 0 1 0 1.414 1 1 0 0 1-1.414 0l-4.95-4.95a.989.989 0 0 1-.125-.152A.996.996 0 0 1 0 8c0-.228.076-.437.204-.605a.989.989 0 0 1 .125-.152l4.95-4.95a1 1 0 0 1 1.414 0z" /></symbol><symbol viewBox="0 0 16 16" id="arrow-right"><path d="M9.307 2.293a1 1 0 0 0 0 1.414L12.6 7H1a1 1 0 1 0 0 2h11.6l-3.293 3.293a1 1 0 0 0 0 1.414 1 1 0 0 0 1.414 0l4.95-4.95a.989.989 0 0 0 .125-.152A.996.996 0 0 0 16 8a.996.996 0 0 0-.204-.605.989.989 0 0 0-.125-.152l-4.95-4.95a1 1 0 0 0-1.414 0z" /></symbol><symbol viewBox="0 0 16 16" id="arrow-up"><path d="M2.293 6.693a1 1 0 0 0 1.414 0L7 3.4V15a1 1 0 0 0 2 0V3.4l3.293 3.293a1 1 0 0 0 1.414 0 1 1 0 0 0 0-1.414L8.757.329a.989.989 0 0 0-.152-.125A.996.996 0 0 0 8 0a.996.996 0 0 0-.605.204.989.989 0 0 0-.152.125l-4.95 4.95a1 1 0 0 0 0 1.414z" /></symbol><symbol viewBox="0 0 16 16" id="arrow-up-in"><path d="M1.5 1a.5.5 0 0 0-.5.5v8a.5.5 0 0 0 .5.5h2a.5.5 0 0 1 0 1h-2A1.5 1.5 0 0 1 0 9.5v-8A1.5 1.5 0 0 1 1.5 0h13A1.5 1.5 0 0 1 16 1.5v8a1.5 1.5 0 0 1-1.5 1.5h-2a.5.5 0 0 1 0-1h2a.5.5 0 0 0 .5-.5v-8a.5.5 0 0 0-.5-.5h-13zM7 15V6.4L5.707 7.693a1 1 0 1 1-1.414-1.414L7.121 3.45a.993.993 0 0 1 .122-.104A.998.998 0 0 1 8 3a.998.998 0 0 1 .757.346.993.993 0 0 1 .122.104l2.828 2.829a1 1 0 1 1-1.414 1.414L9 6.4V15a1 1 0 0 1-2 0z" /></symbol><symbol viewBox="0 0 16 16" id="arrow-up-out"><path d="M1.5 15h13a.5.5 0 0 0 .5-.5v-6a.5.5 0 0 0-.5-.5h-2a.5.5 0 0 1 0-1h2A1.5 1.5 0 0 1 16 8.5v6a1.5 1.5 0 0 1-1.5 1.5h-13A1.5 1.5 0 0 1 0 14.5v-6A1.5 1.5 0 0 1 1.5 7h2a.5.5 0 0 1 0 1h-2a.5.5 0 0 0-.5.5v6a.5.5 0 0 0 .5.5zM7 12V3.4L5.707 4.693a1 1 0 1 1-1.414-1.414L7.121.45a.993.993 0 0 1 .122-.104A.998.998 0 0 1 8 0a.998.998 0 0 1 .757.346.993.993 0 0 1 .122.104l2.828 2.829a1 1 0 1 1-1.414 1.414L9 3.4V12a1 1 0 0 1-2 0z" /></symbol><symbol viewBox="0 0 16 16" id="arrow-up-tray"><path d="M8 13a1 1 0 0 1-1-1V3.4L5.707 4.693a1 1 0 1 1-1.414-1.414L7.121.45a.993.993 0 0 1 .122-.104A.998.998 0 0 1 8 0a.998.998 0 0 1 .757.346.993.993 0 0 1 .122.104l2.828 2.829a1 1 0 1 1-1.414 1.414L9 3.4V12a1 1 0 0 1-1 1zm-7-.5v2a.5.5 0 0 0 .5.5h13a.5.5 0 0 0 .5-.5v-2a.5.5 0 1 1 1 0v2a1.5 1.5 0 0 1-1.5 1.5h-13A1.5 1.5 0 0 1 0 14.5v-2a.5.5 0 1 1 1 0z" /></symbol><symbol viewBox="0 0 16 16" id="arrows-four-directions"><path d="M10.473 3.642L9.02 2.19v4.787h4.788l-1.45-1.454a.505.505 0 0 1 0-.706h-.006a.492.492 0 0 1 .701 0l2.803 2.828c.19.194.192.509.002.703l-.002.006s-.003 0-.004.002l-2.797 2.825a.496.496 0 0 1-.702 0h.006a.506.506 0 0 1 0-.709l1.45-1.453H9.02v4.787l1.452-1.449a.506.506 0 0 1 .71.001v-.006a.495.495 0 0 1 0 .701l-2.826 2.798c-.002 0-.002.003-.002.003l-.006.003a.504.504 0 0 1-.703-.003l-2.829-2.802a.493.493 0 0 1 0-.701v.005a.504.504 0 0 1 .707 0L6.98 13.81V9.02H2.191l1.45 1.454a.506.506 0 0 1 0 .709h.005a.495.495 0 0 1-.7 0L.146 8.357c0-.002-.003-.002-.003-.002L.141 8.35a.504.504 0 0 1 .003-.703l2.802-2.828a.493.493 0 0 1 .701 0h-.005a.504.504 0 0 1 0 .706L2.192 6.98h4.786V2.192l-1.454 1.45a.505.505 0 0 1-.707 0v.004a.493.493 0 0 1 0-.7L7.647.142a.505.505 0 0 1 .702-.002l.008.005 2.825 2.798a.496.496 0 0 1 0 .702v-.005a.508.508 0 0 1-.709 0z" /></symbol><symbol viewBox="0 0 16 16" id="arrows-loop"><path d="M12.354.646a.5.5 0 0 0-.707 0 .5.5 0 0 0 0 .707L13.293 3H2a1 1 0 0 0-1 1v3a1 1 0 0 0 2 0V5h10.293l-1.647 1.647a.5.5 0 0 0 0 .706.5.5 0 0 0 .707 0l3-3a.5.5 0 0 0 0-.707l-3-3zM14 8a1 1 0 0 1 1 1v3a1 1 0 0 1-1 1H2.707l1.647 1.647a.5.5 0 0 1 0 .706.5.5 0 0 1-.707 0l-3-3a.5.5 0 0 1 0-.706l3-3a.5.5 0 0 1 .707 0 .5.5 0 0 1 0 .706L2.707 11H13V9a1 1 0 0 1 1-1z" /></symbol><symbol viewBox="0 0 16 16" id="backup"><path fill-rule="evenodd" d="M1 15c0 .552.445 1 1 1h12c.555 0 1-.448 1-1V1c0-.552-.445-1-1-1H2c-.555 0-1 .448-1 1v14zM2 1h12v11H2V1zm12 12H2v2h12v-2zM9 9.371c0-.245.175-.45.403-.539A2.501 2.501 0 0 0 8.5 4 2.5 2.5 0 0 0 6 6.5l1.2-.9a.5.5 0 0 1 .7.1.5.5 0 0 1-.1.7l-2 1.5a.5.5 0 0 1-.7-.1l-1.5-2a.5.5 0 0 1 .1-.7.5.5 0 0 1 .7.1l.63.84a3.5 3.5 0 1 1 4.548 3.79C9.279 9.928 9 9.685 9 9.372z" /></symbol><symbol viewBox="0 0 16 16" id="card"><path fill-rule="evenodd" d="M15 3H7v10h8V3zM6 7V3H1v4h5zM1 8h5v5H1V8zM0 8V3a1 1 0 0 1 1-1h14a1 1 0 0 1 1 1v10a1 1 0 0 1-1 1H1a1 1 0 0 1-1-1V8zm2 1.5a.5.5 0 0 1 .5-.5h2a.5.5 0 1 1 0 1h-2a.5.5 0 0 1-.5-.5zm.5 1.5a.5.5 0 1 0 0 1h2a.5.5 0 1 0 0-1h-2zM8 5.5a.5.5 0 0 1 .5-.5h5a.5.5 0 1 1 0 1h-5a.5.5 0 0 1-.5-.5zM8.5 7a.5.5 0 1 0 0 1h5a.5.5 0 1 0 0-1h-5zM8 9.5a.5.5 0 0 1 .5-.5h5a.5.5 0 1 1 0 1h-5a.5.5 0 0 1-.5-.5zm.5 1.5a.5.5 0 1 0 0 1h5a.5.5 0 1 0 0-1h-5z" /></symbol><symbol viewBox="0 0 16 16" id="card-row"><path fill-rule="evenodd" d="M6 3h9v3H6V3zM5 2h10a1 1 0 0 1 1 1v3a1 1 0 0 1-1 1H1a1 1 0 0 1-1-1V3a1 1 0 0 1 1-1h4zm0 4H1V3h4v3zm3-1.5a.5.5 0 0 1 .5-.5h4a.5.5 0 1 1 0 1h-4a.5.5 0 0 1-.5-.5zM6 10h9v3H6v-3zM5 9h10a1 1 0 0 1 1 1v3a1 1 0 0 1-1 1H1a1 1 0 0 1-1-1v-3a1 1 0 0 1 1-1h4zm0 4H1v-3h4v3zm3-1.5a.5.5 0 0 1 .5-.5h4a.5.5 0 1 1 0 1h-4a.5.5 0 0 1-.5-.5z" /></symbol><symbol viewBox="0 0 16 16" id="card-tile"><path fill-rule="evenodd" d="M12 2H4v4h8V2zm0 5H4v7h8V7zM4 1a1 1 0 0 0-1 1v12a1 1 0 0 0 1 1h8a1 1 0 0 0 1-1V2a1 1 0 0 0-1-1H4zm1 9.5a.5.5 0 0 1 .5-.5h5a.5.5 0 1 1 0 1h-5a.5.5 0 0 1-.5-.5zM5.5 8a.5.5 0 1 0 0 1h5a.5.5 0 1 0 0-1h-5zM5 12.5a.5.5 0 0 1 .5-.5h5a.5.5 0 1 1 0 1h-5a.5.5 0 0 1-.5-.5z" /></symbol><symbol viewBox="0 0 16 16" id="chain"><path d="M10.46 9.759L6.241 5.542a.99.99 0 0 1 0-1.402l3.85-3.848a.99.99 0 0 1 .7-.292c.253 0 .507.097.7.291l4.218 4.217a.991.991 0 0 1 0 1.403l-3.848 3.848a.991.991 0 0 1-.702.29.989.989 0 0 1-.7-.29zM6.95 4.846l4.216 4.205 3.837-3.848-4.212-4.199L6.95 4.846zm-.007 2.797l2.35-2.35a1 1 0 0 1 1.414 1.414l-2.35 2.35 1.4 1.402a.99.99 0 0 1 0 1.402L5.91 15.709a.997.997 0 0 1-.7.291.993.993 0 0 1-.7-.291L.29 11.492a.99.99 0 0 1 0-1.402l3.847-3.849a.991.991 0 0 1 .701-.289.99.99 0 0 1 .702.289l1.402 1.402zm-.706.706L4.84 6.955.996 10.797l4.218 4.205 3.836-3.848-1.397-1.393-.946.946a1 1 0 0 1-1.414-1.414l.944-.944z" /></symbol><symbol viewBox="0 0 16 16" id="chain-broken"><path d="M6.237 8.35L4.84 6.955.997 10.798l4.218 4.205 3.836-3.848-1.398-1.394-.946.946a1 1 0 0 1-1.414 0 1 1 0 0 1 0-1.414l.944-.944zm3.526-.699l1.403 1.4 3.837-3.848-4.212-4.199L6.95 4.846l1.398 1.393.946-.946a1 1 0 0 1 1.414 0 1 1 0 0 1 0 1.414l-.944.944zM1.198.155A.253.253 0 0 1 1.4.082a.255.255 0 0 1 .184.11l2.942 4.413-4.415-2.94a.25.25 0 0 1-.11-.186.251.251 0 0 1 .071-.2L1.198.154zm10.278 11.403L15.89 14.5a.239.239 0 0 1 .11.184.254.254 0 0 1-.073.201l-1.125 1.125a.246.246 0 0 1-.2.071.255.255 0 0 1-.185-.109l-2.94-4.413zM10.46 9.76L6.244 5.543a.992.992 0 0 1 0-1.402L10.091.292a.99.99 0 0 1 .7-.292.993.993 0 0 1 .7.292l4.217 4.217a.99.99 0 0 1 .001 1.403L11.862 9.76a.991.991 0 0 1-.702.29.987.987 0 0 1-.7-.29zM5.543 6.242l4.216 4.218a.99.99 0 0 1 0 1.402L5.91 15.71a.995.995 0 0 1-.701.291.995.995 0 0 1-.701-.291L.29 11.493a.992.992 0 0 1 0-1.402l3.848-3.849a.991.991 0 0 1 .7-.289.992.992 0 0 1 .703.289z" /></symbol><symbol viewBox="0 0 16 16" id="check-mark"><path d="M14.573 2.18a1 1 0 0 1 .246 1.394l-7 10a1 1 0 0 1-1.526.133l-5-5a1 1 0 0 1 1.414-1.414l4.157 4.157 6.317-9.023a1 1 0 0 1 1.392-.246z" /></symbol><symbol viewBox="0 0 16 16" id="check-mark-circle"><path d="M8 0a8 8 0 0 1 8 8 8 8 0 0 1-8 8A8 8 0 1 1 8 0zm0 15c3.859 0 7-3.141 7-7 0-3.86-3.141-7-7-7-3.86 0-7 3.141-7 7s3.141 7 7 7zm3.625-9.78a1 1 0 0 1 .156 1.405l-4 5a1 1 0 0 1-1.562 0l-2-2.5a1 1 0 0 1 1.562-1.25L7 9.4l3.22-4.024a1 1 0 0 1 1.405-.156z" /></symbol><symbol viewBox="0 0 16 16" id="check-mark-circle-filled"><path fill-rule="evenodd" d="M8 16A8 8 0 1 0 8 0a8 8 0 0 0 0 16zm3.781-9.376a1 1 0 1 0-1.562-1.249L7 9.4 5.781 7.877a1 1 0 0 0-1.406-.157 1 1 0 0 0-.156 1.405l2 2.5a1 1 0 0 0 1.562 0l4-5z" /></symbol><symbol viewBox="0 0 16 16" id="chevron-down"><path d="M.24 4.35a1 1 0 0 1 1.41-.11L8 9.684l6.35-5.442a1 1 0 1 1 1.3 1.518l-7 6a1 1 0 0 1-1.3 0l-7-6a1 1 0 0 1-.11-1.41z" /></symbol><symbol viewBox="0 0 16 16" id="chevron-left"><path d="M11.65.24a1 1 0 0 1 .11 1.41L6.316 8l5.442 6.35a1 1 0 1 1-1.518 1.3l-6-7a1 1 0 0 1 0-1.3l6-7a1 1 0 0 1 1.41-.11z" /></symbol><symbol viewBox="0 0 16 16" id="chevron-right"><path d="M4.35 15.76a1 1 0 0 1-.11-1.41L9.684 8 4.241 1.65A1 1 0 0 1 5.759.35l6 7a1 1 0 0 1 0 1.3l-6 7a1 1 0 0 1-1.41.11z" /></symbol><symbol viewBox="0 0 16 16" id="chevron-up"><path d="M.24 11.65a1 1 0 0 0 1.41.11L8 6.316l6.35 5.442a1 1 0 0 0 1.3-1.518l-7-6a1 1 0 0 0-1.3 0l-7 6a1 1 0 0 0-.11 1.41z" /></symbol><symbol viewBox="0 0 16 16" id="clean"><path d="M1.707.293a1 1 0 0 0-1.414 0 1 1 0 0 0 0 1.414L3.796 5.21 2.771 6.283a.501.501 0 0 0 0 .708l.708.707a.502.502 0 0 0 .707 0l3.449-3.607a.502.502 0 0 0 0-.707l-.707-.707a.501.501 0 0 0-.708 0L5.178 3.765 1.707.293zm7.285 5.45c.062 0 .103.014.118.023L15 9.433c-.004.008-.269.442-.916 1.218L11.21 8.555a.5.5 0 0 0-.59.808l2.801 2.045a30.292 30.292 0 0 1-.984 1.029c-.365.365-.702.685-1.007.963l-2.175-2.947a.5.5 0 0 0-.698-.105.5.5 0 0 0-.105.699l2.223 3.013c-.79.66-1.242.93-1.276.93L5.713 9.151c-.044-.069-.024-.252.035-.31l3.04-3.039a.328.328 0 0 1 .203-.06zm0-1c-.339 0-.682.122-.913.353l-3.038 3.04c-.389.387-.467 1.087-.173 1.552l3.688 5.836a1.033 1.033 0 0 0 1.394.333s1.188-.703 3.197-2.713c2.01-2.012 2.712-3.196 2.712-3.196a1.027 1.027 0 0 0-.338-1.388L9.639 4.916a1.243 1.243 0 0 0-.646-.174z" /></symbol><symbol viewBox="0 0 16 16" id="clock"><path d="M8 0a8 8 0 0 1 8 8 8 8 0 0 1-8 8A8 8 0 1 1 8 0zm0 1C4.142 1 1 4.142 1 8c0 3.859 3.141 7 7 7s7-3.141 7-7c0-3.86-3.141-7-7-7zm0 1.5a1 1 0 0 1 1 1V7h2.5a1 1 0 1 1 0 2H8a1 1 0 0 1-1-1V3.5a1 1 0 0 1 1-1z" /></symbol><symbol viewBox="0 0 16 16" id="copy"><path fill-rule="evenodd" d="M2 2a1 1 0 0 1 1-1h7a1 1 0 0 1 1 1v9a1 1 0 0 1-1 1H3a1 1 0 0 1-1-1V2zm1 0h7v9H3V2zm2 12v-.5a.5.5 0 1 1 1 0v.5h7V5h-.5a.5.5 0 0 1-.5-.5.5.5 0 0 1 .5-.5h.5a1 1 0 0 1 1 1v9a1 1 0 0 1-1 1H6a1 1 0 0 1-1-1z" /></symbol><symbol viewBox="0 0 16 16" id="cross-mark"><path d="M2.293 12.243a1 1 0 0 0 0 1.414 1 1 0 0 0 1.414 0L7.95 9.414l4.243 4.243a1 1 0 0 0 1.415-1.414L9.364 8l4.242-4.243a1 1 0 1 0-1.414-1.414L7.95 6.586 3.707 2.343a1 1 0 1 0-1.414 1.414L6.535 8l-4.242 4.243z" /></symbol><symbol viewBox="0 0 16 16" id="cross-mark-circle"><path fill-rule="evenodd" d="M15 8A7 7 0 1 1 1 8a7 7 0 0 1 14 0zm1 0A8 8 0 1 1 0 8a8 8 0 0 1 16 0zM4.293 11.657a1 1 0 0 1 0-1.414L6.535 8 4.293 5.757a1 1 0 1 1 1.414-1.414L7.95 6.586l2.242-2.243a1 1 0 1 1 1.414 1.414L9.364 8l2.243 2.243a1 1 0 0 1-1.415 1.414L7.95 9.414l-2.242 2.243a1 1 0 0 1-1.414 0z" /></symbol><symbol viewBox="0 0 16 16" id="cross-mark-circle-filled"><path fill-rule="evenodd" d="M16 8A8 8 0 1 1 0 8a8 8 0 0 1 16 0zM4.293 11.657a1 1 0 0 1 0-1.414L6.536 8 4.293 5.757a1 1 0 1 1 1.414-1.414L7.95 6.586l2.243-2.243a1 1 0 1 1 1.414 1.414L9.364 8l2.243 2.243a1 1 0 0 1-1.414 1.414L7.95 9.414l-2.243 2.243a1 1 0 0 1-1.414 0z" /></symbol><symbol viewBox="0 0 16 16" id="dollar"><path fill-rule="evenodd" d="M15 8A7 7 0 1 1 1 8a7 7 0 0 1 14 0zm1 0A8 8 0 1 1 0 8a8 8 0 0 1 16 0zM7.629 5.46c-.576.073-1.006.396-1.006.962 0 .395.244.703.771.893a2.193 2.193 0 0 0 .235.078V5.46zm.674 5.122c.664-.059 1.123-.425 1.123-1.035 0-.479-.25-.791-.987-1.016a1.866 1.866 0 0 1-.136-.034v2.085zm0 .816l.005.62h-.694v-.616c-1.46-.107-2.104-.976-2.114-1.884h.962c.039.547.43.962 1.167 1.06V8.35l-.386-.098c-.815-.195-1.592-.703-1.592-1.758 0-1.138.865-1.748 1.968-1.855V4h.689v.635c1.118.112 1.943.79 1.972 1.84h-.947c-.015-.502-.39-.927-1.03-1.015v2.095l.395.093c1.011.249 1.7.732 1.7 1.816 0 1.172-.874 1.826-2.095 1.934z" /></symbol><symbol viewBox="0 0 16 16" id="dollar-filled"><path fill-rule="evenodd" d="M8 16A8 8 0 1 0 8 0a8 8 0 0 0 0 16zM7.629 5.46c-.576.073-1.006.396-1.006.962 0 .395.244.703.771.893a2.193 2.193 0 0 0 .235.078V5.46zm.674 5.122c.664-.059 1.123-.425 1.123-1.035 0-.479-.25-.791-.987-1.016a1.866 1.866 0 0 1-.136-.034v2.085zm0 .816l.005.62h-.694v-.616c-1.46-.107-2.104-.976-2.114-1.884h.962c.039.547.43.962 1.167 1.06V8.35l-.386-.098c-.815-.195-1.592-.703-1.592-1.758 0-1.138.865-1.748 1.968-1.855V4h.689v.635c1.118.112 1.943.79 1.972 1.84h-.947c-.015-.502-.39-.927-1.03-1.015v2.095l.395.093c1.011.249 1.7.732 1.7 1.816 0 1.172-.874 1.826-2.095 1.934z" /></symbol><symbol viewBox="0 0 16 16" id="exclamation-mark-circle"><path d="M8 0a8 8 0 0 1 8 8 8 8 0 0 1-8 8A8 8 0 1 1 8 0zm0 1C4.141 1 1 4.14 1 8c0 3.859 3.14 7 7 7 3.859 0 7-3.141 7-7s-3.141-7-7-7zm0 3a1 1 0 0 1 1 1v3a1 1 0 1 1-2 0V5a1 1 0 0 1 1-1zm0 6a1 1 0 1 1 0 2 1 1 0 0 1 0-2z" /></symbol><symbol viewBox="0 0 16 16" id="exclamation-mark-circle-filled"><path fill-rule="evenodd" d="M8 16A8 8 0 1 0 8 0a8 8 0 0 0 0 16zM7 5a1 1 0 0 1 2 0v3a1 1 0 1 1-2 0V5zm0 6a1 1 0 1 1 2 0 1 1 0 0 1-2 0z" /></symbol><symbol viewBox="0 0 16 16" id="eye"><path d="M15.963 8.008c.05.081.05.477-.001.557-.72 2.456-4.01 5.008-7.962 5.008-3.95 0-7.237-2.548-7.96-5.004-.053-.082-.053-.483 0-.565C.763 5.548 4.05 3 8 3c3.953 0 7.242 2.552 7.963 5.008zM8 12.635c3.539 0 6.459-2.223 7.06-4.348C14.459 6.162 11.54 3.94 8 3.94c-3.537 0-6.457 2.223-7.06 4.347.602 2.124 3.523 4.348 7.06 4.348zm0-8.76a4.4 4.4 0 0 1 4.399 4.4 4.4 4.4 0 1 1-8.8 0 4.4 4.4 0 0 1 4.4-4.4zm0 1a3.405 3.405 0 0 0-3.401 3.4c0 1.875 1.526 3.4 3.4 3.4 1.875 0 3.4-1.525 3.4-3.4s-1.525-3.4-3.4-3.4z" /></symbol><symbol viewBox="0 0 16 16" id="eye-closed"><path d="M3.54 12.435C1.753 11.463.461 10 .04 8.569c-.053-.082-.053-.483 0-.565C.763 5.548 4.05 3 8 3c1.118 0 2.184.205 3.153.553L13.62.675a.5.5 0 1 1 .76.65l-12 14a.5.5 0 1 1-.76-.65l1.92-2.24zm.617-.72l.498-.58a4.382 4.382 0 0 1-1.056-2.86A4.402 4.402 0 0 1 6.913 4.01C3.878 4.404 1.48 6.385.94 8.287c.36 1.274 1.556 2.584 3.217 3.428zm1.16-1.353l4.335-5.058A3.377 3.377 0 0 0 8 4.875a3.405 3.405 0 0 0-3.401 3.4c0 .786.268 1.51.718 2.087zm4.997-5.83l.185-.215a8.523 8.523 0 0 0-1.415-.307 4.376 4.376 0 0 1 1.23.522zm1.416 1.41a4.38 4.38 0 0 1 .669 2.333 4.4 4.4 0 0 1-3.54 4.316c3.144-.32 5.649-2.353 6.202-4.304-.32-1.128-1.294-2.284-2.666-3.12l.608-.709c1.506.958 2.583 2.267 2.96 3.55.05.08.05.477-.001.557-.72 2.456-4.01 5.008-7.962 5.008a9.281 9.281 0 0 1-2.512-.347l.678-.792c.317.07.641.123.973.157a4.363 4.363 0 0 1-.875-.271l.693-.809a3.403 3.403 0 0 0 4.442-3.236 3.377 3.377 0 0 0-.361-1.524l.692-.809z" /></symbol><symbol viewBox="0 0 16 16" id="filter"><path fill-rule="evenodd" d="M9.22 8.376L9 8.65v4.732l-2 1V8.649l-.22-.274L3.28 4h9.44l-3.5 4.376zM13 3V2H3v1h10zM6 14.382V9L2.22 4.274A1 1 0 0 1 2 3.649V2a1 1 0 0 1 1-1h10a1 1 0 0 1 1 1v1.65a1 1 0 0 1-.22.624L10 9v4.382a1 1 0 0 1-.553.894l-2 1A1 1 0 0 1 6 14.382z" /></symbol><symbol viewBox="0 0 16 16" id="filter-check-mark"><path d="M3.5 7a3.5 3.5 0 1 0 0-7 3.5 3.5 0 0 0 0 7zM1.354 3.061a.5.5 0 0 1 .707 0l1.061 1.061L4.89 2.354a.5.5 0 0 1 .707 0 .5.5 0 0 1 0 .707L3.475 5.182a.5.5 0 0 1-.707 0L1.354 3.768a.5.5 0 0 1 0-.707zM13 3V2H8.2a.5.5 0 0 1-.5-.5.5.5 0 0 1 .5-.5H13a1 1 0 0 1 1 1v1.65a1 1 0 0 1-.22.624L10 9v4.382a1 1 0 0 1-.553.894l-2 1A1 1 0 0 1 6 14.382V9l-.27-.337a.505.505 0 0 1 .335-.883.505.505 0 0 1 .466.31l.014-.009L7 8.65v5.733l2-1V8.649L12.72 4H8.5a.5.5 0 0 1-.5-.5.5.5 0 0 1 .5-.5H13z" /></symbol><symbol viewBox="0 0 16 16" id="folder-closed"><path d="M15 3H8l-1.789-.895A1.006 1.006 0 0 0 5.764 2H1a1 1 0 0 0-1 1v11a1 1 0 0 0 1 1h14a1 1 0 0 0 1-1V4a1 1 0 0 0-1-1zm0 11H1V7h14v7zM1 6V3h4.764l1.789.895.211.105H15v2H1z" /></symbol><symbol viewBox="0 0 16 16" id="folder-open"><path d="M15.82 7.413a1 1 0 0 0-.821-.431L14 7V5c0-.554-.447-1-1-1H8L6.147 2.146A.504.504 0 0 0 5.793 2H1a1 1 0 0 0-1 1v11c0 .551.448 1 1 1l11.749-.02c.418 0 .791-.258.938-.647l2.25-5.999a.995.995 0 0 0-.117-.921zM1 3h4.586L7.44 4.854c.093.092.22.146.353.146H13v2H3.693c-.417 0-.79.258-.937.648L1 12.334V3zm11.749 11H1.443l2.251-6H15l-2.251 6z" /></symbol><symbol viewBox="0 0 16 16" id="four-squares"><path d="M6 1v5H1V1h5zm0-1H1a1 1 0 0 0-1 1v5a1 1 0 0 0 1 1h5a1 1 0 0 0 1-1V1a1 1 0 0 0-1-1zm9 1v5h-5V1h5zm0-1h-5a1 1 0 0 0-1 1v5a1 1 0 0 0 1 1h5a1 1 0 0 0 1-1V1a1 1 0 0 0-1-1zM6 10v5H1v-5h5zm0-1H1a1 1 0 0 0-1 1v5a1 1 0 0 0 1 1h5a1 1 0 0 0 1-1v-5a1 1 0 0 0-1-1zm9 1v5h-5v-5h5zm0-1h-5a1 1 0 0 0-1 1v5a1 1 0 0 0 1 1h5a1 1 0 0 0 1-1v-5a1 1 0 0 0-1-1z" /></symbol><symbol viewBox="0 0 16 16" id="gear"><path d="M15.582 6.931l-1.743-.291a5.949 5.949 0 0 0-.749-1.806l1.027-1.439a.5.5 0 0 0-.053-.644l-.814-.815a.502.502 0 0 0-.645-.054L11.166 2.91a5.935 5.935 0 0 0-1.807-.75L9.069.417A.5.5 0 0 0 8.576 0H7.423a.5.5 0 0 0-.492.418L6.64 2.161a5.956 5.956 0 0 0-1.807.75L3.395 1.882a.501.501 0 0 0-.645.054l-.815.815a.502.502 0 0 0-.053.645L2.91 4.834a5.959 5.959 0 0 0-.749 1.806l-1.743.29A.502.502 0 0 0 0 7.424v1.153c0 .244.178.453.418.493l1.742.29c.151.649.406 1.257.75 1.806l-1.028 1.439a.501.501 0 0 0 .054.645l.815.814a.501.501 0 0 0 .644.054l1.439-1.028a5.9 5.9 0 0 0 1.806.75l.291 1.743a.5.5 0 0 0 .492.417h1.153a.5.5 0 0 0 .493-.418l.29-1.743a5.946 5.946 0 0 0 1.807-.75l1.439 1.028a.501.501 0 0 0 .645-.053l.814-.815a.5.5 0 0 0 .055-.644l-1.029-1.44c.344-.55.599-1.157.75-1.806l1.742-.291A.497.497 0 0 0 16 8.576V7.423a.498.498 0 0 0-.418-.492zM8 13A5 5 0 1 1 8 3a5 5 0 0 1 0 10z" /></symbol><symbol viewBox="0 0 16 16" id="globe"><path d="M14.939 11.971a7.962 7.962 0 0 0-.017-7.97L14.921 4C13.537 1.611 10.959 0 8 0S2.463 1.611 1.079 4l-.001.001a7.962 7.962 0 0 0-.017 7.97l.009.014C2.452 14.383 5.035 16 8 16s5.548-1.617 6.93-4.015c.003-.005.007-.009.009-.014zm-.841-.545c-.945-.535-2.064-.925-3.269-1.158a15.53 15.53 0 0 0 .114-3.556c1.326-.266 2.548-.717 3.535-1.352a6.952 6.952 0 0 1-.38 6.066zm-7.752-.325A14.155 14.155 0 0 1 8 11c.566 0 1.118.038 1.653.101-.338 1.46-.907 2.705-1.653 3.542-.745-.837-1.315-2.082-1.654-3.542zM8 10c-.619 0-1.236.04-1.843.113A14.582 14.582 0 0 1 6 8c0-.383.018-.758.047-1.127C6.688 6.955 7.344 7 8 7c.656 0 1.312-.045 1.953-.127a14.167 14.167 0 0 1-.112 3.24A15.396 15.396 0 0 0 8 10zm1.841-4.121C9.247 5.955 8.633 6 8 6s-1.247-.045-1.841-.121C6.442 3.995 7.094 2.376 8 1.357c.905 1.019 1.558 2.638 1.841 4.522zm4.19-1.414c-.846.562-1.951.991-3.203 1.25-.269-1.787-.867-3.425-1.778-4.627a7.004 7.004 0 0 1 4.981 3.377zM6.95 1.088c-.912 1.201-1.51 2.84-1.778 4.627-1.253-.259-2.357-.688-3.204-1.25A7.008 7.008 0 0 1 6.95 1.088zM1 8c0-.935.188-1.825.521-2.641.988.635 2.21 1.086 3.535 1.352a15.652 15.652 0 0 0 .114 3.557c-1.204.233-2.324.622-3.269 1.158A6.962 6.962 0 0 1 1 8zm1.458 4.26c.813-.449 1.799-.795 2.9-1.009.315 1.41.848 2.681 1.592 3.661a6.991 6.991 0 0 1-4.492-2.652zm6.592 2.652c.744-.98 1.276-2.251 1.593-3.661 1.102.214 2.086.56 2.9 1.009a6.996 6.996 0 0 1-4.493 2.652z" /></symbol><symbol viewBox="0 0 16 16" id="home"><path d="M8.325.62a.5.5 0 0 0-.65 0l-7 6a.5.5 0 0 0-.055.705.5.5 0 0 0 .705.054L8 1.66l6.675 5.72a.5.5 0 0 0 .705-.054.5.5 0 0 0-.055-.704l-7-6zM4 7.5a.5.5 0 1 0-1 0v7a.5.5 0 0 0 .5.5h3a.5.5 0 0 0 .5-.5v-3c0-.17.055-.436.206-.645.132-.184.357-.355.794-.355s.662.17.794.354c.15.21.206.476.206.646v3a.5.5 0 0 0 .5.5h3a.5.5 0 0 0 .5-.5v-7a.5.5 0 1 0-1 0V14h-2v-2.5c0-.33-.095-.814-.394-1.23C9.288 9.83 8.763 9.5 8 9.5c-.763 0-1.288.33-1.606.77-.299.416-.394.9-.394 1.23V14H4V7.5z" /></symbol><symbol viewBox="0 0 16 16" id="info-circle"><path d="M8 0a8 8 0 0 1 8 8 8 8 0 0 1-8 8 8 8 0 0 1-8-8 8 8 0 0 1 8-8zm0 1C4.141 1 1 4.14 1 8c0 3.859 3.14 7 7 7 3.859 0 7-3.141 7-7s-3.141-7-7-7zM7 5a1 1 0 1 1 2 0 1 1 0 0 1-2 0zm0 3a1 1 0 1 1 2 0v3a1 1 0 1 1-2 0V8z" /></symbol><symbol viewBox="0 0 16 16" id="info-circle-filled"><path fill-rule="evenodd" d="M16 8A8 8 0 1 1 0 8a8 8 0 0 1 16 0zM7 5a1 1 0 1 1 2 0 1 1 0 0 1-2 0zm1 2a1 1 0 0 0-1 1v3a1 1 0 0 0 2 0V8a1 1 0 0 0-1-1z" /></symbol><symbol viewBox="0 0 16 16" id="list"><path fill-rule="evenodd" d="M3.5 3a.5.5 0 0 1-.5-.5.5.5 0 1 1 .5.5zM2 2.5a1.5 1.5 0 1 1 3 0 1.5 1.5 0 0 1-3 0zM6.5 2a.5.5 0 1 0 0 1h7a.5.5 0 1 0 0-1h-7zM6 7.5a.5.5 0 0 1 .5-.5h7a.5.5 0 1 1 0 1h-7a.5.5 0 0 1-.5-.5zM3.5 8a.5.5 0 0 1-.5-.5.5.5 0 1 1 .5.5zM2 7.5a1.5 1.5 0 1 1 3 0 1.5 1.5 0 0 1-3 0zm4 5a.5.5 0 0 1 .5-.5h7a.5.5 0 1 1 0 1h-7a.5.5 0 0 1-.5-.5zm-2.5.5a.5.5 0 0 1-.5-.5.5.5 0 1 1 .5.5zM2 12.5a1.5 1.5 0 1 1 3 0 1.5 1.5 0 0 1-3 0z" /></symbol><symbol viewBox="0 0 16 16" id="lock-closed"><path d="M2 6.875h12V15c0 .552-.445 1-1 1H3c-.555 0-1-.448-1-1V6.875zM13 15V8H3v7h10zm-4-4.538v2.078c0 .53-.447.96-1 .96-.553 0-1-.43-1-.96v-2.078c0-.532.447-.962 1-.962.553 0 1 .43 1 .962zM12 7V5.454C12 3.048 10.105 1 8 1S4 3.048 4 5.454V7H3V5.454C3 2.454 5.3 0 8 0c2.699 0 5 2.454 5 5.454V7h-1z" /></symbol><symbol viewBox="0 0 16 16" id="lock-open"><path d="M3 6.98V5.106a5 5 0 0 1 9.307-2.542c.151.257.012.577-.27.673a.557.557 0 0 1-.644-.25A4 4 0 0 0 4 5.106V6.98h10v8.125c0 .552-.445 1-1 1H3c-.555 0-1-.448-1-1V6.98h1zm10 8.125v-7H3v7h10zm-4-4.538v2.078c0 .53-.447.96-1 .96-.553 0-1-.43-1-.96v-2.078c0-.532.447-.962 1-.962.553 0 1 .43 1 .962z" /></symbol><symbol viewBox="0 0 16 16" id="menu"><path d="M1 4a1 1 0 0 1 1-1h12a1 1 0 1 1 0 2H2a1 1 0 0 1-1-1zm0 4a1 1 0 0 1 1-1h12a1 1 0 1 1 0 2H2a1 1 0 0 1-1-1zm0 4a1 1 0 0 1 1-1h12a1 1 0 1 1 0 2H2a1 1 0 0 1-1-1z" /></symbol><symbol viewBox="0 0 16 16" id="minus-circle"><path d="M0 8a8 8 0 1 1 16 0A8 8 0 0 1 0 8zm1 0c0 3.859 3.14 7 7 7 3.859 0 7-3.141 7-7s-3.141-7-7-7-7 3.141-7 7zm3 0a1 1 0 0 1 1-1h6a1 1 0 1 1 0 2H5a1 1 0 0 1-1-1z" /></symbol><symbol viewBox="0 0 16 16" id="minus-circle-filled"><path d="M0 8a8 8 0 1 1 16 0A8 8 0 0 1 0 8zm4 0a1 1 0 0 0 1 1h6a1 1 0 1 0 0-2H5a1 1 0 0 0-1 1z" /></symbol><symbol viewBox="0 0 16 16" id="pencil"><path d="M14.586 3L13 1.414l-1.931 1.948 1.57 1.57L14.585 3zm-2.658 2.635l-1.563-1.563L3 11.5 4.5 13l7.428-7.365zm3.365-1.928L5 14l-3.917 1.567a.5.5 0 0 1-.65-.65L2 11 12.293.707a1 1 0 0 1 1.414 0l1.586 1.586a1 1 0 0 1 0 1.414zM1.795 14.205l1.425-.57-.855-.856-.57 1.426z" /></symbol><symbol viewBox="0 0 16 16" id="plugins"><path d="M15 1v5h-5V1h5zm0-1h-5a1 1 0 0 0-1 1v5a1 1 0 0 0 1 1h5a1 1 0 0 0 1-1V1a1 1 0 0 0-1-1zM6 10v5H1v-5h5zm0-1H1a1 1 0 0 0-1 1v5a1 1 0 0 0 1 1h5a1 1 0 0 0 1-1v-5a1 1 0 0 0-1-1zm9 1v5h-5v-5h5zm0-1h-5a1 1 0 0 0-1 1v5a1 1 0 0 0 1 1h5a1 1 0 0 0 1-1v-5a1 1 0 0 0-1-1z" /></symbol><symbol viewBox="0 0 16 16" id="plus"><path d="M9 2a1 1 0 0 0-2 0v5H2a1 1 0 0 0 0 2h5v5a1 1 0 0 0 2 0V9h5a1 1 0 0 0 0-2H9V2z" /></symbol><symbol viewBox="0 0 16 16" id="power"><path d="M8 1a1 1 0 0 0-1 1v5a1 1 0 0 0 2 0V2a1 1 0 0 0-1-1zm-3.57.978a.474.474 0 0 1 .663.208.534.534 0 0 1-.214.689 6 6 0 1 0 6.241 0 .534.534 0 0 1-.213-.69.474.474 0 0 1 .663-.207 7 7 0 1 1-7.14 0z" /></symbol><symbol viewBox="0 0 16 16" id="question-mark-circle"><path fill-rule="evenodd" d="M15 8A7 7 0 1 1 1 8a7 7 0 0 1 14 0zm1 0A8 8 0 1 1 0 8a8 8 0 0 1 16 0zm-8.053 3.584c-.554 0-.935-.344-.935-.838 0-.505.376-.843.935-.843.58 0 .956.338.956.843 0 .494-.376.838-.957.838zm-.94-5.393H5.702C5.653 4.596 6.91 4 8.118 4c1.252 0 2.358.64 2.358 1.96 0 .935-.548 1.365-1.063 1.73-.629.446-.865.618-.865 1.208a.28.28 0 0 1-.28.28h-.692a.317.317 0 0 1-.317-.312c-.054-.81.354-1.326.956-1.745.505-.35.827-.58.827-1.08 0-.618-.483-.88-1.004-.88-.677 0-1.032.45-1.032 1.03z" /></symbol><symbol viewBox="0 0 16 16" id="question-mark-circle-filled"><path d="M8 0a8 8 0 1 0 0 16A8 8 0 0 0 8 0zm-.054 11.85c-.609 0-1.035-.386-1.035-.938 0-.564.416-.943 1.035-.943.632 0 1.056.379 1.056.943 0 .561-.424.938-1.056.938zm1.525-4.079c-.616.437-.824.584-.824 1.127a.38.38 0 0 1-.379.379h-.692a.418.418 0 0 1-.417-.409c-.049-.748.258-1.313 1-1.829.515-.357.784-.563.784-.998 0-.576-.468-.781-.904-.781-.574 0-.931.357-.931.931v.1H5.604l-.003-.097c-.02-.649.167-1.18.553-1.578C6.602 4.154 7.3 3.9 8.118 3.9c1.224 0 2.458.637 2.458 2.061 0 .949-.522 1.398-1.105 1.81z" /></symbol><symbol viewBox="0 0 16 16" id="recycle"><path d="M6.5 0a.5.5 0 1 0 0 1h3a.5.5 0 1 0 0-1h-3zM2 2.5a.5.5 0 0 1 .5-.5h11a.5.5 0 1 1 0 1h-11a.5.5 0 0 1-.5-.5zm10 2a.5.5 0 1 1 1 0V15a1 1 0 0 1-1 1H4a1 1 0 0 1-1-1V4.5a.5.5 0 1 1 1 0V15h2V5.5a.5.5 0 1 1 1 0V15h2V5.5a.5.5 0 1 1 1 0V15h2V4.5z" /></symbol><symbol viewBox="0 0 16 16" id="refresh"><path d="M5 6.07a1 1 0 0 1-1-1V3.6A6.001 6.001 0 0 0 7.142 14.01a1 1 0 0 1-.284 1.98 8.001 8.001 0 0 1-4.15-13.92H1a1 1 0 0 1 0-2h4a1 1 0 0 1 1 1v4a1 1 0 0 1-1 1zM9.142.082a1 1 0 1 0-.284 1.98A6.001 6.001 0 0 1 12 12.472V11a1 1 0 0 0-2 0v4a1 1 0 0 0 1 1h4a1 1 0 0 0 0-2h-1.709A8.002 8.002 0 0 0 9.141.081z" /></symbol><symbol viewBox="0 0 16 16" id="reload"><path d="M2 8a6 6 0 1 1 10 4.472V11a1 1 0 0 0-2 0v4a1 1 0 0 0 1 1h4a1 1 0 0 0 0-2h-1.708a8 8 0 1 0-7.577 1.668 1 1 0 1 0 .57-1.916A6.003 6.003 0 0 1 2 8z" /></symbol><symbol viewBox="0 0 16 16" id="remove"><path d="M2.293 12.243a1 1 0 0 0 0 1.414 1 1 0 0 0 1.414 0L7.95 9.414l4.243 4.243a1 1 0 0 0 1.415-1.414L9.364 8l4.242-4.243a1 1 0 1 0-1.414-1.414L7.95 6.586 3.707 2.343a1 1 0 1 0-1.414 1.414L6.535 8l-4.242 4.243z" /></symbol><symbol viewBox="0 0 16 16" id="search"><path d="M0 6a6 6 0 1 1 10.89 3.476l4.817 4.817a1 1 0 0 1 0 1.414 1 1 0 0 1-1.414 0L9.476 10.89A5.97 5.97 0 0 1 6 12a6 6 0 0 1-6-6zm1 0c0 2.756 2.243 5 5 5s5-2.244 5-5c0-2.757-2.243-5-5-5S1 3.243 1 6z" /></symbol><symbol viewBox="0 0 16 16" id="share"><path d="M13.5 11c-.831 0-1.563.41-2.018 1.035L4.933 8.557C4.974 8.377 5 8.191 5 8c0-.192-.026-.377-.067-.557l6.549-3.477A2.495 2.495 0 0 0 16 2.5a2.5 2.5 0 0 0-5 0c0 .192.025.377.066.556L4.517 6.534A2.49 2.49 0 0 0 2.5 5.5a2.5 2.5 0 0 0 0 5 2.49 2.49 0 0 0 2.017-1.034l6.549 3.478A2.488 2.488 0 0 0 11 13.5a2.5 2.5 0 1 0 2.5-2.5zm0-10a1.5 1.5 0 1 1 0 3 1.5 1.5 0 0 1 0-3zm-11 8.5a1.5 1.5 0 1 1 .001-3.001A1.5 1.5 0 0 1 2.5 9.5zm11 5.5a1.5 1.5 0 1 1 .001-3.001A1.5 1.5 0 0 1 13.5 15z" /></symbol><symbol viewBox="0 0 16 16" id="shield"><path d="M10.472 1c.037 1.294.115 3.005 2.404 3.183.04.934.124 3.07.124 4.749 0 1.492-.406 2.566-1.315 3.481-.459.462-2.429 1.752-3.685 2.536-1.258-.785-3.226-2.074-3.685-2.536C3.406 11.498 3 10.424 3 8.932c0-1.678.083-3.814.124-4.749C5.412 4.006 5.491 2.294 5.528 1h4.944zm.44-1H5.088c-.15 0-.542.151-.542.448-.07 1.672.108 2.75-1.827 2.75-.036 0-.531.047-.573.464 0 0-.146 3.017-.146 5.27 0 1.974.663 3.237 1.606 4.187.745.749 4.053 2.797 4.053 2.797A.669.669 0 0 0 8 16a.66.66 0 0 0 .341-.085s3.308-2.048 4.053-2.797C13.337 12.169 14 10.905 14 8.932c0-2.252-.146-5.27-.146-5.27-.042-.417-.537-.464-.572-.464-1.936 0-1.757-1.078-1.827-2.75C11.454.151 11.062 0 10.912 0z" /></symbol><symbol viewBox="0 0 16 16" id="shopping-cart"><path d="M12.749 11c.418 0 .791-.258.938-.648l2.25-6a1.004 1.004 0 0 0-.115-.92A1.004 1.004 0 0 0 14.999 3H2.935L1.891 1.435A.983.983 0 0 0 2 1a1 1 0 1 0-2 0 1 1 0 0 0 1 1c.021 0 .037-.011.059-.012l1.003 1.506.829 6.63a.998.998 0 0 0 .992.876h.257l-.341 1.021A1.993 1.993 0 0 0 2 14a2 2 0 0 0 4 0h4a2 2 0 1 0 2-2c-.738 0-1.376.405-1.723 1H5.723a2.004 2.004 0 0 0-.919-.829L5.194 11h7.555zM12 13a1 1 0 1 1 0 2 1 1 0 1 1 0-2zm-7 1a1 1 0 1 1-2 0 1 1 0 1 1 2 0zm-1.117-4l-.75-6h11.866l-2.25 6H3.883z" /></symbol><symbol viewBox="0 0 16 16" id="site-page"><path fill-rule="evenodd" d="M15 1c0-.552-.445-1-1-1H2c-.555 0-1 .448-1 1v14c0 .552.445 1 1 1h12c.555 0 1-.448 1-1V1zm-1 2V1H2v2h12zM2 4v11h12V4H2zm10.5 3a.5.5 0 1 0 0-1h-4a.5.5 0 1 0 0 1h4zm0 2a.5.5 0 1 0 0-1h-4a.5.5 0 1 0 0 1h4zm0 2a.5.5 0 1 0 0-1h-9a.5.5 0 1 0 0 1h9zm0 2a.5.5 0 1 0 0-1h-9a.5.5 0 1 0 0 1h9zM4 6a1 1 0 0 0-1 1v1a1 1 0 0 0 1 1h2a1 1 0 0 0 1-1V7a1 1 0 0 0-1-1H4z" /></symbol><symbol viewBox="0 0 16 16" id="sleep"><path d="M10.278.555C8.744-.016 7.098 0 7.042 0a.5.5 0 0 0-.5.5c0 .164.084.302.205.394 0 0 1 .776 1.393 1.251 1.42 1.714 1.9 4.09 1.017 6.234-1.01 2.457-3.476 3.958-6.085 3.958-.646 0-1.3-.099-1.943-.292a.499.499 0 0 0-.227-.061c-.276 0-.542.227-.5.5a.752.752 0 0 0 .164.365 8.291 8.291 0 0 0 3.587 2.596 8.747 8.747 0 0 0 3.06.555c3.348 0 6.511-1.926 7.808-5.078 1.692-4.111-.428-8.761-4.743-10.367zm3.82 9.986C12.981 13.251 10.28 15 7.212 15a7.702 7.702 0 0 1-2.71-.491 7.481 7.481 0 0 1-2.105-1.2c.224.021.448.028.673.028 3.114 0 5.866-1.797 7.011-4.577.723-1.758.692-3.706-.084-5.485a7.47 7.47 0 0 0-1.44-2.159c.465.082.923.207 1.37.375 1.881.704 3.342 2.068 4.113 3.838a6.63 6.63 0 0 1 .056 5.212z" /></symbol><symbol viewBox="0 0 16 16" id="sliders"><path fill-rule="evenodd" d="M3 15.512c0 .27-.225.488-.5.488-.276 0-.5-.22-.5-.488V6.95a2.5 2.5 0 0 1 0-4.9V.488C2 .219 2.224 0 2.5 0c.275 0 .5.22.5.488V2.05a2.501 2.501 0 0 1 0 4.9v8.562zM4 4.5a1.5 1.5 0 1 1-3 0 1.5 1.5 0 0 1 3 0zm4 11.012c0 .27-.225.488-.5.488s-.5-.22-.5-.488V13.95a2.5 2.5 0 0 1 0-4.9V.488C7 .219 7.224 0 7.5 0s.5.22.5.488V9.05a2.501 2.501 0 0 1 0 4.9v1.562zM9 11.5a1.5 1.5 0 1 1-3 0 1.5 1.5 0 0 1 3 0zM12.5 0a.5.5 0 0 0-.5.5v3.55a2.5 2.5 0 0 0 0 4.9v6.55a.5.5 0 1 0 1 0V8.95a2.501 2.501 0 0 0 0-4.9V.5a.5.5 0 0 0-.5-.5zm0 8a1.5 1.5 0 1 0 0-3 1.5 1.5 0 0 0 0 3z" /></symbol><symbol viewBox="0 0 16 16" id="start"><path d="M1 0h14c.553 0 1 .447 1 1v14c0 .553-.447 1-1 1H1a.999.999 0 0 1-1-1V1c0-.553.447-1 1-1zm0 15h14V1H1v14zM6.812 4.65l3.7 2.96a.5.5 0 0 1 0 .78l-3.7 2.96A.5.5 0 0 1 6 10.96V5.04a.5.5 0 0 1 .812-.39z" /></symbol><symbol viewBox="0 0 16 16" id="stop"><path d="M1 0h14c.553 0 1 .447 1 1v14c0 .553-.447 1-1 1H1a.999.999 0 0 1-1-1V1c0-.553.447-1 1-1zm0 15h14V1H1v14zM6 5a1 1 0 0 0-1 1v4a1 1 0 0 0 1 1h4a1 1 0 0 0 1-1V6a1 1 0 0 0-1-1H6z" /></symbol><symbol viewBox="0 0 16 16" id="themes"><path fill-rule="evenodd" d="M3 1h8v3H3V1zM2 1a1 1 0 0 1 1-1h8a1 1 0 0 1 1 1v1h1.5a.5.5 0 0 1 .5.5v1.838a3.5 3.5 0 0 1-2.393 3.32L8 8.86V9a1 1 0 0 1 1 1v5a1 1 0 0 1-1 1H7a1 1 0 0 1-1-1v-5a1 1 0 0 1 1-1v-.5a.5.5 0 0 1 .342-.474L11.29 6.71A2.5 2.5 0 0 0 13 4.338V3h-1v1a1 1 0 0 1-1 1H8v.5a.5.5 0 0 1-.5.5.5.5 0 0 1-.5-.5V5H6v1.5a.5.5 0 0 1-.5.5.5.5 0 0 1-.5-.5V5H4v2.5a.5.5 0 0 1-.5.5.5.5 0 0 1-.5-.5V5a1 1 0 0 1-1-1V1zm5 9h1v5H7v-5z" /></symbol><symbol viewBox="0 0 16 16" id="three-dots-horizontal"><path d="M3.5 10a1.5 1.5 0 1 1 .001-3.001A1.5 1.5 0 0 1 3.5 10zm0-1a.5.5 0 1 0-.001-1.001A.5.5 0 0 0 3.5 9zm5-2a1.5 1.5 0 1 1-.001 3.001A1.5 1.5 0 0 1 8.5 7zm0 1a.5.5 0 1 0 .001 1.001A.5.5 0 0 0 8.5 8zm5-1a1.5 1.5 0 1 1-.001 3.001A1.5 1.5 0 0 1 13.5 7zm0 1a.5.5 0 1 0 .001 1.001A.5.5 0 0 0 13.5 8z" /></symbol><symbol viewBox="0 0 16 16" id="triangle-exclamation-mark"><path d="M8.133 1.68L14.702 15H1.313l6.82-13.32zM8.143 0a.46.46 0 0 0-.414.276l-7.68 15a.542.542 0 0 0 .02.488.457.457 0 0 0 .393.236h15.075c.158 0 .311-.09.395-.236a.538.538 0 0 0 .021-.486l-7.395-15A.464.464 0 0 0 8.144 0zM7 8a1 1 0 0 1 2 0v2a1 1 0 0 1-2 0V8zm1 4a1 1 0 1 0 0 2 1 1 0 0 0 0-2z" /></symbol><symbol viewBox="0 0 16 16" id="triangle-exclamation-mark-filled"><path fill-rule="evenodd" d="M8.143 0a.46.46 0 0 0-.414.276l-7.68 15a.542.542 0 0 0 .02.488.457.457 0 0 0 .393.236h15.076c.158 0 .31-.09.395-.236a.538.538 0 0 0 .02-.486l-7.395-15A.464.464 0 0 0 8.144 0zM7 8a1 1 0 0 1 2 0v2a1 1 0 0 1-2 0V8zm1 4a1 1 0 1 0 0 2 1 1 0 0 0 0-2z" /></symbol><symbol viewBox="0 0 16 16" id="unarchive"><path d="M4 0h2v2H4V0zm2 4V2h2v2H6zm0 2H4V4h2v2zm0 2V6h2v2H6zm0 0v2H4V8h2zm-2 4a1 1 0 0 1 1-1h2a1 1 0 0 1 1 1v3a1 1 0 0 1-1 1H5a1 1 0 0 1-1-1v-3zm1 1v2h2v-2H5zm9-7.5a.501.501 0 0 1-.5.5.501.501 0 0 1-.5-.5V2H9.5a.5.5 0 0 1-.5-.5.5.5 0 0 1 .5-.5h4c.275 0 .5.224.5.5v4zM.5 1H2a.5.5 0 0 1 0 1H1v12h1a.5.5 0 0 1 0 1H.5a.5.5 0 0 1-.5-.5v-13A.5.5 0 0 1 .5 1zm11.646 8.146a.5.5 0 0 1 .707 0l3 3A.498.498 0 0 1 16 12.5a.498.498 0 0 1-.146.353l-3 3a.5.5 0 0 1-.707 0 .5.5 0 0 1 0-.706L14.293 13H9.5a.5.5 0 0 1-.5-.5.5.5 0 0 1 .5-.5h4.793l-2.147-2.147a.5.5 0 0 1 0-.706z" /></symbol><symbol viewBox="0 0 16 16" id="user"><path d="M8.037 1c.16 0 .57.033.85.061.565.146 1.284.527 1.34 1.992.037 1.026.043 1.965-.269 3.053-.079.221-.149.427-.216.619-.342.993-.476 1.345-.801 1.541l-.562.338.278 2.049.739.109c2.119.314 4.76.705 5.006 1.94L14.809 15H1.192l.401-2.275c.251-1.257 2.891-1.646 5.011-1.961l.743-.111.271-2.049-.56-.338c-.324-.196-.459-.549-.801-1.543-.066-.193-.136-.398-.215-.618-.312-1.087-.306-2.026-.267-3.053.054-1.465.772-1.846 1.338-1.991.28-.028.689-.061.849-.061h.075zm0-1h-.075C7.66 0 6.943.072 6.943.072c-1.76.414-2.129 1.895-2.168 2.943-.039 1.065-.048 2.148.315 3.398.521 1.453.679 2.246 1.453 2.71-.026.209-.055.429-.085.65-2.579.382-5.458.811-5.846 2.756L0 16h16l-.611-3.471c-.39-1.945-3.269-2.374-5.846-2.756a46.254 46.254 0 0 1-.087-.65c.774-.465.933-1.257 1.454-2.71.361-1.25.354-2.333.314-3.397-.039-1.049-.408-2.529-2.17-2.943C9.057.072 8.34 0 8.037 0z" /></symbol></defs></svg>