<svg width="16" height="4108" xmlns="http://www.w3.org/2000/svg" xmlns:xlink="http://www.w3.org/1999/xlink">
  <defs>
    <symbol viewBox="0 0 16 16" id="archive">
      <path d="M13 5.702l-1.153 1.153a.496.496 0 0 1-.702-.702l1.952-1.951A.5.5 0 0 1 13.498 4h.004a.495.495 0 0 1 .401.202l1.952 1.951a.496.496 0 0 1-.702.702L14 5.702V11.5a.5.5 0 0 1-1 0V5.702z" />
      <path d="M13 1H3v14h10v-.5a.5.5 0 0 1 1 0v.5a1 1 0 0 1-1 1H3a1 1 0 0 1-1-1V1a1 1 0 0 1 1-1h10a1 1 0 0 1 1 1v.5a.5.5 0 0 1-1 0V1z" />
      <path d="M5 2.5a.5.5 0 0 1 .5-.5H7v1H5.5a.5.5 0 0 1-.5-.5zM7 4V3h1.5a.5.5 0 0 1 0 1H7zM7 5H5.5a.5.5 0 0 1 0-1H7v1zM7 6V5h1.5a.5.5 0 0 1 0 1H7zM7 7H5.5a.5.5 0 0 1 0-1H7v1zM7 8V7h1.5a.5.5 0 0 1 0 1H7zM7 9H5.5a.5.5 0 0 1 0-1H7v1zM7 10V9h1.5a.5.5 0 0 1 0 1H7zM7 11H5.5a.5.5 0 0 1 0-1H7v1zM7 12v-1h1.5a.5.5 0 0 1 0 1H7zM7 13H5.5a.5.5 0 0 1 0-1H7v1zM7 13h1.5a.5.5 0 0 1 0 1H7v-1z" />
    </symbol>
    <symbol viewBox="0 0 16 16" id="arrow-diagonal-out">
      <path d="M5.645 10.355a.496.496 0 0 1 0-.702L14.298 1H10.5a.5.5 0 0 1 0-1h5.002A.494.494 0 0 1 16 .498V5.5a.5.5 0 0 1-1 0V1.702l-8.653 8.653a.496.496 0 0 1-.702 0z" />
      <path d="M8 4.5a.5.5 0 0 0-.5-.5H1a1 1 0 0 0-1 1v10a1 1 0 0 0 1 1h10a1 1 0 0 0 1-1V8.5a.5.5 0 0 0-1 0V15H1V5h6.5a.5.5 0 0 0 .5-.5z" />
    </symbol>
    <symbol viewBox="0 0 16 16" id="arrow-down">
      <path d="M8 .5a.5.5 0 0 1 1 0v13.7984l2.6531-2.6531a.4962.4962 0 0 1 .7016.7016l-3.4513 3.4513A.4944.4944 0 0 1 8.502 16h-.004a.4944.4944 0 0 1-.4014-.2018l-3.4513-3.4513a.4961.4961 0 0 1 .7016-.7016L8 14.2984V.5z" />
    </symbol>
    <symbol viewBox="0 0 16 16" id="arrow-down-in">
      <path d="M15 2v13H2V2h1.5a.5.5 0 0 0 0-1H2c-.5523 0-1 .4477-1 1v13c0 .5523.4477 1 1 1h13c.5523 0 1-.4477 1-1V2c0-.5523-.4477-1-1-1h-1.5a.5.5 0 0 0 0 1H15z" />
      <path d="M11.6531 7.6453a.4961.4961 0 0 1 .7016.7016l-3.4513 3.4513A.4944.4944 0 0 1 8.502 12h-.004a.4944.4944 0 0 1-.4014-.2018L4.6453 8.3469a.496.496 0 0 1 .7016-.7016L8 10.2984V.5a.5.5 0 0 1 1 0v9.7984l2.6531-2.6531z" />
    </symbol>
    <symbol viewBox="0 0 16 16" id="arrow-down-out">
      <path d="M11.6531 11.6453a.4962.4962 0 0 1 .7016.7016l-3.4513 3.4513A.4944.4944 0 0 1 8.502 16h-.004a.4944.4944 0 0 1-.4014-.2018l-3.4513-3.4513a.4961.4961 0 0 1 .7016-.7016L8 14.2984V4.5a.5.5 0 0 1 1 0v9.7984l2.6531-2.6531z" />
      <path d="M15 14V1H2v13h1.5a.5.5 0 0 1 0 1H2c-.5523 0-1-.4477-1-1V1c0-.5523.4477-1 1-1h13c.5523 0 1 .4477 1 1v13c0 .5523-.4477 1-1 1h-1.5a.5.5 0 0 1 0-1H15z" />
    </symbol>
    <symbol viewBox="0 0 16 16" id="arrow-down-tray">
      <path d="M8 .5a.5.5 0 0 1 1 0v10.7984l2.6531-2.6531a.4961.4961 0 0 1 .7016.7016l-3.4513 3.4513A.4944.4944 0 0 1 8.502 13h-.004a.4944.4944 0 0 1-.4014-.2018L4.6453 9.3469a.496.496 0 0 1 .7016-.7016L8 11.2984V.5z" />
      <path d="M2 15v-1.5a.5.5 0 0 0-1 0V15c0 .5523.4477 1 1 1h13c.5523 0 1-.4477 1-1v-1.5a.5.5 0 0 0-1 0V15H2z" />
    </symbol>
    <symbol viewBox="0 0 16 16" id="arrow-left">
      <path d="M.2018 8.0966A.4945.4945 0 0 0 0 8.498V8.5a.4945.4945 0 0 0 .2018.4034l3.4513 3.4513a.4961.4961 0 0 0 .7016-.7016L1.7016 9H15.5a.5.5 0 0 0 0-1H1.7016l2.6531-2.6531a.496.496 0 0 0-.7016-.7016L.2018 8.0966z" />
    </symbol>
    <symbol viewBox="0 0 16 16" id="arrow-right">
      <path d="M11.6453 5.3469a.4961.4961 0 0 1 .7016-.7016l3.4513 3.4513A.4944.4944 0 0 1 16 8.498v.004a.4944.4944 0 0 1-.2018.4014l-3.4513 3.4513a.4962.4962 0 0 1-.7016-.7016L14.2984 9H.5a.5.5 0 0 1 0-1h13.7984l-2.6531-2.6531z" />
    </symbol>
    <symbol viewBox="0 0 16 16" id="arrow-right-in">
      <path d="M2 2h13v13H2v-1.5a.5.5 0 0 0-1 0V15c0 .5523.4477 1 1 1h13c.5523 0 1-.4477 1-1V2c0-.5523-.4477-1-1-1H2c-.5523 0-1 .4477-1 1v1.5a.5.5 0 0 0 1 0V2z" />
      <path d="M7.6453 5.3469a.496.496 0 0 1 .7016-.7016l3.4513 3.4513A.4944.4944 0 0 1 12 8.498v.004a.4944.4944 0 0 1-.2018.4014l-3.4513 3.4513a.4961.4961 0 0 1-.7016-.7016L10.2984 9H.5a.5.5 0 0 1 0-1h9.7984L7.6453 5.3469z" />
    </symbol>
    <symbol viewBox="0 0 16 16" id="arrow-right-out">
      <path d="M11.6453 5.3469a.4961.4961 0 0 1 .7016-.7016l3.4513 3.4513A.4944.4944 0 0 1 16 8.498v.004a.4944.4944 0 0 1-.2018.4014l-3.4513 3.4513a.4962.4962 0 0 1-.7016-.7016L14.2984 9H4.5a.5.5 0 0 1 0-1h9.7984l-2.6531-2.6531z" />
      <path d="M14 2H1v13h13v-1.5a.5.5 0 0 1 1 0V15c0 .5523-.4477 1-1 1H1c-.5523 0-1-.4477-1-1V2c0-.5523.4477-1 1-1h13c.5523 0 1 .4477 1 1v1.5a.5.5 0 0 1-1 0V2z" />
    </symbol>
    <symbol viewBox="0 0 16 16" id="arrow-up">
      <path d="M7.0966.2018L3.6453 3.6531a.496.496 0 0 0 .7016.7016L7 1.7016V15.5a.5.5 0 0 0 1 0V1.7016l2.6531 2.6531a.4961.4961 0 0 0 .7016-.7016L7.9034.2018A.4946.4946 0 0 0 7.5 0h-.002a.4945.4945 0 0 0-.4014.2018z" />
    </symbol>
    <symbol viewBox="0 0 16 16" id="arrow-up-circle">
      <path d="M11.0002 14.8454c0-.2079.1259-.3937.3132-.4837 2.1813-1.0488 3.6869-3.2793 3.6869-5.8615C15.0003 4.9102 12.0901 2 8.5002 2 4.9102 2 2 4.9102 2 8.5002c0 2.5822 1.5057 4.8127 3.687 5.8615.1872.09.3131.2758.3131.4837 0 .3554-.3518.6029-.6738.4523C2.7706 14.1023 1 11.508 1 8.5002 1 4.358 4.358 1 8.5002 1c4.1422 0 7.5002 3.358 7.5002 7.5002 0 3.0078-1.7706 5.6021-4.3264 6.7975-.3219.1506-.6738-.0969-.6738-.4523z" />
      <path d="M11.6534 8.3545a.4961.4961 0 0 0 .7016-.7016L8.9036 4.2015a.4946.4946 0 0 0-.4015-.2018h-.0039a.4946.4946 0 0 0-.4014.2018L4.6454 7.653a.496.496 0 1 0 .7016.7016l2.6532-2.6532V15.5a.5.5 0 0 0 1 0V5.7013l2.6532 2.6532z" />
    </symbol>
    <symbol viewBox="0 0 16 16" id="arrow-up-in">
      <path d="M15 14V1H2v13h1.5a.5.5 0 0 1 0 1H2c-.5523 0-1-.4477-1-1V1c0-.5523.4477-1 1-1h13c.5523 0 1 .4477 1 1v13c0 .5523-.4477 1-1 1h-1.5a.5.5 0 0 1 0-1H15z" />
      <path d="M11.6531 8.3547a.4961.4961 0 0 0 .7016-.7016L8.9034 4.2018A.4946.4946 0 0 0 8.502 4h-.004a.4946.4946 0 0 0-.4014.2018L4.6453 7.6531a.496.496 0 0 0 .7016.7016L8 5.7016V15.5a.5.5 0 0 0 1 0V5.7016l2.6531 2.6531z" />
    </symbol>
    <symbol viewBox="0 0 16 16" id="arrow-up-in-cloud">
      <path d="M3.3935 6.0386c.5447.1084 1.0734-.2479 1.1774-.7934.3525-1.8482 1.9788-3.245 3.9291-3.245 1.6549 0 3.0772 1.005 3.6856 2.4421a1 1 0 0 0 .7488.5953C14.1079 5.2426 15 6.2682 15 7.5c0 1.3203-1.024 2.4022-2.3204 2.4937l-.0894.0063H11.5a.5.5 0 0 0 0 1h1.25v-.0088C14.5663 10.8631 16 9.3491 16 7.5001c0-1.7261-1.2496-3.1604-2.8935-3.4476C12.3471 2.2587 10.5705 1 8.5 1c-2.412 0-4.425 1.7078-4.896 3.9802a5.0906 5.0906 0 0 0-.0154.0776A3.0174 3.0174 0 0 0 3 5.0002c-1.6568 0-3 1.343-3 3C0 9.657 1.3432 11 3 11h2.5a.5.5 0 1 0 0-1H3c-1.1046 0-2-.8954-2-2 0-1.1045.8954-2 2-2 .1356 0 .267.0134.3935.0385z" />
      <path d="M8.0966 4.202L4.6453 7.6532a.496.496 0 1 0 .7016.7015L8 5.7017V15.5a.5.5 0 1 0 1 0V5.7017l2.6531 2.6531a.4961.4961 0 0 0 .7016-.7015L8.9034 4.2019a.4945.4945 0 0 0-.4014-.2018h-.004a.4945.4945 0 0 0-.4014.2018z" />
    </symbol>
    <symbol viewBox="0 0 16 16" id="arrow-up-out">
      <path d="M11.6531 4.3547a.4961.4961 0 0 0 .7016-.7016L8.9034.2018A.4945.4945 0 0 0 8.502 0h-.004a.4945.4945 0 0 0-.4014.2018L4.6453 3.6531a.496.496 0 0 0 .7016.7016L8 1.7016V11.5a.5.5 0 0 0 1 0V1.7016l2.6531 2.6531z" />
      <path d="M15 2v13H2V2h1.5a.5.5 0 0 0 0-1H2c-.5523 0-1 .4477-1 1v13c0 .5523.4477 1 1 1h13c.5523 0 1-.4477 1-1V2c0-.5523-.4477-1-1-1h-1.5a.5.5 0 0 0 0 1H15z" />
    </symbol>
    <symbol viewBox="0 0 16 16" id="arrow-up-tray">
      <path d="M8.5 13a.5.5 0 0 1-.5-.5V1.7016L5.3469 4.3547a.496.496 0 0 1-.7016-.7016L8.0966.2018A.4945.4945 0 0 1 8.498 0h.004a.4945.4945 0 0 1 .4014.2018l3.4513 3.4513a.4961.4961 0 0 1-.7016.7016L9 1.7016V12.5a.5.5 0 0 1-.5.5z" />
      <path d="M2 13.5V15h13v-1.5a.5.5 0 0 1 1 0V15c0 .5523-.4477 1-1 1H2c-.5523 0-1-.4477-1-1v-1.5a.5.5 0 0 1 1 0z" />
    </symbol>
    <symbol viewBox="0 0 16 16" id="arrows-four-directions">
      <path d="M6.1453 3.1531l1.9513-1.9513A.4946.4946 0 0 1 8.498 1h.004a.4946.4946 0 0 1 .4014.2018l1.9513 1.9513a.496.496 0 1 1-.7015.7016L9 2.7016V8h5.2985l-1.1532-1.1532a.4961.4961 0 0 1 .7016-.7015l1.9513 1.9513A.4944.4944 0 0 1 16 8.498v.004a.4944.4944 0 0 1-.2018.4013l-1.9513 1.9514a.4962.4962 0 0 1-.7016-.7016L14.2985 9H9v5.2984l1.1532-1.1531a.496.496 0 1 1 .7015.7016l-1.9513 1.9513A.4944.4944 0 0 1 8.502 16h-.004a.4944.4944 0 0 1-.4013-.2018l-1.9514-1.9513a.4961.4961 0 0 1 .7016-.7016L8 14.2984V9H2.7016l1.1531 1.1531a.4961.4961 0 0 1-.7016.7016L1.2018 8.9034A.4946.4946 0 0 1 1 8.502v-.004a.4946.4946 0 0 1 .2018-.4014l1.9513-1.9513a.496.496 0 0 1 .7016.7015L2.7016 8H8V2.7016L6.847 3.8547a.496.496 0 0 1-.7016-.7016z" />
    </symbol>
    <symbol viewBox="0 0 16 16" id="arrows-inward">
      <path d="M1.1453 1.1453a.496.496 0 0 0 0 .7016L4.2984 5H2.5a.5.5 0 0 0 0 1h3.002a.4946.4946 0 0 0 .3527-.1453A.4945.4945 0 0 0 6 5.5019V2.5a.5.5 0 0 0-1 0v1.7984L1.8469 1.1453a.496.496 0 0 0-.7016 0zM14.8547 1.1453a.4961.4961 0 0 1 0 .7016L11.7016 5H13.5a.5.5 0 0 1 0 1h-3.0019a.4946.4946 0 0 1-.3528-.1453A.4945.4945 0 0 1 10 5.5019V2.5a.5.5 0 0 1 1 0v1.7984l3.1531-3.1531a.4961.4961 0 0 1 .7016 0zM1.1453 14.8547a.4961.4961 0 0 1 0-.7016L4.2984 11H2.5a.5.5 0 0 1 0-1h3.002a.4944.4944 0 0 1 .3527.1453.4946.4946 0 0 1 .1453.3528V13.5a.5.5 0 0 1-1 0v-1.7984l-3.1531 3.1531a.4961.4961 0 0 1-.7016 0zM14.8547 14.8547a.4962.4962 0 0 0 0-.7016L11.7016 11H13.5a.5.5 0 0 0 0-1h-3.0019a.4945.4945 0 0 0-.3528.1453.4945.4945 0 0 0-.1453.3528V13.5a.5.5 0 0 0 1 0v-1.7984l3.1531 3.1531a.4962.4962 0 0 0 .7016 0z" />
    </symbol>
    <symbol viewBox="0 0 16 16" id="arrows-loop">
      <path d="M3 3h10v4.2984l-1.1531-1.153a.4961.4961 0 0 0-.7016.7015l1.9513 1.9513A.4946.4946 0 0 0 13.5 9a.4946.4946 0 0 0 .4034-.2018l1.9513-1.9513a.4961.4961 0 0 0-.7016-.7016L14 7.2985V3c0-.5523-.4477-1-1-1H3c-.5523 0-1 .4477-1 1v1.5a.5.5 0 0 0 1 0V3zM13 11.5a.5.5 0 0 1 1 0V13c0 .5523-.4477 1-1 1H3c-.5523 0-1-.4477-1-1V8.7015L.8469 9.8547a.4961.4961 0 0 1-.7016-.7016l1.9513-1.9513A.4946.4946 0 0 1 2.5 7a.4946.4946 0 0 1 .4034.2018l1.9513 1.9513a.496.496 0 1 1-.7016.7016L3 8.7015V13h10v-1.5z" />
    </symbol>
    <symbol viewBox="0 0 16 16" id="arrows-outward">
      <path d="M10.145 10.145a.496.496 0 0 0 0 .702L13.298 14H11.5a.5.5 0 0 0 0 1h3.002a.494.494 0 0 0 .498-.498V11.5a.5.5 0 0 0-1 0v1.798l-3.153-3.153a.496.496 0 0 0-.702 0zM5.855 10.145a.496.496 0 0 1 0 .702L2.702 14H4.5a.5.5 0 0 1 0 1h-3-.002A.494.494 0 0 1 1 14.502V11.5a.5.5 0 0 1 1 0v1.798l3.153-3.153a.496.496 0 0 1 .702 0zM10.145 5.855a.496.496 0 0 1 0-.702L13.298 2H11.5a.5.5 0 0 1 0-1h3.002a.495.495 0 0 1 .498.498V4.5a.5.5 0 0 1-1 0V2.702l-3.153 3.153a.496.496 0 0 1-.702 0zM5.855 5.855a.496.496 0 0 0 0-.702L2.702 2H4.5a.5.5 0 0 0 0-1h-3-.002A.495.495 0 0 0 1 1.498V4.5a.5.5 0 0 0 1 0V2.702l3.153 3.153a.496.496 0 0 0 .702 0z" />
    </symbol>
    <symbol viewBox="0 0 16 16" id="backup">
      <path d="M3 1.324h10v.5a.5.5 0 0 0 1 0v-.5a1 1 0 0 0-1-1H3a1 1 0 0 0-1 1v14a1 1 0 0 0 1 1h10a1 1 0 0 0 1-1v-.5a.5.5 0 0 0-1 0v.5H3v-14z" />
      <path d="M5.145 7.47a.501.501 0 0 1 .057-.05l2.951-2.95a.496.496 0 0 1 .702.701L6.702 7.324H14a2 2 0 1 1 0 4h-.48a.5.5 0 1 1 0-1H14a1 1 0 1 0 0-2H6.702l2.153 2.153a.496.496 0 1 1-.702.702L5.202 8.228a.5.5 0 0 1-.057-.758z" />
    </symbol>
    <symbol viewBox="0 0 16 16" id="bar-chart-vertical">
      <path d="M0 15.5a.5.5 0 0 1 .5-.5h14a.5.5 0 0 1 0 1H.5a.5.5 0 0 1-.5-.5zM1 9.5a.5.5 0 0 1 1 0v4a.5.5 0 0 1-1 0v-4zM4 2.5a.5.5 0 0 1 1 0v11a.5.5 0 0 1-1 0v-11zM7 6.5a.5.5 0 0 1 1 0v7a.5.5 0 0 1-1 0v-7zM10 4.5a.5.5 0 0 1 1 0v9a.5.5 0 0 1-1 0v-9zM13 .5a.5.5 0 0 1 1 0v13a.5.5 0 0 1-1 0V.5z" />
    </symbol>
    <symbol viewBox="0 0 16 16" id="bar-chart-vertical-arrow-up">
      <path d="M8.5 13a.5.5 0 0 1-.5-.5v-2a.5.5 0 0 1 1 0v2a.5.5 0 0 1-.5.5zM10 12.5a.5.5 0 0 0 1 0v-4a.5.5 0 0 0-1 0v4zM12.5 13a.5.5 0 0 1-.5-.5v-6a.5.5 0 0 1 1 0v6a.5.5 0 0 1-.5.5z" />
      <path d="M4.145 11.855a.496.496 0 0 1 0-.702L13.298 2H9.5a.5.5 0 0 1 0-1h5.002a.495.495 0 0 1 .498.5v5a.5.5 0 0 1-1 0V2.702l-9.153 9.153a.496.496 0 0 1-.702 0z" />
      <path d="M1.5 15a.5.5 0 0 1-.5-.5v-13a.5.5 0 0 1 1 0V14h12.5a.5.5 0 0 1 0 1h-13z" />
    </symbol>
    <symbol viewBox="0 0 16 16" id="bell">
      <path d="M12 9.4c0 .39.12.78.34 1.1l1.4 2.11c.11.17 0 .39-.2.39H9a1 1 0 1 1-2 0H2.47a.25.25 0 0 1-.21-.39l1.4-2.1A2 2 0 0 0 4 9.38V5a4 4 0 1 1 8 0v4.4zm.13 2.6l-.63-.94a3 3 0 0 1-.5-1.67V5a3 3 0 1 0-6 0v4.4a3 3 0 0 1-.5 1.66l-.63.94h8.26zM1.84 4.55c.17-.22.17-.54-.02-.73a.48.48 0 0 0-.7.01 5 5 0 0 0 0 6.33c.18.22.5.22.7.02.2-.2.19-.5.02-.73a4 4 0 0 1 0-4.9z" />
      <path d="M3.23 5.23c-.2-.2-.51-.2-.67.03a3 3 0 0 0 0 3.48c.16.22.48.22.67.03.2-.2.2-.51.05-.75a2 2 0 0 1 0-2.04c.14-.24.15-.55-.05-.75zm10.93-.68c-.17-.22-.17-.54.02-.73.2-.2.52-.2.7.01a5 5 0 0 1 0 6.33c-.18.22-.5.22-.7.02-.2-.2-.19-.5-.02-.73a4 4 0 0 0 0-4.9z" />
      <path d="M12.77 5.23c.2-.2.51-.2.67.03a3 3 0 0 1 0 3.48c-.16.22-.48.22-.67.03-.2-.2-.2-.51-.05-.75a2 2 0 0 0 0-2.04c-.14-.24-.15-.55.05-.75z" />
    </symbol>
    <symbol viewBox="0 0 16 16" id="box-diagonal-bottom-in">
      <path fill-rule="evenodd" d="M0 1a1 1 0 0 1 1-1h5a1 1 0 0 1 1 1v3h8a1 1 0 0 1 1 1v10a1 1 0 0 1-1 1H5a1 1 0 0 1-1-1V7H1a1 1 0 0 1-1-1V1zm1 0h5v5H1V1zm4 6v8h10V5H7V6.3l4 4V8.5a.5.5 0 1 1 1 0v3a.495.495 0 0 1-.499.5H8.5a.5.5 0 1 1 0-1h1.798l-4-4H5z" clip-rule="evenodd" />
    </symbol>
    <symbol viewBox="0 0 16 16" id="box-diagonal-top-in">
      <path fill-rule="evenodd" d="M0 15a1 1 0 0 0 1 1h5a1 1 0 0 0 1-1v-3h8a1 1 0 0 0 1-1V1a1 1 0 0 0-1-1H5a1 1 0 0 0-1 1v8H1a1 1 0 0 0-1 1v5zm1 0h5v-5H1v5zm4-6V1h10v10H7V9.702l4-4V7.5a.5.5 0 1 0 1 0v-3a.495.495 0 0 0-.499-.5H8.5a.5.5 0 0 0 0 1h1.798l-4 4H5z" clip-rule="evenodd" />
    </symbol>
    <symbol viewBox="0 0 16 16" id="bug">
      <path fill-rule="evenodd" d="M11.8524.8536l-1.2671 1.267a2.4857 2.4857 0 0 1 .3922 1.0422 3.0094 3.0094 0 0 1 1.69 1.4632l1.2296-1.2296a.5.5 0 1 1 .7071.7072l-1.617 1.617c.0085.092.0128.1852.0128.2794v2h1.5a.5.5 0 0 1 0 1H13v2.0429l1.6024 1.6024a.5001.5001 0 0 1-.7071.7071l-.9798-.9798C12.5092 14.4402 10.6867 16 8.5 16c-2.187 0-4.0098-1.5603-4.4157-3.6284l-.9808.9808a.5001.5001 0 0 1-.707-.7071L4 11.0417V9H2.5a.5.5 0 0 1 0-1H4V6c0-.0944.0044-.1878.0129-.28L2.3965 4.1036a.5.5 0 1 1 .707-.7071l1.2292 1.229a3.0095 3.0095 0 0 1 1.6898-1.4627 2.4858 2.4858 0 0 1 .3917-1.0415L5.1464.8536a.5.5 0 1 1 .7072-.7072l1.2677 1.2678A2.4884 2.4884 0 0 1 8.5 1c.5092 0 .983.1523 1.378.4137L11.1453.1464a.5.5 0 1 1 .7071.7072zM12 7v4.5c0 1.7632-1.3039 3.2219-3 3.4646V7h3zm-7 4.5c0 1.7632 1.3038 3.2219 3 3.4646V7H5v4.5zM7 4c-1.1046 0-2 .8954-2 2h7c0-1.1046-.8954-2-2-2H7zm1.5-2c-.6531 0-1.2087.4174-1.4146 1h2.8293C9.7087 2.4174 9.153 2 8.5 2z" clip-rule="evenodd" />
    </symbol>
    <symbol viewBox="0 0 16 16" id="calendar">
      <path fill-rule="evenodd" d="M13.5 1a.5.5 0 0 0-.5.5V2H8.5v-.5a.5.5 0 0 0-1 0V2H3v-.5a.5.5 0 0 0-1 0V2H1a1 1 0 0 0-1 1v10a1 1 0 0 0 1 1h14a1 1 0 0 0 1-1V3a1 1 0 0 0-1-1h-1v-.5a.5.5 0 0 0-.5-.5zM2 3H1v2h14V3h-1v.5a.5.5 0 0 1-1 0V3H8.5v.5a.5.5 0 0 1-1 0V3H3v.5a.5.5 0 0 1-1 0V3zM1 13V6h14v7H1z" clip-rule="evenodd" />
    </symbol>
    <symbol viewBox="0 0 16 16" id="calendar-clock">
      <path fill-rule="evenodd" d="M13 .5a.5.5 0 0 1 1 0V1h1a1 1 0 0 1 1 1v10a1 1 0 0 1-1 1h-2a.5.5 0 0 1 0-1h2V5H1v7h2a.5.5 0 0 1 0 1H1a1 1 0 0 1-1-1V2a1 1 0 0 1 1-1h1V.5a.5.5 0 0 1 1 0V1h4.5V.5a.5.5 0 0 1 1 0V1H13V.5zM1 2h1v.5a.5.5 0 0 0 1 0V2h4.5v.5a.5.5 0 0 0 1 0V2H13v.5a.5.5 0 0 0 1 0V2h1v2H1V2z" clip-rule="evenodd" />
      <path fill-rule="evenodd" d="M8 15a2.5 2.5 0 1 0 0-5 2.5 2.5 0 0 0 0 5zm0 1a3.5 3.5 0 1 0 0-7 3.5 3.5 0 0 0 0 7z" clip-rule="evenodd" />
      <path fill-rule="evenodd" d="M7.5 11a.5.5 0 0 1 1 0v1.191l.776.388a.5.5 0 1 1-.447.895l-.776-.389a1 1 0 0 1-.553-.894V11z" clip-rule="evenodd" />
    </symbol>
    <symbol viewBox="0 0 16 16" id="camera">
      <path fill-rule="evenodd" d="M8 12a3 3 0 1 0 0-6 3 3 0 0 0 0 6zm0 1a4 4 0 1 0 0-8 4 4 0 0 0 0 8z" clip-rule="evenodd" />
      <path fill-rule="evenodd" d="M4.473 4.53a1 1 0 0 1-.848.47H1v9h14V5h-2.625a1 1 0 0 1-.848-.47L9.946 2H6.054L4.473 4.53zm.733-3.06A1 1 0 0 1 6.054 1h3.892a1 1 0 0 1 .848.47L12.375 4H15a1 1 0 0 1 1 1v9a1 1 0 0 1-1 1H1a1 1 0 0 1-1-1V5a1 1 0 0 1 1-1h2.625l1.581-2.53z" clip-rule="evenodd" />
      <path d="M13.875 6.75a.625.625 0 1 1-1.25 0 .625.625 0 0 1 1.25 0z" />
    </symbol>
    <symbol viewBox="0 0 16 16" id="card">
      <path d="M8.5 6a.5.5 0 0 0 0 1h5a.5.5 0 0 0 0-1h-5zM8 8.5a.5.5 0 0 1 .5-.5h5a.5.5 0 0 1 0 1h-5a.5.5 0 0 1-.5-.5zM8.5 10a.5.5 0 0 0 0 1h5a.5.5 0 0 0 0-1h-5zM2.5 8a.5.5 0 0 0 0 1h2a.5.5 0 0 0 0-1h-2zM2 10.5a.5.5 0 0 1 .5-.5h2a.5.5 0 0 1 0 1h-2a.5.5 0 0 1-.5-.5z" />
      <path fill-rule="evenodd" d="M0 13a1 1 0 0 0 1 1h14a1 1 0 0 0 1-1V3a1 1 0 0 0-1-1H1a1 1 0 0 0-1 1v10zM7 3h8v10H7V3zM6 3v3H1V3h5zm0 4H1v6h5V7z" clip-rule="evenodd" />
    </symbol>
    <symbol viewBox="0 0 16 16" id="card-row">
      <path d="M6 3.5a.5.5 0 0 1 .5-.5h7a.5.5 0 0 1 0 1h-7a.5.5 0 0 1-.5-.5z" />
      <path fill-rule="evenodd" d="M0 1a1 1 0 0 1 1-1h14a1 1 0 0 1 1 1v5a1 1 0 0 1-1 1H1a1 1 0 0 1-1-1V1zm5 0h10v5H5V1zM4 1H1v5h3V1z" clip-rule="evenodd" />
      <path d="M6.5 11a.5.5 0 0 0 0 1h7a.5.5 0 1 0 0-1h-7z" />
      <path fill-rule="evenodd" d="M0 9a1 1 0 0 1 1-1h14a1 1 0 0 1 1 1v5a1 1 0 0 1-1 1H1a1 1 0 0 1-1-1V9zm1 0h3v5H1V9zm4 5V9h10v5H5z" clip-rule="evenodd" />
    </symbol>
    <symbol viewBox="0 0 16 16" id="card-tile">
      <path d="M4 8.5a.5.5 0 0 1 .5-.5h7a.5.5 0 0 1 0 1h-7a.5.5 0 0 1-.5-.5zM4.5 10a.5.5 0 0 0 0 1h7a.5.5 0 0 0 0-1h-7zM4 12.5a.5.5 0 0 1 .5-.5h7a.5.5 0 0 1 0 1h-7a.5.5 0 0 1-.5-.5z" />
      <path fill-rule="evenodd" d="M3 0a1 1 0 0 0-1 1v14a1 1 0 0 0 1 1h10a1 1 0 0 0 1-1V1a1 1 0 0 0-1-1H3zm10 1H3v4h10V1zm0 5H3v9h10V6z" clip-rule="evenodd" />
    </symbol>
    <symbol viewBox="0 0 16 16" id="cd">
      <path fill-rule="evenodd" d="M8 15c3.866 0 7-3.134 7-7s-3.134-7-7-7-7 3.134-7 7 3.134 7 7 7zm0 1c4.4183 0 8-3.5817 8-8s-3.5817-8-8-8-8 3.5817-8 8 3.5817 8 8 8z" clip-rule="evenodd" />
      <path d="M13.4761 8.5C13.2079 8.5 13 8.2682 13 8c0-2.7614-2.2386-5-5-5-.2682 0-.5-.208-.5-.4761v-.0467c0-.258.198-.4752.456-.477A5.8423 5.8423 0 0 1 8 2c3.3137 0 6 2.6863 6 6l-.0002.044c-.0018.258-.2189.456-.477.456h-.0467zM8.5 13.4761C8.5 13.2079 8.2681 13 8 13c-2.7614 0-5-2.2386-5-5 0-.2682-.208-.5-.4761-.5h-.0467c-.258 0-.4752.198-.477.456A5.8423 5.8423 0 0 0 2 8c0 3.3137 2.6863 6 6 6l.0439-.0001c.258-.0019.456-.219.456-.4771v-.0467z" />
      <path fill-rule="evenodd" d="M8 8.5a.5.5 0 1 0 0-1 .5.5 0 0 0 0 1zm0 1c.8284 0 1.5-.6716 1.5-1.5S8.8284 6.5 8 6.5 6.5 7.1716 6.5 8 7.1716 9.5 8 9.5z" clip-rule="evenodd" />
    </symbol>
    <symbol viewBox="0 0 16 16" id="cd-up-in-cloud">
      <path d="M8.0158 4.9998h-.0316.0316zM9 8.9997c0 .5523-.4477 1-1 1s-1-.4477-1-1 .4477-1 1-1 1 .4477 1 1z" />
      <path fill-rule="evenodd" d="M11.903 9.8792a4.0161 4.0161 0 0 1-.029.1206h.876V9.991C14.5663 9.8628 16 8.3487 16 6.4998c0-1.9048-1.5216-3.4542-3.4156-3.499C11.8131 1.2343 10.0507-.0002 8-.0002c-2.4195 0-4.4377 1.7185-4.9003 4.0016A3.0568 3.0568 0 0 0 3 3.9998c-1.6568 0-3 1.3431-3 3 0 1.6568 1.3432 3 3 3h1.126a3.9974 3.9974 0 0 1-.015-.0602c.4228 1.7557 2.0036 3.0601 3.889 3.0601 1.907 0 3.5023-1.3345 3.903-3.1205zM4.0798 4.2a1 1 0 0 1-1.0127.8008A2.0448 2.0448 0 0 0 3 4.9998c-1.1046 0-2 .8954-2 2 0 1.1045.8954 2 2 2h1c0-.7286.1948-1.4117.535-2H3.5a.5.5 0 0 1 0-1h9a.5.5 0 0 1 0 1h-1.0351a3.9818 3.9818 0 0 1 .5351 2h.5902l.0894-.0064C13.976 8.902 15 7.82 15 6.4998c0-1.3605-1.0869-2.4673-2.4393-2.4993a.9999.9999 0 0 1-.8927-.5996C11.05 1.9857 9.639.9998 8 .9998 6.0655.9998 4.4498 2.374 4.0798 4.2zM11 8.9997c0 1.6569-1.3431 3-3 3s-3-1.3431-3-3c0-.7683.2888-1.4692.7638-2h4.4724a2.9888 2.9888 0 0 1 .7638 2z" clip-rule="evenodd" />
      <path d="M6 13.9998a.5.5 0 1 1 1 0v1a.5.5 0 0 1-1 0v-1zM9.5 13.4998a.5.5 0 0 0-.5.5v1a.5.5 0 0 0 1 0v-1a.5.5 0 0 0-.5-.5zM8 13.9998a.5.5 0 0 0-.5.5v1a.5.5 0 0 0 1 0v-1a.5.5 0 0 0-.5-.5z" />
    </symbol>
    <symbol viewBox="0 0 16 16" id="chain">
      <path d="M11.393 9.607l3.571-3.571a3.536 3.536 0 1 0-5-5L6.628 4.372a4.571 4.571 0 0 1 1.366.062L10.68 1.75A2.525 2.525 0 1 1 14.25 5.32L10.68 8.893a2.525 2.525 0 0 1-4.226-2.44c-.4.107-.778.313-1.096.619a3.536 3.536 0 0 0 6.035 2.535z" />
      <path d="M4.607 6.393L1.036 9.964a3.536 3.536 0 1 0 5 5l3.336-3.336a4.575 4.575 0 0 1-1.366-.062L5.32 14.25A2.525 2.525 0 1 1 1.75 10.68L5.32 7.107a2.525 2.525 0 0 1 4.226 2.44c.4-.107.778-.313 1.096-.619a3.536 3.536 0 0 0-6.036-2.535z" />
    </symbol>
    <symbol viewBox="0 0 16 16" id="chain-broken">
      <path d="M4.607 6.393L1.036 9.964a3.536 3.536 0 1 0 5 5l1.428-1.428a.505.505 0 1 0-.714-.714L5.321 14.25A2.525 2.525 0 1 1 1.75 10.68L5.32 7.107a2.526 2.526 0 0 1 3.182-.32c.232.155.55.16.747-.037.197-.197.199-.52-.024-.688a3.536 3.536 0 0 0-4.619.33z" />
      <path d="M11.393 9.607l3.571-3.571a3.536 3.536 0 1 0-5-5L8.536 2.464a.505.505 0 1 0 .714.714l1.429-1.428A2.525 2.525 0 1 1 14.25 5.32L10.68 8.893c-.865.865-2.2.971-3.182.32-.232-.155-.55-.16-.747.037-.197.197-.199.52.024.688a3.536 3.536 0 0 0 4.619-.33zM2.318 1.318a.5.5 0 0 1 .707 0L4.44 2.732a.5.5 0 1 1-.707.707L2.318 2.025a.5.5 0 0 1 0-.707zM1 4.5a.5.5 0 0 1 .5-.5h2a.5.5 0 0 1 0 1h-2a.5.5 0 0 1-.5-.5zM5.5 0a.5.5 0 0 0-.5.5v2a.5.5 0 1 0 1 0v-2a.5.5 0 0 0-.5-.5zM11.56 12.56a.5.5 0 0 1 .708 0l1.414 1.415a.5.5 0 0 1-.707.707l-1.414-1.414a.5.5 0 0 1 0-.707zM12 11.5a.5.5 0 0 1 .5-.5h2a.5.5 0 0 1 0 1h-2a.5.5 0 0 1-.5-.5zM10.5 13a.5.5 0 0 0-.5.5v2a.5.5 0 0 0 1 0v-2a.5.5 0 0 0-.5-.5z" />
    </symbol>
    <symbol viewBox="0 0 16 16" id="check-list">
      <path d="M7 2.5a.5.5 0 0 1 .5-.5h8a.5.5 0 0 1 0 1h-8a.5.5 0 0 1-.5-.5zM7 4.5a.5.5 0 0 1 .5-.5h8a.5.5 0 0 1 0 1h-8a.5.5 0 0 1-.5-.5zM7 6.5a.5.5 0 0 1 .5-.5h4a.5.5 0 0 1 0 1h-4a.5.5 0 0 1-.5-.5zM.145 2.145a.496.496 0 0 0 0 .702l1.952 1.95A.499.499 0 0 0 2.5 5a.495.495 0 0 0 .403-.202l1.952-1.951a.496.496 0 1 0-.702-.702L2.5 3.798.847 2.145a.496.496 0 0 0-.702 0zM7 9.5a.5.5 0 0 1 .5-.5h8a.5.5 0 0 1 0 1h-8a.5.5 0 0 1-.5-.5zM7 11.5a.5.5 0 0 1 .5-.5h8a.5.5 0 0 1 0 1h-8a.5.5 0 0 1-.5-.5zM7 13.5a.5.5 0 0 1 .5-.5h3a.5.5 0 0 1 0 1h-3a.5.5 0 0 1-.5-.5zM.145 9.145a.496.496 0 0 0 0 .702l1.952 1.95A.496.496 0 0 0 2.5 12a.495.495 0 0 0 .403-.202l1.952-1.951a.496.496 0 1 0-.702-.702L2.5 10.798.847 9.145a.496.496 0 0 0-.702 0z" />
    </symbol>
    <symbol viewBox="0 0 16 16" id="check-mark">
      <path fill-rule="evenodd" d="M6.738 10.567l5.84-8.351a.508.508 0 0 1 .705-.126c.23.159.286.473.126.701l-6.365 9.101a.254.254 0 0 1-.389.032L2.644 7.837a.502.502 0 0 1 .009-.712c.2-.194.52-.19.715.009l3.37 3.433z" clip-rule="evenodd" />
    </symbol>
    <symbol viewBox="0 0 16 16" id="check-mark-circle">
      <path fill-rule="evenodd" d="M8.5 15.0001c3.5899 0 6.5-2.9101 6.5-6.5 0-3.5898-2.9101-6.5-6.5-6.5S2 4.9103 2 8.5001c0 3.5899 2.9101 6.5 6.5 6.5zm0 1c4.1421 0 7.5-3.3578 7.5-7.5 0-4.1421-3.3579-7.5-7.5-7.5S1 4.358 1 8.5001c0 4.1422 3.3579 7.5 7.5 7.5z" clip-rule="evenodd" />
      <path fill-rule="evenodd" d="M12.325 5.621a.5.5 0 0 1 .053.7052l-4.4489 5.1716a.4998.4998 0 0 1-.7674-.0111l-2.55-3.144a.5.5 0 1 1 .7766-.6299l2.173 2.6791L11.62 5.6741a.5.5 0 0 1 .7051-.053z" clip-rule="evenodd" />
    </symbol>
    <symbol viewBox="0 0 16 16" id="check-mark-circle-filled">
      <path fill-rule="evenodd" d="M8.5 16c4.1421 0 7.5-3.3579 7.5-7.5S12.6421 1 8.5 1 1 4.3579 1 8.5 4.3579 16 8.5 16zm3.878-9.674a.5.5 0 1 0-.7581-.652l-4.0585 4.7178-2.173-2.679a.5.5 0 0 0-.7767.6299l2.55 3.1438a.4998.4998 0 0 0 .7674.0111l4.4489-5.1715z" clip-rule="evenodd" />
    </symbol>
    <symbol viewBox="0 0 16 16" id="chevron-double-down">
      <path d="M8 7.298L4.847 4.145a.496.496 0 0 0-.702.702l3.452 3.451a.5.5 0 0 0 .806 0l3.452-3.451a.496.496 0 0 0-.702-.702L8 7.298z" />
      <path d="M8 10.798L4.847 7.645a.496.496 0 0 0-.702.702l3.452 3.451A.494.494 0 0 0 8 12a.494.494 0 0 0 .403-.202l3.452-3.451a.496.496 0 0 0-.702-.702L8 10.798z" />
    </symbol>
    <symbol viewBox="0 0 16 16" id="chevron-double-up">
      <path d="M8 8.702l-3.153 3.153a.496.496 0 0 1-.702-.702l3.452-3.451a.5.5 0 0 1 .806 0l3.452 3.451a.496.496 0 0 1-.702.702L8 8.702z" />
      <path d="M8 5.202L4.847 8.355a.496.496 0 0 1-.702-.702l3.452-3.451a.5.5 0 0 1 .806 0l3.452 3.451a.496.496 0 0 1-.702.702L8 5.202z" />
    </symbol>
    <symbol viewBox="0 0 16 16" id="chevron-down">
      <path d="M8 9.048L4.847 5.895a.496.496 0 0 0-.702.702l3.452 3.451A.494.494 0 0 0 8 10.25a.494.494 0 0 0 .403-.202l3.452-3.451a.496.496 0 0 0-.702-.702L8 9.048z" />
    </symbol>
    <symbol viewBox="0 0 16 16" id="chevron-left">
      <path d="M5.952 7.597A.499.499 0 0 0 5.75 8a.495.495 0 0 0 .202.403l3.451 3.452a.496.496 0 0 0 .702-.702L6.952 8l3.153-3.153a.496.496 0 0 0-.702-.702L5.952 7.597z" />
    </symbol>
    <symbol viewBox="0 0 16 16" id="chevron-right">
      <path d="M5.895 4.145a.496.496 0 0 0 0 .702L9.048 8l-3.153 3.153a.496.496 0 0 0 .702.702l3.451-3.452A.494.494 0 0 0 10.25 8a.494.494 0 0 0-.202-.403L6.597 4.145a.496.496 0 0 0-.702 0z" />
    </symbol>
    <symbol viewBox="0 0 16 16" id="chevron-up">
      <path d="M8 6.952l-3.153 3.153a.496.496 0 0 1-.702-.702l3.452-3.451a.5.5 0 0 1 .806 0l3.452 3.451a.496.496 0 0 1-.702.702L8 6.952z" />
    </symbol>
    <symbol viewBox="0 0 16 16" id="clean">
      <path fill-rule="evenodd" d="M7.96 5.482l.331-.332A1 1 0 0 1 9.514 5l6.09 3.653c.205.123.36.316.383.554.068.723-.053 2.455-2.189 4.591s-3.868 2.258-4.59 2.188c-.239-.022-.432-.177-.555-.382L5 9.514a1 1 0 0 1 .15-1.223l.333-.332L.513 2.99A1.752 1.752 0 1 1 2.99.513l4.97 4.969zm-1.77 1.77l-4.97-4.97a.75.75 0 0 1 1.062-1.061l4.97 4.969L6.19 7.25zm2.809-1.394L5.858 8.999l3.6 6c.31.005.866-.049 1.6-.402L9.021 12.56a.5.5 0 0 1 .708-.708l2.216 2.217c.249-.177.51-.386.783-.633L9.021 9.729a.5.5 0 1 1 .708-.708l3.707 3.707c.247-.272.456-.534.633-.783L11.852 9.73a.5.5 0 0 1 .707-.708l2.038 2.037c.353-.734.408-1.29.402-1.6l-6-3.6z" clip-rule="evenodd" />
    </symbol>
    <symbol viewBox="0 0 16 16" id="clip">
      <path fill-rule="evenodd" d="M5.1668 1.8819C3.9848.706 2.0695.706.8876 1.8819-.296 3.059-.296 4.9689.8876 6.1462l8.22 8.1774c1.5767 1.5685 4.132 1.5685 5.7088 0 1.5781-1.57 1.5781-4.1165 0-5.6865l-6.0786-6.047a.5.5 0 1 0-.7053.7089l6.0786 6.047c1.1852 1.1791 1.1852 3.0896 0 4.2686-1.1866 1.1805-3.1116 1.1805-4.2982 0l-8.22-8.1773c-.7905-.7864-.7905-2.0602 0-2.8465.7918-.7877 2.0767-.7877 2.8686 0l6.6118 6.5775a1.003 1.003 0 0 1 0 1.4243c-.3971.395-1.042.395-1.4391 0L5.1638 6.1454a.5.5 0 0 0-.7052.709l4.4703 4.4471c.7872.7831 2.0624.7831 2.8496 0 .7887-.7845.7887-2.0576 0-2.8422L5.1668 1.882z" clip-rule="evenodd" />
    </symbol>
    <symbol viewBox="0 0 16 16" id="clock">
      <path fill-rule="evenodd" d="M8.5 15.0001c3.5899 0 6.5-2.9101 6.5-6.5 0-3.5898-2.9101-6.5-6.5-6.5S2 4.9103 2 8.5001c0 3.5899 2.9101 6.5 6.5 6.5zm0 1c4.1421 0 7.5-3.3578 7.5-7.5 0-4.1421-3.3579-7.5-7.5-7.5S1 4.358 1 8.5001c0 4.1422 3.3579 7.5 7.5 7.5z" clip-rule="evenodd" />
      <path d="M3.8046 6.0002a.5.5 0 0 0 .183.683L8.7123 9.411a.5002.5002 0 0 0 .5745.0005l3.2766-2.2943a.5.5 0 0 0-.5735-.8192l-3.014 2.1105-4.4883-2.5913a.5.5 0 0 0-.683.183z" />
    </symbol>
    <symbol viewBox="0 0 16 16" id="clone">
      <path d="M11 15H1V5h2V4H1c-.5523 0-1 .4477-1 1v10c0 .5523.4477 1 1 1h10c.5523 0 1-.4477 1-1v-2h-1v2z" />
      <path fill-rule="evenodd" d="M15 12c.5523 0 1-.4477 1-1V1c0-.5523-.4477-1-1-1H5c-.5523 0-1 .4477-1 1v10c0 .5523.4477 1 1 1h10zM5 11h10V1H5v10z" clip-rule="evenodd" />
    </symbol>
    <symbol viewBox="0 0 16 16" id="cloud">
      <path fill-rule="evenodd" d="M4.0798 7.2002a1 1 0 0 1-1.0127.8009A2.073 2.073 0 0 0 3 8c-1.1046 0-2 .8954-2 2s.8954 2 2 2h9.5902l.0894-.0063C13.976 11.9022 15 10.8202 15 9.5c0-1.3604-1.0869-2.4673-2.4393-2.4993a.9999.9999 0 0 1-.8927-.5995C11.05 4.9859 9.639 4 8 4 6.0655 4 4.4498 5.3742 4.0798 7.2002zm8.6702 5.791V13H3c-1.6568 0-3-1.3431-3-3s1.3432-3 3-3c.0334 0 .0666.0005.0997.0016C3.5623 4.7186 5.5805 3 8 3c2.0507 0 3.8131 1.2346 4.5844 3.001C14.4784 6.0458 16 7.5952 16 9.5c0 1.8489-1.4337 3.363-3.25 3.4912z" clip-rule="evenodd" />
    </symbol>
    <symbol viewBox="0 0 16 16" id="console">
      <path fill-rule="evenodd" d="M1 2a1 1 0 0 1 1-1h12a1 1 0 0 1 1 1v12a1 1 0 0 1-1 1H2a1 1 0 0 1-1-1V2zm1 0h12v2H2V2zm12 3v9H2V5h12z" clip-rule="evenodd" />
      <path d="M7 8.5a.5.5 0 0 1 .5-.5h3a.5.5 0 0 1 0 1h-3a.5.5 0 0 1-.5-.5zM6 7.5c0-.2-.124-.379-.314-.453l-2.02-.787a.49.49 0 0 0-.355.912l.843.328-.843.328a.49.49 0 1 0 .356.912l2.019-.787A.488.488 0 0 0 6 7.5z" />
    </symbol>
    <symbol viewBox="0 0 16 16" id="console-filled">
      <path d="M2 1a1 1 0 0 0-1 1v1h14V2a1 1 0 0 0-1-1H2z" />
      <path fill-rule="evenodd" d="M15 4H1v10a1 1 0 0 0 1 1h12a1 1 0 0 0 1-1V4zM6 7.5a.5.5 0 0 1 .5-.5h3a.5.5 0 0 1 0 1h-3a.5.5 0 0 1-.5-.5zM4.686 6.047c.19.074.314.254.314.453 0 .2-.124.379-.314.453l-2.02.787a.49.49 0 0 1-.355-.912l.843-.328-.843-.328a.49.49 0 1 1 .356-.912l2.019.787z" clip-rule="evenodd" />
    </symbol>
    <symbol viewBox="0 0 16 16" id="copy">
      <path d="M5 1h10v10h-2v1h2c.5523 0 1-.4477 1-1V1c0-.5523-.4477-1-1-1H5c-.5523 0-1 .4477-1 1v2h1V1z" />
      <path fill-rule="evenodd" d="M1 4c-.5523 0-1 .4477-1 1v10c0 .5523.4477 1 1 1h10c.5523 0 1-.4477 1-1V5c0-.5523-.4477-1-1-1H1zm10 1H1v10h10V5z" clip-rule="evenodd" />
    </symbol>
    <symbol viewBox="0 0 16 16" id="crane">
      <path fill-rule="evenodd" d="M.341 3.836A1 1 0 0 0 0 4.59V6a1 1 0 0 0 1 1h2v5a1 1 0 0 0-1 1v2H.5a.5.5 0 0 0 0 1h9a.5.5 0 0 0 0-1H8v-2a1 1 0 0 0-1-1V7h5v3.085a1.5 1.5 0 1 0 1.331 2.664c.228-.152.185-.472-.031-.64l-.033-.025c-.154-.12-.37-.105-.579-.092-.064.004-.128.008-.188.008a.5.5 0 1 1 0-1 .5.5 0 0 0 .5-.5V7h2a1 1 0 0 0 1-1V4.824a1 1 0 0 0-.64-.932L5.462.067a.999.999 0 0 0-1.019.18L.341 3.837zM12.866 4L5.102 1 1.673 4h11.193zM1 5h14v1H1V5zm5 2H4v5h2V7zm1 8v-2H3v2h4z" clip-rule="evenodd" />
    </symbol>
    <symbol viewBox="0 0 16 16" id="credit-cards">
      <path d="M.293 7.364a1 1 0 0 0 0 1.414L3 11.486V10.07l-2-2 7.07-7.07 2.122 2.12-3.879 3.88h2.829l2.464-2.465.707.707L10.556 7h1.414l1.05-1.05a1 1 0 0 0 0-1.414L8.779.293a1 1 0 0 0-1.414 0L.293 7.364zM6 13.5a.5.5 0 0 1 .5-.5h1a.5.5 0 0 1 0 1h-1a.5.5 0 0 1-.5-.5zM9.5 13a.5.5 0 0 0 0 1h1a.5.5 0 1 0 0-1h-1zM12 13.5a.5.5 0 0 1 .5-.5h1a.5.5 0 1 1 0 1h-1a.5.5 0 0 1-.5-.5zM7 12a1 1 0 1 0 0-2 1 1 0 0 0 0 2z" />
      <path fill-rule="evenodd" d="M5 8a1 1 0 0 0-1 1v6a1 1 0 0 0 1 1h10a1 1 0 0 0 1-1V9a1 1 0 0 0-1-1H5zm10 1H5v6h10V9z" clip-rule="evenodd" />
    </symbol>
    <symbol viewBox="0 0 16 16" id="cross-mark">
      <path d="M3.85 12.854a.498.498 0 0 1-.704-.704L7.296 8l-4.15-4.15a.498.498 0 0 1 .704-.704L8 7.296l4.15-4.15a.498.498 0 0 1 .704.704L8.704 8l4.15 4.15a.498.498 0 0 1-.704.704L8 8.704l-4.15 4.15z" />
    </symbol>
    <symbol viewBox="0 0 16 16" id="cross-mark-circle">
      <path fill-rule="evenodd" d="M8.5 15c3.5899 0 6.5-2.9101 6.5-6.5S12.0899 2 8.5 2 2 4.9101 2 8.5 4.9101 15 8.5 15zm0 1c4.1421 0 7.5-3.3579 7.5-7.5S12.6421 1 8.5 1 1 4.3579 1 8.5 4.3579 16 8.5 16z" clip-rule="evenodd" />
      <path d="M5.1453 5.1453a.496.496 0 0 0 0 .7016l2.6531 2.653-2.6531 2.6532a.4961.4961 0 0 0 .7016.7016L8.5 9.2015l2.6531 2.6532a.4962.4962 0 0 0 .7016-.7016L9.2016 8.5l2.6531-2.6532a.4961.4961 0 0 0-.7016-.7015L8.5 7.7984 5.8469 5.1453a.496.496 0 0 0-.7016 0z" />
    </symbol>
    <symbol viewBox="0 0 16 16" id="cross-mark-circle-filled">
      <path fill-rule="evenodd" d="M8.5 16c4.1421 0 7.5-3.3579 7.5-7.5S12.6421 1 8.5 1 1 4.3579 1 8.5 4.3579 16 8.5 16zM5.1453 5.8469a.496.496 0 0 1 .7016-.7016L8.5 7.7984l2.6531-2.6531a.4961.4961 0 0 1 .7016.7016L9.2016 8.5l2.6531 2.6531a.4962.4962 0 0 1-.7016.7016L8.5 9.2016l-2.6531 2.6531a.4961.4961 0 0 1-.7016-.7016L7.7984 8.5 5.1453 5.8469z" clip-rule="evenodd" />
    </symbol>
    <symbol viewBox="0 0 16 16" id="dashboard">
      <path fill-rule="evenodd" d="M13.796 11.926a7 7 0 1 0-11.593 0 .531.531 0 0 1-.052.674.478.478 0 0 1-.735-.054 8 8 0 1 1 13.167 0 .478.478 0 0 1-.733.054.531.531 0 0 1-.054-.674zM3.5 14a.5.5 0 0 0 0 1h9a.5.5 0 0 0 0-1h-9zM5 12.5a.5.5 0 0 1 .5-.5h5a.5.5 0 0 1 0 1h-5a.5.5 0 0 1-.5-.5zm2.814-4.682a.5.5 0 1 0 .868.496l2.504-4.382a.5.5 0 1 0-.868-.496L7.814 7.818z" clip-rule="evenodd" />
    </symbol>
    <symbol viewBox="0 0 16 16" id="database">
      <path fill-rule="evenodd" d="M.253 10.6983c-.2388-.1372-.3235-.4461-.1892-.69.1343-.2438.4367-.3303.6755-.1932L8 13.9867l7.2607-4.1716c.2388-.1371.5412-.0506.6755.1932.1343.2439.0496.5528-.1891.69l-7.2607 4.1716a.974.974 0 0 1-.9727 0L.2529 10.6983z" clip-rule="evenodd" />
      <path fill-rule="evenodd" d="M.253 8.4483c-.2388-.1372-.3235-.4461-.1892-.69.1343-.2438.4367-.3303.6755-.1932L8 11.7368l7.2607-4.1716c.2388-.1371.5412-.0506.6755.1932.1343.2439.0496.5528-.1891.69l-7.2607 4.1716a.974.974 0 0 1-.9727 0L.2529 8.4483z" clip-rule="evenodd" />
      <path fill-rule="evenodd" d="M0 5.75c-.0021-.1793.0891-.3542.253-.4483l7.2606-4.1716a.974.974 0 0 1 .9727 0l7.2608 4.1716c.1637.0941.255.269.2528.4483.0022.1793-.0891.3542-.2528.4483l-7.2608 4.1716a.974.974 0 0 1-.9727 0L.253 6.1983C.0891 6.1042-.002 5.9293 0 5.75zm1.4961 0L8 9.4867 14.5039 5.75l-6.504-3.7367L1.4962 5.75z" clip-rule="evenodd" />
    </symbol>
    <symbol viewBox="0 0 16 16" id="dollar">
      <path fill-rule="evenodd" d="M8.5 15c3.5899 0 6.5-2.9101 6.5-6.5S12.0899 2 8.5 2 2 4.9101 2 8.5 4.9101 15 8.5 15zm0 1c4.1421 0 7.5-3.3579 7.5-7.5S12.6421 1 8.5 1 1 4.3579 1 8.5 4.3579 16 8.5 16z" clip-rule="evenodd" />
      <path d="M8 4.5a.5.5 0 0 1 1 0V5h1.5a.5.5 0 0 1 0 1H8c-.5523 0-1 .4477-1 1s.4477 1 1 1h1c1.1046 0 2 .8954 2 2s-.8954 2-2 2v.5a.5.5 0 0 1-1 0V12H6.5a.5.5 0 0 1 0-1H9c.5523 0 1-.4477 1-1s-.4477-1-1-1H8c-1.1046 0-2-.8954-2-2s.8954-2 2-2v-.5z" />
    </symbol>
    <symbol viewBox="0 0 16 16" id="dollar-filled">
      <path fill-rule="evenodd" d="M16 8.5c0 4.1421-3.3579 7.5-7.5 7.5S1 12.6421 1 8.5 4.3579 1 8.5 1 16 4.3579 16 8.5zM8.5 4a.5.5 0 0 0-.5.5V5c-1.1046 0-2 .8954-2 2s.8954 2 2 2h1c.5523 0 1 .4477 1 1s-.4477 1-1 1H6.5a.5.5 0 0 0 0 1H8v.5a.5.5 0 0 0 1 0V12c1.1046 0 2-.8954 2-2s-.8954-2-2-2H8c-.5523 0-1-.4477-1-1s.4477-1 1-1h2.5a.5.5 0 0 0 0-1H9v-.5a.5.5 0 0 0-.5-.5z" clip-rule="evenodd" />
    </symbol>
    <symbol viewBox="0 0 16 16" id="emoticon-confused">
      <path fill-rule="evenodd" d="M8 15c3.866 0 7-3.134 7-7s-3.134-7-7-7-7 3.134-7 7 3.134 7 7 7zm0 1c4.4183 0 8-3.5817 8-8s-3.5817-8-8-8-8 3.5817-8 8 3.5817 8 8 8z" clip-rule="evenodd" />
      <path d="M11.758 12.5c.1909 0 .3096-.2046.2027-.3627C11.0874 10.8451 9.6391 10 8 10c-1.639 0-3.0874.8451-3.9607 2.1373-.1069.1581.0118.3627.2027.3627h7.516zM6 6c0 .5523-.4477 1-1 1s-1-.4477-1-1c0-.5522.4477-1 1-1s1 .4478 1 1zM12 6c0 .5523-.4477 1-1 1s-1-.4477-1-1c0-.5522.4477-1 1-1s1 .4478 1 1z" />
    </symbol>
    <symbol viewBox="0 0 16 16" id="emoticon-dead">
      <path fill-rule="evenodd" d="M8 15c3.866 0 7-3.134 7-7s-3.134-7-7-7-7 3.134-7 7 3.134 7 7 7zm0 1c4.4183 0 8-3.5817 8-8s-3.5817-8-8-8-8 3.5817-8 8 3.5817 8 8 8z" clip-rule="evenodd" />
      <path d="M11.758 12.5c.1909 0 .3096-.2046.2027-.3628C11.0874 10.8451 9.6391 10 8 10c-1.639 0-3.0874.8451-3.9607 2.1372-.1069.1582.0118.3628.2027.3628h7.516zM3.9394 4.9393a.5.5 0 0 0 0 .7071L4.2929 6l-.3536.3535a.5.5 0 0 0 .7072.7071L5 6.7071l.3536.3536a.5.5 0 1 0 .707-.7072L5.7072 6l.3536-.3536a.5.5 0 1 0-.7071-.707L5 5.2928l-.3535-.3536a.5.5 0 0 0-.7071 0zM9.9393 4.9393a.5.5 0 0 0 0 .7071L10.293 6l-.3536.3535a.5.5 0 1 0 .7072.7071L11 6.7071l.3536.3536a.5.5 0 1 0 .7071-.7072L11.7071 6l.3536-.3536a.5001.5001 0 0 0-.7071-.707L11 5.2928l-.3535-.3536a.5.5 0 0 0-.7072 0z" />
    </symbol>
    <symbol viewBox="0 0 16 16" id="emoticon-excited">
      <path fill-rule="evenodd" d="M8 15c3.866 0 7-3.134 7-7s-3.134-7-7-7-7 3.134-7 7 3.134 7 7 7zm0 1c4.4183 0 8-3.5817 8-8s-3.5817-8-8-8-8 3.5817-8 8 3.5817 8 8 8z" clip-rule="evenodd" />
      <path d="M11.758 10c.1909 0 .3096.2046.2027.3628C11.0875 11.6549 9.6391 12.5 8 12.5c-1.639 0-3.0874-.8451-3.9607-2.1372-.1069-.1582.0119-.3628.2028-.3628h7.5159zM3.5858 6.1465a.5.5 0 1 0 .7071.707L5 6.1466l.7071.707a.5.5 0 1 0 .7071-.707L5.3536 5.0858a.5.5 0 0 0-.7072 0L3.5858 6.1465zM9.5858 6.1465a.5.5 0 0 0 .7071.707L11 6.1466l.7071.707a.5.5 0 1 0 .7071-.707l-1.0606-1.0607a.5.5 0 0 0-.7071 0L9.5858 6.1465z" />
    </symbol>
    <symbol viewBox="0 0 16 16" id="emoticon-happy">
      <path fill-rule="evenodd" d="M8 15c3.866 0 7-3.134 7-7s-3.134-7-7-7-7 3.134-7 7 3.134 7 7 7zm0 1c4.4183 0 8-3.5817 8-8s-3.5817-8-8-8-8 3.5817-8 8 3.5817 8 8 8z" clip-rule="evenodd" />
      <path d="M11.758 10c.1909 0 .3096.2046.2027.3628C11.0875 11.6549 9.6391 12.5 8 12.5c-1.639 0-3.0874-.8451-3.9607-2.1372-.1069-.1582.0119-.3628.2028-.3628h7.5159zM6 6c0 .5523-.4477 1-1 1s-1-.4477-1-1 .4477-1 1-1 1 .4477 1 1zM12 6c0 .5523-.4477 1-1 1s-1-.4477-1-1 .4477-1 1-1 1 .4477 1 1z" />
    </symbol>
    <symbol viewBox="0 0 16 16" id="emoticon-neutral">
      <path fill-rule="evenodd" d="M8 14.9998c3.866 0 7-3.1341 7-7 0-3.866-3.134-7-7-7s-7 3.134-7 7c0 3.8659 3.134 7 7 7zm0 1c4.4183 0 8-3.5818 8-8 0-4.4183-3.5817-8-8-8s-8 3.5817-8 8c0 4.4182 3.5817 8 8 8z" clip-rule="evenodd" />
      <path d="M4 10.4998a.5.5 0 0 1 .5-.5h7a.5.5 0 0 1 0 1h-7a.5.5 0 0 1-.5-.5zM6 5.9998c0 .5522-.4477 1-1 1s-1-.4478-1-1c0-.5523.4477-1 1-1s1 .4477 1 1zM12 5.9998c0 .5522-.4477 1-1 1s-1-.4478-1-1c0-.5523.4477-1 1-1s1 .4477 1 1z" />
    </symbol>
    <symbol viewBox="0 0 16 16" id="emoticon-sad">
      <path fill-rule="evenodd" d="M8 14.9998c3.866 0 7-3.1341 7-7 0-3.866-3.134-7-7-7s-7 3.134-7 7c0 3.8659 3.134 7 7 7zm0 1c4.4183 0 8-3.5818 8-8 0-4.4183-3.5817-8-8-8s-8 3.5817-8 8c0 4.4182 3.5817 8 8 8z" clip-rule="evenodd" />
      <path d="M11.6672 12.4613c-.2329.0964-.4986.0046-.6501-.1969-.7066-.9395-1.805-1.5347-3.017-1.5347-1.2122 0-2.3106.5952-3.0172 1.5347-.1515.2015-.4172.2933-.6501.1969-.2797-.1158-.3976-.451-.2219-.6975C4.9905 10.53 6.405 9.7297 8 9.7297c1.595 0 3.0095.8003 3.8891 2.0341.1757.2464.0578.5817-.2219.6975zM6 5.9998c0 .5523-.4477 1-1 1s-1-.4477-1-1 .4477-1 1-1 1 .4477 1 1zM12 5.9998c0 .5523-.4477 1-1 1s-1-.4477-1-1 .4477-1 1-1 1 .4477 1 1z" />
    </symbol>
    <symbol viewBox="0 0 16 16" id="emoticon-smile">
      <path fill-rule="evenodd" d="M8 15c3.866 0 7-3.134 7-7s-3.134-7-7-7-7 3.134-7 7 3.134 7 7 7zm0 1c4.4183 0 8-3.5817 8-8s-3.5817-8-8-8-8 3.5817-8 8 3.5817 8 8 8z" clip-rule="evenodd" />
      <path d="M11.6672 9.7684c-.2329-.0964-.4986-.0046-.6501.1969-.7066.9395-1.805 1.5347-3.017 1.5347-1.2122 0-2.3106-.5952-3.0172-1.5347-.1515-.2015-.4172-.2933-.6501-.1969-.2797.1158-.3976.451-.2219.6975C4.9905 11.6997 6.405 12.5 8 12.5c1.595 0 3.0095-.8003 3.8891-2.0341.1757-.2464.0578-.5817-.2219-.6975zM6 6c0 .5523-.4477 1-1 1s-1-.4477-1-1 .4477-1 1-1 1 .4477 1 1zM12 6c0 .5523-.4477 1-1 1s-1-.4477-1-1 .4477-1 1-1 1 .4477 1 1z" />
    </symbol>
    <symbol viewBox="0 0 16 16" id="exclamation-mark-circle">
      <path d="M9.125 11.5001a.625.625 0 1 1-1.25 0 .625.625 0 0 1 1.25 0zM7.7812 4.7495a.7194.7194 0 1 1 1.4376 0l-.198 4.751a.5212.5212 0 0 1-1.0416 0l-.198-4.751z" />
      <path fill-rule="evenodd" d="M8.5 15.0001c3.5899 0 6.5-2.9101 6.5-6.5 0-3.5898-2.9101-6.5-6.5-6.5S2 4.9103 2 8.5001c0 3.5899 2.9101 6.5 6.5 6.5zm0 1c4.1421 0 7.5-3.3578 7.5-7.5 0-4.1421-3.3579-7.5-7.5-7.5S1 4.358 1 8.5001c0 4.1422 3.3579 7.5 7.5 7.5z" clip-rule="evenodd" />
    </symbol>
    <symbol viewBox="0 0 16 16" id="exclamation-mark-circle-filled">
      <path fill-rule="evenodd" d="M8.5 16c4.1421 0 7.5-3.3579 7.5-7.5S12.6421 1 8.5 1 1 4.3579 1 8.5 4.3579 16 8.5 16zm0-12a.7194.7194 0 0 0-.7188.7493l.198 4.7511a.5213.5213 0 0 0 1.0416 0l.198-4.751A.7194.7194 0 0 0 8.5 4zm0 8.125a.625.625 0 1 0 0-1.25.625.625 0 0 0 0 1.25z" clip-rule="evenodd" />
    </symbol>
    <symbol viewBox="0 0 16 16" id="eye">
      <path fill-rule="evenodd" d="M.136 8.5a.992.992 0 0 1 0-1A9.091 9.091 0 0 1 8 3a9.091 9.091 0 0 1 7.864 4.5c.181.309.181.691 0 1A9.091 9.091 0 0 1 8 13 9.091 9.091 0 0 1 .136 8.5zM8 4a8.08 8.08 0 0 0-6.991 4A8.08 8.08 0 0 0 8 12a8.08 8.08 0 0 0 6.991-4A8.08 8.08 0 0 0 8 4z" clip-rule="evenodd" />
      <path fill-rule="evenodd" d="M11.5 8a3.5 3.5 0 1 1-7 0 3.5 3.5 0 0 1 7 0zM8 10.5a2.5 2.5 0 1 0 0-5 2.5 2.5 0 0 0 0 5z" clip-rule="evenodd" />
      <path d="M9.25 8a1.25 1.25 0 1 1-2.5 0 1.25 1.25 0 0 1 2.5 0z" />
    </symbol>
    <symbol viewBox="0 0 16 16" id="eye-closed">
      <path fill-rule="evenodd" d="M13.853 2.147a.502.502 0 0 0-.71 0L11.57 3.722A9.118 9.118 0 0 0 8 3 9.091 9.091 0 0 0 .136 7.5a.992.992 0 0 0 0 1 9.085 9.085 0 0 0 3.346 3.308l-1.335 1.336a.502.502 0 0 0 .71.71L13.852 2.855a.502.502 0 0 0 0-.71zM4.22 11.07l.976-.975a3.5 3.5 0 0 1 4.899-4.899l.702-.703A8.118 8.118 0 0 0 8 4a8.08 8.08 0 0 0-6.991 4 8.078 8.078 0 0 0 3.211 3.07zm5.157-5.157a2.5 2.5 0 0 0-3.464 3.464l3.464-3.464z" clip-rule="evenodd" />
      <path d="M6.304 11.823A8.167 8.167 0 0 0 8 12a8.08 8.08 0 0 0 6.991-4 8.066 8.066 0 0 0-2.331-2.533l.719-.719A9.07 9.07 0 0 1 15.864 7.5c.181.31.181.692 0 1.002A9.091 9.091 0 0 1 8 13a9.159 9.159 0 0 1-2.521-.352l.825-.825z" />
      <path d="M7.651 10.476a2.5 2.5 0 0 0 2.825-2.825l.823-.823a3.5 3.5 0 0 1-4.471 4.471l.823-.823z" />
    </symbol>
    <symbol viewBox="0 0 16 16" id="filter">
      <path fill-rule="evenodd" d="M6 14V8.995L1.293 4.291A1 1 0 0 1 1 3.584V.999A1 1 0 0 1 2 0h12a1 1 0 0 1 1 1v2.584a1 1 0 0 1-.293.707L10 8.995V15a1 1 0 0 1-1.447.894l-2-1A1 1 0 0 1 6 14zm1 0V8.58L2.416 4h11.168L9 8.581V15l-2-1zm7-11V1H2v2h12z" clip-rule="evenodd" />
    </symbol>
    <symbol viewBox="0 0 16 16" id="filter-check-mark">
      <path fill-rule="evenodd" d="M7 8.581V14l2 1V8.58l5-4.997V.999H2v2.585L7 8.58zm-1 .414V14a1 1 0 0 0 .553.894l2 1A1 1 0 0 0 10 14.998V8.995l4.707-4.704A1 1 0 0 0 15 3.584V.999A1 1 0 0 0 14 0H2a1 1 0 0 0-1 1v2.584a1 1 0 0 0 .293.707L6 8.995z" clip-rule="evenodd" />
      <path fill-rule="evenodd" d="M11.5 2.125a.5.5 0 0 1 .044.706l-3.42 3.875a.5.5 0 0 1-.758-.011l-1.93-2.32a.5.5 0 0 1 .768-.64l1.557 1.872 3.033-3.438a.5.5 0 0 1 .706-.044z" clip-rule="evenodd" />
    </symbol>
    <symbol viewBox="0 0 16 16" id="floppy-disk">
      <path fill-rule="evenodd" d="M14 15c.5523 0 1-.4477 1-1V4.4142c0-.2652-.1054-.5196-.2929-.707l-2.4142-2.4143A1 1 0 0 0 11.5858 1H2c-.5523 0-1 .4477-1 1v12c0 .5523.4477 1 1 1h12zM11.5858 2H10v2c0 .5523-.4477 1-1 1H5c-.5523 0-1-.4477-1-1V2H2v12h2V8c0-.5523.4477-1 1-1h6c.5523 0 1 .4477 1 1v6h2V4.4142L11.5858 2zM11 14V8H5v6h6zM5 2h4v2H5V2z" clip-rule="evenodd" />
    </symbol>
    <symbol viewBox="0 0 16 16" id="folder-closed">
      <path fill-rule="evenodd" d="M0 3a1 1 0 0 1 1-1h3.28a1 1 0 0 1 .948.684L5.667 4H15a1 1 0 0 1 1 1v8a1 1 0 0 1-1 1H1a1 1 0 0 1-1-1V3zm1 0h3.28l.333 1H1V3zm0 2v8h14V5H1z" clip-rule="evenodd" />
    </symbol>
    <symbol viewBox="0 0 16 16" id="folder-open">
      <path fill-rule="evenodd" d="M0 3a1 1 0 0 1 1-1h3.28a1 1 0 0 1 .948.684L5.667 4H13a1 1 0 0 1 1 1v1h1a1 1 0 0 1 .962 1.27l-1.687 6a1 1 0 0 1-.963.73H1a1 1 0 0 1-1-1V3zm1 0h3.28l.667 2H13v1H2.938a1 1 0 0 0-.963.73L1 10.196V3zm1.938 4l-1.687 6h12.061L15 7H2.938z" clip-rule="evenodd" />
    </symbol>
    <symbol viewBox="0 0 16 16" id="four-squares">
      <path fill-rule="evenodd" d="M6 1H1v5h5V1zM1 0a1 1 0 0 0-1 1v5a1 1 0 0 0 1 1h5a1 1 0 0 0 1-1V1a1 1 0 0 0-1-1H1zM14 1H9v5h5V1zM9 0a1 1 0 0 0-1 1v5a1 1 0 0 0 1 1h5a1 1 0 0 0 1-1V1a1 1 0 0 0-1-1H9zM6 9H1v5h5V9zM1 8a1 1 0 0 0-1 1v5a1 1 0 0 0 1 1h5a1 1 0 0 0 1-1V9a1 1 0 0 0-1-1H1zM14 9H9v5h5V9zM9 8a1 1 0 0 0-1 1v5a1 1 0 0 0 1 1h5a1 1 0 0 0 1-1V9a1 1 0 0 0-1-1H9z" clip-rule="evenodd" />
    </symbol>
    <symbol viewBox="0 0 16 16" id="gear">
      <path fill-rule="evenodd" d="M9.8525 2.8196L9.6095.8757a1 1 0 0 0-.9923-.876H7.3828a1 1 0 0 0-.9923.876l-.243 1.9438a5.4655 5.4655 0 0 0-.5004.2075L4.1006 1.8242a1 1 0 0 0-1.321.0823l-.8729.8728a1 1 0 0 0-.0823 1.321L3.0274 5.647a5.467 5.467 0 0 0-.2075.5004l-1.9438.243A1 1 0 0 0 0 7.3825V8.617a1 1 0 0 0 .876.9922l1.9438.243a5.469 5.469 0 0 0 .2075.5005l-1.2028 1.5464a1 1 0 0 0 .0822 1.3211l.8729.8728a1 1 0 0 0 1.321.0823l1.5465-1.2028c.1626.0771.3295.1464.5004.2075l.243 1.9438a1 1 0 0 0 .9923.876h1.2344a1 1 0 0 0 .9923-.876l.243-1.9438a5.4579 5.4579 0 0 0 .5004-.2075l1.5465 1.2028a.9999.9999 0 0 0 1.321-.0823l.8729-.8728a1 1 0 0 0 .0822-1.3211l-1.2028-1.5464a5.455 5.455 0 0 0 .2075-.5005l1.9438-.243A1 1 0 0 0 16 8.617V7.3825a1 1 0 0 0-.876-.9922l-1.9438-.243a5.4528 5.4528 0 0 0-.2075-.5004l1.2028-1.5465a1 1 0 0 0-.0822-1.321l-.8729-.873a1 1 0 0 0-1.321-.0822L10.3529 3.027a5.47 5.47 0 0 0-.5004-.2075zm-.9987.073c.0529.4226.3721.7551.7693.9088.0667.0258.1326.0531.1978.082.3893.1725.8501.1631 1.1862-.0983l1.5062-1.1715.8729.8729-1.1715 1.5062c-.2614.336-.2708.7969-.0983 1.1862.0288.0651.0562.131.082.1978.1536.3971.4861.7164.9087.7692L15 7.3825V8.617l-1.8929.2366c-.4226.0528-.7551.372-.9087.7692a4.5275 4.5275 0 0 1-.082.1978c-.1725.3894-.1631.8501.0983 1.1863l1.1715 1.5062-.8729.8728-1.5062-1.1714c-.3361-.2615-.7969-.2708-1.1862-.0984a4.407 4.407 0 0 1-.1978.082c-.3972.1537-.7165.4862-.7693.9087l-.2366 1.893H7.3828l-.2366-1.893c-.0529-.4225-.3721-.755-.7693-.9086a4.529 4.529 0 0 1-.1978-.0821c-.3893-.1724-.8501-.1631-1.1862.0984l-1.5062 1.1714-.8729-.8728 1.1715-1.5062c.2614-.3361.2708-.7969.0983-1.1862a4.471 4.471 0 0 1-.1318-.3331c-.1123-.3205-.379-.574-.7158-.6161L1 8.617V7.3825l1.893-.2366c.4225-.0528.755-.372.9086-.7692a4.4713 4.4713 0 0 1 .082-.1978c.1725-.3893.1631-.8501-.0983-1.1862L2.6138 3.4864l.8729-.8728L4.9929 3.785c.3361.2614.7969.2708 1.1862.0983a4.4735 4.4735 0 0 1 .1978-.082c.3972-.1537.7164-.4861.7693-.9087l.2366-1.893h1.2344l.2366 1.893z" clip-rule="evenodd" />
      <path fill-rule="evenodd" d="M8 9.9998c1.1046 0 2-.8955 2-2 0-1.1046-.8954-2-2-2s-2 .8954-2 2c0 1.1045.8954 2 2 2zm0 1c1.6569 0 3-1.3432 3-3 0-1.6569-1.3431-3-3-3s-3 1.3431-3 3c0 1.6568 1.3431 3 3 3z" clip-rule="evenodd" />
    </symbol>
    <symbol viewBox="0 0 16 16" id="git">
      <path d="M15.699 7.287L8.713.302a1.03 1.03 0 0 0-1.457 0l-1.451 1.45 1.84 1.84a1.223 1.223 0 0 1 1.55 1.56l1.773 1.774a1.224 1.224 0 0 1 1.267 2.025 1.226 1.226 0 0 1-2.001-1.333L8.58 5.964v4.352a1.226 1.226 0 1 1-1.008-.036V5.887a1.226 1.226 0 0 1-.666-1.608L5.092 2.465l-4.79 4.79a1.03 1.03 0 0 0 0 1.458l6.986 6.985a1.03 1.03 0 0 0 1.457 0L15.7 8.746a1.031 1.031 0 0 0 0-1.458" />
    </symbol>
    <symbol viewBox="0 0 16 16" id="globe">
      <path fill-rule="evenodd" d="M8.285 15.995A7.972 7.972 0 0 0 14.245 13 7.966 7.966 0 0 0 16 8a7.966 7.966 0 0 0-2.411-5.724A7.973 7.973 0 0 0 7.715.006a8 8 0 0 0 .563 15.99h.007zM6.41 14.82a9.766 9.766 0 0 1-1.735-2.98A7.024 7.024 0 0 0 3.101 13a6.987 6.987 0 0 0 3.31 1.819zm-1.112-4.351A7.986 7.986 0 0 1 8 10c.948 0 1.858.165 2.702.468C10.895 9.69 11 8.862 11 8c0-.861-.105-1.69-.298-2.468A7.986 7.986 0 0 1 8 6a7.986 7.986 0 0 1-2.702-.468A10.237 10.237 0 0 0 5 8c0 .862.105 1.69.298 2.468zm.291.958A6.985 6.985 0 0 1 8 11c.847 0 1.66.15 2.41.426-.524 1.453-1.37 2.685-2.41 3.571-1.04-.886-1.886-2.118-2.41-3.57zm5.736.413a9.765 9.765 0 0 1-1.735 2.98A6.987 6.987 0 0 0 12.899 13a7.025 7.025 0 0 0-1.574-1.161zM9.59 1.18a9.766 9.766 0 0 1 1.735 2.98 7.024 7.024 0 0 0 1.574-1.16A6.988 6.988 0 0 0 9.59 1.18zm2.041 3.95C11.871 6.036 12 7 12 8s-.13 1.963-.369 2.869c.712.363 1.362.83 1.931 1.38A6.97 6.97 0 0 0 15 8a6.97 6.97 0 0 0-1.438-4.25 8.022 8.022 0 0 1-1.93 1.38zm-1.22-.557C9.886 3.12 9.04 1.889 8 1.003c-1.04.886-1.886 2.118-2.41 3.57A6.986 6.986 0 0 0 8 5c.847 0 1.66-.15 2.41-.426zm-5.736-.412a9.766 9.766 0 0 1 1.735-2.98A6.987 6.987 0 0 0 3.101 3c.466.457.996.849 1.574 1.162zm-.306.968C4.129 6.036 4 7 4 8s.13 1.964.369 2.87a8.022 8.022 0 0 0-1.931 1.38A6.97 6.97 0 0 1 1 8a6.97 6.97 0 0 1 1.438-4.25 8.022 8.022 0 0 0 1.93 1.38z" clip-rule="evenodd" />
    </symbol>
    <symbol viewBox="0 0 16 16" id="home">
      <path fill-rule="evenodd" d="M2 7.202L.847 8.355a.496.496 0 0 1-.702-.702L7.597.202a.5.5 0 0 1 .806 0l7.452 7.451a.496.496 0 0 1-.702.702L14 7.202V15a1 1 0 0 1-1 1h-3a1 1 0 0 1-1-1v-5H7v5a1 1 0 0 1-1 1H3a1 1 0 0 1-1-1V7.202zm1-1l5-5 5 5V15h-3v-5a1 1 0 0 0-1-1H7a1 1 0 0 0-1 1v5H3V6.202z" clip-rule="evenodd" />
    </symbol>
    <symbol viewBox="0 0 16 16" id="info-circle">
      <path fill-rule="evenodd" d="M8.5 15.0001c3.5899 0 6.5-2.9101 6.5-6.5 0-3.5898-2.9101-6.5-6.5-6.5S2 4.9103 2 8.5001c0 3.5899 2.9101 6.5 6.5 6.5zm0 1c4.1421 0 7.5-3.3578 7.5-7.5 0-4.1421-3.3579-7.5-7.5-7.5S1 4.358 1 8.5001c0 4.1422 3.3579 7.5 7.5 7.5z" clip-rule="evenodd" />
      <path d="M8.5 6.0001a.5.5 0 0 1 .5.5v4.5h.5a.5.5 0 0 1 0 1h-2a.5.5 0 1 1 0-1H8v-4h-.5a.5.5 0 0 1 0-1h1zM9.125 4.5001a.625.625 0 1 0-1.25 0 .625.625 0 0 0 1.25 0z" />
    </symbol>
    <symbol viewBox="0 0 16 16" id="info-circle-filled">
      <path fill-rule="evenodd" d="M8.5 16c4.1421 0 7.5-3.3579 7.5-7.5S12.6421 1 8.5 1 1 4.3579 1 8.5 4.3579 16 8.5 16zm0-12.125a.625.625 0 1 1 0 1.25.625.625 0 0 1 0-1.25zM9 6.5a.5.5 0 0 0-.5-.5h-1a.5.5 0 0 0 0 1H8v4h-.5a.5.5 0 1 0 0 1h2a.5.5 0 0 0 0-1H9V6.5z" clip-rule="evenodd" />
    </symbol>
    <symbol viewBox="0 0 16 16" id="ip-addresses">
      <path fill-rule="evenodd" d="M1 0a1 1 0 0 0-1 1v2a1 1 0 0 0 1 1h.5v2H1a1 1 0 0 0-1 1v2a1 1 0 0 0 1 1h2a1 1 0 0 0 1-1v-.5h2V9a1 1 0 0 0 1 1h.5v2H7a1 1 0 0 0-1 1v2a1 1 0 0 0 1 1h2a1 1 0 0 0 1-1v-.5h2v.5a1 1 0 0 0 1 1h2a1 1 0 0 0 1-1v-2a1 1 0 0 0-1-1h-2a1 1 0 0 0-1 1v.5h-2V13a1 1 0 0 0-1-1h-.5v-2H9a1 1 0 0 0 1-1v-.5h2V9a1 1 0 0 0 1 1h2a1 1 0 0 0 1-1V7a1 1 0 0 0-1-1h-2a1 1 0 0 0-1 1v.5h-2V7a1 1 0 0 0-1-1H7a1 1 0 0 0-1 1v.5H4V7a1 1 0 0 0-1-1h-.5V4H3a1 1 0 0 0 1-1V1a1 1 0 0 0-1-1H1zm2 1H1v2h2V1zM1 7h2v2H1V7zm8 6H7v2h2v-2zm4 0h2v2h-2v-2zm2-6h-2v2h2V7zM7 7h2v2H7V7z" clip-rule="evenodd" />
    </symbol>
    <symbol viewBox="0 0 16 16" id="key">
      <path fill-rule="evenodd" d="M14 4a2 2 0 1 1-4 0 2 2 0 0 1 4 0zm-1 0a1 1 0 1 1-2 0 1 1 0 0 1 2 0z" clip-rule="evenodd" />
      <path fill-rule="evenodd" d="M11 10a5 5 0 1 0-4.622-3.09L.146 13.143a.499.499 0 0 0-.146.356V15.5a.5.5 0 0 0 .5.5h3a.5.5 0 0 0 .5-.5V14h1.5a.5.5 0 0 0 .5-.5V12h1.5a.5.5 0 0 0 .5-.5V10h2.75c.02 0 .04-.001.06-.004.063.003.126.004.19.004zm0-1a4 4 0 1 0 0-8 4 4 0 0 0 0 8zM1 13.703l5.876-5.876c.308.45.688.846 1.124 1.173h-.5a.5.5 0 0 0-.5.5V11H5.5a.5.5 0 0 0-.5.5V13H3.5a.5.5 0 0 0-.5.5V15H1v-1.297z" clip-rule="evenodd" />
    </symbol>
    <symbol viewBox="0 0 16 16" id="lifebuoy">
      <path fill-rule="evenodd" d="M13.657 13.657A8 8 0 1 0 2.343 2.343a8 8 0 0 0 11.314 11.314zm-.707-.707c.24-.24.459-.493.657-.757l-2.16-2.16a4.002 4.002 0 0 1-1.415 1.414l2.16 2.16c.264-.198.518-.417.758-.657zm-3.914-1.086a4.02 4.02 0 0 1-2.072 0L4.67 14.16a7.015 7.015 0 0 0 6.662 0l-2.295-2.295zm-3.068-.418a4.005 4.005 0 0 1-1.414-1.414l-2.16 2.16a7.06 7.06 0 0 0 1.413 1.415l2.16-2.16zm-1.832-2.41a4.02 4.02 0 0 1 0-2.072L1.84 4.67a7.015 7.015 0 0 0 0 6.66l2.295-2.294zm.418-3.068l-2.16-2.16a7.06 7.06 0 0 1 1.413-1.415l2.16 2.16a4.007 4.007 0 0 0-1.413 1.415zm2.41-1.832a4.02 4.02 0 0 1 2.072 0L11.33 1.84a7.015 7.015 0 0 0-6.662 0l2.295 2.295zm3.068.418a4.004 4.004 0 0 1 1.414 1.414l2.16-2.16a7.056 7.056 0 0 0-1.413-1.415l-2.16 2.16zm1.832 2.41a4.018 4.018 0 0 1 0 2.072l2.295 2.295a7.016 7.016 0 0 0 0-6.661l-2.295 2.294zM10.121 5.88A3 3 0 1 1 5.88 10.12 3 3 0 0 1 10.12 5.88z" clip-rule="evenodd" />
    </symbol>
    <symbol viewBox="0 0 16 16" id="list">
      <path fill-rule="evenodd" d="M3 2.5C3 3.3284 2.3284 4 1.5 4S0 3.3284 0 2.5.6716 1 1.5 1 3 1.6716 3 2.5zm-1 0a.5.5 0 1 1-1 0 .5.5 0 0 1 1 0z" clip-rule="evenodd" />
      <path d="M4.5 2a.5.5 0 0 0 0 1h11a.5.5 0 0 0 0-1h-11zM4 7.5a.5.5 0 0 1 .5-.5h11a.5.5 0 0 1 0 1h-11a.5.5 0 0 1-.5-.5z" />
      <path fill-rule="evenodd" d="M3 7.5C3 8.3284 2.3284 9 1.5 9S0 8.3284 0 7.5.6716 6 1.5 6 3 6.6716 3 7.5zm-1 0a.5.5 0 1 1-1 0 .5.5 0 0 1 1 0z" clip-rule="evenodd" />
      <path d="M4 12.5a.5.5 0 0 1 .5-.5h11a.5.5 0 0 1 0 1h-11a.5.5 0 0 1-.5-.5z" />
      <path fill-rule="evenodd" d="M3 12.5c0 .8284-.6716 1.5-1.5 1.5S0 13.3284 0 12.5.6716 11 1.5 11s1.5.6716 1.5 1.5zm-1 0a.5.5 0 1 1-1 0 .5.5 0 0 1 1 0z" clip-rule="evenodd" />
    </symbol>
    <symbol viewBox="0 0 16 16" id="list-check-mark">
      <path d="M3 1.0002h10v7.5a.5.5 0 0 0 1 0v-7.5c0-.5522-.4477-1-1-1H3c-.5523 0-1 .4478-1 1v14c0 .5523.4477 1 1 1h5.5a.5.5 0 1 0 0-1H3v-14z" />
      <path fill-rule="evenodd" d="M15.825 8.8712a.5.5 0 0 1 .053.7051l-4.4489 5.1716a.4998.4998 0 0 1-.7674-.0112l-2.55-3.1438a.5.5 0 0 1 .7766-.63l2.173 2.6791 4.0586-4.7179a.5.5 0 0 1 .7051-.053z" clip-rule="evenodd" />
      <path d="M4 3.5002a.5.5 0 0 1 .5-.5h7a.5.5 0 0 1 0 1h-7a.5.5 0 0 1-.5-.5zM4 5.5002a.5.5 0 0 1 .5-.5h7a.5.5 0 0 1 0 1h-7a.5.5 0 0 1-.5-.5zM4 7.5002a.5.5 0 0 1 .5-.5h7a.5.5 0 0 1 0 1h-7a.5.5 0 0 1-.5-.5zM4 9.5002a.5.5 0 0 1 .5-.5h2a.5.5 0 0 1 0 1h-2a.5.5 0 0 1-.5-.5z" />
    </symbol>
    <symbol viewBox="0 0 16 16" id="location">
      <path fill-rule="evenodd" d="M12.9992 6.0284l.0001-.0047v-.024c0-2.7613-2.2384-4.9998-4.9997-4.9998C5.2384 1 3 3.2384 3 5.9996v.024L3 6.0285v.0287c0 2.2973 1.0937 4.3855 2.3784 6.035.966 1.2403 1.9963 2.1761 2.6212 2.6948.625-.5187 1.6553-1.4545 2.6213-2.6948 1.2847-1.6495 2.3784-3.7377 2.3784-6.035v-.024l-.0001-.0047zm-10.9991 0L2 5.9996C2 2.6861 4.6861 0 7.9996 0s5.9997 2.6861 5.9997 5.9996l-.0001.0288.0001.0287c0 5.2239-4.9526 9.2096-5.8583 9.8949a.232.232 0 0 1-.2827 0C6.9525 15.2667 2 11.281 2 6.0571v-.0287z" clip-rule="evenodd" />
      <path fill-rule="evenodd" d="M7.9996 7.9995c1.1045 0 2-.8954 2-1.9999s-.8955-1.9998-2-1.9998-1.9999.8953-1.9999 1.9998.8954 1.9999 2 1.9999zm0 1c1.6568 0 2.9998-1.3431 2.9998-2.9999 0-1.6567-1.343-2.9998-2.9998-2.9998-1.6567 0-2.9998 1.343-2.9998 2.9998s1.343 2.9998 2.9998 2.9998z" clip-rule="evenodd" />
    </symbol>
    <symbol viewBox="0 0 16 16" id="lock-closed">
      <path fill-rule="evenodd" d="M4 7V4a4 4 0 1 1 8 0v3h1a1 1 0 0 1 1 1v7a1 1 0 0 1-1 1H3a1 1 0 0 1-1-1V8a1 1 0 0 1 1-1h1zm7-3v3H5V4a3 3 0 0 1 6 0zM3 8v7h10V8H3z" clip-rule="evenodd" />
      <path fill-rule="evenodd" d="M11.5 9.125a.5.5 0 0 1 .044.706l-3.42 3.875a.5.5 0 0 1-.758-.011l-1.93-2.32a.5.5 0 1 1 .768-.64l1.557 1.872 3.033-3.438a.5.5 0 0 1 .706-.044z" clip-rule="evenodd" />
    </symbol>
    <symbol viewBox="0 0 16 16" id="lock-open">
      <path fill-rule="evenodd" d="M10.993 7l.878-.878A3 3 0 1 0 7.63 1.879l-.084.084a.5.5 0 0 1-.707-.707l.084-.084a4 4 0 1 1 5.656 5.657L12.407 7H13a1 1 0 0 1 1 1v7a1 1 0 0 1-1 1H3a1 1 0 0 1-1-1V8a1 1 0 0 1 1-1h7.993zM3 8h10v7H3V8z" clip-rule="evenodd" />
      <path d="M8 12.202l1.403 1.403a.496.496 0 1 0 .702-.702L8.702 11.5l1.403-1.403a.496.496 0 0 0-.702-.701L8 10.799 6.597 9.396a.496.496 0 1 0-.702.701L7.298 11.5l-1.403 1.403a.496.496 0 1 0 .702.702L8 12.202z" />
    </symbol>
    <symbol viewBox="0 0 16 16" id="mail">
      <path fill-rule="evenodd" d="M16 6a1 1 0 0 0-.5039-.8682l-7-4a1 1 0 0 0-.9922 0l-7 4A1 1 0 0 0 0 6v8c0 .5523.4477 1 1 1h14c.5523 0 1-.4477 1-1V6zM1 7.1517V14h14V7.1517l-6.5039 3.7165a.9999.9999 0 0 1-.9922 0L1 7.1517zM15 6L8 2 1 6l7 4 7-4z" clip-rule="evenodd" />
    </symbol>
    <symbol viewBox="0 0 16 16" id="menu">
      <path d="M0 13a1 1 0 0 1 1-1h14a1 1 0 1 1 0 2H1a1 1 0 0 1-1-1zM0 8a1 1 0 0 1 1-1h14a1 1 0 1 1 0 2H1a1 1 0 0 1-1-1zM0 3a1 1 0 0 1 1-1h14a1 1 0 1 1 0 2H1a1 1 0 0 1-1-1z" />
    </symbol>
    <symbol viewBox="0 0 16 16" id="menu-thin">
      <path d="M2 11.4998a.5.5 0 0 1 .5-.5h11a.5.5 0 1 1 0 1h-11a.5.5 0 0 1-.5-.5zM2 7.4998a.5.5 0 0 1 .5-.5h11a.5.5 0 0 1 0 1h-11a.5.5 0 0 1-.5-.5zM2 3.4998a.5.5 0 0 1 .5-.5h11a.5.5 0 0 1 0 1h-11a.5.5 0 0 1-.5-.5z" />
    </symbol>
    <symbol viewBox="0 0 16 16" id="minimize">
      <path d="M4.145 4.145a.496.496 0 0 0 0 .702L13.298 14H9.5a.5.5 0 0 0 0 1h5.002a.494.494 0 0 0 .498-.5v-5a.5.5 0 0 0-1 0v3.798L4.847 4.145a.496.496 0 0 0-.702 0z" />
      <path d="M1.5 1a.5.5 0 0 0-.5.5v13a.5.5 0 0 0 1 0V2h12.5a.5.5 0 0 0 0-1h-13z" />
    </symbol>
    <symbol viewBox="0 0 16 16" id="minus">
      <rect width="13" height="1" x="2" y="8" rx=".5" />
    </symbol>
    <symbol viewBox="0 0 16 16" id="minus-circle">
      <path fill-rule="evenodd" d="M8.5 15c3.5899 0 6.5-2.9101 6.5-6.5S12.0899 2 8.5 2 2 4.9101 2 8.5 4.9101 15 8.5 15zm0 1c4.1421 0 7.5-3.3579 7.5-7.5S12.6421 1 8.5 1 1 4.3579 1 8.5 4.3579 16 8.5 16z" clip-rule="evenodd" />
      <path d="M4.5 8.5A.5.5 0 0 1 5 8h7a.5.5 0 0 1 0 1H5a.5.5 0 0 1-.5-.5z" />
    </symbol>
    <symbol viewBox="0 0 16 16" id="minus-circle-filled">
      <path fill-rule="evenodd" d="M8.5 16c4.1421 0 7.5-3.3579 7.5-7.5S12.6421 1 8.5 1 1 4.3579 1 8.5 4.3579 16 8.5 16zM5 8a.5.5 0 0 0 0 1h7a.5.5 0 0 0 0-1H5z" clip-rule="evenodd" />
    </symbol>
    <symbol viewBox="0 0 16 16" id="net">
      <path fill-rule="evenodd" d="M14 1.5002c0 .8285-.6716 1.5-1.5 1.5a1.5016 1.5016 0 0 1-.3941-.0523l-2.011 2.9049c.4976.4855.8272 1.1427.893 1.8758l2.14.1646c.233-.526.7597-.893 1.3721-.893.8284 0 1.5.6716 1.5 1.5 0 .8285-.6716 1.5-1.5 1.5-.6935 0-1.2771-.4706-1.4488-1.11l-2.1395-.1645c-.2303.9271-.8917 1.6839-1.7592 2.0452l.5167 2.2388c.7488.084 1.3308.7193 1.3308 1.4905 0 .8285-.6716 1.5-1.5 1.5s-1.5-.6715-1.5-1.5c0-.532.277-.9994.6948-1.2657l-.5168-2.2394a3.0876 3.0876 0 0 1-.178.0051c-1.0985 0-2.0591-.5904-2.5818-1.4712l-2.4187.9303A1.502 1.502 0 0 1 3 10.5002c0 .8285-.6716 1.5-1.5 1.5s-1.5-.6715-1.5-1.5c0-.8284.6716-1.5 1.5-1.5.4565 0 .8654.204 1.1405.5257l2.4186-.9302A3.0133 3.0133 0 0 1 5 8.0002c0-.6479.2054-1.2478.5546-1.7382L4.1467 4.854a1.494 1.494 0 0 1-.6467.1462c-.8284 0-1.5-.6715-1.5-1.5 0-.8284.6716-1.5 1.5-1.5s1.5.6716 1.5 1.5a1.494 1.494 0 0 1-.1462.6467l1.408 1.408A2.9863 2.9863 0 0 1 8 5.0002c.4551 0 .8866.1014 1.273.2828l2.0109-2.9045A1.4932 1.4932 0 0 1 11 1.5002c0-.8284.6716-1.5 1.5-1.5s1.5.6716 1.5 1.5zm-1 0a.5.5 0 1 1-1 0 .5.5 0 0 1 1 0zm-3 6.5c0 1.1046-.8954 2-2 2s-2-.8954-2-2c0-1.1045.8954-2 2-2s2 .8955 2 2zm4.5 1a.5.5 0 1 0 0-1 .5.5 0 0 0 0 1zm-4.5 5.5a.5.5 0 1 1-1 0 .5.5 0 0 1 1 0zm-8.5-3.5a.5.5 0 1 0 0-1 .5.5 0 0 0 0 1zm2.5-7.5a.5.5 0 1 1-1 0 .5.5 0 0 1 1 0z" clip-rule="evenodd" />
    </symbol>
    <symbol viewBox="0 0 16 16" id="nine-dots">
      <path d="M14 3c0 .5523-.4477 1-1 1s-1-.4477-1-1 .4477-1 1-1 1 .4477 1 1zM14 8c0 .5523-.4477 1-1 1s-1-.4477-1-1 .4477-1 1-1 1 .4477 1 1zM14 13c0 .5523-.4477 1-1 1s-1-.4477-1-1 .4477-1 1-1 1 .4477 1 1zM9 3c0 .5523-.4477 1-1 1s-1-.4477-1-1 .4477-1 1-1 1 .4477 1 1zM9 8c0 .5523-.4477 1-1 1s-1-.4477-1-1 .4477-1 1-1 1 .4477 1 1zM9 13c0 .5523-.4477 1-1 1s-1-.4477-1-1 .4477-1 1-1 1 .4477 1 1zM4 3c0 .5523-.4477 1-1 1s-1-.4477-1-1 .4477-1 1-1 1 .4477 1 1zM4 8c0 .5523-.4477 1-1 1s-1-.4477-1-1 .4477-1 1-1 1 .4477 1 1zM4 13c0 .5523-.4477 1-1 1s-1-.4477-1-1 .4477-1 1-1 1 .4477 1 1z" />
    </symbol>
    <symbol viewBox="0 0 16 16" id="node-js">
      <path fill-rule="evenodd" d="M1.371 3.719A.744.744 0 0 0 1 4.374v7.252c0 .268.148.521.371.655l6.25 3.618c.238.135.52.135.758 0l6.25-3.618a.744.744 0 0 0 .371-.655V4.374a.776.776 0 0 0-.371-.655L8.379.1a.763.763 0 0 0-.758 0l-6.25 3.618zm1.066.538l5.98 10.465 5.146-2.98-5.98-10.464-5.146 2.98zm6.455-2.704L12 6.993l1.563-2.736-4.671-2.704zM12.576 8L14 10.492V5.508L12.576 8zm-5.468 6.447L4 9.007l-1.563 2.736 4.671 2.704zM3.424 8L2 5.508v4.984L3.424 8z" clip-rule="evenodd" />
    </symbol>
    <symbol viewBox="0 0 16 16" id="panel-eye">
      <path fill-rule="evenodd" d="M0 2c0-.5523.4477-1 1-1h14c.5523 0 1 .4477 1 1v12c0 .5523-.4477 1-1 1H1c-.5523 0-1-.4477-1-1V2zm1 0h14v1H1V2zm0 2v10h14V4H1z" clip-rule="evenodd" />
      <path fill-rule="evenodd" d="M14.2916 9c0 .2869-.1232.56-.3382.7498C12.3674 11.1495 10.2818 12 8 12s-4.3674-.8505-5.9534-2.2503a1 1 0 0 1 0-1.4995C3.6326 6.8505 5.7182 6 8 6s4.3674.8505 5.9534 2.2503c.215.1898.3382.4629.3382.7497zm-1.8065.6254A8.0258 8.0258 0 0 0 13.2916 9a8.026 8.026 0 0 0-.8065-.6254C11.2059 7.5069 9.6621 7 8 7c-1.6622 0-3.206.507-4.4852 1.3746A8.035 8.035 0 0 0 2.7083 9c.255.225.5243.434.8065.6254C4.7941 10.4931 6.3378 11 8 11s3.2059-.5069 4.4851-1.3746z" clip-rule="evenodd" />
      <path d="M9.5 9c0 .8284-.6716 1.5-1.5 1.5S6.5 9.8284 6.5 9 7.1716 7.5 8 7.5s1.5.6716 1.5 1.5z" />
    </symbol>
    <symbol viewBox="0 0 16 16" id="pencil">
      <path fill-rule="evenodd" d="M6.014 11.82c-.09.09-.195.162-.31.212L1.174 13.99a.125.125 0 0 1-.164-.164l1.957-4.528c.05-.116.122-.222.211-.311L11.871.294a1.002 1.002 0 0 1 1.418 0l1.417 1.417a1.002 1.002 0 0 1 0 1.418L6.014 11.82zm5.93-7.342l-6.637 6.636-2.503 1.082 1.082-2.502v-.001l6.636-6.636 1.421 1.42zm.706-.707L14 2.42v-.002L12.581 1 12.58 1h-.001l-1.35 1.35 1.421 1.42z" clip-rule="evenodd" />
      <path d="M1 15.5a.5.5 0 0 1 .5-.5h13a.5.5 0 0 1 0 1h-13a.5.5 0 0 1-.5-.5z" />
    </symbol>
    <symbol viewBox="0 0 16 16" id="pencil-dialog">
      <path fill-rule="evenodd" d="M2 5v9h8a.5.5 0 0 1 0 1H2a1 1 0 0 1-1-1V2a1 1 0 0 1 1-1h12a1 1 0 0 1 1 1v8a.5.5 0 0 1-1 0V5H2zm0-3h12v2H2V2z" clip-rule="evenodd" />
      <path fill-rule="evenodd" d="M7.984 10.11c.053.158.142.302.26.42l5.155 5.154c.42.421 1.103.421 1.523 0l.762-.762c.421-.42.421-1.103 0-1.524l-5.153-5.153a1.078 1.078 0 0 0-.422-.26l-2.931-.978a.135.135 0 0 0-.17.17l.976 2.932zm6.993 3.996L9.823 8.952a.077.077 0 0 0-.03-.019l-1.29-.43.43 1.29c.004.012.01.022.019.03l5.154 5.154c.03.03.079.03.11 0l.761-.762c.03-.03.03-.08 0-.11z" clip-rule="evenodd" />
    </symbol>
    <symbol viewBox="0 0 16 16" id="php">
      <path d="M15.22 7.74c-.072.493-.436 1.497-1.553 1.497h-1.093l.489-2.644h1.112c1.084 0 1.118.655 1.046 1.148z" />
      <path fill-rule="evenodd" d="M15.875 9.418a8.046 8.046 0 0 0-.188-3.642A8 8 0 1 0 .282 10.112l.84-4.542h2.946a1.803 1.803 0 0 1 1.844 2.024c-.127.87-.657 2.64-2.628 2.64h-1.62l-.325 1.758h-.273a8.002 8.002 0 0 0 14.808-2.575zM7.958 5.59h1.706c.784 0 1.483.424 1.399 1.187-.085.763-.636 3.476-.636 3.476h-1.42s.487-2.437.572-2.988c.085-.551-.318-.679-.912-.679h-.894l-.682 3.694h-1.4L6.88 3.858h1.399l-.32 1.733zm7.729.185a1.927 1.927 0 0 0-.894-.206h-2.946l-1.187 6.422h1.405l.325-1.759h1.619c.877 0 1.468-.35 1.866-.815a8.046 8.046 0 0 0-.188-3.642z" clip-rule="evenodd" />
      <path d="M4.495 7.74c-.072.493-.436 1.497-1.553 1.497H1.849l.488-2.644H3.45c1.084 0 1.117.655 1.045 1.148z" />
    </symbol>
    <symbol viewBox="0 0 16 16" id="pin">
      <path fill-rule="evenodd" d="M13.585 4.286c-1.078-.3-2.626.121-4.202 1.115L5.376 2.539A3.422 3.422 0 0 0 5.001.365c-.258-.473-.892-.47-1.273-.088L.277 3.727c-.381.382-.385 1.016.088 1.274.67.366 1.438.491 2.174.375L5.4 9.383c-.994 1.576-1.415 3.124-1.115 4.202.145.52.786.53 1.167.149l2.998-2.998 4.018 4.02c.119.117.263.207.422.26l2.931.977a.135.135 0 0 0 .17-.17l-.976-2.933a1.078 1.078 0 0 0-.26-.42l-4.02-4.02 2.998-2.997c.381-.381.37-1.022-.149-1.167zM4.388 2.383a1 1 0 0 0 .407.97l4.553 3.252.569-.358c1.045-.66 1.964-.975 2.65-1.042l-7.362 7.362c.067-.686.382-1.605 1.042-2.65l.358-.569-3.252-4.553a1 1 0 0 0-.97-.407 2.429 2.429 0 0 1-1.23-.123l3.112-3.111c.147.392.188.817.123 1.229zm5.641 6.775l-.871.871 4.019 4.019a.079.079 0 0 0 .03.019l1.29.43-.43-1.29a.077.077 0 0 0-.019-.03l-4.019-4.02z" clip-rule="evenodd" />
    </symbol>
    <symbol viewBox="0 0 16 16" id="plans">
      <path d="M4.375 7.5a.625.625 0 1 1-1.25 0 .625.625 0 0 1 1.25 0zM6.5 7a.5.5 0 0 0 0 1h6a.5.5 0 0 0 0-1h-6zM4.375 10.5a.625.625 0 1 1-1.25 0 .625.625 0 0 1 1.25 0zM6.5 10a.5.5 0 0 0 0 1h6a.5.5 0 0 0 0-1h-6z" />
      <path fill-rule="evenodd" d="M1 2a1 1 0 0 1 1-1h12a1 1 0 0 1 1 1v12a1 1 0 0 1-1 1H2a1 1 0 0 1-1-1V2zm1 0h12v2H2V2zm12 3v9H2V5h12z" clip-rule="evenodd" />
    </symbol>
    <symbol viewBox="0 0 16 16" id="plugins">
      <path fill-rule="evenodd" d="M15 2h-5v5h5V2zm-5-1c-.5523 0-1 .4477-1 1v5c0 .5523.4477 1 1 1h5c.5523 0 1-.4477 1-1V2c0-.5523-.4477-1-1-1h-5zM7 10H2v5h5v-5zM2 9c-.5523 0-1 .4477-1 1v5c0 .5523.4477 1 1 1h5c.5523 0 1-.4477 1-1v-5c0-.5523-.4477-1-1-1H2zM15 10h-5v5h5v-5zm-5-1c-.5523 0-1 .4477-1 1v5c0 .5523.4477 1 1 1h5c.5523 0 1-.4477 1-1v-5c0-.5523-.4477-1-1-1h-5z" clip-rule="evenodd" />
    </symbol>
    <symbol viewBox="0 0 16 16" id="plus">
      <path d="M8.5 1.9998a.5.5 0 0 0-.5.5v5.5H2.5a.5.5 0 1 0 0 1H8v5.5a.5.5 0 0 0 1 0v-5.5h5.5a.5.5 0 0 0 0-1H9v-5.5a.5.5 0 0 0-.5-.5z" />
    </symbol>
    <symbol viewBox="0 0 16 16" id="power">
      <path d="M8 1.5001a.5.5 0 0 1 1 0v4a.5.5 0 0 1-1 0v-4z" />
      <path d="M11.0002 2.1546c0 .2079.1259.3937.3132.4837 2.1813 1.0488 3.6869 3.2793 3.6869 5.8615 0 3.59-2.9102 6.5002-6.5001 6.5002C4.9102 15 2 12.0898 2 8.4998c0-2.5822 1.5057-4.8127 3.687-5.8615.1872-.09.3131-.2758.3131-.4837 0-.3554-.3518-.6029-.6738-.4523C2.7706 2.8977 1 5.492 1 8.4998 1 12.6421 4.358 16 8.5002 16c4.1422 0 7.5002-3.3579 7.5002-7.5002 0-3.0078-1.7706-5.6021-4.3264-6.7975-.3219-.1506-.6738.097-.6738.4523z" />
    </symbol>
    <symbol viewBox="0 0 16 16" id="projects">
      <path d="M2 12.5a.5.5 0 0 1 .5-.5h3a.5.5 0 1 1 0 1h-3a.5.5 0 0 1-.5-.5zM6 10.5a.5.5 0 0 0-.5-.5h-3a.5.5 0 1 0 0 1h3a.5.5 0 0 0 .5-.5z" />
      <path fill-rule="evenodd" d="M7.027 5A4.5 4.5 0 0 1 16 5.5V14a1 1 0 0 1-1 1H1a1 1 0 0 1-1-1V5a1 1 0 0 1 1-1h4a1 1 0 0 1 .707.293L6.414 5h.613zM15 8.329c-.285.352-.622.66-1 .913V12a1 1 0 0 1-1 1h-3a1 1 0 0 1-1-1V9.242A4.499 4.499 0 0 1 7.027 6h-.613a1 1 0 0 1-.707-.293L5 5H1v9h14V8.329zm0-2.83c0 1.171-.574 2.207-1.457 2.843-.313.225-.543.567-.543.953V10h-1V7.208l1.148-1.147a.5.5 0 0 0-.707-.708l-.94.94-.94-.94a.5.5 0 0 0-.707.708L11 7.207V10h-1v-.705c0-.386-.23-.728-.543-.953A3.5 3.5 0 1 1 15 5.5zM10 12v-1h3v1h-3z" clip-rule="evenodd" />
    </symbol>
    <symbol viewBox="0 0 16 16" id="puzzle">
      <path fill-rule="evenodd" d="M7 0a2 2 0 0 0-2 2v1H1a1 1 0 0 0-1 1v3a1 1 0 0 0 1 1h1a1 1 0 0 1 0 2H1a1 1 0 0 0-1 1v4a1 1 0 0 0 1 1h4a1 1 0 0 0 1-1v-1a1 1 0 1 1 2 0v1a1 1 0 0 0 1 1h3a1 1 0 0 0 1-1v-4h1a2 2 0 1 0 0-4h-1V4a1 1 0 0 0-1-1H9V2a2 2 0 0 0-2-2zM2 11H1v4h4v-1a2 2 0 1 1 4 0v1h3v-4a1 1 0 0 1 1-1h1a1 1 0 1 0 0-2h-1a1 1 0 0 1-1-1V4H9a1 1 0 0 1-1-1V2a1 1 0 0 0-2 0v1a1 1 0 0 1-1 1H1v3h1a2 2 0 1 1 0 4z" clip-rule="evenodd" />
    </symbol>
    <symbol viewBox="0 0 16 16" id="question-mark-circle">
      <path fill-rule="evenodd" d="M8.5 15.0001c3.5899 0 6.5-2.9101 6.5-6.5 0-3.5898-2.9101-6.5-6.5-6.5S2 4.9103 2 8.5001c0 3.5899 2.9101 6.5 6.5 6.5zm0 1c4.1421 0 7.5-3.3578 7.5-7.5 0-4.1421-3.3579-7.5-7.5-7.5S1 4.358 1 8.5001c0 4.1422 3.3579 7.5 7.5 7.5z" clip-rule="evenodd" />
      <path d="M8.4998 4.0001C7.1213 4.0001 6 5.1216 6 6.5001c0 .2839.2162.5.5.5.284 0 .5-.2162.5-.5 0-.8116.6882-1.5 1.4998-1.5.812 0 1.5002.6884 1.5002 1.5 0 .8118-.6883 1.5-1.5002 1.5-.2838 0-.4998.2163-.4998.5v1c0 .2839.2162.5.5.5s.5-.2161.5-.5v-.5535c1.1328-.2377 2-1.2442 2-2.4465C11 5.1216 9.8785 4 8.4998 4zM9.125 11.5001a.625.625 0 1 1-1.25 0 .625.625 0 0 1 1.25 0z" />
    </symbol>
    <symbol viewBox="0 0 16 16" id="question-mark-circle-filled">
      <path fill-rule="evenodd" d="M8.5 16c4.1421 0 7.5-3.3579 7.5-7.5S12.6421 1 8.5 1 1 4.3579 1 8.5 4.3579 16 8.5 16zM6 6.5C6 5.1214 7.1213 4 8.4998 4 9.8785 4 11 5.1214 11 6.5c0 1.2023-.8672 2.2088-2 2.4464V9.5c0 .2838-.2162.5-.5.5S8 9.7838 8 9.5v-1c0-.2838.216-.5.4998-.5C9.3118 8 10 7.3118 10 6.5 10 5.6884 9.3118 5 8.4998 5 7.6882 5 7 5.6884 7 6.5c0 .2838-.216.5-.5.5-.2838 0-.5-.2161-.5-.5zm2.5 5.625a.625.625 0 1 0 0-1.25.625.625 0 0 0 0 1.25z" clip-rule="evenodd" />
    </symbol>
    <symbol viewBox="0 0 16 16" id="recycle">
      <path d="M10 5.5a.5.5 0 0 1 1 0v7a.5.5 0 0 1-1 0v-7zM5.5 5a.5.5 0 0 0-.5.5v7a.5.5 0 0 0 1 0v-7a.5.5 0 0 0-.5-.5zM7.5 5.5a.5.5 0 0 1 1 0v7a.5.5 0 0 1-1 0v-7z" />
      <path fill-rule="evenodd" d="M5 2V1a1 1 0 0 1 1-1h4a1 1 0 0 1 1 1v1h3.5a.5.5 0 0 1 0 1H14v10a3 3 0 0 1-3 3H5a3 3 0 0 1-3-3V3h-.5a.5.5 0 0 1 0-1H5zm1-1h4v1H6V1zM3 3v10a2 2 0 0 0 2 2h6a2 2 0 0 0 2-2V3H3z" clip-rule="evenodd" />
    </symbol>
    <symbol viewBox="0 0 16 16" id="refresh">
      <path d="M13 9.5v1.818a6 6 0 0 0-7.455-8.794.535.535 0 0 1-.685-.206.474.474 0 0 1 .2-.672A7 7 0 0 1 13.745 12H15.5a.5.5 0 1 1 0 1h-3a.5.5 0 0 1-.5-.5v-3a.5.5 0 0 1 1 0zM2 8a6 6 0 0 0 8.455 5.477.535.535 0 0 1 .685.206.474.474 0 0 1-.2.671A7 7 0 0 1 2.255 4H.5a.5.5 0 0 1 0-1h3a.5.5 0 0 1 .5.5v3a.5.5 0 0 1-1 0V4.682C2.368 5.632 2 6.773 2 8z" />
    </symbol>
    <symbol viewBox="0 0 16 16" id="reload">
      <path d="M2 8a6 6 0 0 0 8.455 5.476.535.535 0 0 1 .685.206.474.474 0 0 1-.2.672A7 7 0 1 1 13.745 12H15.5a.5.5 0 1 1 0 1h-3a.5.5 0 0 1-.5-.5v-3a.5.5 0 0 1 1 0v1.818A6 6 0 1 0 2 8z" />
    </symbol>
    <symbol viewBox="0 0 16 16" id="remove">
      <path d="M3.85 12.854a.498.498 0 0 1-.704-.704L7.296 8l-4.15-4.15a.498.498 0 0 1 .704-.704L8 7.296l4.15-4.15a.498.498 0 0 1 .704.704L8.704 8l4.15 4.15a.498.498 0 0 1-.704.704L8 8.704l-4.15 4.15z" />
    </symbol>
    <symbol viewBox="0 0 16 16" id="reset">
      <path d="M1 8.5C1 4.9101 3.9101 2 7.5 2c.8674 0 1.6952.17 2.4518.4783.2559.1043.556.0062.6795-.241.1235-.247.0241-.5488-.2304-.6557C9.5085 1.207 8.5284 1 7.5 1 3.3579 1 0 4.3579 0 8.5S3.3579 16 7.5 16 15 12.6421 15 8.5c0-1.6884-.5579-3.2465-1.4994-4.5H15.5a.5.5 0 0 0 0-1h-3a.5.5 0 0 0-.5.5v3a.5.5 0 0 0 1 0V5.0344c.6334 1.0031 1 2.1916 1 3.4657 0 3.5899-2.9101 6.5-6.5 6.5S1 12.0899 1 8.5z" />
      <path d="M5.8086 6.1172c-.1385-.277-.4916-.3705-.7163-.1575C4.4196 6.5976 4 7.4997 4 8.5 4 10.433 5.567 12 7.5 12S11 10.433 11 8.5c0-1.0002-.4196-1.9024-1.0923-2.5403-.2247-.213-.5778-.1194-.7163.1575-.1108.2216-.0427.4872.1273.6675A2.4914 2.4914 0 0 1 10 8.5C10 9.8807 8.8807 11 7.5 11S5 9.8807 5 8.5c0-.664.259-1.2676.6813-1.7153.17-.1803.2381-.4459.1273-.6675z" />
      <path d="M7.5 4a.5.5 0 0 0-.5.5v3a.5.5 0 0 0 1 0v-3a.5.5 0 0 0-.5-.5z" />
    </symbol>
    <symbol viewBox="0 0 16 16" id="resource">
      <path d="M3.75 5.125a.625.625 0 1 0 0-1.25.625.625 0 0 0 0 1.25zM6 4.5a.5.5 0 0 1 .5-.5h6a.5.5 0 0 1 0 1h-6a.5.5 0 0 1-.5-.5zM4.375 11.5a.625.625 0 1 1-1.25 0 .625.625 0 0 1 1.25 0zM6.5 11a.5.5 0 0 0 0 1h6a.5.5 0 0 0 0-1h-6z" />
      <path fill-rule="evenodd" d="M1 2a1 1 0 0 1 1-1h12a1 1 0 0 1 1 1v12a1 1 0 0 1-1 1H2a1 1 0 0 1-1-1V2zm1 0h12v5.5H2V2zm12 6.5V14H2V8.5h12z" clip-rule="evenodd" />
    </symbol>
    <symbol viewBox="0 0 16 16" id="rocket">
      <path fill-rule="evenodd" d="M6.6146 11.7633l-2.377-2.377c-.6561-.6562-1.72-.6562-2.3761 0L.769 10.4787c-.3128.3129-.8245.0983-.7641-.34.2066-1.5007.8923-2.9563 2.0546-4.1186C3.313 4.7665 4.9078 4.0674 6.5322 3.9257l-.0004.0004C9.3034 1.2253 12.1474.1484 15.7156.0002a.2724.2724 0 0 1 .2842.2842c-.1482 3.568-1.225 6.412-3.9255 9.1834-.1417 1.6245-.8408 3.2192-2.0944 4.4727-1.1623 1.1623-2.6179 1.848-4.1186 2.0546-.4383.0604-.6529-.4513-.34-.7641l1.0924-1.0925c.6559-.6558.6562-1.719.001-2.3752zm4.6942-2.7158c-.8583.8583-2.403 1.9025-3.6132 2.6087L4.9444 8.905h4.7048c1.1226 0 1.6849-1.3574.891-2.1512L9.264 5.4776c-.2646-.2646-.0772-.717.297-.717h4.6952c-.6097 1.5033-1.5578 2.8972-2.9474 4.2869zm3.2497-5.127H9.561c-1.1226 0-1.6848 1.3573-.891 2.1511l1.2762 1.2762c.2646.2646.0772.717-.297.717H4.4853c.6994-1.1682 1.6646-2.571 2.4672-3.3736 2.5046-2.5045 5.0229-3.5745 8.1712-3.8149-.0825 1.0806-.2628 2.087-.5652 3.0441zM3.518 8.0541c.5463-.9543 1.3331-2.17 2.105-3.1272-1.0831.2705-2.1149.8325-2.9695 1.6871-.6644.6644-1.152 1.4357-1.4631 2.2552l.077-.077a2.5127 2.5127 0 0 1 1.811-.738h.4396zm7.555 2.3228c-.9572.7719-2.1729 1.5586-3.1272 2.1049v.4479a2.5127 2.5127 0 0 1-.738 1.8028l-.0771.077c.8195-.3112 1.5908-.7987 2.2552-1.4631.8546-.8547 1.4167-1.8864 1.6871-2.9695z" clip-rule="evenodd" />
      <path d="M4.7326 11.2674a.42.42 0 0 0-.594 0l-2.9702 2.9701a.4201.4201 0 0 0 .594.5941l2.9702-2.9702a.42.42 0 0 0 0-.594zM2.9505 10.0793a.42.42 0 0 1 .594.594l-2.079 2.0792a.4201.4201 0 0 1-.594-.5941l2.079-2.0791zM5.9207 12.4554a.4201.4201 0 0 0-.594 0l-2.0791 2.0792a.42.42 0 1 0 .594.594l2.0791-2.0791a.4201.4201 0 0 0 0-.5941z" />
    </symbol>
    <symbol viewBox="0 0 16 16" id="ruby">
      <path fill-rule="evenodd" d="M8.126 1.035A.5.5 0 0 1 8.31 1h2.729a.5.5 0 0 1 .144.021l2.971.858c.113.033.21.103.274.2l1.489 2.21c.088.13.107.295.052.442l-.868 2.334-.001.004-2.85 7.606a.492.492 0 0 1-.584.311l-9.54-2.208a.496.496 0 0 1-.317-.224L.072 9.729a.487.487 0 0 1-.043-.42l1.24-3.436a.486.486 0 0 1 .106-.174l2.849-3.067a.496.496 0 0 1 .18-.123l3.722-1.474zm2.25 5.366l3.6.844-2.313 6.17-1.606-2.473.32-4.541zm.939-3.565l-.549-.854h-2.36L4.878 3.38 2.247 6.212l.078 1.084 2.79.205 4.47-2.097 1.73-2.568zm3.007 3.48l.63-1.69-1.249-1.854-1.538-.444.163.254a.48.48 0 0 1-.006.53s-.002.001-.002.003l-1.589 2.36 3.591.841zm-8.137 1.77l3.184-1.493-.252 3.567-2.932-2.074zM4.31 8.43l-2.839-.2-.43 1.19 1.215 1.975 2.054-2.965zm4.874 2.986L5.332 8.691l-2.28 3.292 7.651 1.771-1.518-2.339z" clip-rule="evenodd" />
    </symbol>
    <symbol viewBox="0 0 16 16" id="sand-clock">
      <path fill-rule="evenodd" d="M3 1v3c0 1.7419 1.5409 2.9123 2.7332 3.801a.2477.2477 0 0 1 0 .398C4.5409 9.0876 3 10.258 3 12v3h-.5a.5.5 0 0 0 0 1h11a.5.5 0 0 0 0-1H13v-3c0-1.7419-1.5409-2.9123-2.7332-3.801a.2478.2478 0 0 1 0-.398C11.4591 6.9124 13 5.742 13 4V1h.5a.5.5 0 0 0 0-1h-11a.5.5 0 0 0 0 1H3zm9 3V1H4v3c0 .5515.2377 1.0567.6778 1.5685.4514.525 1.046.9783 1.653 1.4308.67.4994.67 1.502 0 2.0014-.607.4525-1.2016.9057-1.653 1.4308C4.2378 10.9433 4 11.4485 4 12v3h8v-3c0-.5515-.2377-1.0567-.6778-1.5685-.4514-.525-1.046-.9783-1.653-1.4308-.67-.4994-.67-1.502 0-2.0014.607-.4525 1.2016-.9057 1.653-1.4308C11.7623 5.0567 12 4.5515 12 4z" clip-rule="evenodd" />
    </symbol>
    <symbol viewBox="0 0 16 16" id="scan">
      <path d="M5 1.5a.5.5 0 0 1-.5.5H2v2.5a.5.5 0 0 1-1 0V2c0-.5523.4477-1 1-1h2.5a.5.5 0 0 1 .5.5zM5 14.5a.5.5 0 0 0-.5-.5H2v-2.5a.5.5 0 0 0-1 0V14c0 .5523.4477 1 1 1h2.5a.5.5 0 0 0 .5-.5zM11 14.5a.5.5 0 0 0 .5.5H14c.5523 0 1-.4477 1-1v-2.5a.5.5 0 0 0-1 0V14h-2.5a.5.5 0 0 0-.5.5zM11.5 2a.5.5 0 0 1 0-1H14c.5523 0 1 .4477 1 1v2.5a.5.5 0 0 1-1 0V2h-2.5zM3 8.5a.5.5 0 0 1 .5-.5h9a.5.5 0 0 1 0 1h-9a.5.5 0 0 1-.5-.5z" />
    </symbol>
    <symbol viewBox="0 0 16 16" id="screen">
      <path fill-rule="evenodd" d="M0 2c0-.5523.4477-1 1-1h14c.5523 0 1 .4477 1 1v9c0 .5523-.4477 1-1 1H9.5v2h2a.5.5 0 0 1 0 1h-7a.5.5 0 0 1 0-1h2v-2H1c-.5523 0-1-.4477-1-1V2zm1 0h14v9H1V2zm7.5 12v-2h-1v2h1z" clip-rule="evenodd" />
    </symbol>
    <symbol viewBox="0 0 16 16" id="search">
      <path fill-rule="evenodd" d="M9.69 12.165a6.5 6.5 0 1 1 2.475-2.475l3.322 3.323a1.75 1.75 0 1 1-2.475 2.475L9.69 12.165zM12 6.5a5.5 5.5 0 1 1-11 0 5.5 5.5 0 0 1 11 0zm-1.464 5.097l3.184 3.183a.75.75 0 0 0 1.06-1.06l-3.184-3.184c-.311.393-.667.749-1.06 1.06z" clip-rule="evenodd" />
    </symbol>
    <symbol viewBox="0 0 16 16" id="sertificate">
      <path fill-rule="evenodd" d="M11 6.25a3 3 0 1 1-6 0 3 3 0 0 1 6 0zm-1 0a2 2 0 1 1-4 0 2 2 0 0 1 4 0z" clip-rule="evenodd" />
      <path fill-rule="evenodd" d="M8.735.297a1.057 1.057 0 0 0-1.47 0l-.914.883-1.258-.178a1.057 1.057 0 0 0-1.189.864l-.22 1.25-1.122.596a1.056 1.056 0 0 0-.454 1.397l.558 1.14-.558 1.142c-.25.512-.05 1.13.454 1.397l1.122.595.22 1.251c.021.122.063.235.12.337l-1.877 1.877a.5.5 0 0 0 .184.824l1.468.529.529 1.468a.5.5 0 0 0 .824.184l2.847-2.847 2.847 2.847c.259.26.7.161.824-.184l.528-1.468 1.469-.529a.5.5 0 0 0 .184-.824l-1.876-1.876c.058-.102.1-.216.12-.338l.22-1.251 1.123-.595c.503-.267.704-.885.454-1.397l-.558-1.141.558-1.141c.25-.512.05-1.13-.454-1.397l-1.123-.595-.22-1.251a1.057 1.057 0 0 0-1.188-.864l-1.259.178-.913-.883zM9.788 2.17a1 1 0 0 1-.835-.27l-.913-.884a.057.057 0 0 0-.08 0l-.913.883a1 1 0 0 1-.835.271l-1.259-.178a.057.057 0 0 0-.064.046l-.22 1.251A1 1 0 0 1 4.153 4l-1.123.595a.056.056 0 0 0-.024.074l.558 1.141a1 1 0 0 1 0 .88l-.558 1.14a.056.056 0 0 0 .024.074l1.123.596a1 1 0 0 1 .516.71l.22 1.251c.005.03.033.05.064.046l1.259-.178a1 1 0 0 1 .835.271l.913.884a.057.057 0 0 0 .08 0l.913-.883a1 1 0 0 1 .835-.272l1.258.178a.057.057 0 0 0 .065-.046l.22-1.25a1 1 0 0 1 .516-.711l1.122-.596a.056.056 0 0 0 .025-.074l-.558-1.14a1 1 0 0 1 0-.88l.558-1.14a.056.056 0 0 0-.025-.075L11.847 4a1 1 0 0 1-.517-.71l-.22-1.252a.057.057 0 0 0-.063-.046l-1.259.178zM3.411 12.998l1.356-1.356a.565.565 0 0 1 .326-.145l1.224-.173.975.975-2.29 2.29-.421-1.17L3.41 13zm5.295-.699l.975-.975 1.226.173c.12.017.237.059.323.144l1.357 1.357-1.17.421-.421 1.17-2.29-2.29z" clip-rule="evenodd" />
    </symbol>
    <symbol viewBox="0 0 16 16" id="servers">
      <path d="M0 .5a.5.5 0 0 1 1 0v3a.5.5 0 0 1-1 0v-3zM2.5 0a.5.5 0 0 0-.5.5v3a.5.5 0 0 0 1 0v-3a.5.5 0 0 0-.5-.5zM9.5 2a.5.5 0 0 0 0 1H11v1.5a1 1 0 0 0 1 1h2.5a.5.5 0 0 0 0-1H12V3a1 1 0 0 0-1-1H9.5zM11 11.5V13H9.5a.5.5 0 0 0 0 1H11a1 1 0 0 0 1-1v-1.5h2.5a.5.5 0 0 0 0-1H12a1 1 0 0 0-1 1zM9 8a.5.5 0 0 1 .5-.5h5a.5.5 0 0 1 0 1h-5A.5.5 0 0 1 9 8z" />
      <path fill-rule="evenodd" d="M4 1a1 1 0 0 1 1-1h2a1 1 0 0 1 1 1v2a1 1 0 0 1-1 1H5a1 1 0 0 1-1-1V1zm1 0h2v2H5V1z" clip-rule="evenodd" />
      <path d="M7 6.5a.5.5 0 0 1 1 0v3a.5.5 0 0 1-1 0v-3zM.5 6a.5.5 0 0 0-.5.5v3a.5.5 0 0 0 1 0v-3A.5.5 0 0 0 .5 6z" />
      <path fill-rule="evenodd" d="M3 6a1 1 0 0 0-1 1v2a1 1 0 0 0 1 1h2a1 1 0 0 0 1-1V7a1 1 0 0 0-1-1H3zm0 1v2h2V7H3z" clip-rule="evenodd" />
      <path d="M7.5 12a.5.5 0 0 0-.5.5v3a.5.5 0 0 0 1 0v-3a.5.5 0 0 0-.5-.5zM5 12.5a.5.5 0 0 1 1 0v3a.5.5 0 0 1-1 0v-3z" />
      <path fill-rule="evenodd" d="M0 13a1 1 0 0 1 1-1h2a1 1 0 0 1 1 1v2a1 1 0 0 1-1 1H1a1 1 0 0 1-1-1v-2zm1 2v-2h2v2H1z" clip-rule="evenodd" />
    </symbol>
    <symbol viewBox="0 0 16 16" id="share">
      <path fill-rule="evenodd" d="M13 6a3 3 0 1 0-2.87-2.124L5.42 6.227a3 3 0 1 0 .002 3.543l4.708 2.354.005-.016a3 3 0 1 0 .443-.878L5.87 8.876l-.005.016a3 3 0 0 0 .004-1.771l4.709-2.35A2.996 2.996 0 0 0 13 6zm0-1a2 2 0 1 0 0-4 2 2 0 0 0 0 4zM5 8a2 2 0 1 1-4 0 2 2 0 0 1 4 0zm10 5a2 2 0 1 1-4 0 2 2 0 0 1 4 0z" clip-rule="evenodd" />
    </symbol>
    <symbol viewBox="0 0 16 16" id="shield">
      <path fill-rule="evenodd" d="M11.825 4.621a.5.5 0 0 1 .053.705l-4.449 5.172a.5.5 0 0 1-.767-.011l-2.55-3.144a.5.5 0 1 1 .776-.63l2.173 2.679 4.059-4.718a.5.5 0 0 1 .705-.053z" clip-rule="evenodd" />
      <path fill-rule="evenodd" d="M7.716.042l-6 1.708c-.425.127-.716.555-.716 1v7c0 2.486 3.822 5.181 6.697 6.198.196.07.41.07.606 0C11.178 14.931 15 12.235 15 9.75v-7c0-.445-.291-.873-.716-1l-6-1.708a.994.994 0 0 0-.568 0zm6.266 2.662L8.005 1.002 8 1l-.005.002-5.977 1.702-.002.003a.096.096 0 0 0-.013.025A.063.063 0 0 0 2 2.75v7c0 .77.64 1.808 1.916 2.886A14.004 14.004 0 0 0 8 14.994a14.004 14.004 0 0 0 4.084-2.358C13.36 11.558 14 10.521 14 9.75v-7c0-.002 0-.009-.004-.018a.098.098 0 0 0-.012-.025l-.002-.003z" clip-rule="evenodd" />
    </symbol>
    <symbol viewBox="0 0 16 16" id="shopping-cart">
      <path fill-rule="evenodd" d="M0 .5A.5.5 0 0 1 .5 0h2.25a.509.509 0 0 1 .038 0c.239 0 .445.168.492.402L3.8 3H15a1 1 0 0 1 .947 1.32l-2.082 5a1 1 0 0 1-.947.68H5.5a.5.5 0 1 0 0 1H12a2 2 0 1 1-1.733 1H7.732a2 2 0 1 1-3.202-.356 1.497 1.497 0 0 1-.276-1.98.997.997 0 0 1-.233-.468l-1.094-5.46L2.377 1H.5A.5.5 0 0 1 0 .5zM12 12a1 1 0 1 0 0 2 1 1 0 0 0 0-2zm-7 1a1 1 0 1 1 2 0 1 1 0 0 1-2 0zM5 9L4 4h10.997l-2.055 4.935a.986.986 0 0 0-.024.065H5z" clip-rule="evenodd" />
    </symbol>
    <symbol viewBox="0 0 16 16" id="signal-light">
      <path fill-rule="evenodd" d="M3 8v5c-.5523 0-1 .4477-1 1v1c0 .5523.4477 1 1 1h10c.5523 0 1-.4477 1-1v-1c0-.5523-.4477-1-1-1V8c0-2.7614-2.2386-5-5-5S3 5.2386 3 8zm9 3V8c0-2.2091-1.7909-4-4-4-2.2091 0-4 1.7909-4 4v3h8zm0 1H4v1h8v-1zm-9 2h10v1H3v-1z" clip-rule="evenodd" />
      <path d="M0 7.5A.5.5 0 0 1 .5 7h1a.5.5 0 0 1 0 1h-1a.5.5 0 0 1-.5-.5zM14 7.5a.5.5 0 0 1 .5-.5h1a.5.5 0 0 1 0 1h-1a.5.5 0 0 1-.5-.5zM12.2427 3.2574a.5.5 0 0 1 0-.7071l.7071-.7071a.5.5 0 1 1 .7071.707l-.7071.7072a.5.5 0 0 1-.7071 0zM3.7574 3.2574a.5.5 0 0 0 0-.7071l-.7072-.7071a.5.5 0 0 0-.707.707l.707.7072a.5.5 0 0 0 .7072 0zM7.5.5a.5.5 0 0 1 1 0v1a.5.5 0 0 1-1 0v-1z" />
    </symbol>
    <symbol viewBox="0 0 16 16" id="site-page">
      <path fill-rule="evenodd" d="M15 3H1v10h14V3zM1 2a1 1 0 0 0-1 1v10a1 1 0 0 0 1 1h14a1 1 0 0 0 1-1V3a1 1 0 0 0-1-1H1z" clip-rule="evenodd" />
      <path d="M6 4.5a.5.5 0 1 1-1 0 .5.5 0 0 1 1 0zM4.5 4.5a.5.5 0 1 1-1 0 .5.5 0 0 1 1 0zM3 4.5a.5.5 0 1 1-1 0 .5.5 0 0 1 1 0zM3 6.5a.5.5 0 0 1 .5-.5h9a.5.5 0 0 1 0 1h-9a.5.5 0 0 1-.5-.5zM3 8.5a.5.5 0 0 1 .5-.5h9a.5.5 0 0 1 0 1h-9a.5.5 0 0 1-.5-.5zM3 10.5a.5.5 0 0 1 .5-.5H7a.5.5 0 0 1 0 1H3.5a.5.5 0 0 1-.5-.5zM8.5 10.5A.5.5 0 0 1 9 10h3.5a.5.5 0 0 1 0 1H9a.5.5 0 0 1-.5-.5z" />
    </symbol>
    <symbol viewBox="0 0 16 16" id="sleep">
      <path fill-rule="evenodd" d="M11.972 4.94A7.033 7.033 0 0 1 1.69 11.177a7.044 7.044 0 1 0 9.488-9.488c.507.972.794 2.077.794 3.25zM10.15.213a8.016 8.016 0 0 0-.974-.21c-.251-.039-.374.293-.186.463a6.075 6.075 0 0 1 .607.636A6.033 6.033 0 0 1 .467 8.99c-.17-.188-.502-.065-.464.186a8.027 8.027 0 0 0 .21.974A8.044 8.044 0 1 0 10.149.214z" clip-rule="evenodd" />
    </symbol>
    <symbol viewBox="0 0 16 16" id="sliders">
      <path fill-rule="evenodd" d="M2 .5a.5.5 0 0 1 1 0v1.55a2.5 2.5 0 0 1 0 4.9v8.55a.5.5 0 1 1-1 0V6.95a2.5 2.5 0 0 1 0-4.9V.5zm2 4a1.5 1.5 0 1 1-3 0 1.5 1.5 0 0 1 3 0zM7 .5a.5.5 0 0 1 1 0v8.55a2.5 2.5 0 0 1 0 4.9v1.55a.5.5 0 1 1-1 0v-1.55a2.5 2.5 0 0 1 0-4.9V.5zM7.5 13a1.5 1.5 0 1 0 0-3 1.5 1.5 0 0 0 0 3zM12.5 0a.5.5 0 0 0-.5.5v4.55a2.5 2.5 0 0 0 0 4.9v5.55a.5.5 0 1 0 1 0V9.95a2.5 2.5 0 0 0 0-4.9V.5a.5.5 0 0 0-.5-.5zM14 7.5a1.5 1.5 0 1 1-3 0 1.5 1.5 0 0 1 3 0z" clip-rule="evenodd" />
    </symbol>
    <symbol viewBox="0 0 16 16" id="star">
      <path fill-rule="evenodd" d="M10.247 6.1955a1 1 0 0 1-.8435-.613L8 2.2062 6.5965 5.5826a1 1 0 0 1-.8435.613l-3.6444.2923L4.8857 8.868a1 1 0 0 1 .322.9911l-.8483 3.5581 3.1191-1.9062a1.0002 1.0002 0 0 1 1.043 0l3.1191 1.9062-.8483-3.558a1 1 0 0 1 .322-.9912l2.7771-2.3802-3.6444-.2924zm5.5239-.56c.2204.0176.3098.2929.1419.4369l-4.1477 3.555 1.2672 5.3153c.0513.2153-.1828.3854-.3715.2701L8 12.3644l-4.6608 2.8484c-.1887.1153-.4228-.0548-.3714-.2701l1.2671-5.3154-4.1477-3.555c-.168-.1439-.0785-.4192.142-.4369l5.4439-.4367L7.7704.1533c.085-.2044.3743-.2044.4592 0l2.0973 5.0454 5.444.4367z" clip-rule="evenodd" />
    </symbol>
    <symbol viewBox="0 0 16 16" id="star-circle-filled">
      <path fill-rule="evenodd" d="M8 16c4.4183 0 8-3.5817 8-8s-3.5817-8-8-8-8 3.5817-8 8 3.5817 8 8 8zm.2548-11.9765c-.1043-.2113-.4056-.2113-.5099 0L6.7291 6.0817a.2843.2843 0 0 1-.214.1555l-2.2714.33c-.2332.034-.3263.3205-.1576.485l1.6436 1.6021a.2843.2843 0 0 1 .0818.2517l-.388 2.2622c-.0399.2322.2039.4093.4125.2997l2.0316-1.0681a.2846.2846 0 0 1 .2646 0l2.0315 1.0681c.2086.1096.4524-.0675.4126-.2997l-.388-2.2622a.284.284 0 0 1 .0817-.2517l1.6436-1.602c.1687-.1646.0756-.4511-.1576-.485l-2.2713-.33a.2843.2843 0 0 1-.2141-.1556L8.2548 4.0235z" clip-rule="evenodd" />
    </symbol>
    <symbol viewBox="0 0 16 16" id="star-filled">
      <path fill-rule="evenodd" d="M15.7709 5.6354c.2204.0177.3098.293.1419.437l-4.1477 3.555 1.2672 5.3153c.0513.2153-.1828.3854-.3715.2701L8 12.3644l-4.6608 2.8484c-.1887.1153-.4228-.0548-.3714-.2701l1.2671-5.3154-4.1477-3.555c-.168-.1439-.0785-.4192.142-.4369l5.4439-.4367L7.7704.1533c.085-.2044.3743-.2044.4592 0l2.0973 5.0454 5.444.4367z" clip-rule="evenodd" />
    </symbol>
    <symbol viewBox="0 0 16 16" id="star-half-filled">
      <path fill-rule="evenodd" d="M10.247 6.1955a1 1 0 0 1-.8435-.613L8 2.2062v9.1583a.9994.9994 0 0 1 .5215.1467l3.1191 1.9062-.8483-3.558a1 1 0 0 1 .322-.9912l2.7771-2.3802-3.6444-.2924zm5.5239-.56c.2204.0176.3098.2929.1419.4369l-4.1477 3.555 1.2672 5.3153c.0513.2153-.1828.3854-.3715.2701L8 12.3644l-4.6608 2.8484c-.1887.1153-.4228-.0548-.3714-.2701l1.2671-5.3154-4.1477-3.555c-.168-.1439-.0785-.4192.142-.4369l5.4439-.4367L7.7704.1533c.085-.2044.3742-.2044.4592 0l2.0973 5.0454 5.444.4367z" clip-rule="evenodd" />
    </symbol>
    <symbol viewBox="0 0 16 16" id="start">
      <path fill-rule="evenodd" d="M14 2H2v12h12V2zM2 1a1 1 0 0 0-1 1v12a1 1 0 0 0 1 1h12a1 1 0 0 0 1-1V2a1 1 0 0 0-1-1H2z" clip-rule="evenodd" />
      <path d="M10.734 7.507a.59.59 0 0 1 0 .986l-3.935 2.43c-.355.22-.799-.055-.799-.493V5.57c0-.438.444-.712.799-.493l3.935 2.43z" />
    </symbol>
    <symbol viewBox="0 0 16 16" id="stop">
      <path fill-rule="evenodd" d="M14 2.0001H2v12h12v-12zm-12-1c-.5523 0-1 .4477-1 1v12c0 .5523.4477 1 1 1h12c.5523 0 1-.4477 1-1v-12c0-.5523-.4477-1-1-1H2z" clip-rule="evenodd" />
      <path d="M5 6.0001c0-.5523.4477-1 1-1h4c.5523 0 1 .4477 1 1v4c0 .5523-.4477 1-1 1H6c-.5523 0-1-.4477-1-1v-4z" />
    </symbol>
    <symbol viewBox="0 0 16 16" id="storage">
      <path fill-rule="evenodd" d="M2 1c-.5523 0-1 .4477-1 1v13c0 .5523.4477 1 1 1h13c.5523 0 1-.4477 1-1V2c0-.5523-.4477-1-1-1H2zm13 1H9v6h6V2zm0 7H9v6h6V9zM8 8V2H2v6h6zM2 9h6v6H2V9z" clip-rule="evenodd" />
      <path d="M3 3.5a.5.5 0 0 1 .5-.5h2a.5.5 0 0 1 0 1h-2a.5.5 0 0 1-.5-.5zM11 3.5a.5.5 0 0 1 .5-.5h2a.5.5 0 0 1 0 1h-2a.5.5 0 0 1-.5-.5zM3 10.5a.5.5 0 0 1 .5-.5h2a.5.5 0 0 1 0 1h-2a.5.5 0 0 1-.5-.5zM11 10.5a.5.5 0 0 1 .5-.5h2a.5.5 0 0 1 0 1h-2a.5.5 0 0 1-.5-.5z" />
    </symbol>
    <symbol viewBox="0 0 16 16" id="themes">
      <path fill-rule="evenodd" d="M2 0a1 1 0 0 0-1 1v3a1 1 0 0 0 1 1v3.5a.5.5 0 0 0 1 0V5h1v2.5a.5.5 0 0 0 1 0V5h1v1.5a.5.5 0 0 0 1 0V5h1v.5a.5.5 0 0 0 1 0V5h3a1 1 0 0 0 1-1V3h1v1.146a2 2 0 0 1-1.106 1.789L7.552 8.606A1 1 0 0 0 7 9.5a1 1 0 0 0-1 1v4a1.5 1.5 0 0 0 3 0v-4a1 1 0 0 0-1-1l5.342-2.67A3 3 0 0 0 15 4.145V3a1 1 0 0 0-1-1h-1V1a1 1 0 0 0-1-1H2zm10 1H2v3h10V1zm-5 9.5h1v4a.5.5 0 0 1-1 0v-4z" clip-rule="evenodd" />
    </symbol>
    <symbol viewBox="0 0 16 16" id="three-dots-horizontal">
      <path d="M14 8a1 1 0 1 1-2 0 1 1 0 0 1 2 0zM9 8a1 1 0 1 1-2 0 1 1 0 0 1 2 0zM4 8a1 1 0 1 1-2 0 1 1 0 0 1 2 0z" />
    </symbol>
    <symbol viewBox="0 0 16 16" id="three-dots-vertical">
      <path d="M9 3a1 1 0 1 1-2 0 1 1 0 0 1 2 0zM9 8a1 1 0 1 1-2 0 1 1 0 0 1 2 0zM9 13a1 1 0 1 1-2 0 1 1 0 0 1 2 0z" />
    </symbol>
    <symbol viewBox="0 0 16 16" id="tools">
      <path fill-rule="evenodd" d="M9.07 1.184A4.024 4.024 0 0 1 13.93.538a.236.236 0 0 1 .043.374l-1.876 1.88a.76.76 0 0 0 0 1.073.754.754 0 0 0 1.07 0l1.873-1.88a.236.236 0 0 1 .375.043 4.055 4.055 0 0 1-.645 4.875 4.023 4.023 0 0 1-4.168.964l-.108.109 4.988 5.004c.69.69.69 1.81 0 2.502a1.76 1.76 0 0 1-2.494 0L8 10.478l-4.989 5.004a1.76 1.76 0 0 1-2.494 0 1.773 1.773 0 0 1 0-2.502l5.88-5.898-2.388-2.395-1.96-.179L.215 1.771a.25.25 0 0 1 .03-.316L1.499.2a.25.25 0 0 1 .317-.031l2.728 1.837.178 1.966L7.11 6.367l1-1.002a4.053 4.053 0 0 1 .96-4.18zm.765 6.024c.323-.324.821-.37 1.261-.245 1.02.288 2.16.03 2.962-.774a3.035 3.035 0 0 0 .846-2.636L13.88 4.58a1.76 1.76 0 0 1-2.495 0 1.773 1.773 0 0 1 0-2.502l1.024-1.027a3.014 3.014 0 0 0-2.627.848 3.038 3.038 0 0 0-.77 2.977c.124.438.078.934-.243 1.256l-7.54 7.563a.76.76 0 0 0 0 1.072.754.754 0 0 0 1.07 0l7.536-7.56zM8.713 9.763l4.989 5.004a.754.754 0 0 0 1.069 0 .76.76 0 0 0 0-1.072L9.78 8.69 8.714 9.763zm-5.13-7.186l.096 1.065-1.061-.097L1.4 1.727l.37-.37 1.812 1.22z" clip-rule="evenodd" />
    </symbol>
    <symbol viewBox="0 0 16 16" id="transfer">
      <path d="M.2018 11.0966A.4946.4946 0 0 0 0 11.498v.004a.4946.4946 0 0 0 .2018.4014l3.4513 3.4513a.4961.4961 0 0 0 .7016-.7016L1.7016 12H15.5a.5.5 0 0 0 0-1H1.7016l2.6531-2.6531a.496.496 0 0 0-.7016-.7016L.2018 11.0966zM11.6453 2.3469a.4961.4961 0 0 1 .7016-.7016l3.4513 3.4513A.4944.4944 0 0 1 16 5.498v.004a.4944.4944 0 0 1-.2018.4014l-3.4513 3.4513a.4961.4961 0 0 1-.7016-.7016L14.2984 6H.5a.5.5 0 0 1 0-1h13.7984l-2.6531-2.6531z" />
    </symbol>
    <symbol viewBox="0 0 16 16" id="triangle-exclamation-mark">
      <path d="M9.125 12.5001a.625.625 0 1 1-1.25 0 .625.625 0 0 1 1.25 0zM7.7812 5.7495a.7194.7194 0 1 1 1.4376 0l-.198 4.7511a.5212.5212 0 0 1-1.0416 0l-.198-4.7511z" />
      <path fill-rule="evenodd" d="M8.5 3.0443L2.0572 14h12.8856L8.5 3.0443zm.8191-.5799c-.364-.619-1.2742-.619-1.6382 0L1.1281 13.6073c-.364.619.091 1.3928.8191 1.3928h13.1056c.7281 0 1.1831-.7738.8191-1.3928L9.3191 2.4644z" clip-rule="evenodd" />
    </symbol>
    <symbol viewBox="0 0 16 16" id="triangle-exclamation-mark-filled">
      <path fill-rule="evenodd" d="M9.3191 2.4643c-.364-.619-1.2742-.619-1.6382 0L1.1281 13.607c-.364.6191.091 1.3929.8191 1.3929h13.1056c.7281 0 1.1831-.7738.8191-1.3929L9.3191 2.4643zM8.5 5a.7194.7194 0 0 0-.7188.7493l.198 4.7511a.5213.5213 0 0 0 1.0416 0l.198-4.751A.7194.7194 0 0 0 8.5 5zm0 8.125a.625.625 0 1 0 0-1.25.625.625 0 0 0 0 1.25z" clip-rule="evenodd" />
    </symbol>
    <symbol viewBox="0 0 16 16" id="unarchive">
      <path d="M13.5 4a.5.5 0 0 0-.5.5v5.798l-1.153-1.153a.496.496 0 0 0-.702.702l1.952 1.951a.494.494 0 0 0 .401.202h.004a.494.494 0 0 0 .401-.202l1.952-1.951a.496.496 0 0 0-.702-.702L14 10.298V4.5a.5.5 0 0 0-.5-.5z" />
      <path d="M3 1h10v.5a.5.5 0 0 0 1 0V1a1 1 0 0 0-1-1H3a1 1 0 0 0-1 1v14a1 1 0 0 0 1 1h10a1 1 0 0 0 1-1v-.5a.5.5 0 0 0-1 0v.5H3V1z" />
      <path d="M5.5 2a.5.5 0 0 0 0 1H7v1H5.5a.5.5 0 0 0 0 1H7v1H5.5a.5.5 0 0 0 0 1H7v1H5.5a.5.5 0 0 0 0 1H7v1H5.5a.5.5 0 0 0 0 1H7v1H5.5a.5.5 0 0 0 0 1H7v1h1.5a.5.5 0 0 0 0-1H7v-1h1.5a.5.5 0 0 0 0-1H7v-1h1.5a.5.5 0 0 0 0-1H7V8h1.5a.5.5 0 0 0 0-1H7V6h1.5a.5.5 0 0 0 0-1H7V4h1.5a.5.5 0 0 0 0-1H7V2H5.5z" />
    </symbol>
    <symbol viewBox="0 0 16 16" id="user">
      <path fill-rule="evenodd" d="M8 7c1.6569 0 3-1.3431 3-3 0-1.6568-1.3431-3-3-3S5 2.3432 5 4C5 5.657 6.3431 7 8 7zm0 1c2.2092 0 4-1.7908 4-4 0-2.2091-1.7908-4-4-4C5.791 0 4 1.7909 4 4c0 2.2092 1.7909 4 4 4z" clip-rule="evenodd" />
      <path d="M7.6838 10.9487c.2053.0684.4272.0684.6324 0 .8484-.2828 2.1038-1.0248 3.0104-.9407.9386.087 1.6734.8767 1.6734 1.838V15.5a.5.5 0 0 0 1 0v-3.654C14 10.2742 12.7258 9 11.154 9c-1.0044 0-2.21.6853-3.154 1-.944-.3147-2.1495-1-3.154-1C3.2742 9 2 10.2742 2 11.846V15.5a.5.5 0 0 0 1 0v-3.654c0-.9613.7348-1.751 1.6734-1.838.9066-.0841 2.162.6579 3.0104.9407z" />
    </symbol>
    <symbol viewBox="0 0 16 16" id="volume">
      <path fill-rule="evenodd" d="M1 3a2 2 0 0 1 2-2h10a1 1 0 0 1 1 1v2a1 1 0 0 1 1 1v9a1 1 0 0 1-1 1H3a2 2 0 0 1-2-2V3zm1 1.732V13a1 1 0 0 0 1 1h11V5H3a1.99 1.99 0 0 1-1-.268zM13 2H3a1 1 0 0 0 0 2h10V2z" clip-rule="evenodd" />
    </symbol>
    <symbol viewBox="0 0 16 16" id="web">
      <path fill-rule="evenodd" d="M0 8c0-1.0702.2101-2.0912.5914-3.0243a7.971 7.971 0 0 1 .5485-1.0938 8.0413 8.0413 0 0 1 2.592-2.6496A7.9756 7.9756 0 0 1 4.95.602C5.8899.214 6.9199 0 8 0c1.4892 0 2.8834.407 4.0774 1.1156.4112.244.7986.5239 1.158.8352C14.9288 3.4177 16 5.5838 16 8c0 4.4183-3.5817 8-8 8-1.984 0-3.7994-.7222-5.1975-1.9182A8.0205 8.0205 0 0 1 1.75 12.9942C.6549 11.6255 0 9.8892 0 8zm11.2225 6.2158C10.2579 14.7168 9.162 15 8 15a6.9932 6.9932 0 0 1-2.186-.3481c1.461-1.6264 3.3996-2.815 5.5951-3.3451a.971.971 0 0 0 .0842.0555c.0044.1286.0067.2578.0067.3876 0 .8478-.096 1.6731-.2775 2.4659zm1.2715-2.8462a12.1107 12.1107 0 0 1-.1152 2.0921A7.027 7.027 0 0 0 14.3264 11h-1.4602a1.0038 1.0038 0 0 1-.3722.3696zM12.8662 10h1.8439A7.0012 7.0012 0 0 0 15 8c0-2.4383-1.2467-4.5854-3.1374-5.8387a10.9203 10.9203 0 0 0-2.8655.9157.9969.9969 0 0 1-.0282.1713c1.6867 1.6802 2.8763 3.8591 3.329 6.2968.2416.0753.4439.2398.5683.4549zm-1.5448-.2345c-.4092-2.2463-1.5006-4.2545-3.0518-5.8023A1.0006 1.0006 0 0 1 8 4a.996.996 0 0 1-.4337-.0987 11.0571 11.0571 0 0 0-3.2775 3.484.995.995 0 0 1 .2027.4834C6.314 9.2085 8.5645 10 10.9999 10c.0449 0 .0897-.0002.1344-.0008a1.0053 1.0053 0 0 1 .1871-.2336zm-1.8865 1.1333c-1.79.7369-3.3628 1.8942-4.5951 3.3489a7.0248 7.0248 0 0 1-2.084-1.6109A10.9572 10.9572 0 0 1 3.4999 9a.9959.9959 0 0 0 .587-.1902c1.5516 1.0954 3.3745 1.8319 5.348 2.089zM2.5 8a.996.996 0 0 1 .098-.4323 12.0652 12.0652 0 0 1-1.319-1.5305A7.0028 7.0028 0 0 0 1 8c0 1.2197.312 2.3666.8604 3.3651a11.9175 11.9175 0 0 1 .7667-2.877A.9954.9954 0 0 1 2.5 8zm4.5028-4.925a12.0616 12.0616 0 0 0-3.6136 3.867 11.0529 11.0529 0 0 1-1.6704-2.0353 7.0291 7.0291 0 0 1 3.2425-3.2145A10.989 10.989 0 0 1 7.007 2.88a1.0098 1.0098 0 0 0-.0043.195zm.6045-.995c-.4291-.3158-.88-.6039-1.35-.8614A7.0129 7.0129 0 0 1 8 1c.8726 0 1.708.1597 2.4783.4514a11.9164 11.9164 0 0 0-1.9132.7234A.9954.9954 0 0 0 8 2a.9968.9968 0 0 0-.3927.08z" clip-rule="evenodd" />
    </symbol>
    <symbol viewBox="0 0 16 16" id="wordpress">
      <path fill-rule="evenodd" d="M8 16A8 8 0 1 0 8 0a8 8 0 0 0 0 16zM1.635 5.162c-.387.871-.6 1.83-.6 2.838a6.95 6.95 0 0 0 3.923 6.268L1.635 5.162zm4.398 9.522c.62.184 1.28.281 1.967.281.814 0 1.589-.135 2.315-.387a.303.303 0 0 1-.048-.097L8.126 8.61l-2.093 6.073zm3.72-10.016s-.377.038-.794.067l2.519 7.498.697-2.325.078-.249c.262-.84.455-1.46.455-2.008 0-.862-.31-1.453-.571-1.918l-.08-.129c-.326-.525-.608-.98-.608-1.508 0-.64.484-1.24 1.172-1.24.014 0 .029.002.043.005.015.002.03.005.044.005a6.967 6.967 0 0 0-10.53 1.307c.164.01.32.01.445.01.737 0 1.86-.087 1.86-.087.378-.03.417.523.049.572 0 0-.378.038-.804.067l2.548 7.547 1.52-4.573-1.094-2.974c-.368-.02-.727-.067-.727-.067-.377-.02-.33-.601.04-.572 0 0 1.142.087 1.83.087.727 0 1.86-.087 1.86-.087.378-.03.426.523.048.572zM14.965 8c0-1.21-.31-2.354-.852-3.342.029.223.048.455.048.717 0 .707-.135 1.501-.533 2.5l-2.13 6.15A6.977 6.977 0 0 0 14.964 8z" clip-rule="evenodd" />
    </symbol>
  </defs>
</svg>