<svg xmlns="http://www.w3.org/2000/svg" style="display:none">
    <symbol id="filter-check-mark" viewBox="0 0 32 32">
        <path d="M7,14c3.866,0,7-3.134,7-7s-3.134-7-7-7C3.134,0,0,3.134,0,7C0,10.866,3.134,14,7,14z M2.707,6.121 c0.391-0.39,1.024-0.39,1.414,0l2.121,2.122l3.536-3.536c0.391-0.391,1.024-0.391,1.414,0c0.391,0.391,0.391,1.024,0,1.414 L6.95,10.364c-0.391,0.39-1.024,0.39-1.414,0L2.707,7.536C2.317,7.145,2.317,6.512,2.707,6.121z M30,2H16.165 c-0.337,0-0.651,0.17-0.837,0.452c-0.184,0.282-0.215,0.639-0.08,0.947c0.25,0.572,0.441,1.174,0.568,1.8 C15.91,5.666,16.32,6,16.796,6H28v2.343l-8,8V28h-4V16.343l-2.161-2.16c-0.356-0.356-0.924-0.393-1.321-0.082 c-0.484,0.378-1.009,0.708-1.566,0.982c-0.289,0.143-0.492,0.415-0.545,0.734c-0.053,0.318,0.052,0.643,0.28,0.871L12,18v12 c0,1.105,0.896,2,2,2h8c1.104,0,2-0.895,2-2v-5c3.865,0,7-3.134,7-7c0-1.933-0.784-3.683-2.051-4.95l2.465-2.464 C31.789,10.211,32,9.702,32,9.172V4C32,2.895,31.104,2,30,2 M29,18c0,2.757-2.243,5-5,5v-5l3.533-3.534 C28.438,15.372,29,16.621,29,18"/>
    </symbol>
    <symbol id="sliders" viewBox="0 0 32 32">
        <path d="M12,4h19.5C31.776,4,32,4.224,32,4.5v1C32,5.776,31.776,6,31.5,6H12v1c0,0.552-0.448,1-1,1H7 C6.448,8,6,7.552,6,7V6H0.5C0.224,6,0,5.776,0,5.5v-1C0,4.224,0.224,4,0.5,4H6V3c0-0.552,0.448-1,1-1h4c0.552,0,1,0.448,1,1V4z  M24,15c0-0.552-0.448-1-1-1h-4c-0.552,0-1,0.448-1,1v1H0.5C0.224,16,0,16.224,0,16.5v1C0,17.776,0.224,18,0.5,18H18v1 c0,0.552,0.448,1,1,1h4c0.552,0,1-0.448,1-1v-1h7.5c0.276,0,0.5-0.224,0.5-0.5v-1c0-0.276-0.224-0.5-0.5-0.5H24V15z M12,27 c0-0.552-0.448-1-1-1H7c-0.552,0-1,0.448-1,1v1H0.5C0.224,28,0,28.224,0,28.5v1C0,29.776,0.224,30,0.5,30H6v1c0,0.552,0.448,1,1,1h4 c0.552,0,1-0.448,1-1v-1h19.5c0.276,0,0.5-0.224,0.5-0.5v-1c0-0.276-0.224-0.5-0.5-0.5H12V27z"/>
    </symbol>
    <symbol id="copy" viewBox="0 0 32 32">
        <path d="M26.999,0H9C7.343,0,6,1.343,6,3v3H3C1.343,6,0,7.343,0,9v19.999C0,30.656,1.344,32,3.001,32H21 c1.657,0,3-1.343,3-3v-3h3c1.657,0,3-1.343,3-3V3.001C30,1.344,28.656,0,26.999,0z M20,28H4V10h16V28z M26,22h-2V9.001 C24,7.344,22.656,6,20.999,6H10V4h16V22z"/>
    </symbol>
    <symbol id="backup" viewBox="0 0 32 32">
        <path d="M4,30h9c0.552,0,1-0.448,1-1v-2c0-0.552-0.448-1-1-1H6v-6h9.5c0.276,0,0.5-0.224,0.5-0.5v-1 c0-0.276-0.224-0.5-0.5-0.5H6v-6h16v3c0,0.552,0.448,1,1,1h2c0.552,0,1-0.448,1-1V2c0-1.105-0.895-2-2-2H4C2.895,0,2,0.895,2,2v26 C2,29.105,2.895,30,4,30z M6,4h16v6H6V4z M11.5,14c0.276,0,0.5,0.224,0.5,0.5v1c0,0.276-0.224,0.5-0.5,0.5h-3 C8.224,16,8,15.776,8,15.5v-1C8,14.224,8.224,14,8.5,14H11.5z M11.5,22c0.276,0,0.5,0.224,0.5,0.5v1c0,0.276-0.224,0.5-0.5,0.5h-3 C8.224,24,8,23.776,8,23.5v-1C8,22.224,8.224,22,8.5,22H11.5z M12,6.5v1C12,7.776,11.776,8,11.5,8h-3C8.224,8,8,7.776,8,7.5v-1 C8,6.224,8.224,6,8.5,6h3C11.776,6,12,6.224,12,6.5z M30,18.724V23.5c0,0.276-0.224,0.5-0.5,0.5h-4.776 c-0.121,0-0.231-0.073-0.277-0.185c-0.046-0.112-0.021-0.241,0.065-0.327l2.009-2.009C25.616,20.573,24.379,20,23,20 c-2.757,0-5,2.243-5,5s2.243,5,5,5c2.284,0,4.215-1.54,4.81-3.636C27.872,26.148,28.067,26,28.291,26h1.026 c0.153,0,0.297,0.07,0.392,0.19c0.095,0.12,0.13,0.277,0.094,0.425C29.075,29.702,26.309,32,23,32c-3.866,0-7-3.134-7-7 c0-3.866,3.134-7,7-7c1.934,0,3.679,0.788,4.943,2.057l1.544-1.544c0.086-0.086,0.215-0.111,0.327-0.065 C29.927,18.494,30,18.603,30,18.724z"/>
    </symbol>
    <symbol id="plugins" viewBox="0 0 32 32">
        <path d="M8,24v4H4v-4H8 M11.042,20H0.958C0.429,20,0,20.429,0,20.958v10.083C0,31.571,0.429,32,0.958,32h10.083 C11.571,32,12,31.571,12,31.042V20.958C12,20.429,11.571,20,11.042,20L11.042,20z M24,24v4h-4v-4H24 M27.042,20H16.958 C16.429,20,16,20.429,16,20.958v10.083C16,31.571,16.429,32,16.958,32h10.083C27.571,32,28,31.571,28,31.042V20.958 C28,20.429,27.571,20,27.042,20L27.042,20z M8,8v4H4V8H8 M11.042,4H0.958C0.429,4,0,4.429,0,4.958v10.083 C0,15.571,0.429,16,0.958,16h10.083C11.571,16,12,15.571,12,15.042V4.958C12,4.429,11.571,4,11.042,4L11.042,4z M23.516,5.657 l2.828,2.828l-2.828,2.828l-2.828-2.828L23.516,5.657 M23.516,0.439c-0.271,0-0.543,0.104-0.75,0.311l-6.985,6.985 c-0.414,0.414-0.414,1.086,0,1.5l6.985,6.985c0.207,0.207,0.479,0.311,0.75,0.311c0.271,0,0.543-0.104,0.75-0.311l6.985-6.985 c0.414-0.414,0.414-1.086,0-1.5L24.266,0.75C24.059,0.543,23.787,0.439,23.516,0.439L23.516,0.439z"/>
    </symbol>
    <symbol id="refresh" viewBox="0 0 32 32">
        <path d="M4,16c0,6.617,5.383,12,12,12v4C7.164,32,0,24.836,0,16c0-4.423,1.831-8.381,4.738-11.261L0.854,0.854 C0.71,0.71,0.668,0.496,0.745,0.309C0.822,0.122,1.005,0,1.207,0H11c0.553,0,1,0.448,1,1v9.793c0,0.202-0.122,0.385-0.309,0.462 c-0.186,0.077-0.402,0.035-0.545-0.108L7.549,7.549C5.365,9.709,4,12.686,4,16 M16,3.51c0,0.269,0.212,0.489,0.48,0.5 C22.875,4.262,28,9.543,28,16c0,3.313-1.365,6.291-3.549,8.451l-3.598-3.598c-0.143-0.143-0.357-0.186-0.545-0.108 C20.122,20.822,20,21.005,20,21.207V31c0,0.552,0.447,1,1,1h9.793c0.202,0,0.385-0.122,0.462-0.309 c0.077-0.187,0.034-0.402-0.108-0.545l-3.886-3.886C30.169,24.381,32,20.423,32,16c0-8.664-6.886-15.719-15.484-15.992 c-0.135-0.004-0.266,0.046-0.363,0.141C16.055,0.243,16,0.373,16,0.508V3.51z"/>
    </symbol>
    <symbol id="triangle-exclamation-mark" viewBox="0 0 32 32">
        <path d="M16 9.94L24.53 27H7.47L16 9.94zm0-7.7a1 1 0 0 0-.9.55L1.73 29.55a1 1 0 0 0 .9 1.45h26.76a1 1 0 0 0 .9-1.45L16.89 2.8a1 1 0 0 0-.89-.55zm1 13.26a.5.5 0 0 0-.5-.5h-1a.5.5 0 0 0-.5.5v5c0 .28.22.5.5.5h1a.5.5 0 0 0 .5-.5v-5zm0 8a.5.5 0 0 0-.5-.5h-1a.5.5 0 0 0-.5.5v1c0 .28.22.5.5.5h1a.5.5 0 0 0 .5-.5v-1z"/>
    </symbol>
    <symbol id="triangle-exclamation-mark-filled" viewBox="0 0 32 32">
        <path d="M16 2.24a1 1 0 0 1 .9.55l13.38 26.76a1 1 0 0 1-.9 1.45H2.62a1 1 0 0 1-.9-1.45L15.11 2.8a1 1 0 0 1 .89-.55zm1 13.26a.5.5 0 0 0-.5-.5h-1a.5.5 0 0 0-.5.5v5c0 .28.22.5.5.5h1a.5.5 0 0 0 .5-.5v-5zm0 8a.5.5 0 0 0-.5-.5h-1a.5.5 0 0 0-.5.5v1c0 .28.22.5.5.5h1a.5.5 0 0 0 .5-.5v-1z"/>
    </symbol>
    <symbol id="circle-check-mark" viewBox="0 0 32 32">
        <path d="M23.29,12.29c0.188,0.188,0.293,0.443,0.293,0.709c-0.001,0.266-0.107,0.521-0.296,0.708l-7.653,7.594 c-0.39,0.387-1.018,0.387-1.408,0l-5.013-4.97c-0.189-0.187-0.295-0.442-0.296-0.708c-0.001-0.266,0.105-0.521,0.293-0.709 l1.417-1.417c0.388-0.388,1.017-0.391,1.409-0.005l2.895,2.85l5.534-5.472c0.391-0.387,1.021-0.385,1.41,0.004L23.29,12.29z M32,16 c0,8.837-7.163,16-16,16S0,24.837,0,16S7.163,0,16,0S32,7.163,32,16z M28,16c0-6.617-5.383-12-12-12S4,9.383,4,16s5.383,12,12,12 S28,22.617,28,16z"/>
    </symbol>
    <symbol id="check-mark" viewBox="0 0 32 32">
        <path d="M25.92,7.738c-0.391-0.39-1.024-0.39-1.414,0L13.898,18.344l-6.363-6.363 c-0.188-0.188-0.442-0.293-0.707-0.293s-0.52,0.105-0.707,0.293l-1.414,1.414c-0.391,0.391-0.39,1.024,0,1.414l8.484,8.484 c0.391,0.391,1.024,0.391,1.414,0l12.728-12.726c0.188-0.188,0.293-0.442,0.293-0.707c0-0.265-0.105-0.52-0.293-0.707L25.92,7.738z"/>
    </symbol>
    <symbol id="tree-dots-horizontal" viewBox="0 0 32 32">
        <path d="M8,17c0,1.656-1.344,3-3,3s-3-1.344-3-3c0-1.656,1.344-3,3-3S8,15.344,8,17z M15,14c-1.656,0-3,1.344-3,3 c0,1.656,1.344,3,3,3s3-1.344,3-3C18,15.344,16.656,14,15,14z M25,14c-1.656,0-3,1.344-3,3c0,1.656,1.344,3,3,3s3-1.344,3-3 C28,15.344,26.656,14,25,14z"/>
    </symbol>
    <symbol id="arrow-down-out" viewBox="0 0 32 32">
        <path d="M15,14h2c0.552,0,1,0.448,1,1v11h2.793c0.202,0,0.385,0.122,0.462,0.309s0.035,0.402-0.108,0.545 l-4.793,4.793c-0.195,0.195-0.512,0.195-0.707,0l-4.793-4.793c-0.143-0.143-0.186-0.358-0.108-0.545S11.005,26,11.207,26H14V15 C14,14.448,14.448,14,15,14z M20,23c0,0.552,0.448,1,1,1h6c1.657,0,3-1.343,3-3V3c0-1.657-1.343-3-3-3H5C3.343,0,2,1.343,2,3v18 c0,1.657,1.343,3,3,3h6c0.552,0,1-0.448,1-1v-2c0-0.552-0.448-1-1-1H6V4h20v16h-5c-0.552,0-1,0.448-1,1V23z"/>
    </symbol>
    <symbol id="arrow-up-in" viewBox="0 0 32 32">
        <path d="M14,31V18h-2.793c-0.202,0-0.385-0.122-0.462-0.309s-0.035-0.402,0.108-0.545l4.793-4.793 c0.195-0.195,0.512-0.195,0.707,0l4.793,4.793c0.143,0.143,0.186,0.358,0.108,0.545S20.995,18,20.793,18H18v13c0,0.552-0.448,1-1,1 h-2C14.448,32,14,31.552,14,31z M30,23V5c0-1.657-1.343-3-3-3H5C3.343,2,2,3.343,2,5v18c0,1.657,1.343,3,3,3h6c0.552,0,1-0.448,1-1 v-2c0-0.552-0.448-1-1-1H6V6h20v16h-5c-0.552,0-1,0.448-1,1v2c0,0.552,0.448,1,1,1h6C28.657,26,30,24.657,30,23z"/>
    </symbol>
    <symbol id="arrow-up-out" viewBox="0 0 32 32">
        <path d="M14,17V6h-2.793c-0.202,0-0.385-0.122-0.462-0.309s-0.035-0.402,0.108-0.545l4.793-4.793 c0.195-0.195,0.512-0.195,0.707,0l4.793,4.793c0.143,0.143,0.186,0.358,0.108,0.545S20.995,6,20.793,6H18v11c0,0.552-0.448,1-1,1h-2 C14.448,18,14,17.552,14,17z M20,11c0,0.552,0.448,1,1,1h5v16H6V12h5c0.552,0,1-0.448,1-1V9c0-0.552-0.448-1-1-1H5 c-1.657,0-3,1.343-3,3v18c0,1.657,1.343,3,3,3h22c1.657,0,3-1.343,3-3V11c0-1.657-1.343-3-3-3h-6c-0.552,0-1,0.448-1,1V11z"/>
    </symbol>
    <symbol id="arrow-down-in" viewBox="0 0 32 32">
        <path d="M15,2h2c0.552,0,1,0.448,1,1v13h2.793c0.202,0,0.385,0.122,0.462,0.309s0.035,0.402-0.108,0.545 l-4.793,4.793c-0.195,0.195-0.512,0.195-0.707,0l-4.793-4.793c-0.143-0.143-0.186-0.358-0.108-0.545S11.005,16,11.207,16H14V3 C14,2.448,14.448,2,15,2z M27,8h-6c-0.552,0-1,0.448-1,1v2c0,0.552,0.448,1,1,1h5v16H6V12h5c0.552,0,1-0.448,1-1V9 c0-0.552-0.448-1-1-1H5c-1.657,0-3,1.343-3,3v18c0,1.657,1.343,3,3,3h22c1.657,0,3-1.343,3-3V11C30,9.343,28.657,8,27,8z"/>
    </symbol>
    <symbol id="shield" viewBox="0 0 32 32">
        <path d="M24,4v12c0,5.394-5.256,9.552-8,11.355C13.255,25.552,8,21.393,8,16V4H24 M26,0H6C4.896,0,4,0.895,4,2 c0,3.587,0,11.017,0,14c0,8.208,8.084,13.721,10.982,15.433c0.314,0.185,0.666,0.278,1.018,0.278c0.353,0,0.705-0.093,1.019-0.279 C19.917,29.72,28,24.207,28,16c0-2.983,0-10.413,0-14C28,0.895,27.105,0,26,0L26,0z M22.549,12.498 c-0.048-0.142-0.171-0.246-0.319-0.268l-4.067-0.621l-1.801-3.837c-0.066-0.14-0.207-0.23-0.362-0.23s-0.296,0.09-0.362,0.23 l-1.801,3.837L9.77,12.23c-0.148,0.023-0.271,0.126-0.319,0.268s-0.012,0.299,0.093,0.406l2.956,3.03l-0.694,4.252 c-0.025,0.151,0.039,0.303,0.164,0.391c0.125,0.088,0.29,0.097,0.424,0.023L16,18.608l3.605,1.993 c0.134,0.074,0.299,0.065,0.424-0.023c0.125-0.088,0.189-0.24,0.164-0.391L19.5,15.935l2.956-3.03 C22.561,12.797,22.597,12.641,22.549,12.498z"/>
    </symbol>
    <symbol id="unarchive" viewBox="0 0 32 32">
        <path d="M29,24H3c-0.552,0-1-0.448-1-1v-2c0-0.552,0.448-1,1-1h26c0.552,0,1,0.448,1,1v2C30,23.552,29.552,24,29,24z  M30,29v-2c0-0.552-0.448-1-1-1H3c-0.552,0-1,0.448-1,1v2c0,0.552,0.448,1,1,1h26C29.552,30,30,29.552,30,29z M15,18h2 c0.552,0,1-0.448,1-1V8h3.2c0.151,0,0.29-0.086,0.358-0.221c0.068-0.135,0.053-0.298-0.038-0.419L16.4,0.533 c-0.094-0.126-0.243-0.2-0.4-0.2s-0.306,0.074-0.4,0.2L10.48,7.36c-0.091,0.121-0.106,0.283-0.038,0.419 C10.51,7.914,10.648,8,10.8,8H14v9C14,17.552,14.448,18,15,18z"/>
    </symbol>
    <symbol id="menu" viewBox="0 0 32 32">
        <path d="M30,15v2c0,0.552-0.448,1-1,1H3c-0.552,0-1-0.448-1-1v-2c0-0.552,0.448-1,1-1h26C29.552,14,30,14.448,30,15z  M29,22H3c-0.552,0-1,0.448-1,1v2c0,0.552,0.448,1,1,1h26c0.552,0,1-0.448,1-1v-2C30,22.448,29.552,22,29,22z M29,6H3 C2.448,6,2,6.448,2,7v2c0,0.552,0.448,1,1,1h26c0.552,0,1-0.448,1-1V7C30,6.448,29.552,6,29,6z"/>
    </symbol>
    <symbol id="stop" viewBox="0 0 32 32">
        <path d="M16,4c6.617,0,12,5.383,12,12s-5.383,12-12,12S4,22.617,4,16S9.383,4,16,4 M16,0C7.163,0,0,7.163,0,16 c0,8.837,7.163,16,16,16s16-7.163,16-16C32,7.163,24.837,0,16,0L16,0z M20,13c0-0.552-0.448-1-1-1h-6c-0.552,0-1,0.448-1,1v6 c0,0.552,0.448,1,1,1h6c0.552,0,1-0.448,1-1V13z"/>
    </symbol>
    <symbol id="start" viewBox="0 0 32 32">
        <path d="M16,4c6.617,0,12,5.383,12,12s-5.383,12-12,12S4,22.617,4,16S9.383,4,16,4 M16,0C7.163,0,0,7.163,0,16 s7.163,16,16,16s16-7.163,16-16S24.837,0,16,0L16,0z M14.8,10.6c-0.152-0.114-0.354-0.132-0.524-0.047 C14.107,10.637,14,10.811,14,11v10c0,0.189,0.107,0.363,0.276,0.447c0.169,0.085,0.372,0.066,0.524-0.047l6.667-5 c0.126-0.094,0.2-0.243,0.2-0.4c0-0.157-0.074-0.306-0.2-0.4L14.8,10.6z"/>
    </symbol>
    <symbol id="folder-closed" viewBox="0 0 32 32">
        <path d="M30,4H16l-3.578-1.789C12.145,2.072,11.838,2,11.528,2H2C0.896,2,0,2.895,0,4v22c0,1.105,0.896,2,2,2h28 c1.105,0,2-0.895,2-2V6C32,4.895,31.105,4,30,4z M28,24H4V14h24V24z M4,10V6h7.056l4,2H28v2H4z"/>
    </symbol>
    <symbol id="reload" viewBox="0 0 32 32">
        <path d="M16,28.955c0-0.523-0.402-0.956-0.924-0.996c-2.758-0.211-5.457-1.369-7.562-3.474 C5.248,22.219,4,19.205,4,16s1.248-6.219,3.515-8.485c4.679-4.679,12.292-4.679,16.971,0C26.752,9.781,28,12.795,28,16 c0,3.205-1.248,6.219-3.515,8.485l-3.461-3.461c-0.172-0.172-0.43-0.223-0.654-0.13C20.146,20.987,20,21.206,20,21.449L20,31 c0,0.552,0.448,1,1,1l9.551,0c0.243,0,0.461-0.146,0.554-0.37c0.093-0.224,0.042-0.482-0.13-0.654l-3.662-3.662 C30.438,24.19,32,20.095,32,16c0-4.095-1.562-8.19-4.686-11.314c-6.248-6.248-16.379-6.248-22.627,0C1.562,7.81,0,11.905,0,16 c0,4.095,1.562,8.19,4.686,11.314c2.853,2.853,6.514,4.403,10.246,4.651c0.276,0.018,0.547-0.079,0.75-0.268 C15.884,31.508,16,31.244,16,30.967V28.955z"/>
    </symbol>
    <symbol id="archive" viewBox="0 0 32 32">
        <path d="M29,20c0.552,0,1,0.448,1,1v2c0,0.552-0.448,1-1,1H3c-0.552,0-1-0.448-1-1v-2c0-0.552,0.448-1,1-1H29z M3,26 c-0.552,0-1,0.448-1,1v2c0,0.552,0.448,1,1,1h26c0.552,0,1-0.448,1-1v-2c0-0.552-0.448-1-1-1H3z M21.52,10.64 c0.091-0.121,0.106-0.283,0.038-0.419C21.49,10.086,21.352,10,21.2,10H18V1c0-0.552-0.448-1-1-1h-2c-0.552,0-1,0.448-1,1v9h-3.2 c-0.152,0-0.29,0.086-0.358,0.221c-0.068,0.136-0.053,0.298,0.038,0.419l5.12,6.827c0.094,0.126,0.243,0.2,0.4,0.2 s0.306-0.074,0.4-0.2L21.52,10.64z"/>
    </symbol>
    <symbol id="eye-closed" viewBox="0 0 32 32">
        <path d="M6.846,23.033l-3.553,3.553c-0.195,0.195-0.195,0.512,0,0.707l1.414,1.414c0.195,0.195,0.512,0.195,0.707,0 l4.152-4.152C11.469,25.421,13.616,26,16,26c8.557,0,14.185-7.322,15.631-9.435c0.233-0.341,0.233-0.789,0-1.13 c-0.837-1.223-3.082-4.185-6.477-6.468l3.553-3.553c0.195-0.195,0.195-0.512,0-0.707l-1.414-1.414c-0.195-0.195-0.512-0.195-0.707,0 l-4.152,4.152C20.531,6.579,18.384,6,16,6C7.443,6,1.815,13.322,0.369,15.435c-0.233,0.341-0.233,0.789,0,1.13 C1.206,17.788,3.451,20.75,6.846,23.033z M24,16c0,4.42-3.578,8-8,8c-1.667,0-3.214-0.511-4.496-1.383l2.934-2.934 C14.918,19.887,15.446,20,16,20c2.207,0,4-1.791,4-4c0-0.554-0.113-1.081-0.318-1.561l2.935-2.935C23.49,12.785,24,14.332,24,16z  M16,8c1.668,0,3.215,0.51,4.497,1.382l-2.935,2.935C17.081,12.113,16.554,12,16,12c-2.207,0-4,1.793-4,4 c0,0.554,0.113,1.082,0.317,1.562l-2.934,2.934C8.511,19.215,8,17.667,8,16C8,11.58,11.582,8,16,8z"/>
    </symbol>
    <symbol id="site-page" viewBox="0 0 32 32">
        <path d="M28,0H4C1.791,0,0,1.791,0,4v24c0,2.209,1.791,4,4,4h24c2.209,0,4-1.791,4-4V4C32,1.791,30.209,0,28,0z  M28,28H4V8h24V28z M28,6H4V4h24V6z M26,12H16v-2h10V12z M26,16H16v-2h10V16z M26,20H6v-2h20V20z M26,24H6v-2h20V24z M6,15.5v-5 C6,10.224,6.224,10,6.5,10h7c0.276,0,0.5,0.224,0.5,0.5v5c0,0.276-0.224,0.5-0.5,0.5h-7C6.224,16,6,15.776,6,15.5z"/>
    </symbol>
    <symbol id="chain-broken" viewBox="0 0 32 32">
        <path d="M25.691,29.53l-4.876-8.627l8.627,4.876c0.136,0.077,0.228,0.213,0.249,0.368 c0.021,0.155-0.031,0.311-0.142,0.421l-3.07,3.07c-0.111,0.11-0.266,0.163-0.421,0.142C25.904,29.759,25.768,29.666,25.691,29.53z  M31.419,7.589c0.774,0.774,0.774,2.029,0,2.804l-8.411,8.411c-0.387,0.387-0.894,0.581-1.402,0.581s-1.015-0.194-1.402-0.581 l-7.009-7.009c-0.774-0.774-0.774-2.029,0-2.803l8.411-8.411C21.994,0.194,22.501,0,23.009,0c0.507,0,1.015,0.194,1.402,0.581 L31.419,7.589z M28.578,8.991l-5.57-5.57l-6.971,6.971l1.734,1.734l2.431-2.431c0.195-0.195,0.512-0.195,0.707,0l1.396,1.396 c0.195,0.195,0.195,0.512,0,0.707l-2.431,2.431l1.734,1.734L28.578,8.991z M5.971,2.426C5.816,2.405,5.66,2.458,5.55,2.568 l-3.07,3.07C2.369,5.748,2.317,5.904,2.338,6.059C2.359,6.214,2.451,6.35,2.587,6.427l8.627,4.876L6.338,2.676 C6.262,2.54,6.125,2.448,5.971,2.426z M0.581,24.411c-0.774-0.774-0.774-2.029,0-2.804l8.411-8.411 c0.387-0.387,0.894-0.581,1.402-0.581c0.507,0,1.015,0.194,1.402,0.581l7.009,7.009c0.774,0.774,0.774,2.029,0,2.804l-8.411,8.411 C10.006,31.806,9.499,32,8.991,32s-1.015-0.194-1.402-0.581L0.581,24.411z M3.422,23.009l5.57,5.57l6.971-6.971l-1.734-1.734 l-2.431,2.431c-0.195,0.195-0.512,0.195-0.707,0l-1.396-1.396c-0.195-0.195-0.195-0.512,0-0.707l2.431-2.431l-1.734-1.734 L3.422,23.009z"/>
    </symbol>
    <symbol id="eye" viewBox="0 0 32 32">
        <path d="M12,16c0-2.207,1.793-4,4-4c2.207,0,4,1.793,4,4c0,2.209-1.793,4-4,4C13.793,20,12,18.209,12,16z  M0.81,17.186c-0.52-0.705-0.519-1.667,0.001-2.373C2.763,12.164,8.149,6,16,6c7.852,0,13.238,6.166,15.19,8.814 c0.52,0.705,0.519,1.667-0.001,2.372C29.237,19.836,23.851,26,16,26C8.148,26,2.762,19.834,0.81,17.186z M8,16c0,4.42,3.582,8,8,8 c4.422,0,8-3.58,8-8c0-4.42-3.578-8-8-8C11.582,8,8,11.58,8,16z"/>
    </symbol>
    <symbol id="arrows-loop" viewBox="0 0 32 32">
        <path d="M31.147,7.36c0.201,0.151,0.32,0.388,0.32,0.64c0,0.252-0.119,0.489-0.32,0.64l-6.187,4.64 c-0.182,0.136-0.425,0.158-0.628,0.057C24.128,13.235,24,13.027,24,12.8V10H6v8H2V8c0-1.105,0.895-2,2-2h20V3.2 c0-0.227,0.128-0.435,0.332-0.537s0.447-0.08,0.628,0.057L31.147,7.36z M7.04,31.28c0.182,0.136,0.425,0.158,0.628,0.057 C7.872,31.235,8,31.027,8,30.8V28h20c1.105,0,2-0.895,2-2V16h-4v8H8v-2.8c0-0.227-0.128-0.435-0.332-0.537s-0.447-0.08-0.628,0.057 l-6.187,4.64c-0.201,0.151-0.32,0.388-0.32,0.64c0,0.252,0.119,0.489,0.32,0.64L7.04,31.28z"/>
    </symbol>
    <symbol id="arrows-four-directions" viewBox="0 0 32 32">
        <path d="M26.683,10.683c-0.114-0.114-0.286-0.149-0.436-0.087C26.097,10.658,26,10.804,26,10.966V14h-8V6h3.034 c0.162,0,0.308-0.097,0.37-0.247s0.028-0.322-0.087-0.436l-4.751-4.751c-0.312-0.312-0.819-0.312-1.131,0l-4.751,4.751 c-0.114,0.114-0.149,0.286-0.087,0.436S10.804,6,10.966,6H14v8H6v-3.034c0-0.162-0.097-0.308-0.247-0.37 c-0.149-0.062-0.321-0.028-0.436,0.087l-4.751,4.752c-0.312,0.312-0.312,0.819,0,1.131l4.751,4.751 c0.114,0.114,0.286,0.149,0.436,0.087C5.903,21.342,6,21.196,6,21.034V18l8,0.001V26h-3.034c-0.162,0-0.308,0.097-0.37,0.247 s-0.028,0.322,0.087,0.436l4.751,4.752c0.312,0.312,0.819,0.312,1.131,0l4.751-4.752c0.114-0.114,0.149-0.286,0.087-0.436 S21.196,26,21.034,26H18v-8h8v3.034c0,0.162,0.097,0.308,0.247,0.37c0.149,0.062,0.321,0.028,0.436-0.087l4.751-4.751 c0.312-0.312,0.312-0.819,0-1.131L26.683,10.683z"/>
    </symbol>
    <symbol id="circle-question-mark-filled" viewBox="0 0 32 32">
        <path d="M16,0C7.163,0,0,7.163,0,16s7.163,16,16,16s16-7.163,16-16S24.837,0,16,0z M18,23.4 c0,0.331-0.269,0.6-0.6,0.6h-1.8c-0.331,0-0.6-0.269-0.6-0.6v-1.8c0-0.331,0.269-0.6,0.6-0.6h1.8c0.331,0,0.6,0.269,0.6,0.6V23.4z  M20.998,12.417c0.001,1.907-0.826,3.017-1.801,3.877C18.393,17.003,18,17.438,18,18v0.4c0,0.331-0.269,0.6-0.6,0.6h-1.789 c-0.161,0-0.315-0.065-0.428-0.18c-0.113-0.115-0.175-0.27-0.172-0.431l0.007-0.396c0-1.743,1.196-2.797,2.157-3.643 c0.903-0.796,0.968-1.217,0.968-1.988c0.001-0.044,0.005-0.766-0.476-1.221c-0.329-0.312-0.867-0.47-1.599-0.47 c-1.926,0-2.06,1.684-2.083,2.297l0.007,0.422c0.003,0.161-0.06,0.316-0.172,0.43C13.705,13.935,13.551,14,13.39,14H11.6 c-0.331,0-0.6-0.269-0.6-0.6v-0.725C11.044,11.036,12.159,8,16.066,8c1.931,0,3.064,0.708,3.674,1.303 C21.041,10.57,21.006,12.232,20.998,12.417z"/>
    </symbol>
    <symbol id="circle-check-mark-filled" viewBox="0 0 32 32">
        <path d="M16,0C7.164,0,0,7.164,0,16s7.164,16,16,16c8.838,0,16-7.164,16-16S24.838,0,16,0z M24.486,12.466 l-9.902,9.899c-0.188,0.188-0.442,0.293-0.707,0.293c-0.265,0-0.52-0.105-0.707-0.293l-5.655-5.657c-0.39-0.391-0.39-1.024,0-1.414 l1.414-1.414c0.391-0.391,1.024-0.391,1.414,0l3.535,3.535l7.777-7.778c0.39-0.39,1.023-0.391,1.414,0l1.415,1.414 c0.188,0.188,0.293,0.442,0.293,0.707C24.779,12.024,24.673,12.278,24.486,12.466z"/>
    </symbol>
    <symbol id="circle-info-filled" viewBox="0 0 32 32">
        <path d="M16,0C7.162,0,0,7.164,0,16s7.162,16,16,16c8.838,0,16-7.164,16-16S24.838,0,16,0z M14,9 c0-0.552,0.448-1,1-1h2c0.552,0,1,0.448,1,1v2c0,0.552-0.448,1-1,1h-2c-0.552,0-1-0.448-1-1V9z M20,23c0,0.552-0.448,1-1,1h-6 c-0.552,0-1-0.448-1-1s0.448-1,1-1h1v-6h-1c-0.552,0-1-0.448-1-1s0.448-1,1-1h4c0.552,0,1,0.448,1,1v7h1C19.552,22,20,22.448,20,23z "/>
    </symbol>
    <symbol id="circle-exclamation-mark-filled" viewBox="0 0 32 32">
        <path d="M16,0C7.164,0,0,7.164,0,16s7.164,16,16,16c8.838,0,16-7.164,16-16S24.838,0,16,0z M18,24h-4v-4h4V24z  M18,18h-4V8h4V18z"/>
    </symbol>
    <symbol id="search" viewBox="0 0 32 32">
        <path d="M11,4c3.86,0,7,3.14,7,7s-3.14,7-7,7s-7-3.14-7-7S7.14,4,11,4 M11,0C4.925,0,0,4.925,0,11s4.925,11,11,11 s11-4.925,11-11S17.075,0,11,0L11,0z M18.729,21.539l7.754,7.753c0.188,0.188,0.442,0.293,0.707,0.293 c0.265,0,0.52-0.105,0.707-0.293l1.397-1.398c0.39-0.391,0.39-1.023,0-1.414l-7.753-7.753L18.729,21.539z"/>
    </symbol>
    <symbol id="circle-exclamation-mark" viewBox="0 0 32 32">
        <path d="M14,8.5C14,8.224,14.224,8,14.5,8h3C17.776,8,18,8.224,18,8.5v9c0,0.276-0.224,0.5-0.5,0.5h-3 c-0.276,0-0.5-0.224-0.5-0.5V8.5z M14,23.5c0,0.276,0.224,0.5,0.5,0.5h3c0.276,0,0.5-0.224,0.5-0.5v-3c0-0.276-0.224-0.5-0.5-0.5h-3 c-0.276,0-0.5,0.224-0.5,0.5V23.5z M16,28c6.617,0,12-5.383,12-12S22.617,4,16,4S4,9.383,4,16S9.383,28,16,28 M16,0 c8.838,0,16,7.164,16,16s-7.162,16-16,16C7.164,32,0,24.836,0,16S7.164,0,16,0"/>
    </symbol>
    <symbol id="cross-mark" viewBox="0 0 32 32">
        <path d="M18.828,16l6.364,6.364c0.391,0.391,0.391,1.024,0,1.414l-1.414,1.414c-0.391,0.391-1.024,0.391-1.414,0 L16,18.828l-6.364,6.364c-0.391,0.391-1.024,0.391-1.414,0l-1.414-1.414c-0.391-0.391-0.391-1.024,0-1.414L13.172,16L6.808,9.636 c-0.391-0.391-0.391-1.024,0-1.414l1.414-1.414c0.391-0.391,1.024-0.391,1.414,0L16,13.172l6.364-6.364 c0.391-0.391,1.024-0.391,1.414,0l1.414,1.414c0.391,0.391,0.391,1.024,0,1.414L18.828,16z"/>
    </symbol>
    <symbol id="plus" viewBox="0 0 32 32">
        <path d="M18,14h9c0.552,0,1,0.448,1,1v2c0,0.552-0.448,1-1,1h-9v9c0,0.552-0.448,1-1,1h-2c-0.552,0-1-0.448-1-1v-9H5 c-0.552,0-1-0.448-1-1v-2c0-0.552,0.448-1,1-1h9V5c0-0.552,0.448-1,1-1h2c0.552,0,1,0.448,1,1V14z"/>
    </symbol>
    <symbol id="circle-question-mark" viewBox="0 0 32 32">
        <path d="M19.74,9.303c1.3,1.267,1.266,2.929,1.258,3.114c0.001,1.907-0.826,3.017-1.801,3.877 C18.393,17.003,18,17.438,18,18v0.4c0,0.331-0.269,0.6-0.6,0.6h-1.789c-0.161,0-0.315-0.065-0.428-0.18 c-0.113-0.115-0.175-0.27-0.172-0.431l0.007-0.396c0-1.743,1.196-2.797,2.157-3.643c0.903-0.796,0.968-1.217,0.968-1.988 c0.001-0.044,0.005-0.766-0.476-1.221c-0.329-0.312-0.867-0.47-1.599-0.47c-1.926,0-2.06,1.684-2.083,2.297l0.007,0.422 c0.003,0.161-0.06,0.316-0.172,0.43C13.705,13.935,13.551,14,13.39,14H11.6c-0.331,0-0.6-0.269-0.6-0.6v-0.725 C11.044,11.036,12.159,8,16.066,8C17.997,8,19.13,8.708,19.74,9.303z M17.4,21h-1.8c-0.331,0-0.6,0.269-0.6,0.6v1.8 c0,0.331,0.269,0.6,0.6,0.6h1.8c0.331,0,0.6-0.269,0.6-0.6v-1.8C18,21.269,17.731,21,17.4,21z M16,4C9.383,4,4,9.383,4,16 s5.383,12,12,12s12-5.383,12-12S22.617,4,16,4 M16,0c8.837,0,16,7.163,16,16s-7.163,16-16,16S0,24.837,0,16S7.163,0,16,0L16,0z"/>
    </symbol>
    <symbol id="user" viewBox="0 0 32 32">
        <path d="M3.897,20.934c-1.492,2.544-1.825,5.22-1.896,7.989c-0.021,0.809,0.286,1.592,0.852,2.172 C3.419,31.674,4.195,32,5.005,32h21.99c0.808,0,1.583-0.326,2.148-0.903c0.565-0.577,0.875-1.358,0.856-2.165 c-0.059-2.6-0.348-5.128-1.649-7.548c-1.72-3.198-4.654-5.551-8.037-6.662c2.214-1.423,3.688-3.894,3.688-6.721c0-4.418-3.581-8-8-8 c-4.418,0-8,3.582-8,8c0,2.826,1.473,5.297,3.685,6.72C8.464,15.775,5.644,17.954,3.897,20.934z M16.001,4c2.206,0,4,1.794,4,4 s-1.794,4-4,4c-2.206,0-4-1.794-4-4S13.796,4,16.001,4z M15.997,18c3.64,0,7.106,2.072,8.83,5.278 c0.789,1.467,1.044,3.108,1.135,4.722H6.041c0.111-1.912,0.425-3.541,1.306-5.043C9.113,19.946,12.508,18,15.997,18z"/>
    </symbol>
    <symbol id="clock" viewBox="0 0 32 32">
        <path d="M15,6c6.065,0,11,4.935,11,11s-4.935,11-11,11S4,23.065,4,17S8.935,6,15,6 M15,2C6.716,2,0,8.716,0,17 s6.716,15,15,15s15-6.716,15-15S23.284,2,15,2L15,2z M22,16.5c0-0.276-0.224-0.5-0.5-0.5H16v-5.5c0-0.276-0.224-0.5-0.5-0.5h-1 c-0.276,0-0.5,0.224-0.5,0.5v7c0,0.276,0.224,0.5,0.5,0.5h7c0.276,0,0.5-0.224,0.5-0.5V16.5z"/>
    </symbol>
    <symbol id="chevron-up" viewBox="0 0 32 32">
        <path d="M2.565,23.678l-1.414-1.414c-0.391-0.391-0.391-1.024,0-1.414L15.293,6.707c0.391-0.391,1.024-0.391,1.414,0 l14.142,14.142c0.391,0.391,0.391,1.024,0,1.414l-1.414,1.414c-0.391,0.391-1.024,0.391-1.414,0L16,11.657L3.979,23.678 C3.589,24.068,2.956,24.068,2.565,23.678z"/>
    </symbol>
    <symbol id="chevron-down" viewBox="0 0 32 32">
        <path d="M29.435,8.322l1.414,1.414c0.391,0.391,0.391,1.024,0,1.414L16.707,25.293c-0.391,0.391-1.024,0.391-1.414,0 L1.151,11.151c-0.391-0.391-0.391-1.024,0-1.414l1.414-1.414c0.391-0.391,1.024-0.391,1.414,0L16,20.343L28.021,8.322 C28.411,7.932,29.044,7.932,29.435,8.322z"/>
    </symbol>
    <symbol id="chevron-right" viewBox="0 0 32 32">
        <path d="M8.322,2.565l1.414-1.414c0.391-0.391,1.024-0.391,1.414,0l14.142,14.142c0.391,0.391,0.391,1.024,0,1.414 L11.151,30.849c-0.391,0.391-1.024,0.391-1.414,0l-1.414-1.414c-0.391-0.391-0.391-1.024,0-1.414L20.343,16L8.322,3.979 C7.932,3.589,7.932,2.956,8.322,2.565z"/>
    </symbol>
    <symbol id="chevron-left" viewBox="0 0 32 32">
        <path d="M23.678,2.565l-1.414-1.414c-0.391-0.391-1.024-0.391-1.414,0L6.707,15.293 c-0.391,0.391-0.391,1.024,0,1.414l14.142,14.142c0.391,0.391,1.024,0.391,1.414,0l1.414-1.414c0.391-0.391,0.391-1.024,0-1.414 L11.657,16L23.678,3.979C24.068,3.589,24.068,2.956,23.678,2.565z"/>
    </symbol>
    <symbol id="arrow-up-tray" viewBox="0 0 32 32">
        <path d="M30,24v6c0,1.105-0.895,2-2,2H2c-1.105,0-2-0.895-2-2v-6c0-1.105,0.895-2,2-2s2,0.895,2,2v4h22v-4 c0-1.105,0.895-2,2-2S30,22.895,30,24z M13,24h4c0.552,0,1-0.448,1-1V10h5.931c0.331,0,0.627-0.203,0.746-0.512 c0.119-0.308,0.037-0.658-0.208-0.88l-8.931-8.119c-0.305-0.277-0.771-0.277-1.076,0L5.531,8.608C5.287,8.83,5.204,9.18,5.323,9.488 C5.442,9.797,5.739,10,6.069,10H12v13C12,23.552,12.448,24,13,24z"/>
    </symbol>
    <symbol id="arrow-down-tray" viewBox="0 0 32 32">
        <path d="M30,25v6c0,0.552-0.448,1-1,1H1c-0.552,0-1-0.448-1-1v-6c0-0.552,0.448-1,1-1h2c0.552,0,1,0.448,1,1v3h22v-3 c0-0.552,0.448-1,1-1h2C29.552,24,30,24.448,30,25z M17,0l-4,0c-0.552,0-1,0.448-1,1v13H6.069c-0.331,0-0.627,0.203-0.746,0.512 c-0.119,0.308-0.037,0.658,0.208,0.88l8.931,8.119c0.305,0.277,0.771,0.277,1.076,0l8.931-8.119c0.245-0.222,0.327-0.572,0.208-0.88 C24.558,14.203,24.261,14,23.931,14H18V1C18,0.448,17.552,0,17,0z"/>
    </symbol>
    <symbol id="arrow-up" viewBox="0 0 32 32">
        <path d="M28.868,15.012c0.173,0.201,0.258,0.463,0.238,0.728c-0.02,0.264-0.145,0.51-0.346,0.683l-1.518,1.3 c-0.419,0.359-1.05,0.311-1.41-0.109L18,8.478V31c0,0.552-0.448,1-1,1h-2c-0.552,0-1-0.448-1-1V8.478l-7.831,9.136 c-0.359,0.419-0.99,0.468-1.41,0.109l-1.518-1.3C3.04,16.25,2.915,16.004,2.895,15.74c-0.02-0.264,0.065-0.526,0.238-0.728 l11.35-13.241c0.38-0.443,0.934-0.698,1.518-0.698s1.138,0.255,1.518,0.698L28.868,15.012z"/>
    </symbol>
    <symbol id="arrow-down" viewBox="0 0 32 32">
        <path d="M3.132,16.988c-0.173-0.201-0.258-0.463-0.238-0.728c0.02-0.264,0.145-0.51,0.346-0.683l1.518-1.3 c0.419-0.359,1.05-0.311,1.41,0.109L14,23.522V1c0-0.552,0.448-1,1-1l2,0c0.552,0,1,0.448,1,1v22.522l7.831-9.136 c0.359-0.419,0.99-0.468,1.41-0.109l1.518,1.3c0.201,0.173,0.326,0.418,0.346,0.683c0.02,0.264-0.065,0.526-0.238,0.728 l-11.35,13.241c-0.38,0.443-0.934,0.698-1.518,0.698s-1.138-0.255-1.518-0.698L3.132,16.988z"/>
    </symbol>
    <symbol id="arrow-left" viewBox="0 0 32 32">
        <path d="M15.012,3.132c0.201-0.173,0.463-0.258,0.728-0.238c0.264,0.02,0.51,0.145,0.683,0.346l1.3,1.518 c0.359,0.419,0.311,1.05-0.109,1.41L8.478,14H31c0.552,0,1,0.448,1,1v2c0,0.552-0.448,1-1,1H8.478l9.136,7.831 c0.419,0.359,0.468,0.99,0.109,1.41l-1.3,1.518c-0.173,0.201-0.418,0.326-0.683,0.346c-0.264,0.02-0.526-0.065-0.728-0.238 L1.771,17.518C1.328,17.138,1.073,16.584,1.073,16s0.255-1.138,0.698-1.518L15.012,3.132z"/>
    </symbol>
    <symbol id="arrow-right" viewBox="0 0 32 32">
        <path d="M16.988,3.132c-0.201-0.173-0.463-0.258-0.728-0.238c-0.264,0.02-0.51,0.145-0.683,0.346l-1.3,1.518 c-0.359,0.419-0.311,1.05,0.109,1.41L23.522,14H1c-0.552,0-1,0.448-1,1v2c0,0.552,0.448,1,1,1h22.522l-9.136,7.831 c-0.419,0.359-0.468,0.99-0.109,1.41l1.3,1.518c0.173,0.201,0.418,0.326,0.683,0.346c0.264,0.02,0.526-0.065,0.728-0.238 l13.241-11.35c0.443-0.38,0.698-0.934,0.698-1.518s-0.255-1.138-0.698-1.518L16.988,3.132z"/>
    </symbol>
    <symbol id="remove" viewBox="0 0 32 32">
        <path d="M26,8h-4V6c0-2.211-1.787-4-4-4h-6C9.789,2,8,3.787,8,6.002V8H4c-1.105,0-2,0.895-2,2v2h2v16 c0,2.213,1.789,4,4,4h14c2.211,0,4-1.787,4-4V12h2v-2C28,8.895,27.105,8,26,8z M10,28H8V14h2V28z M16,28h-2V14h2V28z M18,8h-6V6.002 V6h6V8z M22,28h-2V14h2V28z"/>
    </symbol>
    <symbol id="lock-closed" viewBox="0 0 32 32">
        <path d="M17,20.922v4.156C17,26.141,16.105,27,15,27s-2-0.859-2-1.922v-4.156C13,19.859,13.895,19,15,19 S17,19.859,17,20.922z M24,14h2v14c0,2.213-1.789,4-4,4H8c-2.211,0-4-1.787-4-4V14h2v-4c0-5.5,4.051-10,9-10s9,4.5,9,10V14z M22,18 H8v10h14V18z M20,14v-4c0-3.252-2.287-6-5-6s-5,2.748-5,6v4H20z"/>
    </symbol>
    <symbol id="lock-open" viewBox="0 0 32 32">
        <path d="M9,25.078v-4.156C9,19.859,9.895,19,11,19s2,0.859,2,1.922v4.156C13,26.141,12.105,27,11,27 S9,26.141,9,25.078z M32,10v3c0,0.552-0.448,1-1,1h-2c-0.552,0-1-0.448-1-1v-3c0-3.252-2.287-6-5-6s-5,2.748-5,6v4h4v14 c0,2.209-1.791,4-4,4H4c-2.209,0-4-1.791-4-4V14h14v-4c0-5.5,4.051-10,9-10S32,4.5,32,10z M18,18H4v10h14V18z"/>
    </symbol>
    <symbol id="themes" viewBox="0 0 32 32">
        <path d="M23,2c-3.866,0-7,3.134-7,7v7h7c3.866,0,7-3.134,7-7S26.866,2,23,2z M23,12h-3V9c0-1.654,1.346-3,3-3 s3,1.346,3,3S24.654,12,23,12z M7,2C3.134,2,0,5.134,0,9s3.134,7,7,7h7V9C14,5.134,10.866,2,7,2z M10,12H7c-1.654,0-3-1.346-3-3 s1.346-3,3-3s3,1.346,3,3V12z M0,25c0,3.866,3.134,7,7,7s7-3.134,7-7v-7H7C3.134,18,0,21.134,0,25z M10,25c0,1.654-1.346,3-3,3 s-3-1.346-3-3s1.346-3,3-3h3V25z M23,18h-7v7c0,3.866,3.134,7,7,7s7-3.134,7-7S26.866,18,23,18z M23,28c-1.654,0-3-1.346-3-3v-3h3 c1.654,0,3,1.346,3,3S24.654,28,23,28z"/>
    </symbol>
    <symbol id="sleep" viewBox="0 0 32 32">
        <path d="M30.479,21.031c-5.459,1.533-11.44,0.257-15.603-3.906C10.712,12.961,9.437,6.98,10.969,1.521 c0.063-0.224-0.01-0.465-0.186-0.617c-0.176-0.152-0.425-0.188-0.637-0.093C8.302,1.641,6.564,2.809,5.038,4.335 c-6.52,6.52-6.74,16.871-0.492,23.119c6.248,6.248,16.599,6.028,23.119-0.492c1.526-1.526,2.694-3.264,3.523-5.108 c0.096-0.212,0.059-0.461-0.093-0.638S30.703,20.968,30.479,21.031z M7.497,24.503c-4.158-4.158-4.13-11.78-0.801-16.7 c-0.471,3.742,2.146,9.192,5.228,12.273c3.081,3.082,8.531,5.699,12.273,5.228C19.277,28.633,11.655,28.66,7.497,24.503z"/>
    </symbol>
    <symbol id="share" viewBox="0 0 32 32">
        <path d="M5,12c1.556,0,2.929,0.726,3.846,1.841l13.179-6.59C22.021,7.166,22,7.086,22,7c0-2.761,2.239-5,5-5 c2.761,0,5,2.239,5,5s-2.239,5-5,5c-1.216,0-2.315-0.451-3.182-1.173L11.472,17l12.346,6.173C24.685,22.451,25.784,22,27,22 c2.761,0,5,2.239,5,5s-2.239,5-5,5c-2.761,0-5-2.239-5-5c0-0.086,0.021-0.166,0.025-0.251l-13.179-6.59C7.929,21.274,6.556,22,5,22 c-2.761,0-5-2.239-5-5C0,14.239,2.239,12,5,12z"/>
    </symbol>
    <symbol id="four-squares" viewBox="0 0 32 32">
        <path d="M10,4v6H4V4H10 M12,0H2C0.895,0,0,0.895,0,2v10c0,1.105,0.895,2,2,2h10c1.105,0,2-0.895,2-2V2 C14,0.895,13.105,0,12,0L12,0z M28,4v6h-6V4H28 M30,0H20c-1.105,0-2,0.895-2,2v10c0,1.105,0.895,2,2,2h10c1.105,0,2-0.895,2-2V2 C32,0.895,31.105,0,30,0L30,0z M10,22v6H4v-6H10 M12,18H2c-1.105,0-2,0.895-2,2v10c0,1.105,0.895,2,2,2h10c1.105,0,2-0.895,2-2V20 C14,18.895,13.105,18,12,18L12,18z M28,22v6h-6v-6H28 M30,18H20c-1.105,0-2,0.895-2,2v10c0,1.105,0.895,2,2,2h10 c1.105,0,2-0.895,2-2V20C32,18.895,31.105,18,30,18L30,18z"/>
    </symbol>
    <symbol id="shopping-cart" viewBox="0 0 32 32">
        <path d="M24,24c-1.477,0-2.752,0.809-3.445,2h-9.109c-0.424-0.729-1.061-1.316-1.838-1.658L10.389,22h14.225 c0.834,0,1.58-0.517,1.873-1.298l4.5-12c0.23-0.614,0.145-1.302-0.229-1.841S29.77,6,29.114,6H5.869L3.781,2.869 C3.912,2.604,4,2.316,4,2c0-1.105-0.895-2-2-2C0.895,0,0,0.895,0,2s0.895,2,2,2c0.041,0,0.076-0.021,0.115-0.023l2.008,3.012 l1.658,13.26C5.906,21.249,6.757,22,7.766,22h0.514l-0.682,2.041C5.58,24.244,4,25.93,4,28c0,2.209,1.791,4,4,4s4-1.791,4-4h8 c0,2.209,1.791,4,4,4s4-1.791,4-4S26.209,24,24,24z M8.531,10h0.004h17.693l-3,8H9.531L8.531,10z" />
    </symbol>
    <symbol id="chain" viewBox="0 0 32 32">
        <path d="M24.411,0.581C24.023,0.194,23.516,0,23.009,0c-0.507,0-1.015,0.194-1.402,0.581l-8.411,8.411 c-0.774,0.774-0.774,2.029,0,2.803l2.453,2.453l-1.402,1.402l-2.453-2.453c-0.387-0.387-0.894-0.581-1.402-0.581 c-0.507,0-1.015,0.194-1.402,0.581l-8.411,8.411c-0.774,0.774-0.774,2.029,0,2.804l7.009,7.009C7.977,31.806,8.484,32,8.991,32 s1.015-0.194,1.402-0.581l8.411-8.411c0.774-0.774,0.774-2.029,0-2.804l-2.453-2.453l1.402-1.402l2.453,2.453 c0.387,0.387,0.894,0.581,1.402,0.581s1.015-0.194,1.402-0.581l8.411-8.411c0.774-0.774,0.774-2.029,0-2.804L24.411,0.581z  M15.963,21.607l-6.971,6.971l-5.57-5.57l6.971-6.971l1.734,1.734l-2.431,2.431c-0.195,0.195-0.195,0.512,0,0.707l1.396,1.396 c0.195,0.195,0.512,0.195,0.707,0l2.431-2.431L15.963,21.607z M21.607,15.963l-1.734-1.734l2.431-2.431 c0.195-0.195,0.195-0.512,0-0.707l-1.396-1.396c-0.195-0.195-0.512-0.195-0.707,0l-2.431,2.431l-1.734-1.734l6.971-6.971l5.57,5.57 L21.607,15.963z"/>
    </symbol>
    <symbol id="gear" viewBox="0 0 32 32">
        <path d="M31.164,13.861l-3.486-0.581c-0.302-1.298-0.813-2.513-1.499-3.611l2.056-2.878 c0.284-0.398,0.239-0.942-0.106-1.288l-1.63-1.632c-0.346-0.346-0.891-0.391-1.289-0.107L22.332,5.82 c-1.099-0.685-2.313-1.197-3.612-1.499l-0.581-3.486C18.059,0.353,17.642,0,17.153,0h-2.306c-0.489,0-0.906,0.353-0.986,0.836 L13.28,4.321c-1.299,0.302-2.515,0.814-3.613,1.5L6.789,3.764C6.391,3.48,5.846,3.525,5.5,3.871L3.87,5.503 c-0.345,0.346-0.39,0.89-0.106,1.288l2.056,2.878c-0.685,1.099-1.196,2.313-1.498,3.611l-3.485,0.58C0.354,13.941,0,14.359,0,14.848 l0.001,2.306c0,0.489,0.354,0.906,0.836,0.986l3.484,0.581c0.302,1.299,0.813,2.514,1.499,3.612l-2.056,2.879 c-0.284,0.398-0.239,0.943,0.107,1.289l1.631,1.629c0.346,0.345,0.89,0.39,1.288,0.106l2.878-2.055 c1.099,0.685,2.313,1.197,3.612,1.499l0.581,3.486C13.941,31.646,14.358,32,14.847,32h2.306c0.489,0,0.906-0.354,0.986-0.836 l0.581-3.486c1.3-0.302,2.515-0.814,3.613-1.5l2.878,2.057c0.398,0.284,0.943,0.239,1.289-0.107l1.63-1.63 c0.346-0.346,0.391-0.891,0.107-1.288l-2.057-2.88c0.686-1.099,1.197-2.313,1.499-3.611l3.486-0.581 C31.647,18.059,32,17.642,32,17.153v-2.306C32,14.358,31.647,13.941,31.164,13.861z M16,24c-4.418,0-8-3.582-8-8 c0-4.418,3.582-8,8-8s8,3.582,8,8C24,20.418,20.418,24,16,24z"/>
    </symbol>
    <symbol id="world" viewBox="0 0 32 32">
        <path d="M11.906,8.286L11.856,7.5c-0.007-0.115,0.053-0.225,0.153-0.281l1.069-0.595 c0.076-0.042,0.166-0.05,0.247-0.021l0.604,0.215c0.102,0.036,0.176,0.124,0.194,0.23c0.019,0.106-0.021,0.214-0.104,0.283 L13.3,7.928c-0.01,0.008-0.021,0.016-0.031,0.023l-0.902,0.57c-0.09,0.056-0.202,0.062-0.297,0.013 C11.975,8.486,11.913,8.391,11.906,8.286z M32,16c0,8.837-7.163,16-16,16S0,24.837,0,16S7.163,0,16,0S32,7.163,32,16z  M21.564,10.868c0.019,0.092,0.078,0.169,0.162,0.211l0.925,0.453c0.061,0.03,0.109,0.079,0.139,0.139l0.77,1.601 c0.048,0.101,0.148,0.166,0.26,0.17c0.112,0.004,0.216-0.054,0.271-0.151l0.845-1.485c0.056-0.097,0.052-0.217-0.008-0.311 l-1.504-2.339c-0.051-0.079-0.136-0.13-0.229-0.137c-0.094-0.007-0.186,0.03-0.248,0.101l-1.313,1.491 C21.572,10.681,21.546,10.776,21.564,10.868z M18.975,12.026l-1.332-1.084c-0.065-0.054-0.151-0.077-0.235-0.064 c-0.084,0.013-0.158,0.061-0.205,0.132l-0.134,0.205c-0.083,0.127-0.248,0.172-0.384,0.105l-0.87-0.43 c-0.114-0.056-0.251-0.035-0.343,0.054l-1.036,1.008c-0.094,0.091-0.117,0.232-0.059,0.349c0.059,0.117,0.186,0.183,0.314,0.162 l0.94-0.147c0.117-0.019,0.234,0.034,0.299,0.135l0.335,0.524c0.013,0.02,0.028,0.038,0.045,0.055l1.321,1.27 c0.063,0.061,0.149,0.091,0.237,0.083l3.434-0.336c0.129-0.013,0.234-0.106,0.263-0.233c0.028-0.126-0.027-0.257-0.139-0.323 l-2.417-1.438C18.998,12.043,18.985,12.035,18.975,12.026z M27.671,17.987l-2.158-2.689c-0.086-0.106-0.232-0.142-0.357-0.086 l-2.472,1.107c-0.107,0.048-0.176,0.154-0.177,0.272s0.067,0.225,0.174,0.274l1.346,0.621c0.089,0.041,0.152,0.123,0.169,0.22 c0.018,0.097-0.014,0.195-0.083,0.265l-1.591,1.592c-0.015,0.014-0.029,0.027-0.046,0.037l-1.632,1.088 c-0.061,0.04-0.104,0.101-0.123,0.171l-0.455,1.667c-0.01,0.038-0.028,0.074-0.053,0.105l-1.677,2.156 c-0.023,0.031-0.054,0.057-0.088,0.076l-1.972,1.127c-0.077,0.044-0.17,0.052-0.253,0.021c-0.083-0.03-0.148-0.096-0.179-0.179 l-1.121-3.096c-0.012-0.032-0.018-0.065-0.019-0.099l-0.028-2.599c-0.001-0.123-0.077-0.233-0.192-0.277l-1.217-0.465 c-0.006-0.002-0.013-0.005-0.019-0.008l-3.1-1.433c-0.131-0.061-0.199-0.205-0.165-0.344l0.636-2.576 c0.011-0.044,0.031-0.085,0.061-0.121l1.358-1.626c0.056-0.067,0.08-0.154,0.066-0.24l-0.283-1.757 c-0.013-0.081,0.007-0.163,0.057-0.228c0.049-0.065,0.122-0.108,0.203-0.117l0.777-0.094c0.087-0.01,0.164-0.058,0.212-0.129 c0.049-0.072,0.064-0.161,0.043-0.245L13.151,9.76c-0.031-0.122,0.016-0.25,0.118-0.322l2.462-1.724 c0.042-0.029,0.089-0.047,0.139-0.052c0.326-0.036,1.627-0.19,2.223-0.402c0.085-0.03,0.151-0.097,0.182-0.182 s0.021-0.179-0.025-0.256l-0.175-0.288c-0.048-0.079-0.129-0.131-0.221-0.142s-0.183,0.02-0.248,0.085l-0.372,0.371 c-0.063,0.063-0.151,0.094-0.24,0.086c-0.089-0.009-0.169-0.056-0.22-0.13l-0.426-0.626c-0.041-0.061-0.104-0.104-0.176-0.122 l-0.716-0.179c-0.123-0.031-0.213-0.135-0.226-0.261s0.055-0.246,0.169-0.301l1.492-0.712c0.122-0.059,0.19-0.192,0.166-0.325 c-0.025-0.134-0.137-0.234-0.271-0.245C16.526,4.012,16.265,4,16,4c-2.901,0-5.561,1.04-7.637,2.76 c-0.08,0.067-0.121,0.17-0.106,0.273C8.308,7.386,8.43,7.896,8.506,8.197C8.542,8.34,8.469,8.488,8.333,8.546 c-0.518,0.221-1.74,0.735-2.23,0.857c-0.074,0.019-0.138,0.064-0.18,0.128c-0.986,1.525-1.647,3.279-1.853,5.174 c-0.006,0.064,0.007,0.128,0.039,0.183c0.23,0.393,0.543,0.978,0.824,1.518c0.027,0.051,0.067,0.093,0.117,0.122l1.636,0.937 c0.064,0.037,0.112,0.095,0.136,0.166l1.009,3.028c0.035,0.104,0.01,0.219-0.065,0.3l-1.504,1.609 c-0.097,0.104-0.107,0.262-0.024,0.379C8.412,26,11.972,28,16,28c5.849,0,10.678-4.224,11.731-9.77 C27.748,18.144,27.726,18.055,27.671,17.987z"/>
    </symbol>
    <symbol id="list" viewBox="0 0 32 32">
        <path d="M0,5c0-0.552,0.448-1,1-1h2c0.552,0,1,0.448,1,1v2c0,0.552-0.448,1-1,1H1C0.448,8,0,7.552,0,7V5z M9,4 C8.448,4,8,4.448,8,5v2c0,0.552,0.448,1,1,1h20c0.552,0,1-0.448,1-1V5c0-0.552-0.448-1-1-1H9z M0,15c0,0.552,0.448,1,1,1h2 c0.552,0,1-0.448,1-1v-2c0-0.552-0.448-1-1-1H1c-0.552,0-1,0.448-1,1V15z M8,15c0,0.552,0.448,1,1,1h20c0.552,0,1-0.448,1-1v-2 c0-0.552-0.448-1-1-1H9c-0.552,0-1,0.448-1,1V15z M0,23c0,0.552,0.448,1,1,1h2c0.552,0,1-0.448,1-1v-2c0-0.552-0.448-1-1-1H1 c-0.552,0-1,0.448-1,1V23z M8,23c0,0.552,0.448,1,1,1h20c0.552,0,1-0.448,1-1v-2c0-0.552-0.448-1-1-1H9c-0.552,0-1,0.448-1,1V23z  M0,31c0,0.552,0.448,1,1,1h2c0.552,0,1-0.448,1-1v-2c0-0.552-0.448-1-1-1H1c-0.552,0-1,0.448-1,1V31z M8,31c0,0.552,0.448,1,1,1h20 c0.552,0,1-0.448,1-1v-2c0-0.552-0.448-1-1-1H9c-0.552,0-1,0.448-1,1V31z"/>
    </symbol>
    <symbol id="filter" viewBox="0 0 32 32">
        <path d="M28,2H4C2.896,2,2,2.895,2,4v5.172c0,0.531,0.211,1.039,0.586,1.414L10,18v12c0,1.105,0.896,2,2,2h8 c1.104,0,2-0.895,2-2v-5c3.866,0,7-3.134,7-7c0-1.933-0.784-3.683-2.05-4.95l2.464-2.464C29.789,10.211,30,9.702,30,9.172V4 C30,2.895,29.104,2,28,2z M18,16.343V28h-4V16.343l-8-8V6h20v2.343L18,16.343z M27,18c0,2.757-2.243,5-5,5v-5l3.534-3.534 C26.439,15.372,27,16.621,27,18z"/>
    </symbol>
    <symbol id="power" viewBox="0 0 32 32">
        <path d="M15,20c-0.551,0-1-0.449-1-1V3c0-0.551,0.449-1,1-1h2c0.551,0,1,0.449,1,1v16c0,0.551-0.449,1-1,1H15z  M22,5.365v4.686c2.414,1.828,4,4.695,4,7.949c0,5.514-4.484,10-10,10c-5.512,0-10-4.486-10-10c0-3.254,1.586-6.121,4-7.949V5.365 C5.273,7.613,2,12.418,2,18c0,7.734,6.27,14,14,14c7.734,0,14-6.266,14-14C30,12.418,26.727,7.613,22,5.365z"/>
    </symbol>
    <symbol id="arrow-diagonal-out" viewBox="0 0 32 32">
        <path d="M13.998,3V1c0-0.553,0.447-1,1-1H31c0.549,0,0.992,0.441,0.998,0.99C31.998,0.994,32,0.996,32,1 c0,0.004-0.002,0.006-0.002,0.01V17c0,0.553-0.447,1-1,1h-2c-0.553,0-1-0.447-1-1V6.83V6.828L12.891,21.934 c-0.389,0.375-1.006,0.373-1.393-0.008c0-0.002-0.004-0.004-0.004-0.004l-1.416-1.416l-0.002-0.002 c-0.389-0.391-0.389-1.022,0.002-1.412L25.172,4H14.998C14.445,4,13.998,3.553,13.998,3z M22,17.071V28H4V10h10.929l4-4H4 c-2.209,0-4,1.791-4,4v18c0,2.209,1.791,4,4,4h18c2.209,0,4-1.791,4-4V13.071L22,17.071z"/>
    </symbol>
    <symbol id="globe" viewBox="0 0 32 32">
        <path d="M19.59,27.451c0.738-1.486,1.295-3.17,1.693-4.949c1.428,0.275,2.752,0.662,3.957,1.143 C23.777,25.41,21.824,26.746,19.59,27.451 M6.758,23.645c1.207-0.481,2.533-0.867,3.959-1.143c0.398,1.779,0.955,3.463,1.693,4.949 C10.176,26.746,8.223,25.41,6.758,23.645 M4,16c0-1.52,0.293-2.967,0.813-4.305c1.598,0.766,3.391,1.344,5.299,1.726 c-0.197,2.367-0.117,4.793,0.23,7.113c-1.684,0.326-3.277,0.811-4.736,1.434C4.59,20.209,4,18.174,4,16 M12.41,4.551 c-1.004,2.016-1.689,4.381-2.064,6.879c-1.721-0.359-3.289-0.879-4.658-1.535C7.184,7.377,9.564,5.443,12.41,4.551 M26.313,9.895 c-1.369,0.656-2.938,1.176-4.66,1.535c-0.373-2.498-1.059-4.863-2.063-6.879C22.436,5.443,24.816,7.377,26.313,9.895 M21.889,13.422 c1.908-0.383,3.701-0.961,5.299-1.726C27.705,13.033,28,14.48,28,16c0,2.174-0.59,4.209-1.605,5.969 c-1.459-0.623-3.053-1.107-4.736-1.434C22.004,18.215,22.082,15.789,21.889,13.422 M16,4c0.338,0,0.664,0.023,0.994,0.051 c1.295,1.994,2.232,4.676,2.687,7.707C18.492,11.91,17.266,12,16,12s-2.494-0.09-3.682-0.242c0.455-3.031,1.393-5.713,2.686-7.707 C15.332,4.023,15.66,4,16,4 M16,20c-1.238,0-2.473,0.078-3.684,0.227C12.113,18.875,12,17.459,12,16 c0-0.766,0.035-1.516,0.094-2.254C13.375,13.91,14.688,14,16,14c1.313,0,2.625-0.09,3.906-0.254C19.965,14.484,20,15.234,20,16 c0,1.459-0.113,2.875-0.316,4.227C18.473,20.078,17.238,20,16,20 M16,28c-0.34,0-0.668-0.023-0.996-0.051 c-1.01-1.555-1.793-3.521-2.311-5.748C13.766,22.074,14.867,22,16,22s2.234,0.074,3.307,0.201c-0.516,2.227-1.303,4.193-2.312,5.748 C16.664,27.977,16.338,28,16,28 M29.879,23.941C31.219,21.6,32,18.895,32,16c0-8.84-7.162-16-16-16C7.16,0,0,7.16,0,16 c0,2.895,0.779,5.6,2.121,7.941c0.002,0.004,0.004,0.006,0.008,0.01C4.889,28.758,10.059,32,16,32s11.111-3.242,13.871-8.049 C29.875,23.947,29.877,23.945,29.879,23.941"/>
    </symbol>
    <symbol id="pencil" viewBox="0 0 32 32">
        <path d="M1.509,31.678c-0.331,0.071-0.676-0.031-0.916-0.271s-0.342-0.584-0.271-0.916l1.98-9.279l8.485,8.485 L1.509,31.678z M24.223,0.707c-0.39-0.39-1.024-0.391-1.414,0l-3.536,3.534l8.484,8.486l3.536-3.536 c0.391-0.391,0.391-1.024,0-1.414L24.223,0.707z M17.858,5.656L3.716,19.798l8.485,8.485l14.142-14.142"/>
    </symbol>
    <symbol id="clean" viewBox="0 0 32 32">
        <path d="M4.686,4.686c-6.248,6.248-6.248,16.379,0,22.627s16.379,6.248,22.627,0c6.249-6.249,6.248-16.379,0-22.627 S10.936-1.563,4.686,4.686z M24.485,24.485c-4.679,4.679-12.291,4.679-16.971,0s-4.679-12.291,0-16.971s12.291-4.679,16.971,0 S29.165,19.806,24.485,24.485z M16,13.171l3.536-3.536c0.391-0.391,1.024-0.391,1.414,0l1.414,1.414 c0.391,0.391,0.391,1.024,0,1.414L18.829,16l3.536,3.536c0.391,0.391,0.391,1.024,0,1.414l-1.414,1.414 c-0.391,0.391-1.024,0.391-1.414,0L16,18.828l-3.536,3.536c-0.391,0.391-1.024,0.391-1.414,0L9.636,20.95 c-0.391-0.391-0.391-1.024,0-1.414L13.172,16l-3.536-3.536c-0.391-0.391-0.391-1.024,0-1.414l1.414-1.414 c0.391-0.391,1.024-0.391,1.414,0L16,13.171z"/>
    </symbol>
    <symbol id="circle-minus" viewBox="0 0 32 32">
        <path d="M16,0C7.164,0,0,7.164,0,16s7.164,16,16,16c8.838,0,16-7.164,16-16S24.838,0,16,0z M16,28 C9.383,28,4,22.617,4,16S9.383,4,16,4s12,5.383,12,12S22.617,28,16,28z M23,14c0.552,0,1,0.448,1,1v2c0,0.552-0.448,1-1,1H9 c-0.552,0-1-0.448-1-1v-2c0-0.552,0.448-1,1-1H23z"/>
    </symbol>
    <symbol id="circle-info" viewBox="0 0 32 32">
        <path d="M18,22h1.5c0.276,0,0.5,0.224,0.5,0.5v1c0,0.276-0.224,0.5-0.5,0.5h-7c-0.276,0-0.5-0.224-0.5-0.5v-1 c0-0.276,0.224-0.5,0.5-0.5H14v-6h-1.5c-0.276,0-0.5-0.224-0.5-0.5v-1c0-0.276,0.224-0.5,0.5-0.5h5c0.276,0,0.5,0.224,0.5,0.5V22z  M18,8.5C18,8.224,17.776,8,17.5,8h-3C14.224,8,14,8.224,14,8.5v3c0,0.276,0.224,0.5,0.5,0.5h3c0.276,0,0.5-0.224,0.5-0.5V8.5z  M16,28c6.617,0,12-5.383,12-12S22.617,4,16,4S4,9.383,4,16S9.383,28,16,28 M16,0c8.838,0,16,7.164,16,16s-7.162,16-16,16 S0,24.836,0,16S7.162,0,16,0"/>
    </symbol>
    <symbol id="folder-open" viewBox="0 0 32 32">
        <path d="M30.758,14.861C30.384,14.322,29.77,14,29.114,14H26v-4c0-1.105-0.895-2-2-2h-8l-3.707-3.707 C12.105,4.105,11.851,4,11.586,4H2C0.896,4,0,4.895,0,6v22c0,1.104,0.896,2,2,2h22.614c0.834,0,1.58-0.517,1.873-1.298l4.5-12 C31.217,16.088,31.131,15.4,30.758,14.861z M4,8h6.343l3.707,3.707C14.238,11.895,14.492,12,14.757,12H22v2H7.386 c-0.834,0-1.58,0.517-1.873,1.298L4,19.333V8z M23.228,26H5.772l3-8h17.456L23.228,26z"/>
    </symbol>
</svg>
