<svg xmlns="http://www.w3.org/2000/svg" style="position: absolute; width: 0; height: 0; overflow: hidden;">
<symbol id="i-two-arrows-refresh-04" viewBox="0 0 32 32"><path  d="M4,16c0,6.035,4.477,11.043,10.284,11.878C15.269,28.02,16,28.859,16,29.855v0.003 c0,0.58-0.254,1.131-0.692,1.511c-0.439,0.38-1.019,0.551-1.594,0.469C5.961,30.729,0,24.06,0,16c0-4.423,1.831-8.381,4.738-11.261 L1.707,1.707C1.421,1.421,1.335,0.991,1.49,0.617C1.645,0.244,2.01,0,2.414,0H10c1.104,0,2,0.896,2,2v7.586 c0,0.404-0.244,0.769-0.617,0.924c-0.374,0.155-0.804,0.069-1.09-0.217L7.549,7.549C5.365,9.709,4,12.688,4,16 M16,2.145 c0,0.996,0.73,1.836,1.716,1.977C23.523,4.957,28,9.965,28,16c0,3.313-1.365,6.291-3.549,8.451l-2.744-2.744 c-0.286-0.286-0.716-0.372-1.09-0.217C20.244,21.645,20,22.01,20,22.414V30c0,1.104,0.896,2,2,2h7.586 c0.404,0,0.77-0.244,0.924-0.617c0.154-0.374,0.069-0.804-0.217-1.09l-3.032-3.032C30.169,24.381,32,20.423,32,16 c0-8.061-5.96-14.729-13.715-15.838c-0.573-0.082-1.154,0.089-1.593,0.469C16.254,1.01,16,1.562,16,2.142V2.145z"></path></symbol>
<symbol id="i-menu" viewBox="0 0 32 32"><path  d="M30,16c0,1.105-0.895,2-2,2H4c-1.105,0-2-0.895-2-2c0-1.105,0.895-2,2-2h24C29.105,14,30,14.895,30,16z  M28,6H4C2.895,6,2,6.895,2,8c0,1.105,0.895,2,2,2h24c1.105,0,2-0.895,2-2C30,6.895,29.105,6,28,6z M28,22H4c-1.105,0-2,0.895-2,2 c0,1.105,0.895,2,2,2h24c1.105,0,2-0.895,2-2C30,22.895,29.105,22,28,22z"></path></symbol>
<symbol id="i-arrow-up-07" viewBox="0 0 32 32"><path  d="M1.858,22.971c-0.781-0.781-0.781-2.047,0-2.828L14.586,7.414c0.781-0.781,2.047-0.781,2.828,0 l12.728,12.728c0.781,0.781,0.781,2.047,0,2.828c-0.781,0.781-2.047,0.781-2.828,0L16,11.657L4.686,22.971 C3.905,23.752,2.639,23.752,1.858,22.971z"></path></symbol>
<symbol id="i-arrow-down-07" viewBox="0 0 32 32"><path  d="M30.142,9.029c0.781,0.781,0.781,2.047,0,2.828L17.414,24.586c-0.781,0.781-2.047,0.781-2.828,0 L1.858,11.858c-0.781-0.781-0.781-2.047,0-2.828c0.781-0.781,2.047-0.781,2.828,0L16,20.343L27.314,9.029 C28.095,8.248,29.361,8.248,30.142,9.029z"></path></symbol>
<symbol id="i-chain" viewBox="0 0 32 32"><path  d="M25.378,0.903C24.777,0.301,23.988,0,23.199,0c-0.789,0-1.578,0.301-2.18,0.903l-7.158,7.158 c-1.204,1.204-1.204,3.156,0,4.36l1.715,1.715l-1.44,1.44l-1.715-1.715c-0.602-0.602-1.391-0.903-2.18-0.903 c-0.789,0-1.578,0.301-2.18,0.903l-7.158,7.158c-1.204,1.204-1.204,3.156,0,4.36l5.719,5.719C7.223,31.699,8.012,32,8.801,32 c0.789,0,1.578-0.301,2.18-0.903l7.158-7.158c1.204-1.204,1.204-3.156,0-4.36l-1.879-1.879l1.44-1.44l1.879,1.879 c0.602,0.602,1.391,0.903,2.18,0.903s1.578-0.301,2.18-0.903l7.158-7.158c1.204-1.204,1.204-3.156,0-4.36L25.378,0.903z  M16.018,21.701c0.032,0.032,0.032,0.085,0,0.117L8.86,28.976C8.851,28.985,8.836,29,8.801,29c-0.034,0-0.049-0.015-0.058-0.024 l-5.719-5.719c-0.032-0.032-0.032-0.085,0-0.117l7.158-7.158c0.009-0.009,0.024-0.024,0.058-0.024s0.049,0.015,0.058,0.024 l1.715,1.715l-1.577,1.577c-0.586,0.586-0.586,1.536,0,2.121l0.003,0.003c0.586,0.586,1.536,0.586,2.121,0l1.577-1.577 L16.018,21.701z M28.976,8.86l-7.158,7.158c-0.009,0.009-0.024,0.024-0.058,0.024s-0.049-0.015-0.058-0.024l-1.879-1.879l1.95-1.95 c0.586-0.586,0.586-1.536,0-2.121l-0.003-0.003c-0.586-0.586-1.536-0.586-2.121,0l-1.95,1.95l-1.715-1.715 c-0.032-0.032-0.032-0.085,0-0.117l7.158-7.158C23.149,3.015,23.164,3,23.199,3s0.049,0.015,0.058,0.024l5.719,5.719 C29.008,8.775,29.008,8.828,28.976,8.86z"></path></symbol>
</svg>