<svg xmlns="http://www.w3.org/2000/svg" fill="none" width="320" height="192" viewBox="0 0 320 192"><g clip-path="url(#clip0)"><path fill="#A7ADB7" d="M186.5 168.3c16.7-3.9 37-9.4 52.8-26.6 15.8-17.3 27.1-46.7 18.9-65.4-8.1-18.8-35.7-27.4-57.7-41.3C178.4 21 161.8 1.6 144.4.2c-17.6-1.4-36 15.4-52.7 35.1a170.2 170.2 0 00-38.8 71.2c-6.9 28.6-5.3 63.4 11.1 76 16.6 12.8 48.2 3.3 70.5-2.5 22.3-6 35.3-8.1 52-11.7z"/><path fill="url(#paint0_linear)" fill-rule="evenodd" d="M156.1 41.7l-33.9-1.8-.3-33.1c7.4-4.7 15-7.4 22.4-6.7 4 .3 8 1.6 12.2 3.6l-.4 38z" clip-rule="evenodd"/><path fill="#DFE2E8" d="M69.8 104.6a131 131 0 0126 26.2c10 13.5 17.3 28.9 28.4 41.4 23.6 27 71 28.6 86-8.5 3.8-9.3 6.5-12 14-18.6 8.3-7.4 20.7-5.4 31.7-6 16.1-1 24.6-11 26.3-21.4 2.1-13.1-6.2-23.5-9.7-35.5-3.8-12.6-1.6-27.7-14.5-35.3-10.9-6.4-24.8-3.3-36.8.7-12 4-24.8 9-36.9 5.5a57 57 0 01-21.6-14.5 89 89 0 00-63.9-22.1c-13.3 1.3-33 5.9-43.4 14.6-14 11.6-25.6 39.3-13 55.7 5.8 7.7 19.1 11.7 26.8 17.5.2 0 .4 0 .6.3z"/><path fill="#C4C9D3" fill-rule="evenodd" d="M211.4 160.7c-8.5 3.5-17 5.7-24.9 7.6l-14.6 3c-10.8 2.3-21.8 4.5-37.4 8.7l-1.6.4c-3.2-2.4-6.2-5-8.8-8-6.5-7.4-11.7-15.9-17-24.2a260 260 0 00-11.3-17.3c-7.4-10-16.2-18.7-26-26.2l-.4-.2-.3-.2c-3-2.3-6.8-4.2-10.7-6.3-1-.4-1.8-1-2.8-1.5a180 180 0 0136-61.3c5.8-6.7 11.6-13.1 17.7-18.5a88.4 88.4 0 0153.3 22.1c6.4 6 13.3 12.1 21.6 14.5 11.5 3.3 23.5-.8 35-4.8l2-.7 1.7-.5c15.5 8.2 30 16.2 35.4 29 8 18-2.2 45.8-17 63.3-6.4.3-12.3 1.5-17 5.7a37.5 37.5 0 00-12.9 15.4z" clip-rule="evenodd"/><path fill="#252628" d="M91.4 127a26.5 26.5 0 100-53 26.5 26.5 0 000 53z"/><path fill="#fff" d="M84 98.2A9 9 0 1084 80a9 9 0 100 18.2z"/><path fill="#53BCE7" d="M264.2 91.2c0-4.6-8.3-19-8.3-19s-8.3 14.3-8.3 19a8.3 8.3 0 0016.7 0z"/><path fill="#fff" d="M255.8 89.9c.6-2.2-.1-4.4-1.7-4.8-1.5-.5-3.1 1-3.8 3.3-.7 2.1.1 4.3 1.6 4.8 1.6.4 3.3-1 3.9-3.3z"/><path fill="#252628" d="M249.9 66c-7.6-.4-13 1-16.4 4.6-6.3 6.6-4.7 19-2.6 35v1.2c.7 5.2-.4 9.1-3.1 12-4.7 4.6-14.2 6.2-28 4.7h-17c-12.2 0-23.3.7-48 .7-4.5 0-14.1 1.8-20.7 1.3-4-.4-8.3-2.9-1.9-8.8l-18.5 1-.1 7.5c-6.5.1-13.8-.4-20.8-3.3-11.8-4.7-16.1-2.7-20.4.1-2.4 1.7-4 2.9-9.1 1.5-1-.4-2.1.2-2.4 1.3-.4 1 .2 2 1.3 2.4 6.8 2 9.8-.1 12.4-2 3-2 5.8-4 16.7.3 6.9 2.7 13.8 3.6 20 3.6 5.7 0 10.8-.7 14.9-1.2l3.8-.5h17.5l55-.2H199c5.6.7 22.8 2.5 31.1-5.8 3.6-3.6 5.2-8.7 4.3-15.2l-.2-1c-1.9-15-3.4-26.7 1.6-32.1 2.5-2.6 6.8-3.7 13.2-3.3 1 .1 2-.8 2-1.8.7-1-.2-2-1.1-2z"/><path fill="#666" d="M255.1 64.2l-7.8.3.3 6.8 7.8-.3-.3-6.8z"/><path fill="#fff" d="M250 63.3c-.5 0-.7.4-.7.7v7.3c0 .5.3.7.7.7.4 0 .6-.3.6-.7V64c0-.5-.2-.7-.6-.7zM253 63.3c-.5 0-.7.4-.7.7v7.3c0 .5.3.7.6.7.5 0 .7-.3.7-.7V64c.1-.5-.2-.7-.7-.7z"/><path fill="#9AD0E8" d="M122.3 61l33.5 1 .4-28.8a88 88 0 00-34.7-15l.8 42.8z"/><path fill="#00326D" d="M167.5 87s-9.4-12.6-11.3-16l-1.7-16.6-28.3-1-2.2 41 56.4 8.4-13-14.8.1-1z"/><path fill="#0053CC" d="M179.7 92.5s-26.4-10.3-28.2-13.4c-1.7-3 7.4-7.8 7.4-7.8l20.8 21.2z"/><path fill="#009BEC" d="M229.3 110.4c1-1 1.8-8.3-4.4-9.3a476 476 0 00-27.3-3.4c-13.6-1.1-26.2-17.4-31.7-19-5.6-1.8-10.9 4.8-14 7-3 2.1-14.2.5-16.3-2.8-4.7-7.6-7.6-7-11-7.4-3.3-.4-2.4 5.3-4.6 14-2 8.6-4 16 .7 20.7 4.7 4.7 28 5.4 28 5.4l31.9 4 33.4-.3 15.3-8.9z"/><path fill="#53BCE7" d="M191.4 97.7l-31.2-17.1-1-.6c-1.4.8-2.6 1.9-3.8 2.9L167 99.5l18.9.5 5.4-2.3z"/><path fill="#000" d="M165.3 77.7c5 1.4 24.8 17 33.4 22-2 1.3-5.3.7-8.6-.2-4.5-1.2-24.4-13.6-32.7-18.5 2.6-1.8 5-4 8-3.3z"/><path fill="#fff" d="M207.5 107.1l-11-9.5-11.4-7s-13.5 6.8-22 3.1c-8.5-3.6 4.3 16.4 4.3 16.4l39.8 3.4.3-6.4z"/><path fill="#0053CC" d="M201.7 119.4l16.1-2.4 11.5-6.6c.6-.5 1.1-3.3.5-5.7l-.9-.2c.1.3 0 .5-.1.8-.9 1.5-22.8.2-22.8.2l-3.1 1.4c-3.4 1.6-7.2 2-10.9 1.4l-4.6-.7-12-2.5-17.2-3.4a66 66 0 01-12.8-3.7L122.8 89l-1 4c-1.2 5.2-1 9-1 9l-1 .8v1.8l-2.1-.1c.3 2 1.1 4 2.7 5.6.5.4 1.3 1 2.1 1.4l66.1 8h13z"/><path fill="#9AD0E8" d="M120 89.2l.4-1.8c9.4 2.7 24.9 10 25.6 27l-5.7.4c-7.1-.7-16.8-2-19.6-5-4.8-4.4-2.9-11.9-.7-20.6z"/><path fill="#53BCE7" d="M118 105c10 4.8 42.6-5 43.5 12-2 .2-19.4-2-21.3-2-7.1-.6-14-4-17.9-4.4-2.5 0-4.6-5-4.4-5.6z"/><path fill="#666" d="M229.8 110s-10.5 6.3-26.8 7c-24.8 1-37.4-7-49.7-8.1-12.3-1.1-22.2 1.4-27.1 1.2-4.9-.2-6.4-1.6-7-2.1-1.4 2-1.8 11.9 0 14.7.7 1.4 7.4 2.3 19.2 2 26-.8 49 .8 57.2 1 8.3.2 20 1.6 27-4 4.7-3.6 7.2-11.7 7.2-11.7z"/><path fill="#00326D" d="M195.5 125.8c1.5 0 3 0 4.5.2-39.3-8.3-41.6-13.4-56.2-13-11 .2-20 7.3-25.9 5.1-.4 4.2 2.2 7.5 2.2 7.5 11.3-.5 6.3-.5 18.1-.8 26.2-.9 49 .8 57.3 1z"/><path fill="#000" d="M186 95.2c-.5.7-.2 1.7.5 2 .8.5 1.8.3 2.1-.5.5-.8.2-1.8-.5-2-.7-.5-1.7-.2-2.1.5zM181.5 92.5c-.5.8-.2 1.8.5 2.1.8.4 1.8.2 2.1-.5.5-.8.2-1.8-.5-2.1-.7-.5-1.7-.1-2.1.5z"/><path fill="#009BEC" d="M177 89.9c-.4.8-.1 1.7.6 2 .8.5 1.8.3 2.1-.5.5-.7.2-1.7-.5-2-.7-.5-1.7-.3-2.1.5zM172.7 87.3c-.4.7-.2 1.7.5 2 .8.5 1.8.3 2.1-.5.5-.8.3-1.8-.5-2-.7-.5-1.7-.3-2.1.5zM168.3 84.6c-.4.8-.2 1.8.6 2.1.7.4 1.7.2 2-.5.5-.8.3-1.8-.5-2.1-.7-.5-1.7-.2-2 .5zM164 82c-.5.8-.3 1.7.5 2 .7.5 1.7.3 2-.5.5-.7.3-1.7-.5-2-.7-.5-1.6-.3-2 .5z"/><path fill="#515151" d="M168.6 78.7l-2.5 4.3a1 1 0 01-.8.4.8.8 0 01-.4-.2c-.4-.2-.5-.8-.3-1.2l2.4-4c.6.1 1 .4 1.6.7zM170.6 85.6a1 1 0 01-.8.4c-.2 0-.3 0-.4-.2-.4-.2-.5-.7-.3-1.2l2.5-4.2 1.4 1-2.4 4.2zM174.9 88.2a1 1 0 01-.8.5.8.8 0 01-.4-.2c-.5-.3-.6-.8-.3-1.2l2.4-4 1.4 1.1-2.3 3.8zM179.4 90.9a1 1 0 01-.8.4.8.8 0 01-.4-.2c-.5-.2-.6-.8-.3-1.2l2-3.6c.2 0 .2 0 .3.2l1.2.9-2 3.5zM183.8 93.5a1 1 0 01-.8.4.8.8 0 01-.4-.2c-.5-.2-.6-.7-.4-1.2l2-3.2 1.4 1.1-1.8 3.1zM188.2 96.3a1 1 0 01-.8.4l-.4-.2c-.5-.2-.6-.8-.4-1.2l1.8-2.9 1.4 1-1.6 2.9z"/><path fill="#009BEC" d="M139.7 121.5a3 3 0 01-3.1-3.4c.2-1.4 1.5-2.7 5.1-3a34 34 0 0115.6 3.7c1.1.4 1 2.3-.5 2.3l-17.1.4z"/><path fill="#53BCE7" d="M122 69.5s25.1 1 35 .7l.2-18.6h-36.6l1.4 17.9z"/><path fill="#fff" d="M121.4 55.4c-.2 0-.2 0-.2-.2l.2-.2h1.8c.1 0 .2 0 .2.2s-.1.2-.2.2h-1.8zM126.7 55.4c-.2 0-.2 0-.2-.2 0-.1 0-.2.2-.2h3.4c.1 0 .2 0 .2.2 0 .1 0 .2-.2.2h-3.4c.1 0 .1 0 0 0zm7 0c-.2 0-.2-.2-.2-.3l.2-.2h3.4c.1 0 .3 0 .3.2l-.3.2h-3.4zm7 0c-.3 0-.3-.2-.3-.3l.2-.2h3.4c.2 0 .3 0 .3.2 0 .1-.1.2-.3.2h-3.4zm7-.2c-.3 0-.3-.1-.3-.2l.3-.2h3.4c.2 0 .2 0 .2.2s-.1.2-.2.2h-3.4zM154.7 55l-.2-.1c0-.2 0-.2.2-.2h1.8c.2 0 .2 0 .2.2l-.2.2h-1.8z"/><path fill="#0053CC" d="M229.4 126.8H71.1c-1.7 0-3.1 1.4-3.1 3 0 1.7 1.4 3.1 3 3.1h158.4c1.7 0 3.1-1.4 3.1-3a3 3 0 00-3-3.1z"/></g><defs><linearGradient id="paint0_linear" x1="139.5" x2="142.2" y1="20.9" y2="0" gradientUnits="userSpaceOnUse"><stop stop-color="#8D939C"/><stop offset="1" stop-color="#8D939C" stop-opacity="0"/></linearGradient><clipPath id="clip0"><path fill="#fff" d="M0 0h320v192H0z"/></clipPath></defs></svg>