<svg xmlns="http://www.w3.org/2000/svg" fill="#ccc" width="280" height="210" viewBox="-90 -55 280 210">
  <path d="M73.5 43a2.5 2.5 0 11-5 0 2.5 2.5 0 015 0z"/>
  <path fill-rule="evenodd" d="M13.2 16.2A49.9 49.9 0 01100 50c0 14.6-6.2 27.7-16.2 36.8L13.2 16.2zM96 50c0 12-4.6 23-12.2 31.2L78.6 76a4 4 0 003.4-4V36a4 4 0 00-4-4H67.5l-6.3-10.1a4 4 0 00-3.4-1.9H42.2a4 4 0 00-3.4 1.9l-5.5 8.8-14.5-14.5A45.8 45.8 0 0196 50zM78 72h-3.3L63.4 60.7a16 16 0 00-22.1-22.1l-5-5 6-9.6h15.5L64 34.1a4 4 0 003.4 1.9H78v36zM62 52a12 12 0 01-1.5 5.8L44.2 41.5A12 12 0 0162 52z" clip-rule="evenodd"/>
  <path d="M80.8 89.4l-2.9-2.8A46 46 0 0113.4 22l-2.8-2.9a50 50 0 0070.2 70.2z"/>
  <path d="M23.3 32H22a4 4 0 00-4 4v36a4 4 0 004 4h45.3l-4-4H22V36h5.3l-4-4z"/>
  <path d="M35.9 44.5a16 16 0 0021.6 21.6l-3-3A12 12 0 0138 52c0-1.6.3-3.1.9-4.5l-3-3z"/>
</svg>