<svg xmlns="http://www.w3.org/2000/svg" style="display:none">
    <symbol id="i-filter-02" viewBox="0 0 32 32">
        <path d="M16,0C11.189,0,0,0.487,0,5c0,0.361,0.095,0.688,0.229,1c0.016,0.036,0.036,0.07,0.054,0.105l0.852,1.083 l10.437,13.268C11.849,20.808,12,21.244,12,21.692V30c0,1.104,1.791,2,4,2s4-0.896,4-2v-8.308c0-0.449,0.151-0.884,0.428-1.237 L30.865,7.188c0.381-0.321,0.658-0.686,0.852-1.083L31.8,6h-0.029C31.905,5.688,32,5.361,32,5C32,0.487,20.811,0,16,0z M18,21v8.594 C17.682,29.77,16.99,30,16,30s-1.682-0.23-2-0.406V21c0-0.449-0.151-0.884-0.428-1.237L5.05,8.93C8.653,9.847,13.317,10,16,10 s7.347-0.153,10.95-1.07l-8.522,10.834C18.151,20.116,18,20.551,18,21z M29.187,6C27.262,7.164,22.093,8,16,8S4.738,7.164,2.813,6 C2.296,5.687,2,5.351,2,5c0-1.657,6.268-3,14-3s14,1.343,14,3C30,5.351,29.704,5.687,29.187,6z"/>
    </symbol>
    <symbol id="i-filter-check-mark" viewBox="0 0 32 32">
        <path d="M7,14c3.866,0,7-3.134,7-7s-3.134-7-7-7C3.134,0,0,3.134,0,7C0,10.866,3.134,14,7,14z M2.707,6.121 c0.391-0.39,1.024-0.39,1.414,0l2.121,2.122l3.536-3.536c0.391-0.391,1.024-0.391,1.414,0c0.391,0.391,0.391,1.024,0,1.414 L6.95,10.364c-0.391,0.39-1.024,0.39-1.414,0L2.707,7.536C2.317,7.145,2.317,6.512,2.707,6.121z M30,2H15.363 c-0.176,0-0.338,0.092-0.429,0.242c-0.091,0.15-0.096,0.338-0.013,0.492c0.162,0.307,0.309,0.623,0.436,0.949 C15.434,3.874,15.618,4,15.823,4H30v5.172l-8,8V30h-8V17.172l-2.16-2.16c-0.156-0.156-0.397-0.192-0.592-0.086 c-0.295,0.159-0.598,0.304-0.91,0.43c-0.156,0.063-0.269,0.2-0.303,0.364c-0.033,0.165,0.019,0.334,0.137,0.453L12,18v12 c0,1.105,0.896,2,2,2h8c1.104,0,2-0.895,2-2v-5c3.865,0,7-3.134,7-7c0-1.933-0.784-3.683-2.051-4.95l2.465-2.464 C31.789,10.211,32,9.702,32,9.172V4C32,2.895,31.104,2,30,2 M29,18c0,2.757-2.243,5-5,5v-5l3.533-3.534 C28.438,15.372,29,16.621,29,18"/>
    </symbol>
    <symbol id="i-sliders" viewBox="0 0 32 32">
        <path d="M14,24c0-1.105-0.895-2-2-2H6c-1.105,0-2,0.895-2,2v2H0.5C0.224,26,0,26.224,0,26.5v1 C0,27.776,0.224,28,0.5,28H4v2c0,1.105,0.895,2,2,2h6c1.105,0,2-0.895,2-2v-2h17.5c0.276,0,0.5-0.224,0.5-0.5v-1 c0-0.276-0.224-0.5-0.5-0.5H14V24z M12,30H6v-6h6V30z M28,14c0-1.105-0.895-2-2-2h-6c-1.105,0-2,0.895-2,2v2H0.5 C0.224,16,0,16.224,0,16.5v1C0,17.776,0.224,18,0.5,18H18v2c0,1.105,0.895,2,2,2h6c1.105,0,2-0.895,2-2v-2h3.5 c0.276,0,0.5-0.224,0.5-0.5v-1c0-0.276-0.224-0.5-0.5-0.5H28V14z M26,20h-6v-6h6V20z M14,4c0-1.105-0.895-2-2-2H6 C4.895,2,4,2.895,4,4v2H0.5C0.224,6,0,6.224,0,6.5v1C0,7.776,0.224,8,0.5,8H4v2c0,1.105,0.895,2,2,2h6c1.105,0,2-0.895,2-2V8h17.5 C31.776,8,32,7.776,32,7.5v-1C32,6.224,31.776,6,31.5,6H14V4z M12,10H6V4h6V10z"/>
    </symbol>
    <symbol id="i-two-sheets-blank" viewBox="0 0 32 32">
        <path d="M26.999,0H9C7.343,0,6,1.343,6,3v3H3C1.343,6,0,7.343,0,9v19.999C0,30.656,1.344,32,3.001,32H21 c1.657,0,3-1.343,3-3v-3h3c1.657,0,3-1.343,3-3V3.001C30,1.344,28.656,0,26.999,0z M22,28.917C22,29.515,21.515,30,20.917,30H3 c-0.552,0-1-0.448-1-1V9c0-0.552,0.448-1,1-1h18c0.552,0,1,0.448,1,1V28.917z M28,23c0,0.552-0.448,1-1,1h-3V9.001 C24,7.344,22.656,6,20.999,6H8V3c0-0.552,0.448-1,1-1h18c0.552,0,1,0.448,1,1V23z"/>
    </symbol>
    <symbol id="i-server-arrow-left" viewBox="0 0 32 32">
        <path d="M10,4.5v1C10,5.776,9.776,6,9.5,6h-3C6.224,6,6,5.776,6,5.5v-1C6,4.224,6.224,4,6.5,4h3 C9.776,4,10,4.224,10,4.5z M6.5,14C6.224,14,6,14.224,6,14.5v1C6,15.776,6.224,16,6.5,16h3c0.276,0,0.5-0.224,0.5-0.5v-1 c0-0.276-0.224-0.5-0.5-0.5H6.5z M6.5,24C6.224,24,6,24.224,6,24.5v1C6,25.776,6.224,26,6.5,26h3c0.276,0,0.5-0.224,0.5-0.5v-1 c0-0.276-0.224-0.5-0.5-0.5H6.5z M2,30V2c0-1.105,0.895-2,2-2h20c1.105,0,2,0.895,2,2v13.5c0,0.276-0.224,0.5-0.5,0.5h-1 c-0.276,0-0.5-0.224-0.5-0.5V12H4v8h11.5c0.276,0,0.5,0.224,0.5,0.5v1c0,0.276-0.224,0.5-0.5,0.5H4v8h11.5 c0.276,0,0.5,0.224,0.5,0.5v1c0,0.276-0.224,0.5-0.5,0.5H4C2.895,32,2,31.105,2,30z M4,10h20V2H4V10z M32,25c0,3.866-3.134,7-7,7 s-7-3.134-7-7s3.134-7,7-7S32,21.134,32,25z M30,24.5c0-0.276-0.224-0.5-0.5-0.5H24v-3.43c0-0.085-0.054-0.161-0.134-0.189 c-0.08-0.028-0.169-0.003-0.222,0.064l-3.394,4.242c-0.146,0.183-0.146,0.442,0,0.625l3.394,4.242 c0.053,0.066,0.142,0.092,0.222,0.064C23.946,29.59,24,29.515,24,29.43V26h5.5c0.276,0,0.5-0.224,0.5-0.5V24.5z"/>
    </symbol>
    <symbol id="i-server-refresh" viewBox="0 0 32 32">
        <path d="M10,4.5v1C10,5.776,9.776,6,9.5,6h-3C6.224,6,6,5.776,6,5.5v-1C6,4.224,6.224,4,6.5,4h3 C9.776,4,10,4.224,10,4.5z M6.5,14C6.224,14,6,14.224,6,14.5v1C6,15.776,6.224,16,6.5,16h3c0.276,0,0.5-0.224,0.5-0.5v-1 c0-0.276-0.224-0.5-0.5-0.5H6.5z M2,30V2c0-1.105,0.895-2,2-2h20c1.105,0,2,0.895,2,2v13.5c0,0.276-0.224,0.5-0.5,0.5h-1 c-0.276,0-0.5-0.224-0.5-0.5V12H4v8h9.5c0.276,0,0.5,0.224,0.5,0.5v1c0,0.276-0.224,0.5-0.5,0.5H4v8h11.5c0.276,0,0.5,0.224,0.5,0.5 v1c0,0.276-0.224,0.5-0.5,0.5H4C2.895,32,2,31.105,2,30z M4,10h20V2H4V10z M6.5,24C6.224,24,6,24.224,6,24.5v1 C6,25.776,6.224,26,6.5,26h3c0.276,0,0.5-0.224,0.5-0.5v-1c0-0.276-0.224-0.5-0.5-0.5H6.5z M29.815,18.447 c-0.112-0.046-0.241-0.021-0.327,0.065l-1.544,1.544C26.679,18.788,24.934,18,23,18c-3.866,0-7,3.134-7,7c0,3.866,3.134,7,7,7 c3.309,0,6.075-2.298,6.804-5.385c0.035-0.149,0-0.305-0.094-0.425C29.615,26.07,29.47,26,29.317,26h-1.026 c-0.224,0-0.42,0.148-0.481,0.364C27.215,28.46,25.284,30,23,30c-2.757,0-5-2.243-5-5s2.243-5,5-5c1.379,0,2.616,0.573,3.521,1.479 l-2.009,2.009c-0.086,0.086-0.111,0.215-0.065,0.327C24.494,23.927,24.603,24,24.724,24H29.5c0.276,0,0.5-0.224,0.5-0.5v-4.776 C30,18.603,29.927,18.494,29.815,18.447z"/>
    </symbol>
    <symbol id="i-two-arrows-refresh-04" viewBox="0 0 32 32">
        <path d="M2,16c0,7.558,6.019,13.736,13.517,13.992c0.27,0.009,0.483,0.23,0.483,0.5v1.001 c0,0.135-0.055,0.265-0.152,0.359c-0.098,0.094-0.229,0.145-0.363,0.141C6.886,31.719,0,24.664,0,16 c0-4.93,2.241-9.321,5.749-12.251L2.853,0.854C2.711,0.71,2.668,0.496,2.745,0.309C2.822,0.122,3.005,0,3.207,0H11 c0.553,0,1,0.448,1,1v7.793c0,0.202-0.122,0.385-0.309,0.462c-0.186,0.078-0.402,0.035-0.545-0.108L7.189,5.19 C4.042,7.757,2,11.63,2,16 M32,16c0-8.664-6.886-15.719-15.484-15.992c-0.135-0.004-0.266,0.046-0.363,0.141 C16.055,0.243,16,0.373,16,0.508v1.001c0,0.269,0.213,0.49,0.482,0.5C23.98,2.264,30,8.442,30,16c0,4.37-2.042,8.243-5.19,10.81 l-3.957-3.956c-0.143-0.143-0.358-0.186-0.545-0.108C20.122,22.822,20,23.005,20,23.207V31c0,0.552,0.447,1,1,1h7.793 c0.202,0,0.385-0.122,0.462-0.309c0.077-0.187,0.034-0.402-0.108-0.545l-2.896-2.896C29.759,25.321,32,20.93,32,16"/>
    </symbol>
    <symbol id="i-circle-check-mark" viewBox="0 0 32 32">
        <path d="M15,2C6.716,2,0,8.716,0,17c0,8.284,6.716,15,15,15c8.284,0,15-6.716,15-15C30,8.716,23.284,2,15,2z M15,30 C7.832,30,2,24.168,2,17S7.832,4,15,4s13,5.832,13,13S22.168,30,15,30z M23.824,12.54c0.195,0.195,0.195,0.512,0,0.707l-9.046,9.046 c-0.391,0.391-1.024,0.391-1.414,0l-6.01-6.01c-0.195-0.195-0.195-0.512,0-0.707l0.707-0.707c0.195-0.195,0.512-0.195,0.707,0 l5.303,5.303l8.339-8.339c0.195-0.195,0.512-0.195,0.707,0L23.824,12.54z"/>
    </symbol>
    <symbol id="i-check-mark" viewBox="0 0 32 32">
        <path d="M27.304,9.04c-0.188-0.188-0.442-0.293-0.707-0.293c-0.265,0-0.52,0.105-0.707,0.293L13.869,21.061 l-7.778-7.778c-0.188-0.188-0.442-0.293-0.707-0.293c-0.265,0-0.52,0.105-0.707,0.293c-0.39,0.391-0.39,1.024,0,1.414l8.485,8.485 c0.391,0.391,1.024,0.391,1.414,0l12.728-12.728C27.694,10.064,27.694,9.431,27.304,9.04z"/>
    </symbol>
    <symbol id="i-monitor-refresh" viewBox="0 0 32 32">
        <path d="M32,16.5V20c0,2.209-1.791,4-4,4H18v6h7.5c0.276,0,0.5,0.224,0.5,0.5v1c0,0.276-0.224,0.5-0.5,0.5h-19 C6.224,32,6,31.776,6,31.5v-1C6,30.224,6.224,30,6.5,30H14v-6H4c-2.209,0-4-1.791-4-4V4c0-2.209,1.791-4,4-4h11.5 C15.776,0,16,0.224,16,0.5v1C16,1.776,15.776,2,15.5,2H4C2.895,2,2,2.895,2,4v16c0,1.105,0.895,2,2,2h24c1.105,0,2-0.895,2-2v-3.5 c0-0.276,0.224-0.5,0.5-0.5h1C31.776,16,32,16.224,32,16.5z M23.404,8.247C23.342,8.097,23.196,8,23.034,8H18.5 C18.224,8,18,8.224,18,8.5v4.534c0,0.162,0.097,0.308,0.247,0.37c0.149,0.062,0.321,0.028,0.436-0.087l1.381-1.381 C21.323,13.208,23.064,14,25,14c3.307,0,6.053-2.301,6.782-5.385c0.035-0.149,0-0.305-0.094-0.425C31.593,8.07,31.448,8,31.296,8 h-1.005c-0.224,0-0.42,0.148-0.481,0.364C29.215,10.46,27.284,12,25,12c-1.379,0-2.616-0.573-3.521-1.479l1.839-1.839 C23.432,8.568,23.466,8.396,23.404,8.247z M31.753,0.596c-0.149-0.062-0.321-0.028-0.436,0.087l-1.381,1.381 C28.677,0.792,26.936,0,25,0c-3.307,0-6.053,2.301-6.782,5.384c-0.035,0.149,0,0.305,0.094,0.425C18.407,5.93,18.552,6,18.704,6 h1.005c0.224,0,0.42-0.148,0.481-0.364C20.785,3.54,22.716,2,25,2c1.379,0,2.616,0.573,3.521,1.479l-1.839,1.839 c-0.114,0.114-0.149,0.286-0.087,0.436S26.804,6,26.966,6H31.5C31.776,6,32,5.776,32,5.5V0.966C32,0.804,31.903,0.658,31.753,0.596z "/>
    </symbol>
    <symbol id="i-three-dots" viewBox="0 0 32 32">
        <path d="M6,14c1.104,0,2,0.897,2,2c0,1.103-0.896,2-2,2s-2-0.897-2-2C4,14.897,4.896,14,6,14 M6,12 c-2.209,0-4,1.791-4,4c0,2.209,1.791,4,4,4s4-1.791,4-4C10,13.791,8.209,12,6,12L6,12z M16,14c1.104,0,2,0.897,2,2 c0,1.103-0.896,2-2,2s-2-0.897-2-2C14,14.897,14.896,14,16,14 M16,12c-2.209,0-4,1.791-4,4c0,2.209,1.791,4,4,4s4-1.791,4-4 C20,13.791,18.209,12,16,12L16,12z M26,14c1.104,0,2,0.897,2,2c0,1.103-0.896,2-2,2s-2-0.897-2-2C24,14.897,24.896,14,26,14 M26,12 c-2.209,0-4,1.791-4,4c0,2.209,1.791,4,4,4s4-1.791,4-4C30,13.791,28.209,12,26,12L26,12z"/>
    </symbol>
    <symbol id="i-square-arrow-up-04" viewBox="0 0 32 32">
        <path d="M14,31.5V18h-2.932c-0.194,0-0.37-0.112-0.453-0.288c-0.082-0.176-0.056-0.383,0.069-0.532l3.932-4.719 c0.095-0.114,0.236-0.18,0.384-0.18s0.289,0.066,0.384,0.18l3.932,4.719c0.124,0.149,0.151,0.357,0.069,0.532 C19.303,17.888,19.126,18,18.932,18H16v13.5c0,0.276-0.224,0.5-0.5,0.5h-1C14.224,32,14,31.776,14,31.5z M28,21.5v-19 C28,1.119,26.881,0,25.5,0h-21C3.119,0,2,1.119,2,2.5v19C2,22.881,3.119,24,4.5,24h5c0.276,0,0.5-0.224,0.5-0.5v-1 c0-0.276-0.224-0.5-0.5-0.5h-5C4.224,22,4,21.776,4,21.5v-19C4,2.224,4.224,2,4.5,2h21C25.776,2,26,2.224,26,2.5v19 c0,0.276-0.224,0.5-0.5,0.5h-5c-0.276,0-0.5,0.224-0.5,0.5v1c0,0.276,0.224,0.5,0.5,0.5h5C26.881,24,28,22.881,28,21.5z"/>
    </symbol>
    <symbol id="i-square-arrow-down-04" viewBox="0 0 32 32">
        <path d="M14.5,0h1C15.776,0,16,0.224,16,0.5V14h2.932c0.194,0,0.37,0.112,0.453,0.288 c0.082,0.176,0.056,0.383-0.069,0.532l-3.932,4.719c-0.095,0.114-0.236,0.18-0.384,0.18s-0.289-0.066-0.384-0.18l-3.932-4.719 c-0.124-0.149-0.151-0.357-0.069-0.532C10.697,14.112,10.874,14,11.068,14H14V0.5C14,0.224,14.224,0,14.5,0z M25.5,8h-5 C20.224,8,20,8.224,20,8.5v1c0,0.276,0.224,0.5,0.5,0.5h5c0.276,0,0.5,0.224,0.5,0.5v19c0,0.276-0.224,0.5-0.5,0.5h-21 C4.224,30,4,29.776,4,29.5v-19C4,10.224,4.224,10,4.5,10h5C9.776,10,10,9.776,10,9.5v-1C10,8.224,9.776,8,9.5,8h-5 C3.119,8,2,9.119,2,10.5v19C2,30.881,3.119,32,4.5,32h21c1.381,0,2.5-1.119,2.5-2.5v-19C28,9.119,26.881,8,25.5,8z"/>
    </symbol>
    <symbol id="i-shield-star" viewBox="0 0 32 32">
        <path d="M26,2v14c0,7.239-7.653,12.325-10.001,13.712C13.654,28.325,6,23.24,6,16L6,2L26,2L26,2 M26,0H6 C4.896,0,4,0.895,4,2c0,3.587,0,11.017,0,14c0,8.208,8.084,13.721,10.982,15.433c0.314,0.185,0.666,0.278,1.018,0.278 c0.353,0,0.705-0.093,1.019-0.279C19.917,29.72,28,24.207,28,16c0-2.983,0-10.413,0-14C28,0.895,27.105,0,26,0L26,0z M22.549,12.498 c-0.048-0.142-0.171-0.246-0.319-0.268l-4.067-0.621l-1.801-3.837c-0.066-0.14-0.207-0.23-0.362-0.23s-0.296,0.09-0.362,0.23 l-1.801,3.837L9.77,12.23c-0.148,0.023-0.271,0.126-0.319,0.268s-0.012,0.299,0.093,0.406l2.956,3.03l-0.694,4.252 c-0.025,0.151,0.039,0.303,0.164,0.391c0.125,0.088,0.29,0.097,0.424,0.023L16,18.608l3.605,1.993 c0.134,0.074,0.299,0.065,0.424-0.023c0.125-0.088,0.189-0.24,0.164-0.391L19.5,15.935l2.956-3.03 C22.561,12.797,22.597,12.641,22.549,12.498z"/>
    </symbol>
    <symbol id="i-trash-can-04" viewBox="0 0 32 32">
        <path d="M22,2c0-1.105-0.895-2-2-2h-8c-1.105,0-2,0.895-2,2v2H7C6.448,4,6,4.448,6,5v1h20V5c0-0.552-0.448-1-1-1h-3 V2z M20,4h-8V2h8V4z M7.847,30.166C7.934,31.203,8.8,32,9.84,32H22.16c1.04,0,1.907-0.797,1.993-1.834L26,8H6L7.847,30.166z  M23.81,10l-1.636,20H9.826L8.19,10H23.81z M13,28l-1-16h2l1,16H13z M19,28h-2l1-16h2L19,28z"/>
    </symbol>
    <symbol id="i-menu" viewBox="0 0 32 32">
        <path d="M30,16.5v1c0,0.276-0.224,0.5-0.5,0.5h-27C2.224,18,2,17.776,2,17.5v-1C2,16.224,2.224,16,2.5,16h27 C29.776,16,30,16.224,30,16.5z M29.5,8h-27C2.224,8,2,8.224,2,8.5v1C2,9.776,2.224,10,2.5,10h27c0.276,0,0.5-0.224,0.5-0.5v-1 C30,8.224,29.776,8,29.5,8z M29.5,24h-27C2.224,24,2,24.224,2,24.5v1C2,25.776,2.224,26,2.5,26h27c0.276,0,0.5-0.224,0.5-0.5v-1 C30,24.224,29.776,24,29.5,24z"/>
    </symbol>
    <symbol id="i-folder-blank-closed-02" viewBox="0 0 32 32">
        <path d="M30,4H16l-3.578-1.789C12.145,2.072,11.838,2,11.528,2H2C0.896,2,0,2.895,0,4v22c0,1.105,0.896,2,2,2h28 c1.105,0,2-0.895,2-2V6C32,4.895,31.105,4,30,4z M30,26H2V10h28V26z M2,8V4h9.528l3.578,1.789L15.528,6H16h14v2H2z"/>
    </symbol>
    <symbol id="i-arrow-refresh-02" viewBox="0 0 32 32">
        <path d="M20,31c0,0.552,0.448,1,1,1l9.458,0c0.247,0,0.469-0.152,0.559-0.382c0.09-0.231,0.029-0.493-0.154-0.66 l-3.76-3.447c0.07-0.067,0.143-0.128,0.211-0.197C30.438,24.19,32,20.095,32,16c0-4.095-1.562-8.19-4.686-11.314 c-6.248-6.248-16.379-6.248-22.627,0C1.562,7.811,0,11.905,0,16c0,4.095,1.562,8.19,4.686,11.314 c2.993,2.993,6.876,4.552,10.797,4.678c0.135,0.004,0.267-0.046,0.364-0.141S16,31.627,16,31.492v-1.007 c0-0.27-0.213-0.49-0.483-0.499c-3.422-0.117-6.81-1.479-9.417-4.086C3.456,23.255,2,19.74,2,16c0-3.74,1.456-7.255,4.101-9.9 c5.459-5.459,14.34-5.459,19.799,0C28.544,8.745,30,12.26,30,16c0,3.74-1.456,7.255-4.1,9.899c-0.09,0.09-0.191,0.162-0.283,0.249 l-4.611-4.227c-0.175-0.161-0.429-0.203-0.647-0.107S20,22.126,20,22.364L20,31z"/>
    </symbol>
    <symbol id="i-eye-03" viewBox="0 0 32 32">
        <path d="M8.264,22.322l-4.618,4.618c-0.195,0.195-0.195,0.512,0,0.707l0.707,0.707c0.195,0.195,0.512,0.195,0.707,0 l5.246-5.246C12.021,23.654,13.923,24,16,24c8.232,0,13.754-5.422,15.449-7.338c0.335-0.379,0.334-0.945-0.001-1.324 c-1.089-1.232-3.763-3.902-7.712-5.659l4.618-4.618c0.195-0.195,0.195-0.512,0-0.707l-0.707-0.707c-0.195-0.195-0.512-0.195-0.707,0 l-5.246,5.246C19.979,8.346,18.077,8,16,8C7.769,8,2.248,13.42,0.552,15.338c-0.334,0.378-0.335,0.946-0.001,1.324 C1.64,17.893,4.314,20.564,8.264,22.322z M22,15.901c0,3.273-2.687,5.926-6,5.926c-1.255,0-2.418-0.382-3.381-1.032l2.096-2.096 C15.105,18.887,15.538,19,16,19c1.655,0,3-1.343,3-3c0-0.462-0.113-0.894-0.3-1.286l2.211-2.211C21.595,13.466,22,14.636,22,15.901z  M16,9.975c1.305,0,2.51,0.416,3.495,1.116L17.286,13.3C16.894,13.113,16.462,13,16,13c-1.655,0-3,1.345-3,3 c0,0.462,0.113,0.895,0.3,1.286l-2.126,2.126C10.44,18.428,10,17.217,10,15.901C10,12.628,12.687,9.975,16,9.975z"/>
    </symbol>
    <symbol id="i-www-site-picture-text" viewBox="0 0 32 32">
        <path d="M28,0H4C1.791,0,0,1.791,0,4v24c0,2.209,1.791,4,4,4h24c2.209,0,4-1.791,4-4V4C32,1.791,30.209,0,28,0z  M30,28c0,1.105-0.895,2-2,2H4c-1.104,0-2-0.896-2-2V8h28V28z M30,6H2V4c0-1.104,0.896-2,2-2h24c1.104,0,2,0.896,2,2V6z M28,12H16 v-2h12V12z M28,16H16v-2h12V16z M28,20H4v-2h24V20z M28,24H4v-2h24V24z M4,15.5v-5C4,10.224,4.224,10,4.5,10h9 c0.276,0,0.5,0.224,0.5,0.5v5c0,0.276-0.224,0.5-0.5,0.5h-9C4.224,16,4,15.776,4,15.5z"/>
    </symbol>
    <symbol id="i-cloud-refresh" viewBox="0 0 32 32">
        <path d="M32,14c0,0.55-0.062,1.085-0.17,1.603C31.781,15.834,31.577,16,31.34,16h-1.02 c-0.153,0-0.298-0.07-0.393-0.191c-0.095-0.12-0.129-0.278-0.093-0.427C29.941,14.939,30,14.476,30,14c0-3.309-2.691-6-6-6 c-0.576,0-1.182,0.107-1.855,0.328L21.08,8.676l-0.225-1.098C20.189,4.346,17.307,2,14,2c-3.859,0-7,3.141-7,7v0.848l-0.826,0.238 C3.756,10.49,2,12.557,2,15c0,2.758,2.242,5,5,5h6.5c0.276,0,0.5,0.224,0.5,0.5v1c0,0.276-0.224,0.5-0.5,0.5H7c-3.859,0-7-3.141-7-7 c0-3.148,2.076-5.85,5.043-6.705C5.436,3.617,9.303,0,14,0c3.895,0,7.33,2.533,8.539,6.154C23.039,6.051,23.523,6,24,6 C28.412,6,32,9.588,32,14z M23.467,31.982c0.138,0.009,0.274-0.039,0.375-0.134S24,31.622,24,31.484V30.48 c0-0.262-0.201-0.478-0.462-0.498C20.445,29.746,18,27.153,18,24c0-1.656,0.683-3.145,1.775-4.225l1.713,1.713 c0.086,0.086,0.215,0.111,0.327,0.065C21.927,21.506,22,21.397,22,21.276V16.5c0-0.276-0.224-0.5-0.5-0.5h-4.776 c-0.121,0-0.231,0.073-0.277,0.185c-0.046,0.112-0.021,0.241,0.065,0.327l1.857,1.857C16.916,19.81,16,21.788,16,24 C16,28.239,19.297,31.708,23.467,31.982z M24.533,16.017c-0.138-0.009-0.274,0.039-0.375,0.134S24,16.378,24,16.516v1.003 c0,0.262,0.201,0.478,0.462,0.498C27.555,18.254,30,20.847,30,24c0,1.656-0.682,3.145-1.775,4.225l-1.713-1.713 c-0.086-0.086-0.215-0.112-0.327-0.065C26.073,26.494,26,26.603,26,26.724V31.5c0,0.276,0.224,0.5,0.5,0.5h4.776 c0.121,0,0.231-0.073,0.277-0.185c0.046-0.112,0.021-0.241-0.065-0.327L29.63,29.63C31.084,28.19,32,26.212,32,24 C32,19.761,28.703,16.292,24.533,16.017z"/>
    </symbol>
    <symbol id="i-broken-chain" viewBox="0 0 32 32">
        <path d="M25.812,0.581C25.425,0.194,24.918,0,24.411,0s-1.015,0.194-1.402,0.581l-9.111,9.111 c-0.774,0.774-0.774,2.029,0,2.804l5.607,5.607c0.387,0.387,0.894,0.581,1.402,0.581c0.507,0,1.015-0.194,1.402-0.581l9.111-9.111 c0.774-0.774,0.774-2.029,0-2.804L25.812,0.581z M20.919,16.688l-2.107-2.098l3.143-3.143c0.195-0.195,0.195-0.512,0-0.707 l-0.695-0.695c-0.195-0.195-0.512-0.195-0.707,0l-3.146,3.146l-2.095-2.086l9.099-9.099l5.595,5.57L20.919,16.688z M6.188,31.419 C6.575,31.806,7.082,32,7.589,32c0.507,0,1.015-0.194,1.402-0.581l9.111-9.111c0.774-0.774,0.774-2.029,0-2.804l-5.607-5.607 c-0.387-0.387-0.894-0.581-1.402-0.581c-0.507,0-1.015,0.194-1.402,0.581l-9.111,9.111c-0.774,0.774-0.774,2.029,0,2.804 L6.188,31.419z M11.094,15.324l2.095,2.086l-3.143,3.143c-0.195,0.195-0.195,0.512,0,0.707l0.695,0.695 c0.195,0.195,0.512,0.195,0.707,0l3.146-3.146l2.095,2.086l-9.087,9.111l-5.607-5.582L11.094,15.324z M4.716,2.556 C4.822,2.45,4.97,2.397,5.119,2.412c0.149,0.015,0.284,0.096,0.367,0.22l5.884,8.826L2.543,5.574 c-0.125-0.083-0.205-0.218-0.22-0.367C2.308,5.058,2.361,4.91,2.467,4.804L4.716,2.556z M20.703,20.791l8.826,5.884 c0.125,0.083,0.205,0.218,0.22,0.367c0.015,0.149-0.038,0.297-0.144,0.403l-2.249,2.249c-0.106,0.106-0.254,0.159-0.403,0.144 c-0.149-0.015-0.284-0.096-0.367-0.22L20.703,20.791z"/>
    </symbol>
    <symbol id="i-monitor-arrow-down" viewBox="0 0 32 32">
        <path d="M16,1v7h4.678c0.235,0,0.449,0.138,0.546,0.352c0.097,0.214,0.06,0.466-0.095,0.643l-5.226,5.973 c-0.228,0.26-0.557,0.41-0.903,0.41s-0.675-0.149-0.903-0.41L8.871,8.995C8.716,8.818,8.679,8.566,8.776,8.352 C8.873,8.138,9.087,8,9.322,8H14V1c0-0.552,0.448-1,1-1S16,0.448,16,1z M26,0h-7.5C18.224,0,18,0.224,18,0.5v1 C18,1.776,18.224,2,18.5,2H26c1.103,0,2,0.897,2,2v16c0,1.103-0.897,2-2,2H4c-1.103,0-2-0.897-2-2V4c0-1.103,0.897-2,2-2h7.5 C11.776,2,12,1.776,12,1.5v-1C12,0.224,11.776,0,11.5,0H4C1.791,0,0,1.791,0,4v16c0,2.209,1.791,4,4,4h10v6H7c-0.552,0-1,0.448-1,1 c0,0.552,0.448,1,1,1h16c0.552,0,1-0.448,1-1c0-0.552-0.448-1-1-1h-7v-6h10c2.209,0,4-1.791,4-4V4C30,1.791,28.209,0,26,0z"/>
    </symbol>
    <symbol id="i-eye-02" viewBox="0 0 32 32">
        <path d="M16,26c7.851,0,13.237-6.164,15.189-8.813c0.52-0.705,0.52-1.667,0.001-2.372C29.238,12.166,23.852,6,16,6 C8.149,6,2.763,12.164,0.811,14.813c-0.52,0.705-0.52,1.667-0.001,2.373C2.762,19.834,8.148,26,16,26z M16,8 c6.936,0,11.807,5.595,13.579,8c-1.772,2.405-6.643,8-13.579,8c-6.936,0-11.807-5.595-13.579-8C4.194,13.594,9.065,8,16,8z M16,22 c3.31,0,6-2.687,6-6c0-3.311-2.69-6-6-6c-3.311,0-6,2.689-6,6C10,19.313,12.689,22,16,22z M16,12c2.206,0,4,1.794,4,4s-1.794,4-4,4 s-4-1.794-4-4S13.794,12,16,12z M14,16c0-1.105,0.895-2,2-2s2,0.895,2,2s-0.895,2-2,2S14,17.105,14,16z"/>
    </symbol>
    <symbol id="i-arrows-looping-06" viewBox="0 0 32 32">
        <path d="M31.263,6.385C31.445,6.537,31.55,6.763,31.55,7s-0.105,0.463-0.288,0.615l-4.278,3.565 c-0.179,0.149-0.428,0.181-0.639,0.082S26,10.952,26,10.719V7.997H4v8.002H2V7.997c0-1.105,0.895-2,2-2h22V3.281 c0-0.233,0.135-0.445,0.346-0.543s0.46-0.067,0.639,0.082L31.263,6.385z M5.654,29.262C5.865,29.163,6,28.952,6,28.719v-2.723 l22,0.003c0.531,0,1.039-0.211,1.414-0.586C29.789,25.038,30,24.529,30,23.999v-8h-2v8L6,23.996v-2.715 c0-0.233-0.135-0.445-0.346-0.543s-0.46-0.067-0.639,0.082L0,25l5.016,4.18C5.195,29.329,5.444,29.361,5.654,29.262z"/>
    </symbol>
    <symbol id="i-circle-plus-02" viewBox="0 0 32 32">
        <path d="M15,2C6.716,2,0,8.716,0,17c0,8.284,6.716,15,15,15s15-6.716,15-15C30,8.716,23.284,2,15,2z M24,17 c0,0.552-0.448,1-1,1h-7v7c0,0.552-0.448,1-1,1s-1-0.448-1-1v-7H7c-0.552,0-1-0.448-1-1s0.448-1,1-1h7V9c0-0.552,0.448-1,1-1 s1,0.448,1,1v7h7C23.552,16,24,16.448,24,17z"/>
    </symbol>
    <symbol id="i-circle-cross-mark-02" viewBox="0 0 32 32">
        <path d="M4.393,6.393c-5.858,5.858-5.858,15.355,0,21.213c5.858,5.858,15.355,5.858,21.213,0s5.858-15.355,0-21.213 C19.749,0.536,10.251,0.536,4.393,6.393z M21.364,10.636c0.391,0.391,0.391,1.024,0,1.414L16.414,17l4.95,4.95 c0.391,0.391,0.391,1.024,0,1.414c-0.391,0.391-1.024,0.391-1.414,0L15,18.414l-4.95,4.95c-0.391,0.391-1.024,0.391-1.414,0 c-0.391-0.391-0.391-1.024,0-1.414l4.95-4.95l-4.95-4.95c-0.391-0.391-0.391-1.024,0-1.414c0.391-0.391,1.024-0.391,1.414,0 l4.95,4.95l4.95-4.95C20.34,10.246,20.973,10.246,21.364,10.636z"/>
    </symbol>
    <symbol id="i-circle-question-mark-02" viewBox="0 0 32 32">
        <path d="M15,2C6.716,2,0,8.716,0,17s6.716,15,15,15c8.284,0,15-6.716,15-15S23.284,2,15,2z M16,23.5 c0,0.276-0.224,0.5-0.5,0.5h-1c-0.276,0-0.5-0.224-0.5-0.5v-1c0-0.276,0.224-0.5,0.5-0.5h1c0.276,0,0.5,0.224,0.5,0.5V23.5z  M19.302,15.811c-0.587,0.777-1.139,1.216-1.627,1.604c-0.5,0.397-0.896,0.711-1.304,1.365c-0.177,0.284-0.27,0.587-0.318,0.821 c-0.048,0.233-0.252,0.399-0.489,0.399l-1.015,0c-0.146,0-0.285-0.064-0.38-0.175c-0.095-0.111-0.137-0.258-0.114-0.403 c0.07-0.445,0.235-1.083,0.621-1.701c0.591-0.946,1.21-1.438,1.756-1.872c0.433-0.344,0.841-0.668,1.274-1.243 c0.296-0.392,0.475-1.46,0.024-2.366C17.32,11.417,16.52,11,15.354,11c-1.238,0-2.144,0.307-2.694,0.914 c-0.746,0.823-0.655,1.977-0.654,1.988l0.003,0.596c0.001,0.133-0.052,0.261-0.146,0.355C11.769,14.947,11.641,15,11.508,15H10.51 c-0.276,0-0.5-0.224-0.5-0.5V14c-0.005,0-0.174-1.95,1.168-3.43C12.123,9.528,13.528,9,15.354,9c2.606,0,3.729,1.471,4.166,2.349 C20.234,12.782,20.14,14.7,19.302,15.811z"/>
    </symbol>
    <symbol id="i-circle-check-mark-02" viewBox="0 0 32 32">
        <path d="M15,2C6.716,2,0,8.716,0,17c0,8.284,6.716,15,15,15s15-6.716,15-15C30,8.716,23.284,2,15,2z M23.485,12.758 l-9.9,9.9c-0.391,0.391-1.024,0.391-1.414,0L6.515,17c-0.188-0.188-0.293-0.442-0.293-0.707c0-0.265,0.105-0.52,0.293-0.707 c0.391-0.39,1.024-0.39,1.414,0l4.95,4.949l9.192-9.192c0.188-0.188,0.442-0.293,0.707-0.293c0.265,0,0.52,0.105,0.708,0.293 C23.876,11.735,23.876,12.368,23.485,12.758z"/>
    </symbol>
    <symbol id="i-circle-minus-02" viewBox="0 0 32 32">
        <path d="M15,2C6.716,2,0,8.716,0,17c0,8.284,6.716,15,15,15s15-6.716,15-15C30,8.716,23.284,2,15,2z M23,16 c0.552,0,1,0.448,1,1s-0.448,1-1,1H7c-0.552,0-1-0.448-1-1s0.448-1,1-1H23z"/>
    </symbol>
    <symbol id="i-circle-info-02" viewBox="0 0 32 32">
        <path d="M15,2C6.716,2,0,8.716,0,17c0,8.284,6.716,15,15,15s15-6.716,15-15C30,8.716,23.284,2,15,2z M14,10.5 c0-0.276,0.224-0.5,0.5-0.5h1c0.276,0,0.5,0.224,0.5,0.5v1c0,0.276-0.224,0.5-0.5,0.5h-1c-0.276,0-0.5-0.224-0.5-0.5V10.5z M18,23.5 c0,0.276-0.224,0.5-0.5,0.5h-5c-0.276,0-0.5-0.224-0.5-0.5v-1c0-0.276,0.224-0.5,0.5-0.5H14v-6h-1.5c-0.276,0-0.5-0.224-0.5-0.5v-1 c0-0.276,0.224-0.5,0.5-0.5h3c0.276,0,0.5,0.224,0.5,0.5V22h1.5c0.276,0,0.5,0.224,0.5,0.5V23.5z"/>
    </symbol>
    <symbol id="i-circle-exclamation-mark-02" viewBox="0 0 32 32">
        <path d="M15,2C6.716,2,0,8.716,0,17c0,8.284,6.716,15,15,15s15-6.716,15-15C30,8.716,23.284,2,15,2z M16,23.5 c0,0.276-0.224,0.5-0.5,0.5h-1c-0.276,0-0.5-0.224-0.5-0.5v-1c0-0.276,0.224-0.5,0.5-0.5h1c0.276,0,0.5,0.224,0.5,0.5V23.5z  M16,19.5c0,0.276-0.224,0.5-0.5,0.5h-1c-0.276,0-0.5-0.224-0.5-0.5v-9c0-0.276,0.224-0.5,0.5-0.5h1c0.276,0,0.5,0.224,0.5,0.5 V19.5z"/>
    </symbol>
    <symbol id="i-pencil-02" viewBox="0 0 32 32">
        <path d="M4.423,21.92l5.657,5.657l-8.906,3.908c-0.189,0.083-0.409,0.041-0.554-0.104s-0.187-0.366-0.104-0.554 L4.423,21.92z M27.757,1.414c-0.781-0.781-2.047-0.781-2.828,0l-2.828,2.828l5.657,5.657l2.828-2.828 c0.781-0.781,0.781-2.047,0-2.828L27.757,1.414z M21.393,4.95L5.13,21.213l5.657,5.657L27.05,10.607l-0.707-0.707L10.787,25.456 l-1.414-1.414L24.929,8.485l-1.414-1.414L7.958,22.627l-1.414-1.414L22.101,5.657L21.393,4.95z"/>
    </symbol>
    <symbol id="i-magnifying-glass" viewBox="0 0 32 32">
        <path d="M11,2c4.963,0,9,4.037,9,9s-4.037,9-9,9s-9-4.037-9-9S6.037,2,11,2 M11,0C4.925,0,0,4.925,0,11 s4.925,11,11,11s11-4.925,11-11S17.075,0,11,0L11,0z M18.729,21.539l7.754,7.753c0.188,0.188,0.442,0.293,0.707,0.293 c0.265,0,0.52-0.105,0.707-0.293l1.397-1.398c0.39-0.391,0.39-1.023,0-1.414l-7.753-7.753L18.729,21.539z"/>
    </symbol>
    <symbol id="i-circle-exclamation-mark" viewBox="0 0 32 32">
        <path d="M14,10.5c0-0.276,0.224-0.5,0.5-0.5h1c0.276,0,0.5,0.224,0.5,0.5v9c0,0.276-0.224,0.5-0.5,0.5h-1 c-0.276,0-0.5-0.224-0.5-0.5V10.5z M14,23.5c0,0.276,0.224,0.5,0.5,0.5h1c0.276,0,0.5-0.224,0.5-0.5v-1c0-0.276-0.224-0.5-0.5-0.5 h-1c-0.276,0-0.5,0.224-0.5,0.5V23.5z M15,4C7.832,4,2,9.832,2,17s5.832,13,13,13s13-5.832,13-13S22.168,4,15,4 M15,2 c8.284,0,15,6.716,15,15s-6.716,15-15,15S0,25.284,0,17S6.716,2,15,2L15,2z"/>
    </symbol>
    <symbol id="i-cross-mark" viewBox="0 0 32 32">
        <path d="M17.414,16l7.425,7.425c0.195,0.195,0.195,0.512,0,0.707l-0.707,0.707c-0.195,0.195-0.512,0.195-0.707,0 L16,17.414l-7.425,7.425c-0.195,0.195-0.512,0.195-0.707,0l-0.707-0.707c-0.195-0.195-0.195-0.512,0-0.707L14.586,16L7.161,8.575 c-0.195-0.195-0.195-0.512,0-0.707l0.707-0.707c0.195-0.195,0.512-0.195,0.707,0L16,14.586l7.425-7.425 c0.195-0.195,0.512-0.195,0.707,0l0.707,0.707c0.195,0.195,0.195,0.512,0,0.707L17.414,16z"/>
    </symbol>
    <symbol id="i-plus" viewBox="0 0 32 32">
        <path d="M16,16h11.5c0.276,0,0.5,0.224,0.5,0.5v1c0,0.276-0.224,0.5-0.5,0.5H16v11.5c0,0.276-0.224,0.5-0.5,0.5h-1 c-0.276,0-0.5-0.224-0.5-0.5V18H2.5C2.224,18,2,17.776,2,17.5v-1C2,16.224,2.224,16,2.5,16H14V4.5C14,4.224,14.224,4,14.5,4h1 C15.776,4,16,4.224,16,4.5V16z"/>
    </symbol>
    <symbol id="i-circle-question-mark" viewBox="0 0 32 32">
        <path d="M19.519,12.349c0.714,1.433,0.621,3.352-0.217,4.462c-0.587,0.777-1.139,1.216-1.627,1.604 c-0.5,0.397-0.896,0.711-1.304,1.365c-0.354,0.567-0.369,1.213-0.369,1.219V21.5c0,0.276-0.224,0.5-0.5,0.5h-1 c-0.276,0-0.5-0.224-0.5-0.5V21c0-0.122,0.018-1.23,0.673-2.279c0.591-0.946,1.21-1.438,1.756-1.872 c0.433-0.344,0.841-0.668,1.274-1.243c0.296-0.392,0.475-1.46,0.024-2.366c-0.41-0.823-1.209-1.24-2.376-1.24 c-1.238,0-2.144,0.307-2.694,0.914c-0.746,0.823-0.655,1.977-0.654,1.988l0.003,0.596c0.001,0.133-0.052,0.261-0.146,0.355 C11.768,15.947,11.64,16,11.507,16h-0.998c-0.276,0-0.5-0.224-0.5-0.5V15c-0.005,0-0.174-1.95,1.168-3.43 c0.944-1.042,2.349-1.57,4.175-1.57C17.959,10,19.082,11.471,19.519,12.349z M14.009,25.5c0,0.276,0.224,0.5,0.5,0.5h1 c0.276,0,0.5-0.224,0.5-0.5v-1c0-0.276-0.224-0.5-0.5-0.5h-1c-0.276,0-0.5,0.224-0.5,0.5V25.5z M15,4C7.832,4,2,9.832,2,17 s5.832,13,13,13s13-5.832,13-13S22.168,4,15,4 M15,2c8.284,0,15,6.716,15,15s-6.716,15-15,15S0,25.284,0,17S6.716,2,15,2L15,2z"/>
    </symbol>
    <symbol id="i-arrow-up-07" viewBox="0 0 32 32">
        <path d="M2.565,22.849c-0.391-0.391-0.391-1.024,0-1.414L15.293,8.707c0.391-0.391,1.024-0.391,1.414,0 l12.728,12.728c0.391,0.391,0.391,1.024,0,1.414c-0.391,0.391-1.024,0.391-1.414,0L16,10.828L3.979,22.849 C3.589,23.24,2.956,23.24,2.565,22.849z"/>
    </symbol>
    <symbol id="i-arrow-down-07" viewBox="0 0 32 32">
        <path d="M29.435,9.151c0.391,0.391,0.391,1.024,0,1.414L16.707,23.293c-0.391,0.391-1.024,0.391-1.414,0 L2.565,10.565c-0.391-0.391-0.391-1.024,0-1.414c0.391-0.391,1.024-0.391,1.414,0L16,21.172L28.021,9.151 C28.411,8.76,29.044,8.76,29.435,9.151z"/>
    </symbol>
    <symbol id="i-arrow-right-07" viewBox="0 0 32 32">
        <path d="M9.151,2.565c0.391-0.391,1.024-0.391,1.414,0l12.728,12.728c0.391,0.391,0.391,1.024,0,1.414L10.565,29.435 c-0.391,0.391-1.024,0.391-1.414,0c-0.391-0.391-0.391-1.024,0-1.414L21.172,16L9.151,3.979C8.76,3.589,8.76,2.956,9.151,2.565z"/>
    </symbol>
    <symbol id="i-arrow-left-07" viewBox="0 0 32 32">
        <path d="M22.849,2.565c-0.391-0.391-1.024-0.391-1.414,0L8.707,15.293c-0.391,0.391-0.391,1.024,0,1.414 l12.728,12.728c0.391,0.391,1.024,0.391,1.414,0c0.391-0.391,0.391-1.024,0-1.414L10.828,16L22.849,3.979 C23.24,3.589,23.24,2.956,22.849,2.565z"/>
    </symbol>
    <symbol id="i-arrow-up-06" viewBox="0 0 32 32">
        <path d="M30,25v6c0,0.552-0.448,1-1,1H1c-0.552,0-1-0.448-1-1v-6c0-0.552,0.448-1,1-1s1,0.448,1,1v5h26v-5 c0-0.552,0.448-1,1-1S30,24.448,30,25z M15,26c0.552,0,1-0.448,1-1V12h4.464c0.298,0,0.572-0.166,0.71-0.431 s0.117-0.584-0.054-0.828l-5.463-7.805C15.506,2.722,15.261,2.595,15,2.595s-0.506,0.127-0.655,0.341l-5.463,7.805 c-0.171,0.244-0.192,0.564-0.054,0.828S9.238,12,9.536,12H14v13C14,25.552,14.448,26,15,26z"/>
    </symbol>
    <symbol id="i-arrow-down-06" viewBox="0 0 32 32">
        <path d="M28,25v6c0,0.552-0.448,1-1,1H3c-0.552,0-1-0.448-1-1v-6c0-0.552,0.448-1,1-1s1,0.448,1,1v5h22v-5 c0-0.552,0.448-1,1-1S28,24.448,28,25z M15,2c-0.552,0-1,0.448-1,1v13H9.537c-0.298,0-0.572,0.166-0.71,0.431 s-0.117,0.584,0.054,0.828l5.463,7.805c0.15,0.214,0.394,0.341,0.655,0.341s0.506-0.127,0.655-0.341l5.463-7.805 c0.171-0.244,0.192-0.564,0.054-0.828S20.762,16,20.464,16H16V3C16,2.448,15.552,2,15,2z"/>
    </symbol>
    <symbol id="i-trashcan" viewBox="0 0 32 32">
        <path d="M28,9.99C27.994,8.891,27.102,8,26.002,8H22V6c0-2.211-1.787-4-4-4h-4c-2.211,0-4,1.785-4,4v2H6 c-1.105,0-2,0.895-2,2v2h2v16c0,2.213,1.789,4,4,4h12c2.211,0,4-1.787,4-4V12h0.002H28v-1.99L28.002,10L28,9.99z M12,30h-2 c-1.105,0-2-0.896-2-2V12h4V30z M12,6c-0.002-1.105,0.895-2,2-2h4c1.104-0.002,2,0.895,2,2v2h-8V6z M18,30h-4V12h4V30z M24,28 c0,1.104-0.896,2-2,2h-2V12h4V28z"/>
    </symbol>
    <symbol id="i-four-squares" viewBox="0 0 32 32">
        <path d="M12,2v10H2V2H12 M12,0H2C0.895,0,0,0.895,0,2v10c0,1.105,0.895,2,2,2h10c1.105,0,2-0.895,2-2V2 C14,0.895,13.105,0,12,0L12,0z M30,2v10H20V2H30 M30,0H20c-1.105,0-2,0.895-2,2v10c0,1.105,0.895,2,2,2h10c1.105,0,2-0.895,2-2V2 C32,0.895,31.105,0,30,0L30,0z M12,20v10H2V20H12 M12,18H2c-1.105,0-2,0.895-2,2v10c0,1.105,0.895,2,2,2h10c1.105,0,2-0.895,2-2V20 C14,18.895,13.105,18,12,18L12,18z M30,20v10H20V20H30 M30,18H20c-1.105,0-2,0.895-2,2v10c0,1.105,0.895,2,2,2h10 c1.105,0,2-0.895,2-2V20C32,18.895,31.105,18,30,18L30,18z"/>
    </symbol>
    <symbol id="i-shopping-cart-02" viewBox="0 0 32 32">
        <path d="M24.614,22c0.834,0,1.58-0.517,1.873-1.298l4.5-12c0.23-0.614,0.145-1.302-0.229-1.841 C30.384,6.322,29.77,6,29.114,6H5.869L3.781,2.87C3.912,2.604,4,2.316,4,2c0-1.105-0.895-2-2-2S0,0.895,0,2s0.895,2,2,2 c0.041,0,0.074-0.021,0.117-0.023l2.006,3.012l1.658,13.26C5.906,21.249,6.757,22,7.766,22h0.514l-0.682,2.041 C5.582,24.244,4,25.929,4,28c0,2.209,1.791,4,4,4s4-1.791,4-4h8c0,2.209,1.791,4,4,4s4-1.791,4-4c0-2.209-1.791-4-4-4 c-1.477,0-2.752,0.81-3.445,2h-9.109c-0.424-0.729-1.061-1.316-1.838-1.658L10.389,22H24.614z M24,26c1.105,0,2,0.895,2,2 c0,1.105-0.895,2-2,2s-2-0.895-2-2C22,26.895,22.895,26,24,26z M10,28c0,1.105-0.895,2-2,2s-2-0.895-2-2c0-1.105,0.895-2,2-2 S10,26.895,10,28z M7.766,20l-1.5-12h22.848l-4.5,12H7.766z" />
    </symbol>
    <symbol id="i-chain" viewBox="0 0 32 32">
        <path d="M25.812,0.581C25.425,0.194,24.918,0,24.411,0s-1.015,0.194-1.402,0.581l-9.111,9.111 c-0.774,0.774-0.774,2.029,0,2.804L16,14.598L14.598,16l-2.103-2.103c-0.387-0.387-0.894-0.581-1.402-0.581 c-0.507,0-1.015,0.194-1.402,0.581l-9.111,9.111c-0.774,0.774-0.774,2.029,0,2.804l5.607,5.607C6.575,31.806,7.082,32,7.589,32 c0.507,0,1.015-0.194,1.402-0.581l9.111-9.111c0.774-0.774,0.774-2.029,0-2.804L16,17.402L17.402,16l2.103,2.103 c0.387,0.387,0.894,0.581,1.402,0.581c0.507,0,1.015-0.194,1.402-0.581l9.111-9.111c0.774-0.774,0.774-2.029,0-2.804L25.812,0.581z  M16.688,20.894l-9.087,9.111l-5.607-5.582l9.099-9.099l2.095,2.086l-3.143,3.143c-0.195,0.195-0.195,0.512,0,0.707l0.695,0.695 c0.195,0.195,0.512,0.195,0.707,0l3.146-3.146L16.688,20.894z M20.919,16.688l-2.107-2.098l3.143-3.143 c0.195-0.195,0.195-0.512,0-0.707l-0.695-0.695c-0.195-0.195-0.512-0.195-0.707,0l-3.146,3.146l-2.095-2.086l9.099-9.099 l5.595,5.57L20.919,16.688z"/>
    </symbol>
    <symbol id="i-gear" viewBox="0 0 32 32">
        <path d="M31.164,13.861l-3.486-0.581c-0.302-1.298-0.813-2.513-1.499-3.611l2.056-2.878 c0.284-0.398,0.239-0.942-0.106-1.288l-1.63-1.632c-0.346-0.346-0.891-0.391-1.289-0.107L22.332,5.82 c-1.099-0.685-2.313-1.197-3.612-1.499l-0.581-3.486C18.059,0.353,17.642,0,17.153,0h-2.306c-0.489,0-0.906,0.353-0.986,0.836 L13.28,4.321c-1.299,0.302-2.515,0.814-3.613,1.5L6.789,3.764C6.391,3.48,5.846,3.525,5.5,3.871L3.87,5.503 c-0.345,0.346-0.39,0.89-0.106,1.288l2.056,2.878c-0.685,1.099-1.196,2.313-1.498,3.611l-3.485,0.58C0.354,13.941,0,14.359,0,14.848 l0.001,2.306c0,0.489,0.354,0.906,0.836,0.986l3.484,0.581c0.302,1.299,0.813,2.514,1.499,3.612l-2.056,2.879 c-0.284,0.398-0.239,0.943,0.107,1.289l1.631,1.629c0.346,0.345,0.89,0.39,1.288,0.106l2.878-2.055 c1.099,0.685,2.313,1.197,3.612,1.499l0.581,3.486C13.941,31.646,14.358,32,14.847,32h2.306c0.489,0,0.906-0.354,0.986-0.836 l0.581-3.486c1.3-0.302,2.515-0.814,3.613-1.5l2.878,2.057c0.398,0.284,0.943,0.239,1.289-0.107l1.63-1.63 c0.346-0.346,0.391-0.891,0.107-1.288l-2.057-2.88c0.686-1.099,1.197-2.313,1.499-3.611l3.486-0.581 C31.647,18.059,32,17.642,32,17.153v-2.306C32,14.358,31.647,13.941,31.164,13.861z M16,26c-5.522,0-10-4.477-10-10S10.478,6,16,6 s10,4.477,10,10S21.522,26,16,26z"/>
    </symbol>
    <symbol id="i-list" viewBox="0 0 32 32">
        <path d="M2,11c0-0.552,0.448-1,1-1s1,0.448,1,1s-0.448,1-1,1S2,11.552,2,11z M7,10c-0.552,0-1,0.448-1,1s0.448,1,1,1 h20c0.552,0,1-0.448,1-1s-0.448-1-1-1H7z M2,5c0,0.552,0.448,1,1,1s1-0.448,1-1S3.552,4,3,4S2,4.448,2,5z M7,4C6.448,4,6,4.448,6,5 s0.448,1,1,1h20c0.552,0,1-0.448,1-1s-0.448-1-1-1H7z M2,17c0,0.552,0.448,1,1,1s1-0.448,1-1s-0.448-1-1-1S2,16.448,2,17z M6,17 c0,0.552,0.448,1,1,1h20c0.552,0,1-0.448,1-1s-0.448-1-1-1H7C6.448,16,6,16.448,6,17z M2,23c0,0.552,0.448,1,1,1s1-0.448,1-1 s-0.448-1-1-1S2,22.448,2,23z M6,23c0,0.552,0.448,1,1,1h20c0.552,0,1-0.448,1-1s-0.448-1-1-1H7C6.448,22,6,22.448,6,23z M2,29 c0,0.552,0.448,1,1,1s1-0.448,1-1s-0.448-1-1-1S2,28.448,2,29z M6,29c0,0.552,0.448,1,1,1h20c0.552,0,1-0.448,1-1s-0.448-1-1-1H7 C6.448,28,6,28.448,6,29z"/>
    </symbol>
    <symbol id="i-pencil" viewBox="0 0 32 32">
        <path d="M1.174,31.485c-0.189,0.083-0.409,0.041-0.554-0.104c-0.146-0.146-0.187-0.366-0.104-0.554l3.908-8.906 l5.657,5.657L1.174,31.485z M27.757,1.414c-0.781-0.781-2.047-0.781-2.828,0l-2.828,2.828L27.757,9.9l2.828-2.828 c0.781-0.781,0.781-2.047,0-2.828L27.757,1.414z M21.393,4.95L5.13,21.213l5.657,5.657L27.05,10.607L21.393,4.95z"/>
    </symbol>
    <symbol id="i-circle-cross-mark" viewBox="0 0 32 32">
        <path d="M21.011,11.634c0.195,0.195,0.195,0.512,0,0.707l-4.596,4.596l4.596,4.596c0.195,0.195,0.195,0.512,0,0.707 l-0.707,0.707c-0.195,0.195-0.512,0.195-0.707,0L15,18.352l-4.596,4.596c-0.195,0.195-0.512,0.195-0.707,0L8.99,22.241 c-0.195-0.195-0.195-0.512,0-0.707l4.596-4.596L8.99,12.341c-0.195-0.195-0.195-0.512,0-0.707l0.707-0.707 c0.195-0.195,0.512-0.195,0.707,0L15,15.523l4.596-4.596c0.195-0.195,0.512-0.195,0.707,0L21.011,11.634z M5.808,7.745 c-5.069,5.069-5.069,13.316,0,18.385s13.316,5.069,18.385,0s5.069-13.316,0-18.385S10.876,2.676,5.808,7.745 M4.394,6.331 c5.858-5.858,15.355-5.858,21.213,0s5.858,15.355,0,21.213s-15.355,5.858-21.213,0S-1.464,12.189,4.394,6.331L4.394,6.331z"/>
    </symbol>
    <symbol id="i-circle-plus" viewBox="0 0 32 32">
        <path d="M24,17c0,0.552-0.448,1-1,1h-7v7c0,0.552-0.448,1-1,1s-1-0.448-1-1v-7H7c-0.552,0-1-0.448-1-1s0.448-1,1-1h7 V9c0-0.552,0.448-1,1-1s1,0.448,1,1v7h7C23.552,16,24,16.448,24,17z M0,17C0,8.716,6.716,2,15,2s15,6.716,15,15s-6.716,15-15,15 S0,25.284,0,17z M2,17c0,7.168,5.832,13,13,13s13-5.832,13-13S22.168,4,15,4S2,9.832,2,17z"/>
    </symbol>
    <symbol id="i-circle-minus" viewBox="0 0 32 32">
        <path d="M23,16c0.552,0,1,0.448,1,1s-0.448,1-1,1H7c-0.552,0-1-0.448-1-1s0.448-1,1-1H23z M0,17 C0,8.716,6.716,2,15,2s15,6.716,15,15s-6.716,15-15,15S0,25.284,0,17z M2,17c0,7.168,5.832,13,13,13s13-5.832,13-13S22.168,4,15,4 S2,9.832,2,17z"/>
    </symbol>
    <symbol id="i-circle-info" viewBox="0 0 32 32">
        <path d="M16,22h1.5c0.276,0,0.5,0.224,0.5,0.5v1c0,0.276-0.224,0.5-0.5,0.5h-5c-0.276,0-0.5-0.224-0.5-0.5v-1 c0-0.276,0.224-0.5,0.5-0.5H14v-6h-1.5c-0.276,0-0.5-0.224-0.5-0.5v-1c0-0.276,0.224-0.5,0.5-0.5h3c0.276,0,0.5,0.224,0.5,0.5V22z  M16,10.5c0-0.276-0.224-0.5-0.5-0.5h-1c-0.276,0-0.5,0.224-0.5,0.5v1c0,0.276,0.224,0.5,0.5,0.5h1c0.276,0,0.5-0.224,0.5-0.5V10.5z  M15,4C7.832,4,2,9.832,2,17s5.832,13,13,13s13-5.832,13-13S22.168,4,15,4 M15,2c8.284,0,15,6.716,15,15s-6.716,15-15,15 S0,25.284,0,17S6.716,2,15,2L15,2z"/>
    </symbol>
    <symbol id="i-folder-blank-open" viewBox="0 0 32 32">
        <path d="M30.758,14.861C30.384,14.322,29.77,14,29.114,14H26v-4c0-1.105-0.895-2-2-2h-8l-3.707-3.707 C12.105,4.105,11.851,4,11.586,4H2C0.896,4,0,4.895,0,6v22c0,1.104,0.896,2,2,2h22.614c0.834,0,1.58-0.517,1.873-1.298l4.5-12 C31.217,16.088,31.131,15.4,30.758,14.861z M2,6h9.172l3.707,3.707C15.066,9.895,15.321,10,15.586,10H24v4H7.386 c-0.834,0-1.58,0.517-1.873,1.298L2,24.667V6z M24.614,28H2.886l4.5-12h21.728L24.614,28z"/>
    </symbol>
</svg>
