<svg xmlns="http://www.w3.org/2000/svg" style="display:none">
    <symbol id="i-filter-02" viewBox="0 0 32 32">
        <path d="M16,0C11.189,0,0,0.487,0,5c0,0.361,0.095,0.688,0.229,1H0.2l0.083,0.106 c0.193,0.396,0.47,0.761,0.851,1.081l10.438,13.268C11.849,20.808,12,21.244,12,21.692V30c0,1.104,1.791,2,4,2s4-0.896,4-2v-8.308 c0-0.449,0.151-0.884,0.428-1.237L30.866,7.188c0.381-0.32,0.658-0.685,0.851-1.081L31.8,6h-0.029C31.905,5.688,32,5.361,32,5 C32,0.487,20.811,0,16,0z M29.187,6C27.262,7.164,22.093,8,16,8S4.738,7.164,2.813,6C2.296,5.687,2,5.351,2,5c0-1.657,6.268-3,14-3 s14,1.343,14,3C30,5.351,29.704,5.687,29.187,6z"/>
    </symbol>
    <symbol id="i-filter-check-mark" viewBox="0 0 32 32">
        <path d="M7,14c3.866,0,7-3.134,7-7s-3.134-7-7-7C3.134,0,0,3.134,0,7C0,10.866,3.134,14,7,14z M2.707,6.121 c0.391-0.39,1.024-0.39,1.414,0l2.121,2.122l3.536-3.536c0.391-0.391,1.024-0.391,1.414,0c0.391,0.391,0.391,1.024,0,1.414 L6.95,10.364c-0.391,0.39-1.024,0.39-1.414,0L2.707,7.536C2.317,7.145,2.317,6.512,2.707,6.121z M30,2H16.165 c-0.337,0-0.651,0.17-0.837,0.452c-0.184,0.282-0.215,0.639-0.08,0.947c0.25,0.572,0.441,1.174,0.568,1.8 C15.91,5.666,16.32,6,16.796,6H28v2.343l-8,8V28h-4V16.343l-2.161-2.16c-0.356-0.356-0.924-0.393-1.321-0.082 c-0.484,0.378-1.009,0.708-1.566,0.982c-0.289,0.143-0.492,0.415-0.545,0.734c-0.053,0.318,0.052,0.643,0.28,0.871L12,18v12 c0,1.105,0.896,2,2,2h8c1.104,0,2-0.895,2-2v-5c3.865,0,7-3.134,7-7c0-1.933-0.784-3.683-2.051-4.95l2.465-2.464 C31.789,10.211,32,9.702,32,9.172V4C32,2.895,31.104,2,30,2 M29,18c0,2.757-2.243,5-5,5v-5l3.533-3.534 C28.438,15.372,29,16.621,29,18"/>
    </symbol>
    <symbol id="i-sliders" viewBox="0 0 32 32">
        <path d="M12,4h19.5C31.776,4,32,4.224,32,4.5v1C32,5.776,31.776,6,31.5,6H12v1c0,0.552-0.448,1-1,1H7 C6.448,8,6,7.552,6,7V6H0.5C0.224,6,0,5.776,0,5.5v-1C0,4.224,0.224,4,0.5,4H6V3c0-0.552,0.448-1,1-1h4c0.552,0,1,0.448,1,1V4z  M24,15c0-0.552-0.448-1-1-1h-4c-0.552,0-1,0.448-1,1v1H0.5C0.224,16,0,16.224,0,16.5v1C0,17.776,0.224,18,0.5,18H18v1 c0,0.552,0.448,1,1,1h4c0.552,0,1-0.448,1-1v-1h7.5c0.276,0,0.5-0.224,0.5-0.5v-1c0-0.276-0.224-0.5-0.5-0.5H24V15z M12,27 c0-0.552-0.448-1-1-1H7c-0.552,0-1,0.448-1,1v1H0.5C0.224,28,0,28.224,0,28.5v1C0,29.776,0.224,30,0.5,30H6v1c0,0.552,0.448,1,1,1h4 c0.552,0,1-0.448,1-1v-1h19.5c0.276,0,0.5-0.224,0.5-0.5v-1c0-0.276-0.224-0.5-0.5-0.5H12V27z"/>
    </symbol>
    <symbol id="i-two-sheets-blank" viewBox="0 0 32 32">
        <path d="M26.999,0H9C7.343,0,6,1.343,6,3v3H3C1.343,6,0,7.343,0,9v19.999C0,30.656,1.344,32,3.001,32H21 c1.657,0,3-1.343,3-3v-3h3c1.657,0,3-1.343,3-3V3.001C30,1.344,28.656,0,26.999,0z M20,28H4V10h16V28z M26,22h-2V9.001 C24,7.344,22.656,6,20.999,6H10V4h16V22z"/>
    </symbol>
    <symbol id="i-server-arrow-left" viewBox="0 0 32 32">
        <path d="M12,6.5v1C12,7.776,11.776,8,11.5,8h-3C8.224,8,8,7.776,8,7.5v-1C8,6.224,8.224,6,8.5,6h3 C11.776,6,12,6.224,12,6.5z M8.5,14C8.224,14,8,14.224,8,14.5v1C8,15.776,8.224,16,8.5,16h3c0.276,0,0.5-0.224,0.5-0.5v-1 c0-0.276-0.224-0.5-0.5-0.5H8.5z M2,28V2c0-1.105,0.895-2,2-2h20c1.105,0,2,0.895,2,2v13c0,0.552-0.448,1-1,1h-2 c-0.552,0-1-0.448-1-1v-3H6v6h9.5c0.276,0,0.5,0.224,0.5,0.5v1c0,0.276-0.224,0.5-0.5,0.5H6v6h7c0.552,0,1,0.448,1,1v2 c0,0.552-0.448,1-1,1H4C2.895,30,2,29.105,2,28z M6,10h16V4H6V10z M8.5,22C8.224,22,8,22.224,8,22.5v1C8,23.776,8.224,24,8.5,24h3 c0.276,0,0.5-0.224,0.5-0.5v-1c0-0.276-0.224-0.5-0.5-0.5H8.5z M30,25c0,3.866-3.134,7-7,7s-7-3.134-7-7s3.134-7,7-7 S30,21.134,30,25z M28,24.5c0-0.276-0.224-0.5-0.5-0.5H22v-3.43c0-0.085-0.054-0.161-0.134-0.189 c-0.08-0.028-0.169-0.003-0.222,0.064l-3.394,4.242c-0.146,0.183-0.146,0.442,0,0.625l3.394,4.242 c0.053,0.066,0.142,0.092,0.222,0.064C21.946,29.59,22,29.515,22,29.43V26h5.5c0.276,0,0.5-0.224,0.5-0.5V24.5z"/>
    </symbol>
    <symbol id="i-server-refresh" viewBox="0 0 32 32">
        <path d="M4,30h9c0.552,0,1-0.448,1-1v-2c0-0.552-0.448-1-1-1H6v-6h9.5c0.276,0,0.5-0.224,0.5-0.5v-1 c0-0.276-0.224-0.5-0.5-0.5H6v-6h16v3c0,0.552,0.448,1,1,1h2c0.552,0,1-0.448,1-1V2c0-1.105-0.895-2-2-2H4C2.895,0,2,0.895,2,2v26 C2,29.105,2.895,30,4,30z M6,4h16v6H6V4z M11.5,14c0.276,0,0.5,0.224,0.5,0.5v1c0,0.276-0.224,0.5-0.5,0.5h-3 C8.224,16,8,15.776,8,15.5v-1C8,14.224,8.224,14,8.5,14H11.5z M11.5,22c0.276,0,0.5,0.224,0.5,0.5v1c0,0.276-0.224,0.5-0.5,0.5h-3 C8.224,24,8,23.776,8,23.5v-1C8,22.224,8.224,22,8.5,22H11.5z M12,6.5v1C12,7.776,11.776,8,11.5,8h-3C8.224,8,8,7.776,8,7.5v-1 C8,6.224,8.224,6,8.5,6h3C11.776,6,12,6.224,12,6.5z M30,18.724V23.5c0,0.276-0.224,0.5-0.5,0.5h-4.776 c-0.121,0-0.231-0.073-0.277-0.185c-0.046-0.112-0.021-0.241,0.065-0.327l2.009-2.009C25.616,20.573,24.379,20,23,20 c-2.757,0-5,2.243-5,5s2.243,5,5,5c2.284,0,4.215-1.54,4.81-3.636C27.872,26.148,28.067,26,28.291,26h1.026 c0.153,0,0.297,0.07,0.392,0.19c0.095,0.12,0.13,0.277,0.094,0.425C29.075,29.702,26.309,32,23,32c-3.866,0-7-3.134-7-7 c0-3.866,3.134-7,7-7c1.934,0,3.679,0.788,4.943,2.057l1.544-1.544c0.086-0.086,0.215-0.111,0.327-0.065 C29.927,18.494,30,18.603,30,18.724z"/>
    </symbol>
    <symbol id="i-two-arrows-refresh-04" viewBox="0 0 32 32">
        <path d="M4,16c0,6.617,5.383,12,12,12v4C7.164,32,0,24.836,0,16c0-4.423,1.831-8.381,4.738-11.261L0.854,0.854 C0.71,0.71,0.668,0.496,0.745,0.309C0.822,0.122,1.005,0,1.207,0H11c0.553,0,1,0.448,1,1v9.793c0,0.202-0.122,0.385-0.309,0.462 c-0.186,0.077-0.402,0.035-0.545-0.108L7.549,7.549C5.365,9.709,4,12.686,4,16 M16,3.51c0,0.269,0.212,0.489,0.48,0.5 C22.875,4.262,28,9.543,28,16c0,3.313-1.365,6.291-3.549,8.451l-3.598-3.598c-0.143-0.143-0.357-0.186-0.545-0.108 C20.122,20.822,20,21.005,20,21.207V31c0,0.552,0.447,1,1,1h9.793c0.202,0,0.385-0.122,0.462-0.309 c0.077-0.187,0.034-0.402-0.108-0.545l-3.886-3.886C30.169,24.381,32,20.423,32,16c0-8.664-6.886-15.719-15.484-15.992 c-0.135-0.004-0.266,0.046-0.363,0.141C16.055,0.243,16,0.373,16,0.508V3.51z"/>
    </symbol>
    <symbol id="i-circle-check-mark" viewBox="0 0 32 32">
        <path d="M23.29,12.29c0.188,0.188,0.293,0.443,0.293,0.709c-0.001,0.266-0.107,0.521-0.296,0.708l-7.653,7.594 c-0.39,0.387-1.018,0.387-1.408,0l-5.013-4.97c-0.189-0.187-0.295-0.442-0.296-0.708c-0.001-0.266,0.105-0.521,0.293-0.709 l1.417-1.417c0.388-0.388,1.017-0.391,1.409-0.005l2.895,2.85l5.534-5.472c0.391-0.387,1.021-0.385,1.41,0.004L23.29,12.29z M32,16 c0,8.837-7.163,16-16,16S0,24.837,0,16S7.163,0,16,0S32,7.163,32,16z M28,16c0-6.617-5.383-12-12-12S4,9.383,4,16s5.383,12,12,12 S28,22.617,28,16z"/>
    </symbol>
    <symbol id="i-check-mark" viewBox="0 0 32 32">
        <path d="M25.92,7.738c-0.391-0.39-1.024-0.39-1.414,0L13.898,18.344l-6.363-6.363 c-0.188-0.188-0.442-0.293-0.707-0.293s-0.52,0.105-0.707,0.293l-1.414,1.414c-0.391,0.391-0.39,1.024,0,1.414l8.484,8.484 c0.391,0.391,1.024,0.391,1.414,0l12.728-12.726c0.188-0.188,0.293-0.442,0.293-0.707c0-0.265-0.105-0.52-0.293-0.707L25.92,7.738z"/>
    </symbol>
    <symbol id="i-monitor-refresh" viewBox="0 0 32 32">
        <path d="M32,17v3c0,2.209-1.791,4-4,4h-8v6h5.5c0.276,0,0.5,0.224,0.5,0.5v1c0,0.276-0.224,0.5-0.5,0.5h-19 C6.224,32,6,31.776,6,31.5v-1C6,30.224,6.224,30,6.5,30H12v-6H4c-2.209,0-4-1.791-4-4V4c0-2.209,1.791-4,4-4h11c0.552,0,1,0.448,1,1 v2c0,0.552-0.448,1-1,1H4v16h24v-3c0-0.552,0.448-1,1-1h2C31.552,16,32,16.448,32,17z M23.404,8.247C23.342,8.097,23.196,8,23.034,8 H18.5C18.224,8,18,8.224,18,8.5v4.534c0,0.162,0.097,0.308,0.247,0.37c0.149,0.062,0.321,0.028,0.436-0.087l1.381-1.381 C21.323,13.208,23.064,14,25,14c3.307,0,6.053-2.301,6.782-5.385c0.035-0.149,0.001-0.306-0.094-0.426S31.449,8,31.296,8h-1.005 c-0.223,0-0.42,0.149-0.481,0.364C29.215,10.46,27.284,12,25,12c-1.379,0-2.616-0.573-3.521-1.479l1.839-1.839 C23.432,8.568,23.466,8.396,23.404,8.247z M31.753,0.596c-0.149-0.062-0.321-0.028-0.436,0.087l-1.381,1.381 C28.677,0.792,26.936,0,25,0c-3.307,0-6.053,2.301-6.782,5.384c-0.035,0.149-0.001,0.306,0.094,0.426C18.407,5.93,18.551,6,18.704,6 h1.005c0.223,0,0.42-0.149,0.481-0.364C20.785,3.54,22.716,2,25,2c1.379,0,2.616,0.573,3.521,1.479l-1.839,1.839 c-0.114,0.114-0.149,0.286-0.087,0.436S26.804,6,26.966,6H31.5C31.776,6,32,5.776,32,5.5V0.966C32,0.804,31.903,0.658,31.753,0.596z "/>
    </symbol>
    <symbol id="i-three-dots" viewBox="0 0 32 32">
        <path d="M8,17c0,1.656-1.344,3-3,3s-3-1.344-3-3c0-1.656,1.344-3,3-3S8,15.344,8,17z M15,14c-1.656,0-3,1.344-3,3 c0,1.656,1.344,3,3,3s3-1.344,3-3C18,15.344,16.656,14,15,14z M25,14c-1.656,0-3,1.344-3,3c0,1.656,1.344,3,3,3s3-1.344,3-3 C28,15.344,26.656,14,25,14z"/>
    </symbol>
    <symbol id="i-square-arrow-up-04" viewBox="0 0 32 32">
        <path d="M14,31V18h-2.793c-0.202,0-0.385-0.122-0.462-0.309s-0.035-0.402,0.108-0.545l4.793-4.793 c0.195-0.195,0.512-0.195,0.707,0l4.793,4.793c0.143,0.143,0.186,0.358,0.108,0.545S20.995,18,20.793,18H18v13c0,0.552-0.448,1-1,1 h-2C14.448,32,14,31.552,14,31z M30,23V5c0-1.657-1.343-3-3-3H5C3.343,2,2,3.343,2,5v18c0,1.657,1.343,3,3,3h6c0.552,0,1-0.448,1-1 v-2c0-0.552-0.448-1-1-1H6V6h20v16h-5c-0.552,0-1,0.448-1,1v2c0,0.552,0.448,1,1,1h6C28.657,26,30,24.657,30,23z"/>
    </symbol>
    <symbol id="i-square-arrow-down-04" viewBox="0 0 32 32">
        <path d="M15,2h2c0.552,0,1,0.448,1,1v13h2.793c0.202,0,0.385,0.122,0.462,0.309s0.035,0.402-0.108,0.545 l-4.793,4.793c-0.195,0.195-0.512,0.195-0.707,0l-4.793-4.793c-0.143-0.143-0.186-0.358-0.108-0.545S11.005,16,11.207,16H14V3 C14,2.448,14.448,2,15,2z M27,8h-6c-0.552,0-1,0.448-1,1v2c0,0.552,0.448,1,1,1h5v16H6V12h5c0.552,0,1-0.448,1-1V9 c0-0.552-0.448-1-1-1H5c-1.657,0-3,1.343-3,3v18c0,1.657,1.343,3,3,3h22c1.657,0,3-1.343,3-3V11C30,9.343,28.657,8,27,8z"/>
    </symbol>
    <symbol id="i-shield-star" viewBox="0 0 32 32">
        <path d="M24,4v12c0,5.394-5.256,9.552-8,11.355C13.255,25.552,8,21.393,8,16V4H24 M26,0H6C4.896,0,4,0.895,4,2 c0,3.587,0,11.017,0,14c0,8.208,8.084,13.721,10.982,15.433c0.314,0.185,0.666,0.278,1.018,0.278c0.353,0,0.705-0.093,1.019-0.279 C19.917,29.72,28,24.207,28,16c0-2.983,0-10.413,0-14C28,0.895,27.105,0,26,0L26,0z M22.549,12.498 c-0.048-0.142-0.171-0.246-0.319-0.268l-4.067-0.621l-1.801-3.837c-0.066-0.14-0.207-0.23-0.362-0.23s-0.296,0.09-0.362,0.23 l-1.801,3.837L9.77,12.23c-0.148,0.023-0.271,0.126-0.319,0.268s-0.012,0.299,0.093,0.406l2.956,3.03l-0.694,4.252 c-0.025,0.151,0.039,0.303,0.164,0.391c0.125,0.088,0.29,0.097,0.424,0.023L16,18.608l3.605,1.993 c0.134,0.074,0.299,0.065,0.424-0.023c0.125-0.088,0.189-0.24,0.164-0.391L19.5,15.935l2.956-3.03 C22.561,12.797,22.597,12.641,22.549,12.498z"/>
    </symbol>
    <symbol id="i-trash-can-04" viewBox="0 0 32 32">
        <path d="M5.835,30.181C5.928,31.211,6.792,32,7.826,32h14.347c1.034,0,1.898-0.789,1.992-1.819L26,10H4L5.835,30.181 z M19.949,14.443C19.978,14.191,20.192,14,20.446,14h0.993c0.142,0,0.278,0.061,0.373,0.167c0.095,0.106,0.14,0.248,0.124,0.39 l-1.486,13C20.422,27.809,20.208,28,19.954,28H18.96c-0.142,0-0.278-0.061-0.373-0.167c-0.095-0.106-0.14-0.248-0.124-0.39 L19.949,14.443z M14,14.5c0-0.276,0.224-0.5,0.5-0.5h1c0.276,0,0.5,0.224,0.5,0.5v13c0,0.276-0.224,0.5-0.5,0.5h-1 c-0.276,0-0.5-0.224-0.5-0.5V14.5z M9.554,14c0.254,0,0.468,0.191,0.497,0.443l1.486,13c0.016,0.142-0.029,0.283-0.124,0.39 C11.318,27.939,11.182,28,11.04,28h-0.993c-0.254,0-0.468-0.191-0.497-0.443l-1.486-13c-0.016-0.142,0.029-0.283,0.124-0.39 C8.282,14.061,8.418,14,8.56,14H9.554z M20,4V2c0-1.105-0.895-2-2-2h-6c-1.105,0-2,0.895-2,2v2H5C4.448,4,4,4.448,4,5v3h22V5 c0-0.552-0.448-1-1-1H20z M18,4h-6V2h6V4z"/>
    </symbol>
    <symbol id="i-menu" viewBox="0 0 32 32">
        <path d="M30,15v2c0,0.552-0.448,1-1,1H3c-0.552,0-1-0.448-1-1v-2c0-0.552,0.448-1,1-1h26C29.552,14,30,14.448,30,15z  M29,22H3c-0.552,0-1,0.448-1,1v2c0,0.552,0.448,1,1,1h26c0.552,0,1-0.448,1-1v-2C30,22.448,29.552,22,29,22z M29,6H3 C2.448,6,2,6.448,2,7v2c0,0.552,0.448,1,1,1h26c0.552,0,1-0.448,1-1V7C30,6.448,29.552,6,29,6z"/>
    </symbol>
    <symbol id="i-folder-blank-closed-02" viewBox="0 0 32 32">
        <path d="M30,4H16l-3.578-1.789C12.145,2.072,11.838,2,11.528,2H2C0.896,2,0,2.895,0,4v22c0,1.105,0.896,2,2,2h28 c1.105,0,2-0.895,2-2V6C32,4.895,31.105,4,30,4z M28,24H4V14h24V24z M4,10V6h7.056l4,2H28v2H4z"/>
    </symbol>
    <symbol id="i-arrow-refresh-02" viewBox="0 0 32 32">
        <path d="M16,28.955c0-0.523-0.402-0.956-0.924-0.996c-2.758-0.211-5.457-1.369-7.562-3.474 C5.248,22.219,4,19.205,4,16s1.248-6.219,3.515-8.485c4.679-4.679,12.292-4.679,16.971,0C26.752,9.781,28,12.795,28,16 c0,3.205-1.248,6.219-3.515,8.485l-3.461-3.461c-0.172-0.172-0.43-0.223-0.654-0.13C20.146,20.987,20,21.206,20,21.449L20,31 c0,0.552,0.448,1,1,1l9.551,0c0.243,0,0.461-0.146,0.554-0.37c0.093-0.224,0.042-0.482-0.13-0.654l-3.662-3.662 C30.438,24.19,32,20.095,32,16c0-4.095-1.562-8.19-4.686-11.314c-6.248-6.248-16.379-6.248-22.627,0C1.562,7.81,0,11.905,0,16 c0,4.095,1.562,8.19,4.686,11.314c2.853,2.853,6.514,4.403,10.246,4.651c0.276,0.018,0.547-0.079,0.75-0.268 C15.884,31.508,16,31.244,16,30.967V28.955z"/>
    </symbol>
    <symbol id="i-eye-03" viewBox="0 0 32 32">
        <path d="M6.846,23.033l-3.553,3.553c-0.195,0.195-0.195,0.512,0,0.707l1.414,1.414c0.195,0.195,0.512,0.195,0.707,0 l4.152-4.152C11.469,25.421,13.616,26,16,26c8.557,0,14.185-7.322,15.631-9.435c0.233-0.341,0.233-0.789,0-1.13 c-0.837-1.223-3.082-4.185-6.477-6.468l3.553-3.553c0.195-0.195,0.195-0.512,0-0.707l-1.414-1.414c-0.195-0.195-0.512-0.195-0.707,0 l-4.152,4.152C20.531,6.579,18.384,6,16,6C7.443,6,1.815,13.322,0.369,15.435c-0.233,0.341-0.233,0.789,0,1.13 C1.206,17.788,3.451,20.75,6.846,23.033z M24,16c0,4.42-3.578,8-8,8c-1.667,0-3.214-0.511-4.496-1.383l2.934-2.934 C14.918,19.887,15.446,20,16,20c2.207,0,4-1.791,4-4c0-0.554-0.113-1.081-0.318-1.561l2.935-2.935C23.49,12.785,24,14.332,24,16z  M16,8c1.668,0,3.215,0.51,4.497,1.382l-2.935,2.935C17.081,12.113,16.554,12,16,12c-2.207,0-4,1.793-4,4 c0,0.554,0.113,1.082,0.317,1.562l-2.934,2.934C8.511,19.215,8,17.667,8,16C8,11.58,11.582,8,16,8z"/>
    </symbol>
    <symbol id="i-www-site-picture-text" viewBox="0 0 32 32">
        <path d="M28,0H4C1.791,0,0,1.791,0,4v24c0,2.209,1.791,4,4,4h24c2.209,0,4-1.791,4-4V4C32,1.791,30.209,0,28,0z  M28,28H4V8h24V28z M28,6H4V4h24V6z M26,12H16v-2h10V12z M26,16H16v-2h10V16z M26,20H6v-2h20V20z M26,24H6v-2h20V24z M6,15.5v-5 C6,10.224,6.224,10,6.5,10h7c0.276,0,0.5,0.224,0.5,0.5v5c0,0.276-0.224,0.5-0.5,0.5h-7C6.224,16,6,15.776,6,15.5z"/>
    </symbol>
    <symbol id="i-cloud-refresh" viewBox="0 0 32 32">
        <path d="M32,13c0,0.552-0.448,1-1,1h-2c-0.265,0-0.52-0.105-0.707-0.293C28.105,13.52,28,13.265,28,13 c0-2.758-2.242-5-5-5c-0.41,0-0.85,0.072-1.385,0.227l-1.566,0.455l-0.76-1.445C18.238,5.24,16.213,4,14,4 c-2.803,0-5.266,1.99-5.857,4.73L7.898,9.861l-1.102,0.352C5.123,10.748,4,12.27,4,14c0,2.205,1.795,4,4,4h5c0.552,0,1,0.448,1,1v2 c0,0.552-0.448,1-1,1H8c-4.412,0-8-3.588-8-8c0-3.098,1.779-5.857,4.525-7.178C5.875,2.811,9.697,0,14,0 c3.186,0,6.135,1.525,8.008,4.064C27.404,3.361,31.998,7.709,32,13z M23.467,31.982c0.138,0.009,0.274-0.039,0.375-0.134 S24,31.622,24,31.484V30.48c0-0.262-0.201-0.478-0.462-0.498C20.445,29.746,18,27.153,18,24c0-1.656,0.683-3.145,1.775-4.225 l1.713,1.713c0.086,0.086,0.215,0.111,0.327,0.065C21.927,21.506,22,21.397,22,21.276V16.5c0-0.276-0.224-0.5-0.5-0.5h-4.776 c-0.121,0-0.231,0.073-0.277,0.185c-0.046,0.112-0.021,0.241,0.065,0.327l1.857,1.857C16.916,19.81,16,21.788,16,24 C16,28.239,19.297,31.708,23.467,31.982z M24.533,16.017c-0.138-0.009-0.274,0.039-0.375,0.134S24,16.378,24,16.516v1.003 c0,0.262,0.201,0.478,0.462,0.498C27.555,18.254,30,20.847,30,24c0,1.656-0.682,3.145-1.775,4.225l-1.713-1.713 c-0.086-0.086-0.215-0.112-0.327-0.065C26.073,26.494,26,26.603,26,26.724V31.5c0,0.276,0.224,0.5,0.5,0.5h4.776 c0.121,0,0.231-0.073,0.277-0.185c0.046-0.112,0.021-0.241-0.065-0.327L29.63,29.63C31.084,28.19,32,26.212,32,24 C32,19.761,28.703,16.292,24.533,16.017z"/>
    </symbol>
    <symbol id="i-broken-chain" viewBox="0 0 32 32">
        <path d="M25.691,29.53l-4.876-8.627l8.627,4.876c0.136,0.077,0.228,0.213,0.249,0.368 c0.021,0.155-0.031,0.311-0.142,0.421l-3.07,3.07c-0.111,0.11-0.266,0.163-0.421,0.142C25.904,29.759,25.768,29.666,25.691,29.53z  M31.419,7.589c0.774,0.774,0.774,2.029,0,2.804l-8.411,8.411c-0.387,0.387-0.894,0.581-1.402,0.581s-1.015-0.194-1.402-0.581 l-7.009-7.009c-0.774-0.774-0.774-2.029,0-2.803l8.411-8.411C21.994,0.194,22.501,0,23.009,0c0.507,0,1.015,0.194,1.402,0.581 L31.419,7.589z M28.578,8.991l-5.57-5.57l-6.971,6.971l1.734,1.734l2.431-2.431c0.195-0.195,0.512-0.195,0.707,0l1.396,1.396 c0.195,0.195,0.195,0.512,0,0.707l-2.431,2.431l1.734,1.734L28.578,8.991z M5.971,2.426C5.816,2.405,5.66,2.458,5.55,2.568 l-3.07,3.07C2.369,5.748,2.317,5.904,2.338,6.059C2.359,6.214,2.451,6.35,2.587,6.427l8.627,4.876L6.338,2.676 C6.262,2.54,6.125,2.448,5.971,2.426z M0.581,24.411c-0.774-0.774-0.774-2.029,0-2.804l8.411-8.411 c0.387-0.387,0.894-0.581,1.402-0.581c0.507,0,1.015,0.194,1.402,0.581l7.009,7.009c0.774,0.774,0.774,2.029,0,2.804l-8.411,8.411 C10.006,31.806,9.499,32,8.991,32s-1.015-0.194-1.402-0.581L0.581,24.411z M3.422,23.009l5.57,5.57l6.971-6.971l-1.734-1.734 l-2.431,2.431c-0.195,0.195-0.512,0.195-0.707,0l-1.396-1.396c-0.195-0.195-0.195-0.512,0-0.707l2.431-2.431l-1.734-1.734 L3.422,23.009z"/>
    </symbol>
    <symbol id="i-monitor-arrow-down" viewBox="0 0 32 32">
        <path d="M32,4v16c0,2.209-1.791,4-4,4H18v4h7c0.552,0,1,0.448,1,1v2c0,0.552-0.448,1-1,1H7c-0.552,0-1-0.448-1-1v-2 c0-0.552,0.448-1,1-1h7v-4H4c-2.209,0-4-1.791-4-4V4c0-2.209,1.791-4,4-4h7c0.552,0,1,0.448,1,1v2c0,0.552-0.448,1-1,1H4v16h24V4h-7 c-0.552,0-1-0.448-1-1V1c0-0.552,0.448-1,1-1h7C30.209,0,32,1.791,32,4z M17,0h-2c-0.552,0-1,0.448-1,1v7H9.449 C9.206,8,8.987,8.146,8.894,8.37c-0.093,0.224-0.042,0.482,0.13,0.654l6.127,6.127c0.469,0.469,1.228,0.469,1.697,0l6.127-6.127 c0.172-0.172,0.223-0.43,0.13-0.654C23.013,8.146,22.794,8,22.551,8H18V1C18,0.448,17.552,0,17,0z"/>
    </symbol>
    <symbol id="i-eye-02" viewBox="0 0 32 32">
        <path d="M12,16c0-2.207,1.793-4,4-4c2.207,0,4,1.793,4,4c0,2.209-1.793,4-4,4C13.793,20,12,18.209,12,16z  M0.81,17.186c-0.52-0.705-0.519-1.667,0.001-2.373C2.763,12.164,8.149,6,16,6c7.852,0,13.238,6.166,15.19,8.814 c0.52,0.705,0.519,1.667-0.001,2.372C29.237,19.836,23.851,26,16,26C8.148,26,2.762,19.834,0.81,17.186z M8,16c0,4.42,3.582,8,8,8 c4.422,0,8-3.58,8-8c0-4.42-3.578-8-8-8C11.582,8,8,11.58,8,16z"/>
    </symbol>
    <symbol id="i-arrows-looping-06" viewBox="0 0 32 32">
        <path d="M31.147,7.36c0.201,0.151,0.32,0.388,0.32,0.64c0,0.252-0.119,0.489-0.32,0.64l-6.187,4.64 c-0.182,0.136-0.425,0.158-0.628,0.057C24.128,13.235,24,13.027,24,12.8V10H6v8H2V8c0-1.105,0.895-2,2-2h20V3.2 c0-0.227,0.128-0.435,0.332-0.537s0.447-0.08,0.628,0.057L31.147,7.36z M7.04,31.28c0.182,0.136,0.425,0.158,0.628,0.057 C7.872,31.235,8,31.027,8,30.8V28h20c1.105,0,2-0.895,2-2V16h-4v8H8v-2.8c0-0.227-0.128-0.435-0.332-0.537s-0.447-0.08-0.628,0.057 l-6.187,4.64c-0.201,0.151-0.32,0.388-0.32,0.64c0,0.252,0.119,0.489,0.32,0.64L7.04,31.28z"/>
    </symbol>
    <symbol id="i-circle-plus-02" viewBox="0 0 32 32">
        <path d="M16,0C7.164,0,0,7.164,0,16s7.164,16,16,16c8.838,0,16-7.164,16-16S24.838,0,16,0z M26,17 c0,0.552-0.448,1-1,1h-7v7c0,0.552-0.448,1-1,1h-2c-0.552,0-1-0.448-1-1v-7H7c-0.552,0-1-0.448-1-1v-2c0-0.552,0.448-1,1-1h7V7 c0-0.552,0.448-1,1-1h2c0.552,0,1,0.448,1,1v7h7c0.552,0,1,0.448,1,1V17z"/>
    </symbol>
    <symbol id="i-circle-cross-mark-02" viewBox="0 0 32 32">
        <path d="M4.686,4.686c-6.248,6.248-6.248,16.379,0,22.627s16.379,6.248,22.627,0c6.249-6.249,6.248-16.379,0-22.627 S10.936-1.563,4.686,4.686z M23.778,9.636c0.391,0.391,0.391,1.024,0,1.414L18.828,16l4.95,4.95c0.391,0.391,0.391,1.024,0,1.414 l-1.414,1.414c-0.391,0.391-1.024,0.391-1.414,0L16,18.828l-4.95,4.95c-0.391,0.391-1.024,0.391-1.414,0l-1.414-1.414 c-0.391-0.391-0.391-1.024,0-1.414l4.95-4.95l-4.95-4.95c-0.391-0.391-0.391-1.024,0-1.414l1.414-1.414 c0.391-0.391,1.024-0.391,1.414,0l4.95,4.95l4.95-4.95c0.391-0.391,1.024-0.391,1.414,0L23.778,9.636z"/>
    </symbol>
    <symbol id="i-circle-question-mark-02" viewBox="0 0 32 32">
        <path d="M16,0C7.163,0,0,7.163,0,16s7.163,16,16,16s16-7.163,16-16S24.837,0,16,0z M18,23.4 c0,0.331-0.269,0.6-0.6,0.6h-1.8c-0.331,0-0.6-0.269-0.6-0.6v-1.8c0-0.331,0.269-0.6,0.6-0.6h1.8c0.331,0,0.6,0.269,0.6,0.6V23.4z  M20.998,12.417c0.001,1.907-0.826,3.017-1.801,3.877C18.393,17.003,18,17.438,18,18v0.4c0,0.331-0.269,0.6-0.6,0.6h-1.789 c-0.161,0-0.315-0.065-0.428-0.18c-0.113-0.115-0.175-0.27-0.172-0.431l0.007-0.396c0-1.743,1.196-2.797,2.157-3.643 c0.903-0.796,0.968-1.217,0.968-1.988c0.001-0.044,0.005-0.766-0.476-1.221c-0.329-0.312-0.867-0.47-1.599-0.47 c-1.926,0-2.06,1.684-2.083,2.297l0.007,0.422c0.003,0.161-0.06,0.316-0.172,0.43C13.705,13.935,13.551,14,13.39,14H11.6 c-0.331,0-0.6-0.269-0.6-0.6v-0.725C11.044,11.036,12.159,8,16.066,8c1.931,0,3.064,0.708,3.674,1.303 C21.041,10.57,21.006,12.232,20.998,12.417z"/>
    </symbol>
    <symbol id="i-circle-check-mark-02" viewBox="0 0 32 32">
        <path d="M16,0C7.164,0,0,7.164,0,16s7.164,16,16,16c8.838,0,16-7.164,16-16S24.838,0,16,0z M24.486,12.466 l-9.902,9.899c-0.188,0.188-0.442,0.293-0.707,0.293c-0.265,0-0.52-0.105-0.707-0.293l-5.655-5.657c-0.39-0.391-0.39-1.024,0-1.414 l1.414-1.414c0.391-0.391,1.024-0.391,1.414,0l3.535,3.535l7.777-7.778c0.39-0.39,1.023-0.391,1.414,0l1.415,1.414 c0.188,0.188,0.293,0.442,0.293,0.707C24.779,12.024,24.673,12.278,24.486,12.466z"/>
    </symbol>
    <symbol id="i-circle-minus-02" viewBox="0 0 32 32">
        <path d="M16,0C7.164,0,0,7.164,0,16s7.164,16,16,16c8.838,0,16-7.164,16-16S24.838,0,16,0z M26,17 c0,0.552-0.448,1-1,1H7c-0.552,0-1-0.448-1-1v-2c0-0.552,0.448-1,1-1h18c0.552,0,1,0.448,1,1V17z"/>
    </symbol>
    <symbol id="i-circle-info-02" viewBox="0 0 32 32">
        <path d="M16,0C7.162,0,0,7.164,0,16s7.162,16,16,16c8.838,0,16-7.164,16-16S24.838,0,16,0z M14,9 c0-0.552,0.448-1,1-1h2c0.552,0,1,0.448,1,1v2c0,0.552-0.448,1-1,1h-2c-0.552,0-1-0.448-1-1V9z M20,23c0,0.552-0.448,1-1,1h-6 c-0.552,0-1-0.448-1-1s0.448-1,1-1h1v-6h-1c-0.552,0-1-0.448-1-1s0.448-1,1-1h4c0.552,0,1,0.448,1,1v7h1C19.552,22,20,22.448,20,23z "/>
    </symbol>
    <symbol id="i-circle-exclamation-mark-02" viewBox="0 0 32 32">
        <path d="M16,0C7.164,0,0,7.164,0,16s7.164,16,16,16c8.838,0,16-7.164,16-16S24.838,0,16,0z M18,24h-4v-4h4V24z  M18,18h-4V8h4V18z"/>
    </symbol>
    <symbol id="i-pencil-02" viewBox="0 0 32 32">
        <path d="M2.301,21.212l8.485,8.485l-9.278,1.98c-0.331,0.071-0.676-0.031-0.916-0.271 c-0.24-0.24-0.342-0.584-0.271-0.916L2.301,21.212z M24.223,0.707c-0.391-0.39-1.024-0.391-1.414,0l-3.536,3.534l8.484,8.486 l3.536-3.536c0.391-0.391,0.391-1.024,0-1.414L24.223,0.707z M17.858,5.656L3.716,19.798l8.485,8.485l14.142-14.142l-1.414-1.414 L12.201,25.455l-1.414-1.414l12.728-12.728l-2.828-2.828L7.958,21.212l-1.414-1.414L19.272,7.07L17.858,5.656z"/>
    </symbol>
    <symbol id="i-magnifying-glass" viewBox="0 0 32 32">
        <path d="M11,4c3.86,0,7,3.14,7,7s-3.14,7-7,7s-7-3.14-7-7S7.14,4,11,4 M11,0C4.925,0,0,4.925,0,11s4.925,11,11,11 s11-4.925,11-11S17.075,0,11,0L11,0z M18.729,21.539l7.754,7.753c0.188,0.188,0.442,0.293,0.707,0.293 c0.265,0,0.52-0.105,0.707-0.293l1.397-1.398c0.39-0.391,0.39-1.023,0-1.414l-7.753-7.753L18.729,21.539z"/>
    </symbol>
    <symbol id="i-circle-exclamation-mark" viewBox="0 0 32 32">
        <path d="M14,8.5C14,8.224,14.224,8,14.5,8h3C17.776,8,18,8.224,18,8.5v9c0,0.276-0.224,0.5-0.5,0.5h-3 c-0.276,0-0.5-0.224-0.5-0.5V8.5z M14,23.5c0,0.276,0.224,0.5,0.5,0.5h3c0.276,0,0.5-0.224,0.5-0.5v-3c0-0.276-0.224-0.5-0.5-0.5h-3 c-0.276,0-0.5,0.224-0.5,0.5V23.5z M16,28c6.617,0,12-5.383,12-12S22.617,4,16,4S4,9.383,4,16S9.383,28,16,28 M16,0 c8.838,0,16,7.164,16,16s-7.162,16-16,16C7.164,32,0,24.836,0,16S7.164,0,16,0"/>
    </symbol>
    <symbol id="i-cross-mark" viewBox="0 0 32 32">
        <path d="M18.828,16l6.364,6.364c0.391,0.391,0.391,1.024,0,1.414l-1.414,1.414c-0.391,0.391-1.024,0.391-1.414,0 L16,18.828l-6.364,6.364c-0.391,0.391-1.024,0.391-1.414,0l-1.414-1.414c-0.391-0.391-0.391-1.024,0-1.414L13.172,16L6.808,9.636 c-0.391-0.391-0.391-1.024,0-1.414l1.414-1.414c0.391-0.391,1.024-0.391,1.414,0L16,13.172l6.364-6.364 c0.391-0.391,1.024-0.391,1.414,0l1.414,1.414c0.391,0.391,0.391,1.024,0,1.414L18.828,16z"/>
    </symbol>
    <symbol id="i-plus" viewBox="0 0 32 32">
        <path d="M18,14h9c0.552,0,1,0.448,1,1v2c0,0.552-0.448,1-1,1h-9v9c0,0.552-0.448,1-1,1h-2c-0.552,0-1-0.448-1-1v-9H5 c-0.552,0-1-0.448-1-1v-2c0-0.552,0.448-1,1-1h9V5c0-0.552,0.448-1,1-1h2c0.552,0,1,0.448,1,1V14z"/>
    </symbol>
    <symbol id="i-circle-question-mark" viewBox="0 0 32 32">
        <path d="M19.74,9.303c1.3,1.267,1.266,2.929,1.258,3.114c0.001,1.907-0.826,3.017-1.801,3.877 C18.393,17.003,18,17.438,18,18v0.4c0,0.331-0.269,0.6-0.6,0.6h-1.789c-0.161,0-0.315-0.065-0.428-0.18 c-0.113-0.115-0.175-0.27-0.172-0.431l0.007-0.396c0-1.743,1.196-2.797,2.157-3.643c0.903-0.796,0.968-1.217,0.968-1.988 c0.001-0.044,0.005-0.766-0.476-1.221c-0.329-0.312-0.867-0.47-1.599-0.47c-1.926,0-2.06,1.684-2.083,2.297l0.007,0.422 c0.003,0.161-0.06,0.316-0.172,0.43C13.705,13.935,13.551,14,13.39,14H11.6c-0.331,0-0.6-0.269-0.6-0.6v-0.725 C11.044,11.036,12.159,8,16.066,8C17.997,8,19.13,8.708,19.74,9.303z M17.4,21h-1.8c-0.331,0-0.6,0.269-0.6,0.6v1.8 c0,0.331,0.269,0.6,0.6,0.6h1.8c0.331,0,0.6-0.269,0.6-0.6v-1.8C18,21.269,17.731,21,17.4,21z M16,4C9.383,4,4,9.383,4,16 s5.383,12,12,12s12-5.383,12-12S22.617,4,16,4 M16,0c8.837,0,16,7.163,16,16s-7.163,16-16,16S0,24.837,0,16S7.163,0,16,0L16,0z"/>
    </symbol>
    <symbol id="i-arrow-up-07" viewBox="0 0 32 32">
        <path d="M2.565,23.678l-1.414-1.414c-0.391-0.391-0.391-1.024,0-1.414L15.293,6.707c0.391-0.391,1.024-0.391,1.414,0 l14.142,14.142c0.391,0.391,0.391,1.024,0,1.414l-1.414,1.414c-0.391,0.391-1.024,0.391-1.414,0L16,11.657L3.979,23.678 C3.589,24.068,2.956,24.068,2.565,23.678z"/>
    </symbol>
    <symbol id="i-arrow-down-07" viewBox="0 0 32 32">
        <path d="M29.435,8.322l1.414,1.414c0.391,0.391,0.391,1.024,0,1.414L16.707,25.293c-0.391,0.391-1.024,0.391-1.414,0 L1.151,11.151c-0.391-0.391-0.391-1.024,0-1.414l1.414-1.414c0.391-0.391,1.024-0.391,1.414,0L16,20.343L28.021,8.322 C28.411,7.932,29.044,7.932,29.435,8.322z"/>
    </symbol>
    <symbol id="i-arrow-right-07" viewBox="0 0 32 32">
        <path d="M8.322,2.565l1.414-1.414c0.391-0.391,1.024-0.391,1.414,0l14.142,14.142c0.391,0.391,0.391,1.024,0,1.414 L11.151,30.849c-0.391,0.391-1.024,0.391-1.414,0l-1.414-1.414c-0.391-0.391-0.391-1.024,0-1.414L20.343,16L8.322,3.979 C7.932,3.589,7.932,2.956,8.322,2.565z"/>
    </symbol>
    <symbol id="i-arrow-left-07" viewBox="0 0 32 32">
        <path d="M23.678,2.565l-1.414-1.414c-0.391-0.391-1.024-0.391-1.414,0L6.707,15.293 c-0.391,0.391-0.391,1.024,0,1.414l14.142,14.142c0.391,0.391,1.024,0.391,1.414,0l1.414-1.414c0.391-0.391,0.391-1.024,0-1.414 L11.657,16L23.678,3.979C24.068,3.589,24.068,2.956,23.678,2.565z"/>
    </symbol>
    <symbol id="i-arrow-up-06" viewBox="0 0 32 32">
        <path d="M30,24v6c0,1.105-0.895,2-2,2H2c-1.105,0-2-0.895-2-2v-6c0-1.105,0.895-2,2-2s2,0.895,2,2v4h22v-4 c0-1.105,0.895-2,2-2S30,22.895,30,24z M13,24h4c0.552,0,1-0.448,1-1V10h5.931c0.331,0,0.627-0.203,0.746-0.512 c0.119-0.308,0.037-0.658-0.208-0.88l-8.931-8.119c-0.305-0.277-0.771-0.277-1.076,0L5.531,8.608C5.287,8.83,5.204,9.18,5.323,9.488 C5.442,9.797,5.739,10,6.069,10H12v13C12,23.552,12.448,24,13,24z"/>
    </symbol>
    <symbol id="i-arrow-down-06" viewBox="0 0 32 32">
        <path d="M30,25v6c0,0.552-0.448,1-1,1H1c-0.552,0-1-0.448-1-1v-6c0-0.552,0.448-1,1-1h2c0.552,0,1,0.448,1,1v3h22v-3 c0-0.552,0.448-1,1-1h2C29.552,24,30,24.448,30,25z M17,0l-4,0c-0.552,0-1,0.448-1,1v13H6.069c-0.331,0-0.627,0.203-0.746,0.512 c-0.119,0.308-0.037,0.658,0.208,0.88l8.931,8.119c0.305,0.277,0.771,0.277,1.076,0l8.931-8.119c0.245-0.222,0.327-0.572,0.208-0.88 C24.558,14.203,24.261,14,23.931,14H18V1C18,0.448,17.552,0,17,0z"/>
    </symbol>
    <symbol id="i-trashcan" viewBox="0 0 32 32">
        <path d="M26,8h-4V6c0-2.211-1.787-4-4-4h-6C9.789,2,8,3.787,8,6.002V8H4c-1.105,0-2,0.895-2,2v2h2v16 c0,2.213,1.789,4,4,4h14c2.211,0,4-1.787,4-4V12h2v-2C28,8.895,27.105,8,26,8z M10,28H8V14h2V28z M16,28h-2V14h2V28z M18,8h-6V6.002 V6h6V8z M22,28h-2V14h2V28z"/>
    </symbol>
    <symbol id="i-four-squares" viewBox="0 0 32 32">
        <path d="M10,4v6H4V4H10 M12,0H2C0.895,0,0,0.895,0,2v10c0,1.105,0.895,2,2,2h10c1.105,0,2-0.895,2-2V2 C14,0.895,13.105,0,12,0L12,0z M28,4v6h-6V4H28 M30,0H20c-1.105,0-2,0.895-2,2v10c0,1.105,0.895,2,2,2h10c1.105,0,2-0.895,2-2V2 C32,0.895,31.105,0,30,0L30,0z M10,22v6H4v-6H10 M12,18H2c-1.105,0-2,0.895-2,2v10c0,1.105,0.895,2,2,2h10c1.105,0,2-0.895,2-2V20 C14,18.895,13.105,18,12,18L12,18z M28,22v6h-6v-6H28 M30,18H20c-1.105,0-2,0.895-2,2v10c0,1.105,0.895,2,2,2h10 c1.105,0,2-0.895,2-2V20C32,18.895,31.105,18,30,18L30,18z"/>
    </symbol>
    <symbol id="i-chain" viewBox="0 0 32 32">
        <path d="M24.411,0.581C24.023,0.194,23.516,0,23.009,0c-0.507,0-1.015,0.194-1.402,0.581l-8.411,8.411 c-0.774,0.774-0.774,2.029,0,2.803l2.453,2.453l-1.402,1.402l-2.453-2.453c-0.387-0.387-0.894-0.581-1.402-0.581 c-0.507,0-1.015,0.194-1.402,0.581l-8.411,8.411c-0.774,0.774-0.774,2.029,0,2.804l7.009,7.009C7.977,31.806,8.484,32,8.991,32 s1.015-0.194,1.402-0.581l8.411-8.411c0.774-0.774,0.774-2.029,0-2.804l-2.453-2.453l1.402-1.402l2.453,2.453 c0.387,0.387,0.894,0.581,1.402,0.581s1.015-0.194,1.402-0.581l8.411-8.411c0.774-0.774,0.774-2.029,0-2.804L24.411,0.581z  M15.963,21.607l-6.971,6.971l-5.57-5.57l6.971-6.971l1.734,1.734l-2.431,2.431c-0.195,0.195-0.195,0.512,0,0.707l1.396,1.396 c0.195,0.195,0.512,0.195,0.707,0l2.431-2.431L15.963,21.607z M21.607,15.963l-1.734-1.734l2.431-2.431 c0.195-0.195,0.195-0.512,0-0.707l-1.396-1.396c-0.195-0.195-0.512-0.195-0.707,0l-2.431,2.431l-1.734-1.734l6.971-6.971l5.57,5.57 L21.607,15.963z"/>
    </symbol>
    <symbol id="i-gear" viewBox="0 0 32 32">
        <path d="M31.164,13.861l-3.486-0.581c-0.302-1.298-0.813-2.513-1.499-3.611l2.056-2.878 c0.284-0.398,0.239-0.942-0.106-1.288l-1.63-1.632c-0.346-0.346-0.891-0.391-1.289-0.107L22.332,5.82 c-1.099-0.685-2.313-1.197-3.612-1.499l-0.581-3.486C18.059,0.353,17.642,0,17.153,0h-2.306c-0.489,0-0.906,0.353-0.986,0.836 L13.28,4.321c-1.299,0.302-2.515,0.814-3.613,1.5L6.789,3.764C6.391,3.48,5.846,3.525,5.5,3.871L3.87,5.503 c-0.345,0.346-0.39,0.89-0.106,1.288l2.056,2.878c-0.685,1.099-1.196,2.313-1.498,3.611l-3.485,0.58C0.354,13.941,0,14.359,0,14.848 l0.001,2.306c0,0.489,0.354,0.906,0.836,0.986l3.484,0.581c0.302,1.299,0.813,2.514,1.499,3.612l-2.056,2.879 c-0.284,0.398-0.239,0.943,0.107,1.289l1.631,1.629c0.346,0.345,0.89,0.39,1.288,0.106l2.878-2.055 c1.099,0.685,2.313,1.197,3.612,1.499l0.581,3.486C13.941,31.646,14.358,32,14.847,32h2.306c0.489,0,0.906-0.354,0.986-0.836 l0.581-3.486c1.3-0.302,2.515-0.814,3.613-1.5l2.878,2.057c0.398,0.284,0.943,0.239,1.289-0.107l1.63-1.63 c0.346-0.346,0.391-0.891,0.107-1.288l-2.057-2.88c0.686-1.099,1.197-2.313,1.499-3.611l3.486-0.581 C31.647,18.059,32,17.642,32,17.153v-2.306C32,14.358,31.647,13.941,31.164,13.861z M16,24c-4.418,0-8-3.582-8-8 c0-4.418,3.582-8,8-8s8,3.582,8,8C24,20.418,20.418,24,16,24z"/>
    </symbol>
    <symbol id="i-list" viewBox="0 0 32 32">
        <path d="M0,5c0-0.552,0.448-1,1-1h2c0.552,0,1,0.448,1,1v2c0,0.552-0.448,1-1,1H1C0.448,8,0,7.552,0,7V5z M9,4 C8.448,4,8,4.448,8,5v2c0,0.552,0.448,1,1,1h20c0.552,0,1-0.448,1-1V5c0-0.552-0.448-1-1-1H9z M0,15c0,0.552,0.448,1,1,1h2 c0.552,0,1-0.448,1-1v-2c0-0.552-0.448-1-1-1H1c-0.552,0-1,0.448-1,1V15z M8,15c0,0.552,0.448,1,1,1h20c0.552,0,1-0.448,1-1v-2 c0-0.552-0.448-1-1-1H9c-0.552,0-1,0.448-1,1V15z M0,23c0,0.552,0.448,1,1,1h2c0.552,0,1-0.448,1-1v-2c0-0.552-0.448-1-1-1H1 c-0.552,0-1,0.448-1,1V23z M8,23c0,0.552,0.448,1,1,1h20c0.552,0,1-0.448,1-1v-2c0-0.552-0.448-1-1-1H9c-0.552,0-1,0.448-1,1V23z  M0,31c0,0.552,0.448,1,1,1h2c0.552,0,1-0.448,1-1v-2c0-0.552-0.448-1-1-1H1c-0.552,0-1,0.448-1,1V31z M8,31c0,0.552,0.448,1,1,1h20 c0.552,0,1-0.448,1-1v-2c0-0.552-0.448-1-1-1H9c-0.552,0-1,0.448-1,1V31z"/>
    </symbol>
    <symbol id="i-pencil" viewBox="0 0 32 32">
        <path d="M1.509,31.678c-0.331,0.071-0.676-0.031-0.916-0.271s-0.342-0.584-0.271-0.916l1.98-9.279l8.485,8.485 L1.509,31.678z M24.223,0.707c-0.39-0.39-1.024-0.391-1.414,0l-3.536,3.534l8.484,8.486l3.536-3.536 c0.391-0.391,0.391-1.024,0-1.414L24.223,0.707z M17.858,5.656L3.716,19.798l8.485,8.485l14.142-14.142"/>
    </symbol>
    <symbol id="i-circle-cross-mark" viewBox="0 0 32 32">
        <path d="M4.686,4.686c-6.248,6.248-6.248,16.379,0,22.627s16.379,6.248,22.627,0c6.249-6.249,6.248-16.379,0-22.627 S10.936-1.563,4.686,4.686z M24.485,24.485c-4.679,4.679-12.291,4.679-16.971,0s-4.679-12.291,0-16.971s12.291-4.679,16.971,0 S29.165,19.806,24.485,24.485z M16,13.171l3.536-3.536c0.391-0.391,1.024-0.391,1.414,0l1.414,1.414 c0.391,0.391,0.391,1.024,0,1.414L18.829,16l3.536,3.536c0.391,0.391,0.391,1.024,0,1.414l-1.414,1.414 c-0.391,0.391-1.024,0.391-1.414,0L16,18.828l-3.536,3.536c-0.391,0.391-1.024,0.391-1.414,0L9.636,20.95 c-0.391-0.391-0.391-1.024,0-1.414L13.172,16l-3.536-3.536c-0.391-0.391-0.391-1.024,0-1.414l1.414-1.414 c0.391-0.391,1.024-0.391,1.414,0L16,13.171z"/>
    </symbol>
    <symbol id="i-circle-plus" viewBox="0 0 32 32">
        <path d="M16,0C7.164,0,0,7.164,0,16s7.164,16,16,16c8.838,0,16-7.164,16-16S24.838,0,16,0z M16,28 C9.383,28,4,22.617,4,16S9.383,4,16,4s12,5.383,12,12S22.617,28,16,28z M18,14h5c0.552,0,1,0.448,1,1v2c0,0.552-0.448,1-1,1h-5v5 c0,0.552-0.448,1-1,1h-2c-0.552,0-1-0.448-1-1v-5H9c-0.552,0-1-0.448-1-1v-2c0-0.552,0.448-1,1-1h5V9c0-0.552,0.448-1,1-1h2 c0.552,0,1,0.448,1,1V14z"/>
    </symbol>
    <symbol id="i-circle-minus" viewBox="0 0 32 32">
        <path d="M16,0C7.164,0,0,7.164,0,16s7.164,16,16,16c8.838,0,16-7.164,16-16S24.838,0,16,0z M16,28 C9.383,28,4,22.617,4,16S9.383,4,16,4s12,5.383,12,12S22.617,28,16,28z M23,14c0.552,0,1,0.448,1,1v2c0,0.552-0.448,1-1,1H9 c-0.552,0-1-0.448-1-1v-2c0-0.552,0.448-1,1-1H23z"/>
    </symbol>
    <symbol id="i-circle-info" viewBox="0 0 32 32">
        <path d="M18,22h1.5c0.276,0,0.5,0.224,0.5,0.5v1c0,0.276-0.224,0.5-0.5,0.5h-7c-0.276,0-0.5-0.224-0.5-0.5v-1 c0-0.276,0.224-0.5,0.5-0.5H14v-6h-1.5c-0.276,0-0.5-0.224-0.5-0.5v-1c0-0.276,0.224-0.5,0.5-0.5h5c0.276,0,0.5,0.224,0.5,0.5V22z  M18,8.5C18,8.224,17.776,8,17.5,8h-3C14.224,8,14,8.224,14,8.5v3c0,0.276,0.224,0.5,0.5,0.5h3c0.276,0,0.5-0.224,0.5-0.5V8.5z  M16,28c6.617,0,12-5.383,12-12S22.617,4,16,4S4,9.383,4,16S9.383,28,16,28 M16,0c8.838,0,16,7.164,16,16s-7.162,16-16,16 S0,24.836,0,16S7.162,0,16,0"/>
    </symbol>
    <symbol id="i-folder-blank-open" viewBox="0 0 32 32">
        <path d="M30.758,14.861C30.384,14.322,29.77,14,29.114,14H26v-4c0-1.105-0.895-2-2-2h-8l-3.707-3.707 C12.105,4.105,11.851,4,11.586,4H2C0.896,4,0,4.895,0,6v22c0,1.104,0.896,2,2,2h22.614c0.834,0,1.58-0.517,1.873-1.298l4.5-12 C31.217,16.088,31.131,15.4,30.758,14.861z M4,8h6.343l3.707,3.707C14.238,11.895,14.492,12,14.757,12H22v2H7.386 c-0.834,0-1.58,0.517-1.873,1.298L4,19.333V8z M23.228,26H5.772l3-8h17.456L23.228,26z"/>
    </symbol>
</svg>
